<svg width="26" height="26" viewBox="0 0 26 26" fill="none" xmlns="http://www.w3.org/2000/svg">
<mask id="mask0_239_2" style="mask-type:luminance" maskUnits="userSpaceOnUse" x="1" y="1" width="24" height="24">
<path d="M25 1H1V25H25V1Z" fill="white"/>
</mask>
<g mask="url(#mask0_239_2)">
<path d="M3 13.5879V12.4159C3.01499 12.3608 3.02603 12.3046 3.03302 12.2479C3.11953 10.8673 3.50943 9.52268 4.17499 8.30994C4.87984 6.96465 5.88572 5.80014 7.11426 4.90723C8.34279 4.01431 9.76084 3.41703 11.258 3.16187C11.639 3.08887 12.028 3.05591 12.414 3.00391H13.586C13.6355 3.01804 13.686 3.02871 13.737 3.03589C15.1192 3.11569 16.466 3.50451 17.678 4.17383C19.2315 4.97578 20.5421 6.17872 21.474 7.65784C22.4059 9.13696 22.9252 10.8384 22.978 12.5858C23.1041 14.5244 22.6179 16.4536 21.588 18.1008C20.7535 19.5427 19.5651 20.7481 18.1353 21.603C16.7054 22.4579 15.0812 22.9342 13.416 22.9868C11.6372 23.0974 9.86398 22.6952 8.30701 21.8279C6.9601 21.1243 5.79418 20.1187 4.90027 18.8898C4.00636 17.6609 3.40867 16.242 3.15399 14.7439C3.08499 14.3619 3.05 13.9739 3 13.5879ZM15.241 17.8348C14.941 17.8988 14.672 17.9789 14.397 18.0109C13.619 18.0999 13.278 17.7558 13.419 16.9918C13.529 16.3988 13.693 15.8159 13.839 15.2299C14.1016 14.434 14.2881 13.6151 14.396 12.7839C14.4328 12.4487 14.3594 12.1106 14.1869 11.8208C14.0144 11.531 13.7522 11.3053 13.44 11.1779C13.0072 11.0097 12.5377 10.959 12.079 11.0309C11.4518 11.1432 10.8406 11.3316 10.259 11.5919C10.22 11.6069 10.166 11.6358 10.159 11.6688C10.103 11.8758 10.059 12.0869 10.001 12.3229L10.371 12.2039C10.6867 12.0961 11.0253 12.0747 11.352 12.1418C11.615 12.1978 11.773 12.3269 11.786 12.5969C11.8093 12.9131 11.7898 13.2309 11.728 13.5419C11.571 14.2259 11.373 14.8989 11.182 15.5739C10.9858 16.1734 10.8636 16.7946 10.818 17.4238C10.7967 17.7446 10.8779 18.064 11.0499 18.3356C11.222 18.6072 11.4759 18.8171 11.775 18.9349C12.283 19.1503 12.8466 19.1968 13.383 19.0679C13.9331 18.915 14.4751 18.7344 15.007 18.5269C15.0274 18.5192 15.046 18.5073 15.0615 18.4919C15.077 18.4766 15.0891 18.4582 15.097 18.4379C15.15 18.2379 15.197 18.0379 15.241 17.8379V17.8348ZM13.907 6.83484C13.7217 6.8615 13.5381 6.89864 13.357 6.94592C13.1505 7.0064 12.9609 7.11416 12.8033 7.26074C12.6458 7.40732 12.5245 7.58865 12.4493 7.79028C12.374 7.99191 12.3469 8.20827 12.3699 8.42224C12.393 8.63621 12.4656 8.84184 12.582 9.02283C12.7495 9.27781 12.9891 9.47712 13.2704 9.59521C13.5516 9.71331 13.8617 9.74493 14.161 9.68591C14.5354 9.63434 14.8746 9.43771 15.1054 9.13843C15.3362 8.83914 15.4403 8.46106 15.395 8.08582C15.3334 7.73568 15.1507 7.4184 14.879 7.18921C14.6072 6.96001 14.2635 6.83356 13.908 6.83191L13.907 6.83484Z" fill="#0071CD"/>
</g>
</svg>
