<svg width="26" height="26" viewBox="0 0 26 26" fill="none" xmlns="http://www.w3.org/2000/svg">
<mask id="mask0_239_8" style="mask-type:luminance" maskUnits="userSpaceOnUse" x="1" y="1" width="24" height="24">
<path d="M25 1H1V25H25V1Z" fill="white"/>
</mask>
<g mask="url(#mask0_239_8)">
<mask id="mask1_239_8" style="mask-type:luminance" maskUnits="userSpaceOnUse" x="1" y="1" width="24" height="24">
<path d="M25 1H1V25H25V1Z" fill="white"/>
</mask>
<g mask="url(#mask1_239_8)">
<path fill-rule="evenodd" clip-rule="evenodd" d="M8.51378 20.8288H2.78278C2.67727 20.8251 2.57208 20.8426 2.4735 20.8804C2.37491 20.9182 2.28494 20.9754 2.20897 21.0487C2.13299 21.1221 2.07256 21.2099 2.03129 21.3071C1.99002 21.4043 1.96875 21.5088 1.96875 21.6143C1.96875 21.7199 1.99002 21.8244 2.03129 21.9216C2.07256 22.0188 2.13299 22.1066 2.20897 22.18C2.28494 22.2533 2.37491 22.3105 2.4735 22.3483C2.57208 22.3861 2.67727 22.4036 2.78278 22.3998H19.2428C19.4463 22.3926 19.639 22.3067 19.7804 22.1601C19.9217 22.0136 20.0008 21.818 20.0008 21.6143C20.0008 21.4107 19.9217 21.2151 19.7804 21.0686C19.639 20.922 19.4463 20.8361 19.2428 20.8288H11.5758L23.4348 7.34685C23.8239 6.90367 24.0239 6.32564 23.9917 5.73674C23.9595 5.14785 23.6979 4.59502 23.2628 4.19685C23.043 3.99588 22.7856 3.8404 22.5055 3.73935C22.2253 3.63831 21.928 3.5937 21.6305 3.60811C21.3331 3.62252 21.0414 3.69566 20.7723 3.8233C20.5033 3.95095 20.2621 4.13058 20.0628 4.35185L10.0758 15.4629L6.14178 11.5278C5.91601 11.3021 5.64662 11.1247 5.35003 11.0064C5.05345 10.8882 4.73589 10.8316 4.41672 10.8401C4.09755 10.8487 3.78346 10.9221 3.49361 11.056C3.20375 11.1899 2.9442 11.3814 2.73078 11.6188L2.59778 11.7669C2.19596 12.2145 1.98093 12.7991 1.99693 13.4005C2.01293 14.0018 2.25873 14.5742 2.68378 14.9998L8.51378 20.8288Z" fill="#0071CD"/>
</g>
</g>
</svg>
