<svg width="26" height="26" viewBox="0 0 26 26" fill="none" xmlns="http://www.w3.org/2000/svg">
<mask id="mask0_239_18" style="mask-type:luminance" maskUnits="userSpaceOnUse" x="1" y="1" width="24" height="24">
<path d="M25 1H1V25H25V1Z" fill="white"/>
</mask>
<g mask="url(#mask0_239_18)">
<path d="M16.665 7.823C17.4403 7.78888 18.2114 7.95496 18.9039 8.30525C19.5964 8.65554 20.1871 9.17823 20.619 9.823L20.519 9.887C20.4437 9.93459 20.371 9.98599 20.301 10.041C20.2243 10.101 20.1283 10.18 20.013 10.278C19.8937 10.38 19.7805 10.4888 19.674 10.604C19.5633 10.7233 19.4483 10.8567 19.329 11.004C19.2043 11.1614 19.0951 11.3306 19.003 11.509C18.9016 11.7035 18.8117 11.9039 18.734 12.109C18.6483 12.3393 18.584 12.5769 18.542 12.819C18.4949 13.083 18.4714 13.3508 18.472 13.619C18.4666 14.1499 18.5588 14.6774 18.744 15.175C18.8894 15.5894 19.1034 15.9765 19.377 16.32C19.6124 16.5983 19.8762 16.8513 20.164 17.075C20.3689 17.2422 20.5873 17.392 20.817 17.523C20.9173 17.5785 21.022 17.6256 21.13 17.664C21.0973 17.8167 21.0525 17.9665 20.996 18.112C20.9147 18.342 20.761 18.694 20.535 19.168C20.3133 19.6334 20.0545 20.0802 19.761 20.504C19.4943 20.888 19.2727 21.195 19.096 21.425C18.8856 21.6903 18.6592 21.9424 18.418 22.18C18.1775 22.4293 17.8935 22.6326 17.58 22.78C17.2921 22.9084 16.9802 22.9739 16.665 22.972C16.1185 22.9477 15.5828 22.8116 15.091 22.572C14.5585 22.3214 13.9794 22.1852 13.391 22.172C12.7778 22.1877 12.1743 22.3278 11.617 22.584C11.1303 22.8215 10.6023 22.9628 10.062 23C9.76885 23.0012 9.4788 22.9402 9.21099 22.821C8.90631 22.6759 8.63076 22.4763 8.39799 22.232C8.14984 21.9878 7.91612 21.7294 7.69799 21.458C7.50599 21.2147 7.25632 20.8813 6.94899 20.458C6.30219 19.506 5.79693 18.4651 5.44899 17.368C5.06466 16.2278 4.8658 15.0332 4.85999 13.83C4.84858 12.9577 4.99599 12.0906 5.29499 11.271C5.54416 10.569 5.93645 9.92643 6.44699 9.384C6.90246 8.91023 7.44593 8.5298 8.04699 8.264C8.625 8.00708 9.25046 7.87422 9.88299 7.874C10.5045 7.90772 11.1146 8.05516 11.683 8.309C12.141 8.52438 12.6282 8.67096 13.129 8.744C13.4326 8.71985 13.7296 8.64197 14.006 8.514C14.3853 8.36067 14.814 8.207 15.292 8.053C15.7348 7.90515 16.1981 7.82754 16.665 7.823ZM15.948 6.184C15.5997 6.6061 15.1684 6.95224 14.681 7.201C14.2386 7.44974 13.7423 7.58703 13.235 7.601C13.1453 7.60414 13.0555 7.59844 12.967 7.584C12.9379 7.46555 12.9234 7.34397 12.924 7.222C12.9269 6.72158 13.0335 6.22719 13.237 5.77C13.4315 5.31128 13.6971 4.88608 14.024 4.51C14.4022 4.06789 14.8658 3.70667 15.387 3.448C15.8742 3.18398 16.4137 3.03099 16.967 3C16.9938 3.13162 17.0065 3.2657 17.005 3.4C16.9975 4.42466 16.6224 5.41258 15.948 6.184Z" fill="black"/>
</g>
</svg>
