<svg width="22" height="22" viewBox="0 0 22 22" fill="none" xmlns="http://www.w3.org/2000/svg">
<mask id="mask0_239_24" style="mask-type:luminance" maskUnits="userSpaceOnUse" x="1" y="1" width="20" height="20">
<path d="M21 1H1V21H21V1Z" fill="white"/>
</mask>
<g mask="url(#mask0_239_24)">
<path d="M12.3449 18.5969L11.4519 19.4859C11.3627 19.5756 11.2565 19.6467 11.1397 19.6953C11.0228 19.7439 10.8975 19.7689 10.7709 19.7689C10.6444 19.7689 10.5191 19.7439 10.4022 19.6953C10.2854 19.6467 10.1792 19.5756 10.0899 19.4859L2.28294 11.6819C2.19327 11.5926 2.12211 11.4865 2.07355 11.3696C2.025 11.2528 2 11.1275 2 11.0009C2 10.8744 2.025 10.7491 2.07355 10.6322C2.12211 10.5153 2.19327 10.4092 2.28294 10.3199L10.0909 2.51291C10.1802 2.42338 10.2863 2.35235 10.4031 2.30388C10.5198 2.25542 10.645 2.23047 10.7714 2.23047C10.8979 2.23047 11.0231 2.25542 11.1398 2.30388C11.2566 2.35235 11.3627 2.42338 11.4519 2.51291L12.3439 3.40491C12.4344 3.49579 12.5058 3.60378 12.554 3.72257C12.6022 3.84136 12.6263 3.96857 12.6248 4.09677C12.6233 4.22496 12.5963 4.35158 12.5453 4.46922C12.4944 4.58685 12.4205 4.69315 12.3279 4.78191L7.49194 9.39391H19.0319C19.1588 9.39312 19.2845 9.41742 19.4019 9.46541C19.5193 9.5134 19.6261 9.58414 19.7161 9.67354C19.806 9.76295 19.8774 9.86927 19.9261 9.98638C19.9749 10.1035 19.9999 10.2291 19.9999 10.3559V11.6419C20.0002 11.7686 19.9755 11.8941 19.9271 12.0111C19.8787 12.1282 19.8078 12.2346 19.7182 12.3242C19.6286 12.4137 19.5222 12.4847 19.4052 12.5331C19.2881 12.5814 19.1626 12.6062 19.0359 12.6059H7.48894L12.3249 17.2169C12.419 17.3049 12.4944 17.411 12.5466 17.5289C12.5987 17.6467 12.6265 17.7738 12.6284 17.9027C12.6303 18.0315 12.6061 18.1594 12.5574 18.2787C12.5087 18.398 12.4365 18.5062 12.3449 18.5969Z" fill="#0071CD"/>
</g>
</svg>
