<svg width="22" height="22" viewBox="0 0 22 22" fill="none" xmlns="http://www.w3.org/2000/svg">
<mask id="mask0_239_30" style="mask-type:luminance" maskUnits="userSpaceOnUse" x="1" y="1" width="20" height="20">
<path d="M21 1H1V21H21V1Z" fill="white"/>
</mask>
<g mask="url(#mask0_239_30)">
<path d="M8.56547 3.38003C8.33028 3.14916 8.01581 3.01682 7.68631 3.01004C7.35681 3.00326 7.03715 3.12256 6.79266 3.34356C6.54817 3.56456 6.3973 3.87057 6.37087 4.19908C6.34445 4.52759 6.44446 4.85379 6.65047 5.11103L6.73847 5.21103L12.5285 11.0001L6.73747 16.7921C6.51123 17.0186 6.37708 17.321 6.36101 17.6408C6.34494 17.9606 6.44808 18.275 6.65047 18.5231L6.73947 18.6231C6.96587 18.8485 7.2677 18.9821 7.58678 18.9982C7.90586 19.0142 8.21958 18.9116 8.46747 18.7101L8.56747 18.6211L15.2755 11.9111C15.5001 11.6845 15.633 11.3829 15.6487 11.0643C15.6644 10.7457 15.5617 10.4325 15.3605 10.185L15.2725 10.085L8.56547 3.38003Z" fill="black"/>
</g>
</svg>
