<svg width="26" height="26" viewBox="0 0 26 26" fill="none" xmlns="http://www.w3.org/2000/svg">
<mask id="mask0_239_36" style="mask-type:luminance" maskUnits="userSpaceOnUse" x="1" y="1" width="24" height="24">
<path d="M25 1H1V25H25V1Z" fill="white"/>
</mask>
<g mask="url(#mask0_239_36)">
<path d="M22.9936 13.001V20.601C23.0181 20.9211 22.9733 21.2428 22.8623 21.544C22.7514 21.8453 22.5768 22.1192 22.3504 22.3469C22.1241 22.5746 21.8514 22.7509 21.5508 22.8638C21.2502 22.9767 20.9289 23.0235 20.6086 23.001H5.3856C5.06813 23.0226 4.7497 22.9761 4.45164 22.8647C4.15358 22.7532 3.88277 22.5794 3.65733 22.3548C3.4319 22.1302 3.25702 21.86 3.14445 21.5624C3.03188 21.2648 2.9842 20.9466 3.00459 20.629V5.37198C2.98447 5.05656 3.03162 4.74049 3.14293 4.44468C3.25424 4.14886 3.42716 3.88008 3.65022 3.65616C3.87329 3.43225 4.14142 3.25828 4.43681 3.14585C4.7322 3.03341 5.0481 2.98508 5.3636 3.004H20.6376C20.9509 2.98564 21.2645 3.03365 21.558 3.14493C21.8514 3.25621 22.118 3.42827 22.3403 3.64975C22.5627 3.87124 22.7357 4.13714 22.8481 4.43015C22.9605 4.72316 23.0098 5.03665 22.9926 5.35001C22.9979 7.90001 22.9983 10.4504 22.9936 13.001ZM7.45561 9.65201H18.5326V7.46598H7.45561V9.65201ZM7.45561 14.087H18.5366V11.907H7.45759L7.45561 14.087ZM7.45561 18.538H15.2066V16.351H7.45561V18.538Z" fill="#0071CD"/>
</g>
</svg>
