<svg width="26" height="26" viewBox="0 0 26 26" fill="none" xmlns="http://www.w3.org/2000/svg">
<mask id="mask0_239_42" style="mask-type:luminance" maskUnits="userSpaceOnUse" x="1" y="1" width="24" height="24">
<path d="M25 1H1V25H25V1Z" fill="white"/>
</mask>
<g mask="url(#mask0_239_42)">
<mask id="mask1_239_42" style="mask-type:luminance" maskUnits="userSpaceOnUse" x="1" y="1" width="24" height="24">
<path d="M25 1H1V25H25V1Z" fill="white"/>
</mask>
<g mask="url(#mask1_239_42)">
<path d="M16.0118 6.03617C15.7917 6.0361 15.5788 6.11486 15.4118 6.25817L15.4008 6.25017L8.11775 13.5142C7.73267 13.8661 7.42869 14.2976 7.22684 14.7786C7.02499 15.2597 6.93011 15.7788 6.94875 16.3002C6.93989 16.724 7.01842 17.145 7.17946 17.5371C7.3405 17.9292 7.58058 18.284 7.88475 18.5792C8.5706 19.1908 9.46646 19.5133 10.3847 19.4792H10.4007C10.9209 19.4786 11.4357 19.3741 11.9149 19.1716C12.394 18.9691 12.8278 18.6728 13.1908 18.3002L21.6488 9.84417C22.1549 9.38864 22.5619 8.83393 22.8447 8.21449C23.1274 7.59504 23.2798 6.92408 23.2924 6.24327C23.3049 5.56247 23.1774 4.88634 22.9177 4.25688C22.658 3.62742 22.2717 3.05807 21.7828 2.58417C20.7641 1.56725 19.3836 0.996094 17.9443 0.996094C16.5049 0.996094 15.1244 1.56725 14.1058 2.58417L3.51175 13.1802C2.23381 14.4842 1.52212 16.2399 1.53134 18.0657C1.54056 19.8915 2.26995 21.6399 3.561 22.9309C4.85205 24.222 6.60045 24.9514 8.42625 24.9606C10.252 24.9698 12.0077 24.2581 13.3118 22.9802L24.2738 11.9702C24.431 11.795 24.5173 11.5675 24.5158 11.3322C24.5163 11.1513 24.4639 10.9741 24.365 10.8226C24.2661 10.6712 24.125 10.5519 23.9592 10.4796C23.7933 10.4073 23.61 10.3851 23.4317 10.4158C23.2534 10.4465 23.0879 10.5286 22.9558 10.6522L11.9858 21.6522C11.5184 22.1318 10.9604 22.5139 10.3442 22.7761C9.72798 23.0384 9.06582 23.1757 8.39613 23.1801C7.72644 23.1844 7.06256 23.0558 6.44299 22.8015C5.82343 22.5473 5.26052 22.1725 4.78694 21.699C4.31335 21.2255 3.93852 20.6626 3.68418 20.0431C3.42985 19.4236 3.30108 18.7597 3.30534 18.09C3.3096 17.4203 3.44681 16.7581 3.70901 16.1419C3.97121 15.5257 4.35318 14.9676 4.83275 14.5002L15.4258 3.90917C16.0942 3.24289 16.9995 2.86875 17.9433 2.86875C18.887 2.86875 19.7923 3.24289 20.4608 3.90917C20.7759 4.20233 21.0256 4.55876 21.1935 4.95512C21.3613 5.35148 21.4435 5.77883 21.4348 6.20917C21.3736 7.09405 20.9774 7.9223 20.3268 8.52517L11.8518 17.0002C11.6615 17.1908 11.4355 17.3419 11.1866 17.4449C10.9378 17.5478 10.6711 17.6006 10.4017 17.6002C10.2114 17.6245 10.0181 17.6096 9.83362 17.5566C9.64918 17.5036 9.47751 17.4134 9.32912 17.2917C9.18073 17.17 9.05875 17.0193 8.97065 16.8488C8.88255 16.6783 8.83018 16.4916 8.81675 16.3002C8.81663 15.7564 9.03245 15.2349 9.41675 14.8502L16.7238 7.56817L16.7158 7.56017C16.8311 7.42556 16.9054 7.26061 16.9297 7.08498C16.954 6.90934 16.9274 6.73042 16.8529 6.56952C16.7784 6.40862 16.6592 6.27253 16.5095 6.17744C16.3599 6.08235 16.1861 6.03227 16.0088 6.03317L16.0118 6.03617Z" fill="black"/>
</g>
</g>
</svg>
