<svg width="26" height="26" viewBox="0 0 26 26" fill="none" xmlns="http://www.w3.org/2000/svg">
<mask id="mask0_239_52" style="mask-type:luminance" maskUnits="userSpaceOnUse" x="1" y="1" width="24" height="24">
<path d="M25 1H1V25H25V1Z" fill="white"/>
</mask>
<g mask="url(#mask0_239_52)">
<mask id="mask1_239_52" style="mask-type:luminance" maskUnits="userSpaceOnUse" x="1" y="1" width="24" height="24">
<path d="M1 1H25V25H1V1Z" fill="white"/>
</mask>
<g mask="url(#mask1_239_52)">
<path d="M17.6156 13.257C16.6522 13.2574 15.7105 13.5434 14.9096 14.0789C14.1088 14.6144 13.4846 15.3753 13.1161 16.2655C12.7476 17.1557 12.6513 18.1351 12.8393 19.08C13.0274 20.0249 13.4914 20.8928 14.1726 21.574C14.8538 22.2553 15.7218 22.7192 16.6667 22.9073C17.6115 23.0953 18.591 22.999 19.4811 22.6305C20.3713 22.262 21.1322 21.6379 21.6677 20.837C22.2032 20.0361 22.4892 19.0944 22.4896 18.131C22.4886 16.8387 21.9747 15.5996 21.0609 14.6857C20.1471 13.7719 18.908 13.2581 17.6156 13.257ZM14.2846 18.131C14.2849 17.2472 14.6358 16.3996 15.2602 15.7742C15.8847 15.1487 16.7318 14.7966 17.6156 14.795C18.2316 14.7958 18.835 14.969 19.3576 15.295L14.7876 19.865C14.4617 19.3424 14.2885 18.739 14.2876 18.123L14.2846 18.131ZM17.6156 21.462C16.9997 21.4612 16.3962 21.288 15.8736 20.962L20.4436 16.392C20.7572 16.895 20.9301 17.4729 20.9445 18.0655C20.9589 18.6581 20.8142 19.2437 20.5255 19.7614C20.2367 20.279 19.8145 20.7098 19.3027 21.0089C18.791 21.308 18.2084 21.4645 17.6156 21.462ZM12.4876 12.744C11.524 12.744 10.5821 12.4583 9.78089 11.9229C8.97969 11.3876 8.35523 10.6267 7.98648 9.73644C7.61773 8.84619 7.52125 7.8666 7.70924 6.92152C7.89723 5.97645 8.36123 5.10834 9.04259 4.42698C9.72395 3.74562 10.5921 3.2816 11.5371 3.09362C12.4822 2.90563 13.4618 3.00211 14.3521 3.37086C15.2423 3.73961 16.0032 4.36407 16.5385 5.16526C17.0739 5.96646 17.3596 6.90841 17.3596 7.872C17.358 9.1633 16.8445 10.4013 15.9316 11.3146C15.0187 12.2278 13.7809 12.7419 12.4896 12.744H12.4876ZM11.2076 18.131C11.2049 19.3412 11.5503 20.5266 12.2026 21.546V22.231C12.2011 22.4345 12.1195 22.6292 11.9757 22.773C11.8318 22.9169 11.6371 22.9984 11.4336 23H6.33363C5.96343 22.9999 5.59688 22.9268 5.25492 22.785C4.91295 22.6432 4.60226 22.4355 4.34058 22.1736C4.07891 21.9118 3.87137 21.6009 3.72983 21.2589C3.58828 20.9168 3.51549 20.5502 3.51563 20.18C3.51563 18.6152 4.13723 17.1145 5.24369 16.0081C6.35016 14.9016 7.85085 14.28 9.41562 14.28H11.4666C11.6181 14.2797 11.7663 14.3245 11.8923 14.4085C12.0183 14.4925 12.1166 14.6121 12.1746 14.752C11.5407 15.7649 11.2056 16.9361 11.2076 18.131Z" fill="black"/>
</g>
</g>
</svg>
