<svg width="26" height="26" viewBox="0 0 26 26" fill="none" xmlns="http://www.w3.org/2000/svg">
<mask id="mask0_239_182" style="mask-type:luminance" maskUnits="userSpaceOnUse" x="1" y="1" width="24" height="24">
<path d="M25 1H1V25H25V1Z" fill="white"/>
</mask>
<g mask="url(#mask0_239_182)">
<path d="M17.999 22.9989C17.1015 22.9142 16.2196 22.7089 15.377 22.3888C13.46 21.653 11.6797 20.6015 10.11 19.2778C7.87309 17.4805 5.99787 15.2748 4.58396 12.7778C3.83627 11.4836 3.31478 10.0714 3.04196 8.60181C2.94416 8.17335 3.01888 7.72367 3.24996 7.34986C4.1412 5.88025 5.25743 4.5596 6.55796 3.43592C6.64296 3.36492 6.73795 3.30584 6.82795 3.23584C7.04639 3.06333 7.32151 2.97885 7.59913 2.99903C7.87675 3.0192 8.13674 3.14257 8.32795 3.34485C8.42114 3.4178 8.50274 3.50441 8.56996 3.60181C9.46392 4.81484 10.254 6.10115 10.932 7.4469C11.0581 7.72424 11.165 8.00989 11.252 8.30188C11.3097 8.46749 11.3216 8.64558 11.2864 8.81738C11.2512 8.98919 11.1702 9.14828 11.052 9.27783C10.802 9.54724 10.5387 9.80394 10.263 10.0469C10.0856 10.2135 9.90062 10.3712 9.70796 10.5199C9.65179 10.552 9.61048 10.6048 9.59291 10.6671C9.57533 10.7294 9.58289 10.7962 9.61396 10.8529C10.0687 12.1183 10.7976 13.2676 11.7484 14.2184C12.6993 15.1692 13.8485 15.8981 15.114 16.3529C15.1742 16.3849 15.2445 16.3924 15.3101 16.3738C15.3757 16.3551 15.4316 16.3117 15.466 16.2528C15.766 15.8828 16.089 15.5239 16.409 15.1669C16.5865 14.9297 16.8426 14.7634 17.1315 14.6976C17.4204 14.6319 17.7232 14.6709 17.986 14.8079C18.626 15.1079 19.272 15.4078 19.879 15.7638C20.702 16.2528 21.492 16.7979 22.293 17.3239C22.6243 17.536 22.8635 17.8652 22.963 18.2459C22.9979 18.3553 23.0088 18.471 22.995 18.5851C22.9812 18.6991 22.943 18.8089 22.883 18.9069C22.7556 19.1295 22.6101 19.3411 22.448 19.5398C21.3112 20.8297 19.972 21.9262 18.483 22.7859C18.3277 22.8683 18.1658 22.9375 17.999 22.9928V22.9989ZM7.48596 4.36084C7.42796 4.40684 7.40595 4.4229 7.38595 4.4419C6.30418 5.43353 5.3423 6.54836 4.51995 7.7638C4.4442 7.86841 4.39201 7.98828 4.36698 8.11499C4.34195 8.2417 4.34468 8.37225 4.37496 8.4978C4.61192 9.69806 5.03788 10.8531 5.63696 11.9198C7.4869 15.2809 10.2069 18.0825 13.512 20.0309C14.7973 20.8389 16.2315 21.3809 17.73 21.6249C17.8428 21.6375 17.9567 21.6125 18.054 21.5538C19.1999 20.8155 20.2566 19.9471 21.203 18.9658C21.345 18.8198 21.482 18.6658 21.626 18.5118C21.5787 18.4674 21.529 18.4256 21.477 18.3868C20.2533 17.4945 18.9474 16.7206 17.577 16.0758C17.5587 16.0638 17.5383 16.0555 17.5169 16.0514C17.4954 16.0473 17.4733 16.0475 17.452 16.0519C17.4104 16.0622 17.3745 16.0884 17.352 16.1249C17.152 16.3599 16.966 16.5998 16.752 16.8248C16.452 17.1478 16.136 17.4638 15.813 17.7668C15.7703 17.7983 15.7217 17.8207 15.6702 17.8328C15.6186 17.8448 15.5651 17.8462 15.513 17.8369C14.4637 17.6146 13.4682 17.1885 12.583 16.5829C10.5293 15.3006 9.00193 13.326 8.27696 11.0159C8.02096 10.2099 7.97695 10.3748 8.60195 9.74085C8.97595 9.36085 9.40195 9.02789 9.80195 8.68189C9.82986 8.66629 9.85408 8.64484 9.87293 8.61902C9.89179 8.5932 9.90486 8.56356 9.91122 8.53223C9.91758 8.50089 9.91709 8.46851 9.9098 8.43738C9.90251 8.40625 9.88857 8.37706 9.86895 8.35181C9.32295 7.39381 8.79595 6.4249 8.24195 5.4729C8.02695 5.0879 7.74996 4.73787 7.48796 4.35987L7.48596 4.36084Z" fill="white"/>
</g>
</svg>
