<svg width="26" height="26" viewBox="0 0 26 26" fill="none" xmlns="http://www.w3.org/2000/svg">
<mask id="mask0_239_163" style="mask-type:luminance" maskUnits="userSpaceOnUse" x="1" y="1" width="24" height="24">
<path d="M25 1H1V25H25V1Z" fill="white"/>
</mask>
<g mask="url(#mask0_239_163)">
<mask id="mask1_239_163" style="mask-type:luminance" maskUnits="userSpaceOnUse" x="1" y="1" width="24" height="24">
<path d="M25 1H1V25H25V1Z" fill="white"/>
</mask>
<g mask="url(#mask1_239_163)">
<path d="M20 5H19.492L17.308 2.168C17.0265 1.80581 16.6663 1.51242 16.2547 1.31005C15.843 1.10769 15.3907 1.00166 14.932 1H11.068C10.6093 1.00166 10.157 1.10769 9.74533 1.31005C9.33368 1.51242 8.97347 1.80581 8.692 2.168L6.508 5H6C4.67441 5.00159 3.40356 5.52888 2.46622 6.46622C1.52888 7.40356 1.00159 8.67441 1 10V20C1.00159 21.3256 1.52888 22.5964 2.46622 23.5338C3.40356 24.4711 4.67441 24.9984 6 25H20C21.3256 24.9984 22.5964 24.4711 23.5338 23.5338C24.4711 22.5964 24.9984 21.3256 25 20V10C24.9984 8.67441 24.4711 7.40356 23.5338 6.46622C22.5964 5.52888 21.3256 5.00159 20 5ZM10.276 3.39C10.3697 3.26905 10.4897 3.17106 10.6269 3.10348C10.7642 3.0359 10.915 3.00051 11.068 3H14.932C15.085 3.00066 15.2357 3.03611 15.373 3.10368C15.5102 3.17125 15.6302 3.26916 15.724 3.39L16.966 5H9.034L10.276 3.39ZM23 20C23 20.7956 22.6839 21.5587 22.1213 22.1213C21.5587 22.6839 20.7956 23 20 23H6C5.20435 23 4.44129 22.6839 3.87868 22.1213C3.31607 21.5587 3 20.7956 3 20V10C3 9.20435 3.31607 8.44129 3.87868 7.87868C4.44129 7.31607 5.20435 7 6 7H20C20.7956 7 21.5587 7.31607 22.1213 7.87868C22.6839 8.44129 23 9.20435 23 10V20Z" fill="white"/>
<path d="M13 9C11.8133 9 10.6533 9.35189 9.66658 10.0112C8.67989 10.6705 7.91085 11.6075 7.45673 12.7039C7.0026 13.8003 6.88378 15.0067 7.11529 16.1705C7.3468 17.3344 7.91825 18.4035 8.75736 19.2426C9.59648 20.0818 10.6656 20.6532 11.8295 20.8847C12.9933 21.1162 14.1997 20.9974 15.2961 20.5433C16.3925 20.0892 17.3295 19.3201 17.9888 18.3334C18.6481 17.3467 19 16.1867 19 15C19 13.4087 18.3679 11.8826 17.2426 10.7574C16.1174 9.63214 14.5913 9 13 9ZM13 19C12.2089 19 11.4355 18.7654 10.7777 18.3259C10.1199 17.8864 9.60723 17.2616 9.30448 16.5307C9.00173 15.7998 8.92252 14.9956 9.07686 14.2196C9.2312 13.4437 9.61217 12.731 10.1716 12.1716C10.731 11.6122 11.4437 11.2312 12.2196 11.0769C12.9956 10.9225 13.7998 11.0017 14.5307 11.3045C15.2616 11.6072 15.8864 12.1199 16.3259 12.7777C16.7654 13.4355 17 14.2089 17 15C17 16.0609 16.5786 17.0783 15.8284 17.8284C15.0783 18.5786 14.0609 19 13 19Z" fill="white"/>
</g>
</g>
</svg>
