<svg width="26" height="26" viewBox="0 0 26 26" fill="none" xmlns="http://www.w3.org/2000/svg">
<mask id="mask0_239_68" style="mask-type:luminance" maskUnits="userSpaceOnUse" x="1" y="1" width="24" height="24">
<path d="M25 1H1V25H25V1Z" fill="white"/>
</mask>
<g mask="url(#mask0_239_68)">
<path d="M10.5 10.5H4.667C4.22497 10.4997 3.80111 10.324 3.48855 10.0114C3.17598 9.69889 3.00026 9.27503 3 8.833V7.167C3.00106 6.06217 3.44042 5.00289 4.22166 4.22166C5.00289 3.44042 6.06217 3.00106 7.167 3H10.5C10.942 3.00026 11.3659 3.17598 11.6785 3.48855C11.991 3.80111 12.1667 4.22497 12.167 4.667V8.833C12.1667 9.27503 11.991 9.69889 11.6785 10.0114C11.3659 10.324 10.942 10.4997 10.5 10.5ZM18.833 23H15.5C15.058 22.9997 14.6341 22.824 14.3215 22.5115C14.009 22.1989 13.8333 21.775 13.833 21.333V17.167C13.8333 16.725 14.009 16.3011 14.3215 15.9885C14.6341 15.676 15.058 15.5003 15.5 15.5H21.333C21.775 15.5003 22.1989 15.676 22.5115 15.9885C22.824 16.3011 22.9997 16.725 23 17.167V18.834C22.9987 19.9387 22.5592 20.9977 21.778 21.7787C20.9968 22.5597 19.9377 22.9989 18.833 23ZM21.333 13.833H15.5C15.058 13.8327 14.6341 13.657 14.3215 13.3445C14.009 13.0319 13.8333 12.608 13.833 12.166V4.666C13.8335 4.22414 14.0094 3.80054 14.3219 3.48819C14.6344 3.17584 15.0581 3.00026 15.5 3H18.833C19.9378 3.00106 20.9971 3.44042 21.7783 4.22166C22.5596 5.00289 22.9989 6.06217 23 7.167V12.167C22.9995 12.6089 22.8236 13.0325 22.5111 13.3448C22.1986 13.6572 21.7749 13.8327 21.333 13.833ZM10.5 23H7.167C6.06217 22.9989 5.00289 22.5596 4.22166 21.7783C3.44042 20.9971 3.00106 19.9378 3 18.833V13.833C3.00053 13.3911 3.17636 12.9675 3.4889 12.6552C3.80144 12.3428 4.22514 12.1673 4.667 12.167H10.5C10.942 12.1673 11.3659 12.343 11.6785 12.6555C11.991 12.9681 12.1667 13.392 12.167 13.834V21.334C12.1665 21.7759 11.9906 22.1995 11.6781 22.5118C11.3656 22.8242 10.9419 22.9997 10.5 23Z" fill="black"/>
</g>
</svg>
