<svg width="26" height="26" viewBox="0 0 26 26" fill="none" xmlns="http://www.w3.org/2000/svg">
<mask id="mask0_239_174" style="mask-type:luminance" maskUnits="userSpaceOnUse" x="1" y="1" width="24" height="24">
<path d="M25 1H1V25H25V1Z" fill="white"/>
</mask>
<g mask="url(#mask0_239_174)">
<path d="M7.08934 9.62699C7.29934 10.227 7.48033 10.827 7.72533 11.414C8.49292 13.2882 9.57518 15.0174 10.9253 16.527C11.0943 16.713 11.2684 16.98 11.4764 17.019C11.6674 17.055 11.9094 16.836 12.1254 16.719C12.4914 16.525 12.8534 16.319 13.2184 16.128C13.3501 16.044 13.4978 15.9886 13.6522 15.9651C13.8066 15.9417 13.9642 15.9507 14.1149 15.9917C14.2655 16.0328 14.4059 16.105 14.5271 16.2035C14.6482 16.3021 14.7475 16.4249 14.8183 16.564C15.3323 17.4373 15.8424 18.3133 16.3484 19.1919C16.4362 19.3277 16.4931 19.4813 16.5148 19.6416C16.5366 19.8019 16.5227 19.9651 16.4742 20.1194C16.4257 20.2737 16.3437 20.4154 16.2341 20.5345C16.1246 20.6535 15.9902 20.7469 15.8404 20.808C14.8457 21.284 13.8477 21.7527 12.8464 22.214C12.731 22.2534 12.6057 22.2534 12.4903 22.214C11.6288 21.9252 10.8307 21.4736 10.1393 20.8839C8.72537 19.7071 7.4984 18.3224 6.50035 16.777C5.1409 14.8067 4.10703 12.6305 3.43834 10.3319C3.09362 9.21561 2.95404 8.04602 3.02635 6.87992C3.03935 6.72692 3.06633 6.58001 3.07933 6.42301C3.09029 6.26809 3.13989 6.11829 3.22356 5.98746C3.30723 5.85663 3.42231 5.74891 3.55834 5.67398C4.37834 5.14598 5.17537 4.58092 5.98137 4.03092C6.11517 3.91718 6.2736 3.83623 6.44414 3.79434C6.61468 3.75246 6.79259 3.75089 6.96385 3.78971C7.13512 3.82852 7.29502 3.90666 7.43083 4.01798C7.56665 4.12929 7.6747 4.27064 7.74639 4.43094C8.23639 5.27027 8.72506 6.10998 9.21239 6.94998C9.30638 7.08205 9.3704 7.233 9.40001 7.39237C9.42962 7.55174 9.42405 7.7157 9.38378 7.87271C9.3435 8.02973 9.26947 8.17611 9.1668 8.30155C9.06412 8.42699 8.93531 8.52839 8.78935 8.59891C8.25035 8.92891 7.70838 9.25394 7.16838 9.58194C7.15811 9.59072 7.149 9.60084 7.14134 9.61197L7.08934 9.62699Z" fill="#0071CD"/>
<path d="M11.4908 15.8003C9.99768 14.1408 8.85543 12.1965 8.13281 10.0844L9.56885 9.20532L13.0048 11.5223L14.5728 12.5793C14.6781 12.6819 14.8193 12.7393 14.9663 12.7393C15.1133 12.7393 15.2546 12.6819 15.3599 12.5793L22.7468 7.59729C22.8138 7.55229 22.8829 7.50831 22.9799 7.44531C22.9889 7.56831 23.0018 7.65536 23.0018 7.74536V16.7454C23.0149 16.8683 23.0003 16.9926 22.9591 17.1091C22.918 17.2257 22.8512 17.3316 22.7639 17.4191C22.6766 17.5066 22.5709 17.5735 22.4545 17.6149C22.338 17.6563 22.2138 17.6711 22.0908 17.6583H16.6378C16.5832 17.6623 16.5286 17.6493 16.4817 17.621C16.4348 17.5927 16.3978 17.5506 16.3759 17.5004C16.0992 17.0184 15.8182 16.5383 15.5328 16.0603C15.395 15.8022 15.2059 15.575 14.9772 15.3926C14.7484 15.2102 14.4848 15.0764 14.2025 14.9994C13.9202 14.9224 13.6251 14.904 13.3354 14.9451C13.0458 14.9861 12.7676 15.0859 12.5178 15.2383L11.4908 15.8003Z" fill="#0071CD"/>
<path d="M10.1138 8.33118C10.2934 7.83023 10.2862 7.28129 10.0938 6.78516H22.0598C21.9938 6.83716 21.9488 6.87618 21.9008 6.90918C19.6488 8.45385 17.3978 9.99917 15.1478 11.5452C15.0982 11.5913 15.033 11.6168 14.9653 11.6168C14.8976 11.6168 14.8324 11.5913 14.7828 11.5452C13.2782 10.5045 11.7701 9.46816 10.2588 8.43616C10.2138 8.40516 10.1718 8.37118 10.1138 8.33618V8.33118Z" fill="#0071CD"/>
</g>
</svg>
