<svg width="26" height="26" viewBox="0 0 26 26" fill="none" xmlns="http://www.w3.org/2000/svg">
<mask id="mask0_239_99" style="mask-type:luminance" maskUnits="userSpaceOnUse" x="1" y="1" width="24" height="24">
<path d="M25 1H1V25H25V1Z" fill="white"/>
</mask>
<g mask="url(#mask0_239_99)">
<path d="M13.1355 2.98047C13.2857 3.04384 13.4103 3.15591 13.4892 3.29865C13.5681 3.44138 13.5968 3.60649 13.5705 3.76746C13.5505 4.10546 13.5705 4.44445 13.5655 4.78345C13.5713 4.86399 13.5604 4.9449 13.5335 5.02106C13.5067 5.09721 13.4644 5.16703 13.4094 5.22614C13.3544 5.28524 13.2877 5.33233 13.2137 5.36456C13.1397 5.39679 13.0597 5.41345 12.979 5.41345C12.8982 5.41345 12.8183 5.39679 12.7442 5.36456C12.6702 5.33233 12.6036 5.28524 12.5485 5.22614C12.4935 5.16703 12.4513 5.09721 12.4244 5.02106C12.3975 4.9449 12.3867 4.86399 12.3924 4.78345C12.3924 4.44445 12.4074 4.10546 12.3924 3.76746C12.366 3.60648 12.3946 3.4413 12.4735 3.29852C12.5524 3.15574 12.6771 3.0437 12.8275 2.98047H13.1355Z" fill="#0071CD"/>
<path d="M2.97656 12.8275C3.03979 12.6771 3.15178 12.5523 3.29456 12.4734C3.43733 12.3944 3.60257 12.366 3.76355 12.3924C4.10055 12.4124 4.44054 12.3924 4.77954 12.3974C4.86009 12.3917 4.94094 12.4026 5.01709 12.4294C5.09324 12.4563 5.16306 12.4985 5.22217 12.5536C5.28127 12.6086 5.32849 12.6752 5.36072 12.7492C5.39295 12.8233 5.40955 12.9032 5.40955 12.984C5.40955 13.0647 5.39295 13.1446 5.36072 13.2186C5.32849 13.2926 5.28127 13.3593 5.22217 13.4143C5.16306 13.4693 5.09324 13.5116 5.01709 13.5384C4.94094 13.5653 4.86009 13.5762 4.77954 13.5704C4.44054 13.5704 4.10155 13.5554 3.76355 13.5754C3.60259 13.6017 3.43754 13.5731 3.2948 13.4942C3.15206 13.4153 3.03994 13.2908 2.97656 13.1405V12.8275Z" fill="#0071CD"/>
<path d="M22.9797 13.1356C22.9165 13.286 22.8045 13.4107 22.6617 13.4896C22.519 13.5685 22.3537 13.5971 22.1927 13.5706C21.8557 13.5506 21.5158 13.5706 21.1768 13.5656C21.0962 13.5714 21.0154 13.5605 20.9392 13.5336C20.8631 13.5068 20.7932 13.4645 20.7341 13.4095C20.675 13.3545 20.6279 13.2879 20.5957 13.2138C20.5635 13.1398 20.5469 13.0598 20.5469 12.9791C20.5469 12.8983 20.5635 12.8184 20.5957 12.7443C20.6279 12.6703 20.675 12.6037 20.7341 12.5487C20.7932 12.4936 20.8631 12.4514 20.9392 12.4245C21.0154 12.3977 21.0962 12.3868 21.1768 12.3925C21.5158 12.3925 21.8547 12.4075 22.1927 12.3925C22.3537 12.3659 22.519 12.3944 22.6619 12.4733C22.8047 12.5523 22.9167 12.6771 22.9797 12.8276V13.1356Z" fill="#0071CD"/>
<path d="M12.8275 22.9797C12.6771 22.9165 12.5523 22.8045 12.4734 22.6617C12.3944 22.519 12.366 22.3537 12.3924 22.1927C12.4124 21.8547 12.3924 21.5158 12.3974 21.1768C12.3917 21.0962 12.4026 21.0154 12.4294 20.9392C12.4563 20.8631 12.4985 20.7932 12.5536 20.7341C12.6086 20.675 12.6752 20.6279 12.7492 20.5957C12.8233 20.5635 12.9032 20.5469 12.984 20.5469C13.0647 20.5469 13.1446 20.5635 13.2186 20.5957C13.2926 20.6279 13.3593 20.675 13.4143 20.7341C13.4693 20.7932 13.5116 20.8631 13.5384 20.9392C13.5653 21.0154 13.5762 21.0962 13.5704 21.1768C13.5704 21.5158 13.5554 21.8547 13.5754 22.1927C13.6015 22.3537 13.5729 22.5188 13.494 22.6615C13.4151 22.8042 13.2906 22.9162 13.1405 22.9797H12.8275Z" fill="#0071CD"/>
<path d="M6.77344 12.9742C6.77483 11.7483 7.13968 10.5503 7.82178 9.5316C8.50389 8.51294 9.47257 7.7194 10.6056 7.25121C11.7386 6.78302 12.985 6.66121 14.1873 6.90123C15.3895 7.14125 16.4936 7.73236 17.36 8.59972C18.2264 9.46708 18.8162 10.5718 19.0548 11.7743C19.2935 12.9768 19.1703 14.2231 18.7008 15.3556C18.2313 16.4881 17.4367 17.4559 16.4172 18.1368C15.3978 18.8178 14.1993 19.1813 12.9734 19.1813C12.1586 19.1813 11.3519 19.0206 10.5992 18.7086C9.84657 18.3966 9.16273 17.9394 8.58692 17.3629C8.0111 16.7864 7.55458 16.1021 7.24341 15.3491C6.93224 14.5961 6.77252 13.789 6.77344 12.9742ZM13.5735 7.99327V17.9663C14.7949 17.8224 15.9211 17.2351 16.7383 16.3159C17.5555 15.3968 18.0068 14.2096 18.0068 12.9797C18.0068 11.7498 17.5555 10.5627 16.7383 9.64354C15.9211 8.72439 14.7949 8.1372 13.5735 7.99327Z" fill="#0071CD"/>
<path d="M7.83151 7.18971C7.8347 7.30772 7.80472 7.42431 7.74497 7.52613C7.68522 7.62796 7.59808 7.71098 7.4935 7.76576C7.39322 7.82281 7.27716 7.84585 7.16269 7.83143C7.04822 7.81701 6.94149 7.76594 6.85849 7.6858C6.52982 7.38047 6.21246 7.06311 5.90646 6.73377C5.81114 6.62315 5.761 6.48067 5.76596 6.33473C5.77093 6.18878 5.83069 6.05006 5.93332 5.94618C6.03595 5.84229 6.17392 5.7808 6.31979 5.77406C6.46567 5.76731 6.60877 5.81583 6.72055 5.9098C7.05455 6.2188 7.37454 6.54372 7.68454 6.87672C7.75134 6.97172 7.80106 7.07763 7.83151 7.18971Z" fill="#0071CD"/>
<path d="M20.187 6.44706C20.136 6.57015 20.0688 6.68584 19.987 6.79106C19.72 7.08406 19.433 7.35903 19.148 7.63603C19.094 7.69366 19.0288 7.73978 18.9565 7.77165C18.8842 7.80352 18.8062 7.82045 18.7272 7.82145C18.6483 7.82246 18.5699 7.80752 18.4968 7.77751C18.4237 7.7475 18.3574 7.70313 18.302 7.64689C18.2465 7.59066 18.2029 7.52371 18.1739 7.45024C18.1449 7.37677 18.131 7.29826 18.133 7.21928C18.1351 7.14031 18.153 7.06251 18.1859 6.99064C18.2187 6.91878 18.2656 6.85434 18.3239 6.80107C18.6059 6.51307 18.891 6.22609 19.181 5.94609C19.2624 5.86014 19.3688 5.80183 19.4851 5.77958C19.6013 5.75733 19.7215 5.77224 19.8289 5.82206C19.9459 5.87647 20.0431 5.96576 20.1073 6.07768C20.1714 6.1896 20.1992 6.31866 20.187 6.44706Z" fill="#0071CD"/>
<path d="M6.41888 20.1923C6.30234 20.1988 6.18636 20.172 6.0844 20.1152C5.98245 20.0583 5.89864 19.9738 5.84283 19.8713C5.78279 19.7723 5.75663 19.6564 5.76836 19.5413C5.78009 19.4262 5.82914 19.318 5.90789 19.2332C6.21656 18.8999 6.53819 18.5776 6.87286 18.2663C6.98267 18.1752 7.12216 18.1279 7.2647 18.1332C7.40724 18.1386 7.54286 18.1962 7.64556 18.2952C7.74826 18.3942 7.81089 18.5275 7.82146 18.6697C7.83204 18.812 7.78974 18.9531 7.70281 19.0662C7.38781 19.4112 7.04979 19.7383 6.70879 20.0583C6.62118 20.1204 6.52295 20.1658 6.41888 20.1923Z" fill="#0071CD"/>
<path d="M18.7415 18.0977C18.8774 18.1502 19.006 18.2198 19.1244 18.3047C19.4304 18.5867 19.7245 18.8847 20.0105 19.1847C20.0686 19.2382 20.1153 19.3031 20.1477 19.3751C20.1802 19.4472 20.1977 19.525 20.1993 19.604C20.2008 19.683 20.1863 19.7616 20.1568 19.8348C20.1272 19.9081 20.0831 19.9747 20.0271 20.0305C19.9712 20.0863 19.9046 20.1302 19.8312 20.1595C19.7579 20.1889 19.6794 20.2032 19.6004 20.2014C19.5214 20.1997 19.4435 20.182 19.3715 20.1494C19.2995 20.1168 19.2348 20.07 19.1814 20.0117C18.8814 19.7231 18.5872 19.4284 18.2985 19.1277C18.2128 19.0458 18.1553 18.939 18.1341 18.8224C18.1129 18.7058 18.1291 18.5855 18.1805 18.4788C18.2325 18.3718 18.3118 18.2802 18.4102 18.2134C18.5086 18.1465 18.6228 18.1066 18.7415 18.0977Z" fill="#0071CD"/>
</g>
</svg>
