<svg width="42" height="42" viewBox="0 0 42 42" fill="none" xmlns="http://www.w3.org/2000/svg">
<mask id="mask0_239_87" style="mask-type:luminance" maskUnits="userSpaceOnUse" x="1" y="1" width="40" height="40">
<path d="M41 1H1V41H41V1Z" fill="white"/>
</mask>
<g mask="url(#mask0_239_87)">
<path fill-rule="evenodd" clip-rule="evenodd" d="M21 5.211C19.0951 5.26102 17.2879 6.06508 15.9754 7.44658C14.6629 8.82807 13.9524 10.674 14 12.579C13.9524 14.484 14.6629 16.3299 15.9754 17.7114C17.2879 19.0929 19.0951 19.897 21 19.947C22.9049 19.897 24.7121 19.0929 26.0246 17.7114C27.3371 16.3299 28.0476 14.484 28 12.579C28.0476 10.674 27.3371 8.82807 26.0246 7.44658C24.7121 6.06508 22.9049 5.26102 21 5.211ZM10 12.579C10 6.184 14.925 1 21 1C27.075 1 32 6.184 32 12.579C32 18.974 27.075 24.158 21 24.158C14.925 24.158 10 18.974 10 12.579ZM21 32.579C17.8494 32.6236 14.7443 33.3387 11.8916 34.6768C9.03882 36.0148 6.50373 37.945 4.455 40.339C4.2805 40.539 4.0666 40.7009 3.82669 40.8145C3.58678 40.9282 3.32601 40.9911 3.06069 40.9993C2.79536 41.0076 2.53118 40.961 2.28467 40.8625C2.03816 40.7641 1.81461 40.6158 1.628 40.427C1.24035 40.0334 1.01625 39.5076 1.00085 38.9553C0.985448 38.4031 1.17989 37.8656 1.545 37.451C3.95824 34.6439 6.941 32.3823 10.2952 30.8163C13.6495 29.2503 17.2985 28.4157 21 28.368C24.7014 28.4156 28.3504 29.25 31.7046 30.8159C35.0589 32.3817 38.0417 34.6431 40.455 37.45C40.8201 37.8646 41.0146 38.4021 40.9992 38.9543C40.9838 39.5066 40.7597 40.0324 40.372 40.426C40.1854 40.6148 39.9618 40.7631 39.7153 40.8615C39.4688 40.96 39.2046 41.0066 38.9393 40.9983C38.674 40.9901 38.4132 40.9272 38.1733 40.8135C37.9334 40.6999 37.7195 40.538 37.545 40.338C35.4962 37.9442 32.961 36.0141 30.1083 34.6763C27.2555 33.3385 24.1506 32.6235 21 32.579Z" fill="#0071CD"/>
</g>
</svg>
