<svg width="26" height="26" viewBox="0 0 26 26" fill="none" xmlns="http://www.w3.org/2000/svg">
<mask id="mask0_239_80" style="mask-type:luminance" maskUnits="userSpaceOnUse" x="1" y="1" width="24" height="24">
<path d="M25 1H1V25H25V1Z" fill="white"/>
</mask>
<g mask="url(#mask0_239_80)">
<path d="M20.1188 16.2072V22.7582C20.1188 23.5432 19.7778 23.8882 18.9928 23.8882H7.88281C7.10281 23.8882 6.75781 23.5401 6.75781 22.7571V9.6571C6.75781 8.8701 7.09479 8.53616 7.88379 8.53516H18.9938C19.7808 8.53516 20.1188 8.87418 20.1188 9.65918V16.2112V16.2072ZM13.9028 16.1871V13.0641C13.9073 12.9637 13.9013 12.8633 13.8848 12.7642C13.871 12.6594 13.8187 12.5635 13.7381 12.4951C13.6575 12.4267 13.5544 12.3908 13.4488 12.3942C13.3379 12.386 13.2281 12.421 13.1425 12.4921C13.0569 12.5631 13.0022 12.6646 12.9898 12.7751C12.9776 12.8434 12.9729 12.9129 12.9758 12.9822V19.4371C12.9739 19.4865 12.9755 19.5359 12.9808 19.5851C12.9859 19.7012 13.0353 19.8111 13.1188 19.892C13.2023 19.9729 13.3136 20.0187 13.4298 20.0201C13.5506 20.022 13.6674 19.9763 13.7548 19.8928C13.8421 19.8094 13.8931 19.6949 13.8968 19.5741C13.9039 19.4853 13.906 19.3962 13.9028 19.3071V16.1841V16.1871ZM17.6758 16.2401V14.3071C17.6758 13.8311 17.6828 13.3551 17.6758 12.8801C17.681 12.8179 17.673 12.7552 17.6523 12.6963C17.6316 12.6374 17.5988 12.5834 17.5558 12.5381C17.5126 12.4927 17.4604 12.4568 17.4026 12.4327C17.3447 12.4086 17.2824 12.3968 17.2198 12.3981C16.9508 12.3981 16.7818 12.5671 16.7608 12.8761C16.7548 12.9611 16.7608 13.0542 16.7608 13.1442V19.5142C16.7768 19.8312 16.9558 20.0331 17.2168 20.0331C17.282 20.0324 17.3463 20.0182 17.4057 19.9913C17.4651 19.9645 17.5182 19.9255 17.5618 19.8771C17.6052 19.8289 17.6381 19.7721 17.6582 19.7104C17.6784 19.6488 17.6854 19.5837 17.6788 19.5192C17.6788 18.4252 17.6788 17.3322 17.6788 16.2432L17.6758 16.2401ZM9.20282 16.1962V19.4381C9.20282 19.8041 9.37382 20.0181 9.65082 20.0271C9.92782 20.0361 10.1148 19.8151 10.1228 19.4341V13.0981C10.1277 12.9793 10.1199 12.8604 10.0998 12.7432C10.0889 12.6743 10.0608 12.6092 10.0182 12.554C9.97555 12.4987 9.91974 12.4551 9.85583 12.4271C9.79168 12.3989 9.72146 12.3872 9.65161 12.3929C9.58176 12.3987 9.51447 12.4217 9.45581 12.4601C9.31332 12.5869 9.2264 12.7647 9.21381 12.9551C9.19281 14.0351 9.20282 15.1152 9.20282 16.1962Z" fill="#0071CD"/>
<path d="M10.0634 6.13527V5.05934C10.0453 4.89935 10.0632 4.73725 10.1158 4.58509C10.1685 4.43294 10.2546 4.29459 10.3678 4.18007C10.481 4.06554 10.6184 3.97782 10.7699 3.92335C10.9214 3.86889 11.0832 3.84898 11.2434 3.86525H15.6004C15.7604 3.84847 15.9222 3.86774 16.0738 3.92164C16.2255 3.97554 16.3631 4.06275 16.4766 4.17677C16.5902 4.29079 16.6767 4.42873 16.73 4.58058C16.7832 4.73242 16.8019 4.89437 16.7844 5.05433V6.13429H20.8624C20.9518 6.1298 21.0415 6.13241 21.1304 6.14222C21.2408 6.15571 21.3423 6.20939 21.4156 6.29286C21.489 6.37633 21.5292 6.48384 21.5284 6.59498C21.5277 6.70613 21.4861 6.81304 21.4116 6.89552C21.3371 6.978 21.2349 7.03024 21.1244 7.04225C21.0349 7.05006 20.9451 7.05205 20.8554 7.04823H5.99542C5.53942 7.04823 5.32643 6.90523 5.32043 6.60023C5.31443 6.29523 5.53742 6.13734 5.98242 6.13734H10.0634V6.13527ZM15.8734 6.12123C15.8734 5.77023 15.8594 5.43822 15.8734 5.11622C15.8874 4.86022 15.7884 4.78729 15.5434 4.79029C14.8184 4.80029 14.0934 4.79029 13.3684 4.79029H11.2824C11.1454 4.79029 10.9824 4.76833 10.9754 4.97633C10.9674 5.35133 10.9754 5.72822 10.9754 6.11622L15.8734 6.12123Z" fill="#0071CD"/>
</g>
</svg>
