<svg width="26" height="26" viewBox="0 0 26 26" fill="none" xmlns="http://www.w3.org/2000/svg">
<mask id="mask0_239_135" style="mask-type:luminance" maskUnits="userSpaceOnUse" x="1" y="1" width="24" height="24">
<path d="M25 1H1V25H25V1Z" fill="white"/>
</mask>
<g mask="url(#mask0_239_135)">
<mask id="mask1_239_135" style="mask-type:luminance" maskUnits="userSpaceOnUse" x="1" y="1" width="24" height="24">
<path d="M25 1H1V25H25V1Z" fill="white"/>
</mask>
<g mask="url(#mask1_239_135)">
<path d="M18 15C18 15.2652 17.8946 15.5196 17.7071 15.7071C17.5196 15.8947 17.2652 16 17 16H9C8.73478 16 8.48043 15.8947 8.29289 15.7071C8.10536 15.5196 8 15.2652 8 15C8 14.7348 8.10536 14.4805 8.29289 14.2929C8.48043 14.1054 8.73478 14 9 14H17C17.2652 14 17.5196 14.1054 17.7071 14.2929C17.8946 14.4805 18 14.7348 18 15ZM14 18H9C8.73478 18 8.48043 18.1054 8.29289 18.2929C8.10536 18.4805 8 18.7348 8 19C8 19.2652 8.10536 19.5196 8.29289 19.7071C8.48043 19.8947 8.73478 20 9 20H14C14.2652 20 14.5196 19.8947 14.7071 19.7071C14.8946 19.5196 15 19.2652 15 19C15 18.7348 14.8946 18.4805 14.7071 18.2929C14.5196 18.1054 14.2652 18 14 18ZM23 11.485V20C22.9984 21.3256 22.4711 22.5965 21.5338 23.5338C20.5964 24.4711 19.3256 24.9984 18 25H8C6.67441 24.9984 5.40356 24.4711 4.46622 23.5338C3.52888 22.5965 3.00159 21.3256 3 20V6.00002C3.00159 4.67443 3.52888 3.40358 4.46622 2.46624C5.40356 1.5289 6.67441 1.00161 8 1.00002H12.515C13.4346 0.997656 14.3456 1.17761 15.1952 1.52948C16.0449 1.88135 16.8163 2.39816 17.465 3.05002L20.949 6.53602C21.6012 7.18426 22.1184 7.95548 22.4704 8.805C22.8225 9.65451 23.0025 10.5654 23 11.485ZM16.051 4.46402C15.7363 4.15918 15.3829 3.89695 15 3.68402V8.00002C15 8.26524 15.1054 8.51959 15.2929 8.70713C15.4804 8.89467 15.7348 9.00002 16 9.00002H20.316C20.103 8.61721 19.8404 8.26417 19.535 7.95002L16.051 4.46402ZM21 11.485C21 11.32 20.968 11.162 20.953 11H16C15.2044 11 14.4413 10.684 13.8787 10.1213C13.3161 9.55873 13 8.79567 13 8.00002V3.04702C12.838 3.03202 12.679 3.00002 12.515 3.00002H8C7.20435 3.00002 6.44129 3.31609 5.87868 3.8787C5.31607 4.44131 5 5.20437 5 6.00002V20C5 20.7957 5.31607 21.5587 5.87868 22.1213C6.44129 22.684 7.20435 23 8 23H18C18.7956 23 19.5587 22.684 20.1213 22.1213C20.6839 21.5587 21 20.7957 21 20V11.485Z" fill="white"/>
</g>
</g>
</svg>
