<svg width="22" height="22" viewBox="0 0 22 22" fill="none" xmlns="http://www.w3.org/2000/svg">
<mask id="mask0_239_74" style="mask-type:luminance" maskUnits="userSpaceOnUse" x="1" y="1" width="20" height="20">
<path d="M21 1H1V21H21V1Z" fill="white"/>
</mask>
<g mask="url(#mask0_239_74)">
<path d="M10.9976 15.1299C10.8892 15.1302 10.7817 15.1091 10.6815 15.0678C10.5813 15.0264 10.4902 14.9656 10.4136 14.8889L3.81359 8.28891C3.69761 8.17358 3.61853 8.02638 3.58639 7.866C3.55426 7.70563 3.57052 7.53932 3.6331 7.38821C3.69569 7.2371 3.80179 7.108 3.93791 7.01732C4.07403 6.92663 4.23403 6.87846 4.39759 6.87891H17.6006C17.7642 6.87846 17.9242 6.92663 18.0603 7.01732C18.1964 7.108 18.3025 7.2371 18.3651 7.38821C18.4277 7.53932 18.4439 7.70563 18.4118 7.866C18.3797 8.02638 18.3006 8.17358 18.1846 8.28891L11.5846 14.8889C11.5076 14.966 11.4161 15.027 11.3153 15.0683C11.2145 15.1097 11.1065 15.1306 10.9976 15.1299Z" fill="black"/>
</g>
</svg>
