<svg width="26" height="26" viewBox="0 0 26 26" fill="none" xmlns="http://www.w3.org/2000/svg">
<mask id="mask0_239_145" style="mask-type:luminance" maskUnits="userSpaceOnUse" x="1" y="1" width="24" height="24">
<path d="M25 1H1V25H25V1Z" fill="white"/>
</mask>
<g mask="url(#mask0_239_145)">
<path d="M21.9986 21.3235C21.9963 21.5047 21.922 21.6776 21.7923 21.8042C21.6625 21.9307 21.4879 22.0006 21.3066 21.9985H4.69062C4.5116 21.9985 4.33992 21.9274 4.21334 21.8008C4.08675 21.6742 4.01562 21.5025 4.01562 21.3235C4.01562 21.1445 4.08675 20.9728 4.21334 20.8462C4.33992 20.7196 4.5116 20.6485 4.69062 20.6485H21.3066C21.4879 20.6463 21.6625 20.7162 21.7923 20.8428C21.922 20.9694 21.9963 21.1422 21.9986 21.3235Z" fill="white"/>
<path d="M17.8756 11.7553C17.9114 11.7649 17.9484 11.7696 17.9856 11.7693C18.0339 11.7693 18.0817 11.7598 18.1263 11.7412C18.171 11.7227 18.2115 11.6955 18.2456 11.6613L19.3256 10.5703C19.7101 10.2482 20.0259 9.85198 20.2542 9.40532C20.4825 8.95866 20.6187 8.47064 20.6546 7.9703C20.6224 7.46332 20.4883 6.96805 20.2602 6.5141C20.0322 6.06015 19.715 5.65684 19.3276 5.3283C17.5776 3.5783 15.8756 3.5363 14.0806 5.3283L12.9806 6.4183C12.9344 6.46454 12.9016 6.52245 12.8858 6.58585C12.8699 6.64925 12.8716 6.71576 12.8906 6.7783C13.2349 7.96013 13.8719 9.03596 14.7426 9.90613C15.6133 10.7763 16.6895 11.4127 17.8716 11.7563" fill="white"/>
<path d="M7.0824 19.2988C7.19051 19.2988 7.29847 19.2908 7.4054 19.2748L10.8574 18.7868C11.0437 18.7512 11.2167 18.6651 11.3574 18.5378L17.0104 12.8828C16.7654 12.7928 16.5104 12.6968 16.2484 12.5728C15.9864 12.4488 15.7364 12.3168 15.4964 12.1728C15.2976 12.0561 15.1053 11.9286 14.9204 11.7908C14.7447 11.6707 14.5751 11.5419 14.4124 11.4048C14.3562 11.3638 14.3037 11.3179 14.2554 11.2678C13.9208 10.983 13.6104 10.671 13.3274 10.3348C13.2781 10.287 13.2354 10.2329 13.2004 10.1738C13.0664 10.0168 12.9416 9.85214 12.8264 9.68081C12.7002 9.50982 12.5837 9.33187 12.4774 9.14781C12.3354 8.90881 12.2074 8.65781 12.0854 8.40581C11.9594 8.13581 11.8594 7.87981 11.7704 7.63281L6.1114 13.2908C5.98375 13.4312 5.89756 13.6043 5.8624 13.7908L5.3744 17.2398C5.32215 17.5198 5.33686 17.8081 5.41733 18.0814C5.4978 18.3546 5.64174 18.6049 5.8374 18.8118C6.00268 18.9712 6.19787 19.0963 6.41172 19.1798C6.62557 19.2634 6.85285 19.3039 7.0824 19.2988Z" fill="white"/>
</g>
</svg>
