<svg width="26" height="26" viewBox="0 0 26 26" fill="none" xmlns="http://www.w3.org/2000/svg">
<mask id="mask0_239_259" style="mask-type:luminance" maskUnits="userSpaceOnUse" x="1" y="1" width="24" height="24">
<path d="M25 1H1V25H25V1Z" fill="white"/>
</mask>
<g mask="url(#mask0_239_259)">
<mask id="mask1_239_259" style="mask-type:luminance" maskUnits="userSpaceOnUse" x="1" y="1" width="24" height="24">
<path d="M25 1H1V25H25V1Z" fill="white"/>
</mask>
<g mask="url(#mask1_239_259)">
<path d="M13.4514 9.76076C13.2223 10.1576 13.1293 10.6185 13.1865 11.0731C13.2438 11.5277 13.4481 11.9512 13.7684 12.2788C14.0873 12.6508 14.5255 12.9006 15.0081 12.9854C15.4907 13.0702 15.9878 12.9848 16.4144 12.7438C16.4818 13.334 16.3808 13.9312 16.1231 14.4665C15.8655 15.0018 15.4617 15.4533 14.9584 15.7688C14.3445 16.1616 13.6175 16.3392 12.8916 16.2739C12.1657 16.2085 11.4821 15.9039 10.9482 15.4078C10.4144 14.9116 10.0604 14.2522 9.94208 13.5331C9.82373 12.8139 9.94767 12.0758 10.2944 11.4348C10.5943 10.8732 11.0549 10.4139 11.6173 10.1155C12.1797 9.8171 12.8183 9.69425 13.4514 9.76076Z" fill="black"/>
<path d="M13 20.5308C7.034 20.5308 2 15.9047 2 12.9998C2 11.5998 3.292 9.70775 5.291 8.17975C7.50024 6.46686 10.2049 5.51572 13 5.46875C15.8344 5.54608 18.558 6.58575 20.723 8.41675C22.653 9.96875 24 11.8548 24 12.9998C24 14.2598 22.681 16.1438 20.717 17.6888C18.5269 19.4585 15.8148 20.4573 13 20.5308ZM13 6.84675C10.5071 6.8927 8.09598 7.74411 6.127 9.27375C4.327 10.6537 3.377 12.1927 3.377 12.9998C3.377 13.8068 4.236 15.3577 6.123 16.7808C8.10202 18.2879 10.5127 19.1197 13 19.1538C15.5092 19.0986 17.927 18.2015 19.865 16.6067C21.765 15.1067 22.622 13.5968 22.622 13.0008C22.622 12.5668 21.788 11.0427 19.859 9.49075C17.9294 7.8728 15.5164 6.94264 13 6.84675Z" fill="black"/>
</g>
</g>
</svg>
