<svg width="22" height="22" viewBox="0 0 22 22" fill="none" xmlns="http://www.w3.org/2000/svg">
<mask id="mask0_239_93" style="mask-type:luminance" maskUnits="userSpaceOnUse" x="1" y="1" width="20" height="20">
<path d="M21 1H1V21H21V1Z" fill="white"/>
</mask>
<g mask="url(#mask0_239_93)">
<path d="M11 21C12.9778 21 14.9112 20.4135 16.5557 19.3147C18.2002 18.2159 19.4819 16.6541 20.2388 14.8268C20.9957 12.9996 21.1937 10.9889 20.8079 9.0491C20.422 7.10929 19.4696 5.32746 18.0711 3.92894C16.6725 2.53041 14.8907 1.578 12.9509 1.19215C11.0111 0.806299 9.00043 1.00433 7.17317 1.76121C5.3459 2.51809 3.78412 3.79981 2.6853 5.4443C1.58649 7.08879 1 9.02219 1 11C1 13.6522 2.05357 16.1957 3.92893 18.0711C4.85752 18.9997 5.95991 19.7363 7.17317 20.2388C8.38642 20.7413 9.68678 21 11 21ZM11 19C10.7033 19 10.4133 18.912 10.1666 18.7472C9.91997 18.5824 9.72771 18.3481 9.61418 18.074C9.50065 17.7999 9.47094 17.4983 9.52882 17.2074C9.5867 16.9164 9.72956 16.6491 9.93934 16.4393C10.1491 16.2296 10.4164 16.0867 10.7074 16.0288C10.9983 15.9709 11.2999 16.0007 11.574 16.1142C11.8481 16.2277 12.0824 16.42 12.2472 16.6666C12.412 16.9133 12.5 17.2033 12.5 17.5C12.5 17.8978 12.342 18.2794 12.0607 18.5607C11.7794 18.842 11.3978 19 11 19ZM7 7.994C6.98526 7.22572 7.19739 6.47015 7.60987 5.82182C8.02235 5.17349 8.61685 4.66119 9.319 4.349C9.94163 4.07093 10.6243 3.95411 11.3039 4.00934C11.9836 4.06457 12.6384 4.29005 13.208 4.665C13.7332 5.01273 14.1689 5.47958 14.4795 6.02753C14.7902 6.57548 14.967 7.18906 14.9957 7.81829C15.0243 8.44752 14.904 9.07463 14.6444 9.64855C14.3849 10.2225 13.9934 10.727 13.502 11.121C12.8128 11.6521 12.3171 12.3948 12.091 13.235C12.0287 13.4928 11.8665 13.7153 11.6401 13.8535C11.4138 13.9917 11.1418 14.0343 10.884 13.972C10.6262 13.9097 10.4037 13.7475 10.2655 13.5211C10.1273 13.2948 10.0847 13.0228 10.147 12.765C10.4725 11.4949 11.2113 10.3691 12.247 9.565C12.4932 9.3681 12.6893 9.11581 12.8194 8.82869C12.9495 8.54157 13.0099 8.22776 12.9957 7.91286C12.9815 7.59796 12.893 7.29088 12.7375 7.01668C12.582 6.74247 12.3639 6.50889 12.101 6.335C11.8065 6.14221 11.4674 6.02812 11.1162 6.00361C10.7651 5.9791 10.4135 6.04499 10.095 6.195C9.75651 6.35699 9.47237 6.6138 9.27709 6.93423C9.08181 7.25467 8.98381 7.62492 8.995 8C8.97712 8.25236 8.86426 8.48855 8.67916 8.661C8.49407 8.83345 8.25048 8.92934 7.9975 8.92934C7.74452 8.92934 7.50093 8.83345 7.31583 8.661C7.13074 8.48855 7.01788 8.25236 7 8V7.994Z" fill="black"/>
</g>
</svg>
