<svg width="26" height="26" viewBox="0 0 26 26" fill="none" xmlns="http://www.w3.org/2000/svg">
<mask id="mask0_239_62" style="mask-type:luminance" maskUnits="userSpaceOnUse" x="1" y="1" width="24" height="24">
<path d="M25 1H1V25H25V1Z" fill="white"/>
</mask>
<g mask="url(#mask0_239_62)">
<path d="M11.0164 22.991C10.8688 22.9086 10.7287 22.8137 10.5975 22.7071C10.5146 22.6119 10.4525 22.5005 10.4152 22.3799C10.3778 22.2594 10.366 22.1325 10.3804 22.0071C10.3804 19.6321 10.3744 17.256 10.3854 14.881C10.3943 14.3475 10.2316 13.8252 9.92144 13.3911C7.85477 10.4151 5.79212 7.43511 3.73345 4.45111C3.60069 4.3018 3.52184 4.1122 3.50951 3.91278C3.49719 3.71337 3.5521 3.51567 3.66546 3.35114C3.7347 3.25091 3.82589 3.16783 3.93212 3.10822C4.03836 3.0486 4.15681 3.01403 4.27844 3.00714C4.34144 3.00114 4.40544 3.00714 4.46844 3.00714H21.5485C21.7543 2.9801 21.9628 3.03042 22.1336 3.1485C22.3043 3.26659 22.4251 3.44392 22.4725 3.64606C22.5036 3.78543 22.5021 3.93006 22.4683 4.06879C22.4345 4.20752 22.3692 4.33668 22.2775 4.44611C21.3308 5.81411 20.3845 7.18273 19.4385 8.55207C18.3131 10.1801 17.1861 11.8078 16.0574 13.4351C15.7628 13.8493 15.6086 14.3469 15.6174 14.855C15.6254 16.775 15.6174 18.6941 15.6174 20.6151C15.6547 20.8285 15.6081 21.0482 15.4874 21.2282C15.3666 21.4082 15.1811 21.5346 14.9694 21.5811L11.3824 22.975C11.3714 22.975 11.3634 22.9911 11.3534 23.0001L11.0164 22.991ZM4.65942 4.02204C4.71042 4.10004 4.74445 4.15412 4.78045 4.20612C6.76112 7.07279 8.74242 9.93547 10.7244 12.7941C11.1563 13.3986 11.3837 14.1253 11.3735 14.8681C11.3605 17.1251 11.3735 19.3831 11.3735 21.6401V21.8841C11.4635 21.8541 11.5234 21.8381 11.5814 21.8151C12.5394 21.4401 13.4954 21.0611 14.4564 20.6951C14.517 20.6808 14.5699 20.644 14.6044 20.5922C14.6389 20.5405 14.6525 20.4775 14.6424 20.4161C14.6364 18.5621 14.6425 16.7071 14.6365 14.8531C14.6259 14.1294 14.8454 13.4211 15.2634 12.8301C17.2568 9.96348 19.2454 7.09015 21.2294 4.21015C21.2684 4.15415 21.3035 4.09506 21.3505 4.02106L4.65942 4.02204Z" fill="#0071CD"/>
</g>
</svg>
