<svg width="26" height="26" viewBox="0 0 26 26" fill="none" xmlns="http://www.w3.org/2000/svg">
<mask id="mask0_239_238" style="mask-type:luminance" maskUnits="userSpaceOnUse" x="1" y="1" width="24" height="24">
<path d="M25 1H1V25H25V1Z" fill="white"/>
</mask>
<g mask="url(#mask0_239_238)">
<mask id="mask1_239_238" style="mask-type:luminance" maskUnits="userSpaceOnUse" x="2" y="3" width="22" height="20">
<path d="M23.9722 3H2.03125V23H23.9722V3Z" fill="white"/>
</mask>
<g mask="url(#mask1_239_238)">
<path d="M23.2319 3.0741C23.0143 3.01402 22.7885 2.98838 22.5629 2.9981H3.20792C3.02061 2.99774 2.83585 3.04146 2.66856 3.12571C2.50127 3.20996 2.35615 3.33239 2.24492 3.4831C2.1406 3.62504 2.07188 3.78995 2.04456 3.96397C2.01724 4.13799 2.03211 4.31603 2.08792 4.4831C2.17438 4.69338 2.29538 4.88772 2.44592 5.0581L10.4879 15.1691V21.7391C10.4711 22.0058 10.5386 22.271 10.6809 22.4971C10.8561 22.7502 11.1247 22.9233 11.4276 22.9785C11.7304 23.0336 12.0428 22.9662 12.2959 22.7911C13.0639 22.2621 13.8319 21.7281 14.5829 21.2031C14.8092 21.0598 15.0153 20.8869 15.1959 20.6891C15.4318 20.3925 15.557 20.023 15.5499 19.6441V15.1441L23.6439 4.9441C23.821 4.74712 23.9328 4.50015 23.9639 4.2371C23.9895 3.98932 23.9313 3.74011 23.7986 3.52929C23.6659 3.31847 23.4664 3.1582 23.2319 3.0741ZM14.3419 14.5031C14.2397 14.6549 14.1911 14.8365 14.2039 15.0191V19.6431C14.2039 19.7901 14.1609 19.8561 13.9839 19.9731L11.8319 21.4791V14.9061C11.8324 14.813 11.8131 14.7208 11.7754 14.6356C11.7376 14.5505 11.6823 14.4743 11.6129 14.4121C11.5849 14.3831 11.5599 14.3561 11.5359 14.3261L6.56392 8.0881H11.2969C11.4511 8.09023 11.6024 8.04674 11.7319 7.9631C11.8539 7.8816 11.9446 7.76098 11.9889 7.6211C12.0432 7.46099 12.0337 7.28611 11.9624 7.13282C11.8911 6.97954 11.7634 6.85965 11.6059 6.7981C11.4721 6.7561 11.332 6.73816 11.1919 6.7451H5.51592L3.59192 4.3411H22.4219L14.3419 14.5031Z" fill="black"/>
</g>
</g>
</svg>
