<svg width="26" height="26" viewBox="0 0 26 26" fill="none" xmlns="http://www.w3.org/2000/svg">
<mask id="mask0_239_276" style="mask-type:luminance" maskUnits="userSpaceOnUse" x="1" y="1" width="24" height="24">
<path d="M25 1H1V25H25V1Z" fill="white"/>
</mask>
<g mask="url(#mask0_239_276)">
<mask id="mask1_239_276" style="mask-type:luminance" maskUnits="userSpaceOnUse" x="1" y="1" width="24" height="24">
<path d="M25 1H1V25H25V1Z" fill="white"/>
</mask>
<g mask="url(#mask1_239_276)">
<path d="M19.545 1.00098H6.454C5.00776 1.00124 3.62082 1.57581 2.59809 2.59836C1.57535 3.62091 1.00053 5.00774 1 6.45398V19.546C1 20.2624 1.1411 20.9717 1.41524 21.6335C1.68938 22.2954 2.09119 22.8967 2.59773 23.4033C3.62074 24.4263 5.00824 25.001 6.455 25.001H19.545C20.2614 25.001 20.9707 24.8599 21.6325 24.5858C22.2944 24.3116 22.8957 23.9098 23.4023 23.4033C23.9088 22.8967 24.3106 22.2954 24.5848 21.6335C24.8589 20.9717 25 20.2624 25 19.546V6.45498C25 5.73862 24.8589 5.02927 24.5848 4.36744C24.3106 3.70561 23.9088 3.10426 23.4023 2.59771C22.8957 2.09117 22.2944 1.68936 21.6325 1.41521C20.9707 1.14107 20.2614 1.00098 19.545 1.00098ZM6.454 3.18298H19.545C20.4131 3.18298 21.2456 3.52781 21.8594 4.14162C22.4732 4.75543 22.818 5.58793 22.818 6.45598V14.556L21.171 12.91C20.7622 12.5038 20.2093 12.2758 19.633 12.2758C19.0567 12.2758 18.5038 12.5038 18.095 12.91L15.269 15.739L10.262 10.732C9.8532 10.3258 9.3003 10.0978 8.724 10.0978C8.1477 10.0978 7.5948 10.3258 7.186 10.732L3.186 14.732V6.45498C3.18626 5.58797 3.53053 4.75648 4.14322 4.14303C4.75592 3.52958 5.58699 3.1843 6.454 3.18298ZM19.545 22.819H6.454C5.58595 22.819 4.75345 22.4742 4.13964 21.8604C3.52583 21.2466 3.181 20.4141 3.181 19.546V17.81L8.724 12.27L13.731 17.277C14.1398 17.6832 14.6927 17.9112 15.269 17.9112C15.8453 17.9112 16.3982 17.6832 16.807 17.277L19.632 14.452L22.817 17.637V19.546C22.817 20.4139 22.4723 21.2462 21.8587 21.86C21.2451 22.4738 20.4129 22.8187 19.545 22.819Z" fill="white"/>
<path d="M18.4563 9.72513C19.3599 9.72513 20.0923 8.99266 20.0923 8.08913C20.0923 7.18559 19.3599 6.45312 18.4563 6.45312C17.5528 6.45312 16.8203 7.18559 16.8203 8.08913C16.8203 8.99266 17.5528 9.72513 18.4563 9.72513Z" fill="white"/>
</g>
</g>
</svg>
