<svg width="26" height="26" viewBox="0 0 26 26" fill="none" xmlns="http://www.w3.org/2000/svg">
<mask id="mask0_239_199" style="mask-type:luminance" maskUnits="userSpaceOnUse" x="1" y="1" width="24" height="24">
<path d="M25 1H1V25H25V1Z" fill="white"/>
</mask>
<g mask="url(#mask0_239_199)">
<path d="M22.8043 13.2215C22.8037 12.54 22.7468 11.8597 22.6343 11.1875H13.1953V15.0385H18.5953C18.4848 15.6532 18.2511 16.2393 17.9082 16.7614C17.5654 17.2834 17.1205 17.7308 16.6003 18.0765V20.5765H19.8213C20.8064 19.628 21.581 18.4829 22.0949 17.2157C22.6088 15.9484 22.8505 14.5882 22.8043 13.2215Z" fill="#4285F4"/>
<path d="M13.1948 22.9951C15.6307 23.0644 18.0012 22.2009 19.8218 20.5811L16.5978 18.0811C15.8219 18.5786 14.9428 18.8928 14.0273 18.9998C13.1118 19.1067 12.184 19.0036 11.3143 18.6983C10.4446 18.393 9.6559 17.8936 9.00812 17.2379C8.36034 16.5821 7.87051 15.7874 7.57582 14.9141H4.25781V17.4901C5.09196 19.145 6.36908 20.5358 7.94698 21.5078C9.52487 22.4797 11.3416 22.9946 13.1948 22.9951Z" fill="#34A853"/>
<path d="M7.57712 14.9069C7.15785 13.6674 7.15785 12.3244 7.57712 11.0849V8.50391H4.25812C3.55923 9.89782 3.19531 11.4356 3.19531 12.9949C3.19531 14.5542 3.55923 16.092 4.25812 17.4859L7.57712 14.9069Z" fill="#FBBC04"/>
<path d="M13.1928 6.95466C14.6194 6.93171 15.9978 7.47045 17.0308 8.45466L19.8848 5.60066C18.073 3.90327 15.6753 2.97171 13.1928 3.00065C11.3392 3.00062 9.52216 3.51576 7.94438 4.48855C6.36661 5.46135 5.09025 6.85353 4.25781 8.50966L7.57681 11.0897C7.96332 9.90011 8.71298 8.86164 9.72035 8.12028C10.7277 7.37892 11.9421 6.97197 13.1928 6.95666V6.95466Z" fill="#EA4335"/>
</g>
</svg>
