<svg width="26" height="26" viewBox="0 0 26 26" fill="none" xmlns="http://www.w3.org/2000/svg">
<mask id="mask0_239_208" style="mask-type:luminance" maskUnits="userSpaceOnUse" x="1" y="1" width="24" height="24">
<path d="M25 1H1V25H25V1Z" fill="white"/>
</mask>
<g mask="url(#mask0_239_208)">
<path d="M6.82065 3.00673L4.64465 3.00293C3.74001 3.00135 3.00537 3.73343 3.00379 4.63807L3 6.81406C2.99842 7.7187 3.73049 8.45334 4.63513 8.45492L6.81113 8.45872C7.71577 8.4603 8.45041 7.72822 8.45199 6.82358L8.45579 4.64758C8.45736 3.74294 7.72529 3.00831 6.82065 3.00673Z" fill="black"/>
<path d="M14.0941 3.00673L11.9181 3.00293C11.0135 3.00135 10.2788 3.73343 10.2772 4.63807L10.2734 6.81406C10.2719 7.7187 11.004 8.45334 11.9086 8.45492L14.0846 8.45872C14.9893 8.4603 15.7239 7.72822 15.7255 6.82358L15.7293 4.64758C15.7309 3.74294 14.9988 3.00831 14.0941 3.00673Z" fill="black"/>
<path d="M21.3598 3.00673L19.1838 3.00293C18.2791 3.00135 17.5445 3.73343 17.5429 4.63807L17.5391 6.81406C17.5375 7.7187 18.2696 8.45334 19.1743 8.45492L21.3503 8.45872C22.2549 8.4603 22.9895 7.72822 22.9911 6.82358L22.9949 4.64758C22.9965 3.74294 22.2644 3.00831 21.3598 3.00673Z" fill="black"/>
<path d="M6.82065 10.2763L4.64465 10.2725C3.74001 10.2709 3.00537 11.003 3.00379 11.9076L3 14.0836C2.99842 14.9883 3.73049 15.7229 4.63513 15.7245L6.81113 15.7283C7.71577 15.7299 8.45041 14.9978 8.45199 14.0931L8.45579 11.9171C8.45736 11.0125 7.72529 10.2778 6.82065 10.2763Z" fill="black"/>
<path d="M14.0941 10.2763L11.9181 10.2725C11.0135 10.2709 10.2788 11.003 10.2772 11.9076L10.2734 14.0836C10.2719 14.9883 11.004 15.7229 11.9086 15.7245L14.0846 15.7283C14.9893 15.7299 15.7239 14.9978 15.7255 14.0931L15.7293 11.9171C15.7309 11.0125 14.9988 10.2778 14.0941 10.2763Z" fill="black"/>
<path d="M19.3669 10.2734H21.1779C21.6606 10.2734 22.1235 10.4652 22.4648 10.8065C22.8061 11.1478 22.9979 11.6107 22.9979 12.0934V13.9044C22.9979 14.3871 22.8061 14.8501 22.4648 15.1914C22.1235 15.5327 21.6606 15.7244 21.1779 15.7244H19.3669C18.8842 15.7244 18.4213 15.5327 18.0799 15.1914C17.7386 14.8501 17.5469 14.3871 17.5469 13.9044V12.0934C17.5469 11.6107 17.7386 11.1478 18.0799 10.8065C18.4213 10.4652 18.8842 10.2734 19.3669 10.2734Z" fill="black"/>
<path d="M6.82065 17.5458L4.64465 17.542C3.74001 17.5404 3.00537 18.2725 3.00379 19.1772L3 21.3532C2.99842 22.2578 3.73049 22.9924 4.63513 22.994L6.81113 22.9978C7.71577 22.9994 8.45041 22.2673 8.45199 21.3627L8.45579 19.1867C8.45736 18.282 7.72529 17.5474 6.82065 17.5458Z" fill="black"/>
<path d="M14.0941 17.5458L11.9181 17.542C11.0135 17.5404 10.2788 18.2725 10.2772 19.1772L10.2734 21.3532C10.2719 22.2578 11.004 22.9924 11.9086 22.994L14.0846 22.9978C14.9893 22.9994 15.7239 22.2673 15.7255 21.3627L15.7293 19.1867C15.7309 18.282 14.9988 17.5474 14.0941 17.5458Z" fill="black"/>
<path d="M17.5391 21.1721V19.3621C17.5388 19.1226 17.5858 18.8854 17.6773 18.6641C17.7688 18.4428 17.9031 18.2418 18.0724 18.0724C18.2418 17.9031 18.4428 17.7688 18.6641 17.6773C18.8854 17.5858 19.1226 17.5388 19.3621 17.5391H21.1721C21.655 17.5391 22.1182 17.7309 22.4597 18.0724C22.8012 18.4139 22.9931 18.8771 22.9931 19.3601V21.1701C22.9931 21.653 22.8012 22.1162 22.4597 22.4577C22.1182 22.7992 21.655 22.9911 21.1721 22.9911H19.3621C19.1229 22.9913 18.8861 22.9445 18.665 22.8532C18.444 22.7619 18.2431 22.628 18.0738 22.4591C17.9046 22.2902 17.7702 22.0896 17.6784 21.8688C17.5867 21.6479 17.5393 21.4112 17.5391 21.1721Z" fill="black"/>
</g>
</svg>
