<svg width="26" height="26" viewBox="0 0 26 26" fill="none" xmlns="http://www.w3.org/2000/svg">
<mask id="mask0_239_222" style="mask-type:luminance" maskUnits="userSpaceOnUse" x="1" y="1" width="24" height="24">
<path d="M25 1H1V25H25V1Z" fill="white"/>
</mask>
<g mask="url(#mask0_239_222)">
<path d="M8.50177 4.817C9.05167 4.82411 9.59396 4.94662 10.0935 5.17659C10.5931 5.40656 11.0388 5.73886 11.4018 6.152C11.661 6.45291 11.9861 6.69005 12.3518 6.845C12.5663 6.92849 12.7945 6.97155 13.0248 6.972C13.3272 6.96295 13.6239 6.88759 13.894 6.75126C14.1641 6.61492 14.4009 6.42093 14.5878 6.183C15.1127 5.56576 15.8165 5.12687 16.6018 4.927C16.896 4.85276 17.1983 4.81514 17.5018 4.815C18.1369 4.8189 18.7606 4.9837 19.3148 5.294C19.9122 5.63204 20.4224 6.10493 20.8048 6.675C21.4434 7.62875 21.7717 8.75652 21.7448 9.904C21.7428 11.1928 21.2767 12.4378 20.4318 13.411C19.6388 14.334 18.8318 15.273 18.0568 16.182C16.8568 17.582 15.6098 19.04 14.3828 20.463C14.2193 20.677 14.0107 20.8524 13.7719 20.9768C13.5331 21.1012 13.2698 21.1716 13.0008 21.183C12.7308 21.17 12.4668 21.0982 12.2274 20.9726C11.988 20.8471 11.779 20.6708 11.6148 20.456C9.43277 17.925 7.46977 15.64 5.49277 13.315C4.65552 12.2807 4.21554 10.9812 4.25222 9.65104C4.28889 8.32086 4.79981 7.04759 5.69277 6.061C6.05307 5.675 6.48756 5.36569 6.97023 5.15159C7.45289 4.9375 7.97381 4.82301 8.50177 4.815M8.50177 3.5C7.8114 3.50789 7.12974 3.65519 6.49771 3.93306C5.86568 4.21092 5.2963 4.61363 4.82377 5.117C3.69752 6.34639 3.0512 7.93997 3.00292 9.60655C2.95463 11.2731 3.50759 12.9015 4.56077 14.194C6.59344 16.586 8.63577 18.969 10.6878 21.343C10.9658 21.6928 11.317 21.9777 11.7168 22.1775C12.1165 22.3774 12.555 22.4874 13.0018 22.5C13.4458 22.4876 13.8817 22.3782 14.279 22.1795C14.6763 21.9809 15.0254 21.6978 15.3018 21.35C17.3238 19.0033 19.3408 16.652 21.3528 14.296C22.4109 13.0788 22.9962 11.5218 23.0018 9.909C23.0292 8.48691 22.6194 7.09068 21.8278 5.909C21.3603 5.18277 20.721 4.58301 19.9664 4.16282C19.2118 3.74263 18.3653 3.51497 17.5018 3.5C17.1005 3.50001 16.7008 3.54972 16.3118 3.648C15.282 3.9088 14.3577 4.48078 13.6648 5.286C13.5892 5.38987 13.4923 5.47637 13.3805 5.53967C13.2687 5.60297 13.1447 5.64161 13.0168 5.653C12.9332 5.65232 12.8504 5.63604 12.7728 5.605C12.5868 5.51786 12.4222 5.39086 12.2908 5.233C11.8152 4.69565 11.2323 4.26384 10.5797 3.96536C9.92716 3.66689 9.21932 3.50837 8.50177 3.5Z" fill="black"/>
</g>
</svg>
