<svg width="26" height="26" viewBox="0 0 26 26" fill="none" xmlns="http://www.w3.org/2000/svg">
<mask id="mask0_239_228" style="mask-type:luminance" maskUnits="userSpaceOnUse" x="1" y="1" width="24" height="24">
<path d="M25 1H1V25H25V1Z" fill="white"/>
</mask>
<g mask="url(#mask0_239_228)">
<mask id="mask1_239_228" style="mask-type:luminance" maskUnits="userSpaceOnUse" x="3" y="3" width="20" height="20">
<path d="M23 3H3V23H23V3Z" fill="white"/>
</mask>
<g mask="url(#mask1_239_228)">
<path d="M11.2173 16.7412C11.0676 17.0588 10.991 17.406 10.9933 17.7572V20.9682C10.9998 21.4181 10.8545 21.8572 10.5806 22.2143C10.3068 22.5714 9.92054 22.8257 9.48428 22.9362C9.27056 22.9829 9.05198 23.0037 8.83328 22.9982H7.43328C7.12089 23.0047 6.80837 22.9934 6.49728 22.9642C5.58863 22.8562 4.7497 22.4232 4.13528 21.7452C3.38907 20.9474 2.98302 19.8903 3.00328 18.7982C2.99661 16.5688 2.99328 14.3388 2.99328 12.1082C2.98742 11.7959 3.00514 11.4837 3.04628 11.1742C3.16858 10.3874 3.50994 9.65095 4.03128 9.04915C4.24336 8.81799 4.47341 8.60399 4.71928 8.40915C7.46061 6.14249 9.19395 4.71082 9.91928 4.11415C10.7045 3.46094 11.6769 3.07416 12.6962 3.00963C13.7155 2.9451 14.729 3.20617 15.5903 3.75515C15.8508 3.92944 16.1012 4.11841 16.3403 4.32115L20.9563 8.13615C21.3616 8.46949 21.5999 8.67115 21.6713 8.74115C22.3512 9.38008 22.7997 10.2267 22.9463 11.1482C22.9902 11.4575 23.0096 11.7698 23.0043 12.0822C23.0043 14.2348 23.0043 16.3878 23.0043 18.5412C23.0094 18.8533 22.9923 19.1654 22.9533 19.4752C22.8245 20.4346 22.3575 21.3166 21.6363 21.9625C20.9151 22.6083 19.9871 22.9756 19.0193 22.9982H16.8393C16.7067 22.9922 16.5755 22.9683 16.4493 22.9272C16.1121 22.8308 15.8062 22.6475 15.5623 22.3956C15.3183 22.1438 15.1448 21.8322 15.0593 21.4922C15.0123 21.2791 14.9911 21.0612 14.9963 20.8432C14.9963 19.8192 14.9963 18.7955 14.9963 17.7722C15.0071 17.3743 14.9104 16.9809 14.7162 16.6335C14.5221 16.286 14.2378 15.9975 13.8933 15.7982C13.6576 15.6738 13.3987 15.5996 13.1329 15.5803C12.867 15.561 12.6001 15.5971 12.349 15.6862C12.0978 15.7752 11.8678 15.9154 11.6735 16.0979C11.4793 16.2803 11.3249 16.5011 11.2203 16.7462L11.2173 16.7412Z" fill="black"/>
</g>
</g>
</svg>
