<svg width="26" height="26" viewBox="0 0 26 26" fill="none" xmlns="http://www.w3.org/2000/svg">
<mask id="mask0_239_188" style="mask-type:luminance" maskUnits="userSpaceOnUse" x="1" y="1" width="24" height="24">
<path d="M25 1H1V25H25V1Z" fill="white"/>
</mask>
<g mask="url(#mask0_239_188)">
<path d="M22.9978 8.18203V21.44C22.9849 21.4694 22.9746 21.4999 22.9668 21.531C22.8983 21.9506 22.6784 22.3305 22.3488 22.599C22.0819 22.804 21.7693 22.9413 21.4378 22.999H12.5078C12.5308 22.968 12.5518 22.935 12.5768 22.906C13.3802 21.9867 14.1842 21.0677 14.9888 20.149C15.1774 19.9463 15.3188 19.7043 15.4028 19.4405C15.4869 19.1767 15.5115 18.8975 15.4749 18.623L14.8748 13.753L14.0748 7.33901C14.0438 7.09201 14.0168 6.84405 13.9888 6.59505C14.0159 6.58913 14.0432 6.58479 14.0708 6.58205H21.2408C21.5053 6.58081 21.7663 6.64127 22.0033 6.75862C22.2403 6.87598 22.4466 7.04694 22.6058 7.25801C22.8058 7.53168 22.9406 7.84796 22.9978 8.18203ZM18.0238 15.637C17.9998 15.659 17.9688 15.6911 17.9338 15.7201C17.5428 16.0421 17.1488 16.36 16.7598 16.685C16.6378 16.7801 16.5586 16.9198 16.5396 17.0733C16.5205 17.2268 16.5632 17.3816 16.6583 17.5036C16.7534 17.6256 16.8931 17.7047 17.0466 17.7238C17.2001 17.7428 17.3548 17.7001 17.4768 17.6051C17.5718 17.5371 17.6618 17.462 17.7518 17.388L18.8518 16.4801C19.3298 16.8561 19.7958 17.2291 20.2688 17.5921C20.3286 17.6454 20.3989 17.6857 20.4752 17.7103C20.5515 17.7349 20.632 17.7434 20.7117 17.7351C20.7915 17.7268 20.8686 17.702 20.9382 17.6622C21.0077 17.6224 21.0683 17.5686 21.1158 17.504C21.1644 17.4405 21.1993 17.3677 21.2186 17.2901C21.2378 17.2125 21.2409 17.1318 21.2277 17.0529C21.2145 16.9741 21.1852 16.8988 21.1417 16.8317C21.0982 16.7647 21.0414 16.7073 20.9749 16.663C20.7509 16.485 20.5198 16.3171 20.2968 16.1391C20.0738 15.9611 19.8808 15.796 19.6678 15.62C20.2805 14.8906 20.751 14.0529 21.0548 13.15C21.0688 13.106 21.1548 13.066 21.2158 13.062C21.375 13.062 21.5276 12.9988 21.6401 12.8863C21.7526 12.7738 21.8158 12.6212 21.8158 12.4621C21.813 12.3822 21.794 12.3037 21.7599 12.2314C21.7259 12.1591 21.6776 12.0944 21.6179 12.0413C21.5581 11.9882 21.4882 11.9478 21.4124 11.9225C21.3366 11.8972 21.2565 11.8875 21.1768 11.8941H19.6478C19.5858 11.8941 19.5228 11.888 19.4478 11.885V11.365C19.4549 11.2837 19.445 11.2018 19.4186 11.1245C19.3923 11.0473 19.3501 10.9763 19.2947 10.9163C19.2394 10.8562 19.1722 10.8084 19.0974 10.7758C19.0225 10.7432 18.9417 10.7266 18.86 10.727C18.7784 10.7274 18.6977 10.7449 18.6232 10.7782C18.5487 10.8116 18.4819 10.8601 18.4272 10.9207C18.3725 10.9813 18.3311 11.0527 18.3055 11.1302C18.28 11.2077 18.2709 11.2898 18.2788 11.3711V11.8941H16.5349C16.3802 11.8914 16.2308 11.9502 16.1196 12.0577C16.0084 12.1652 15.9445 12.3124 15.9418 12.4671C15.9392 12.6217 15.9981 12.771 16.1055 12.8822C16.213 12.9934 16.3602 13.0574 16.5148 13.06L16.6488 13.0661C16.8488 13.5171 17.0168 13.9661 17.2418 14.3891C17.4668 14.8121 17.7538 15.21 18.0238 15.637Z" fill="#0071CD"/>
<path d="M21.4375 22.9965C21.769 22.9386 22.0816 22.8014 22.3485 22.5966C22.678 22.3279 22.8977 21.948 22.9664 21.5284C22.9742 21.4973 22.9846 21.4669 22.9974 21.4375V22.9976L21.4375 22.9965Z" fill="#0071CD"/>
<path d="M3.0039 11.2313V4.85631C2.98039 4.50971 3.06364 4.16425 3.24242 3.86639C3.42121 3.56852 3.68696 3.33255 4.0039 3.1903C4.257 3.07466 4.53161 3.01371 4.80987 3.01134C6.78487 2.99634 8.75992 2.9983 10.7349 3.0053C11.2058 2.99802 11.6606 3.1768 12.0006 3.50274C12.3406 3.82868 12.5383 4.27552 12.5509 4.74633C12.7899 6.72533 13.0399 8.70233 13.2849 10.6813L13.9629 16.1913C14.0689 17.0483 14.1629 17.9063 14.2849 18.7613C14.2958 18.8872 14.2754 19.0138 14.2255 19.1298C14.1756 19.2459 14.0978 19.3477 13.9989 19.4263C13.9558 19.4526 13.905 19.4635 13.8549 19.4573C10.8269 19.4573 7.7999 19.4653 4.7719 19.4573C4.53341 19.4612 4.29663 19.416 4.07629 19.3247C3.85594 19.2334 3.65672 19.0978 3.4909 18.9263C3.32507 18.7549 3.19618 18.5512 3.11224 18.3279C3.0283 18.1047 2.99106 17.8666 3.00286 17.6283C3.00286 15.495 3.00286 13.3617 3.00286 11.2283L3.0039 11.2313ZM9.10387 11.8603C9.11287 11.8933 9.11992 11.9114 9.12292 11.9304C9.23992 12.5154 9.35491 13.1014 9.47491 13.6854C9.48633 13.764 9.51362 13.8395 9.55517 13.9073C9.59672 13.9751 9.65161 14.0338 9.71655 14.0797C9.78148 14.1256 9.85508 14.1578 9.93285 14.1743C10.0106 14.1909 10.0909 14.1914 10.1689 14.1759C10.2469 14.1604 10.321 14.1292 10.3865 14.0842C10.4521 14.0392 10.5078 13.9813 10.5502 13.9141C10.5927 13.8469 10.621 13.7717 10.6335 13.6932C10.646 13.6146 10.6424 13.5344 10.6229 13.4573C10.2416 11.5493 9.85922 9.64133 9.47588 7.73333C9.46943 7.65172 9.44662 7.57223 9.40881 7.49962C9.37099 7.42702 9.31896 7.36279 9.25579 7.31072C9.19262 7.25865 9.11956 7.21984 9.04107 7.19659C8.96258 7.17333 8.88022 7.1661 8.79888 7.17534H7.76586C7.68444 7.1661 7.60205 7.17333 7.52349 7.19665C7.44494 7.21997 7.37189 7.25891 7.30871 7.31109C7.24552 7.36326 7.19346 7.42757 7.15569 7.5003C7.11793 7.57302 7.09519 7.65261 7.08886 7.7343C6.70486 9.6423 6.32255 11.5503 5.94189 13.4583C5.92101 13.5351 5.91598 13.6153 5.92712 13.6941C5.93825 13.7729 5.96531 13.8486 6.00664 13.9166C6.04798 13.9845 6.10271 14.0434 6.16753 14.0895C6.23235 14.1357 6.30589 14.1681 6.38366 14.1849C6.46143 14.2017 6.54184 14.2025 6.61993 14.1872C6.69801 14.1719 6.77212 14.1409 6.83782 14.096C6.90352 14.0511 6.95942 13.9934 7.00207 13.9262C7.04471 13.859 7.07321 13.7839 7.08587 13.7053C7.11987 13.5603 7.1429 13.4123 7.1729 13.2663L7.45586 11.8603H9.10387Z" fill="#0071CD"/>
<path d="M12.9138 20.6719C12.2688 21.3819 11.6518 22.0648 11.0278 22.7418C11.0022 22.759 10.9727 22.7697 10.942 22.7728C10.9113 22.776 10.8803 22.7716 10.8517 22.7599C10.6315 22.6467 10.4393 22.4858 10.2892 22.2889C10.139 22.0921 10.0347 21.8641 9.98376 21.6218C9.91676 21.3138 9.89075 20.9969 9.84375 20.6719H12.9138Z" fill="#0071CD"/>
<path d="M18.8608 14.7286C18.4518 14.2317 18.1339 13.6663 17.9219 13.0586H19.8379C19.6072 13.6656 19.277 14.23 18.8608 14.7286Z" fill="#0071CD"/>
<path d="M7.70312 10.6832L8.16516 8.36719H8.42114L8.88416 10.6832H7.70312Z" fill="#0071CD"/>
</g>
</svg>
