<svg width="26" height="26" viewBox="0 0 26 26" fill="none" xmlns="http://www.w3.org/2000/svg">
<mask id="mask0_239_322" style="mask-type:luminance" maskUnits="userSpaceOnUse" x="1" y="1" width="24" height="24">
<path d="M25 1H1V25H25V1Z" fill="white"/>
</mask>
<g mask="url(#mask0_239_322)">
<path d="M4.44576 5.686C4.96345 5.02758 5.61916 4.49063 6.36674 4.11295C7.11433 3.73527 7.9356 3.52605 8.77276 3.5C8.89576 3.5 9.02076 3.5 9.14776 3.508C9.78731 3.54639 10.415 3.69773 11.0018 3.955C11.3066 4.08733 11.5994 4.24593 11.8768 4.429C11.9228 4.459 11.9658 4.491 12.0098 4.523C12.1728 4.641 12.3268 4.776 12.4848 4.895C12.5418 4.941 12.5998 4.995 12.6638 5.049C12.7378 5.12012 12.8286 5.17138 12.9278 5.198C12.956 5.20203 12.9846 5.20203 13.0128 5.198C13.1659 5.15393 13.3055 5.0721 13.4188 4.96C13.5768 4.843 13.7318 4.714 13.8828 4.6L14.0078 4.506C14.0478 4.477 14.1138 4.433 14.1688 4.397C15.0491 3.82486 16.0769 3.52119 17.1268 3.523H17.2168C17.9826 3.5366 18.7372 3.70925 19.4328 4.03C19.8312 4.21268 20.2084 4.43835 20.5578 4.703C21.208 5.19869 21.7475 5.82472 22.1418 6.541C22.5384 7.28633 22.8087 8.09226 22.9418 8.926L22.9608 9.026L22.9758 9.119C22.9868 9.295 22.9968 9.472 23.0028 9.65C23.0088 9.828 23.0028 9.993 23.0028 10.15C22.9428 11.0034 22.74 11.8407 22.4028 12.627C21.9899 13.4636 21.4407 14.2256 20.7778 14.882L20.7248 14.939C20.0248 15.687 19.3378 16.439 18.6438 17.195L17.7598 18.152C16.7211 19.2673 15.6821 20.3833 14.6428 21.5C14.3277 21.8434 13.9555 22.1296 13.5428 22.346C13.2456 22.4943 12.9066 22.5362 12.5823 22.4647C12.2579 22.3932 11.968 22.2126 11.7608 21.953C10.4108 20.5017 9.0641 19.046 7.72076 17.586C7.10276 16.918 6.47077 16.263 5.85977 15.591C5.24673 14.9478 4.67872 14.2632 4.15976 13.542C3.54088 12.6512 3.15419 11.6201 3.03476 10.542C2.99812 10.2019 2.99043 9.85937 3.01176 9.518C3.07726 8.25123 3.49454 7.02778 4.21676 5.985C4.29076 5.885 4.36676 5.786 4.44576 5.686Z" fill="#0071CD"/>
</g>
</svg>
