<svg width="26" height="26" viewBox="0 0 26 26" fill="none" xmlns="http://www.w3.org/2000/svg">
<mask id="mask0_239_270" style="mask-type:luminance" maskUnits="userSpaceOnUse" x="1" y="1" width="24" height="24">
<path d="M25 1H1V25H25V1Z" fill="white"/>
</mask>
<g mask="url(#mask0_239_270)">
<path d="M8.78567 4.487C8.89067 4.487 8.99667 4.487 9.08567 4.493C9.60803 4.52368 10.1207 4.64728 10.5997 4.858C10.8481 4.96607 11.0869 5.09486 11.3137 5.243L11.4197 5.318C11.4967 5.373 11.5697 5.434 11.6437 5.494C11.7177 5.554 11.7997 5.619 11.8587 5.664L11.9167 5.714L11.9877 5.775C12.1795 5.95249 12.4114 6.08082 12.6637 6.149L12.7217 6.165L12.7807 6.174C12.8436 6.18314 12.9071 6.18781 12.9707 6.188H13.0877L13.1607 6.177L13.2297 6.167L13.2957 6.147C13.5822 6.06381 13.8461 5.9168 14.0677 5.717C14.1467 5.658 14.2237 5.596 14.3007 5.535C14.3777 5.474 14.4287 5.435 14.4907 5.387L14.5597 5.336L14.6137 5.295C14.6417 5.275 14.6837 5.248 14.7207 5.224C14.905 5.10125 15.0986 4.99293 15.2997 4.9C15.873 4.64021 16.4953 4.5062 17.1247 4.507H17.1997C17.8259 4.51812 18.443 4.65945 19.0117 4.922C19.3429 5.074 19.6568 5.26142 19.9477 5.481C20.4842 5.891 20.9293 6.40834 21.2547 7C21.6031 7.65622 21.8397 8.36595 21.9547 9.1L21.9687 9.178L21.9767 9.226C21.9867 9.376 21.9947 9.526 21.9987 9.677C22.0027 9.828 22.0047 9.977 21.9987 10.077C21.9475 10.8131 21.7734 11.5354 21.4837 12.214C21.1133 12.9507 20.6245 13.6217 20.0367 14.2L19.9787 14.261C19.5337 14.738 19.0917 15.219 18.6507 15.699L17.8957 16.519L17.0107 17.476C15.976 18.5953 14.9393 19.7147 13.9007 20.834C13.6683 21.0885 13.394 21.3013 13.0897 21.463C13.0296 21.4935 12.9631 21.5092 12.8957 21.509C12.8279 21.5084 12.7611 21.4927 12.7002 21.4629C12.6393 21.4332 12.5858 21.3901 12.5437 21.337L12.5217 21.309L12.4997 21.287C11.1497 19.837 9.80334 18.3817 8.46067 16.921C8.19401 16.637 7.92734 16.3537 7.66067 16.071C7.30467 15.694 6.94867 15.316 6.58667 14.918C6.0105 14.3104 5.47596 13.6646 4.98667 12.985C4.46139 12.2267 4.13287 11.3498 4.03067 10.433C3.99865 10.1462 3.99062 9.85717 4.00667 9.569C4.06233 8.48998 4.41648 7.4476 5.02967 6.558C5.09267 6.471 5.15867 6.385 5.22967 6.292C5.6549 5.75 6.19354 5.30759 6.80782 4.99578C7.42211 4.68397 8.09717 4.51032 8.78567 4.487ZM8.77067 3.5C7.93366 3.52605 7.11253 3.73529 6.36511 4.11297C5.61769 4.49066 4.96216 5.0276 4.44467 5.686C4.36567 5.786 4.28867 5.886 4.21567 5.986C3.4936 7.02856 3.07602 8.25154 3.00967 9.518C2.99032 9.85921 3.00002 10.2014 3.03867 10.541C3.15748 11.6192 3.54423 12.6505 4.16367 13.541C4.68125 14.2619 5.24757 14.9465 5.85867 15.59C6.46967 16.262 7.10167 16.917 7.71967 17.585C9.06301 19.045 10.41 20.5007 11.7607 21.952C11.9676 22.2116 12.2574 22.3923 12.5816 22.4639C12.9058 22.5354 13.2447 22.4934 13.5417 22.345C13.9544 22.1285 14.3265 21.8423 14.6417 21.499C15.6783 20.381 16.7143 19.2623 17.7497 18.143L18.6347 17.187C19.3277 16.435 20.0167 15.679 20.7147 14.931L20.7677 14.874C21.4306 14.2176 21.9798 13.4556 22.3927 12.619C22.7322 11.8335 22.9374 10.9965 22.9997 10.143C23.0057 9.989 23.0057 9.823 22.9997 9.643C22.9937 9.463 22.9847 9.288 22.9717 9.112L22.9567 9.019L22.9397 8.919C22.8069 8.08518 22.5366 7.27921 22.1397 6.534C21.7449 5.81951 21.2058 5.19495 20.5567 4.7C20.2071 4.43657 19.8298 4.21192 19.4317 4.03C18.736 3.70955 17.9815 3.53692 17.2157 3.523H17.1207C16.3494 3.52275 15.587 3.68743 14.8847 4.006C14.6365 4.11865 14.3975 4.25038 14.1697 4.4C14.1157 4.436 14.0477 4.48 14.0097 4.509L13.8847 4.603C13.7327 4.717 13.5777 4.846 13.4207 4.963C13.3061 5.07441 13.166 5.15612 13.0127 5.201C12.9848 5.20494 12.9565 5.20494 12.9287 5.201C12.8294 5.17417 12.7385 5.12256 12.6647 5.051C12.6017 5 12.5427 4.944 12.4857 4.898C12.3277 4.779 12.1747 4.643 12.0117 4.526C11.9677 4.49 11.9227 4.459 11.8777 4.429C11.5994 4.24573 11.3056 4.08713 10.9997 3.955C10.4129 3.69785 9.7852 3.54652 9.14567 3.508C9.01867 3.5 8.89367 3.5 8.77067 3.5Z" fill="#0071CD"/>
</g>
</svg>
