<svg width="26" height="26" viewBox="0 0 26 26" fill="none" xmlns="http://www.w3.org/2000/svg">
<mask id="mask0_239_248" style="mask-type:luminance" maskUnits="userSpaceOnUse" x="1" y="1" width="24" height="24">
<path d="M25 1H1V25H25V1Z" fill="white"/>
</mask>
<g mask="url(#mask0_239_248)">
<path d="M4.84166 3.00004H6.65466C6.89381 3.00017 7.13057 3.04758 7.35133 3.13955C7.57208 3.23152 7.77247 3.36623 7.94097 3.53594C8.10947 3.70564 8.24275 3.90699 8.33314 4.1284C8.42353 4.3498 8.46925 4.5869 8.46766 4.82604V6.63904C8.46754 6.87819 8.42013 7.11495 8.32816 7.3357C8.23618 7.55646 8.10147 7.75685 7.93177 7.92534C7.76206 8.09384 7.56071 8.22712 7.33931 8.31751C7.1179 8.4079 6.88081 8.45362 6.64166 8.45204H4.82866C4.58952 8.45191 4.35276 8.4045 4.132 8.31253C3.91125 8.22056 3.71086 8.08585 3.54236 7.91614C3.37386 7.74644 3.24058 7.54509 3.15019 7.32368C3.0598 7.10228 3.01408 6.86518 3.01566 6.62604V4.81304C3.01579 4.57389 3.0632 4.33713 3.15517 4.11638C3.24714 3.89562 3.38186 3.69523 3.55156 3.52673C3.72127 3.35824 3.92262 3.22496 4.14402 3.13457C4.36543 3.04418 4.60252 2.99846 4.84166 3.00004Z" fill="black"/>
<path d="M22.9905 4.82604V6.63904C22.9903 6.87785 22.9431 7.11428 22.8513 7.33477C22.7596 7.55526 22.6253 7.75548 22.456 7.92392C22.2867 8.09237 22.0858 8.22573 21.8649 8.31635C21.6439 8.40698 21.4073 8.45309 21.1685 8.45204H14.0095C13.9742 8.45423 13.9388 8.45423 13.9035 8.45204H12.0905C11.851 8.45244 11.6138 8.40542 11.3926 8.31368C11.1714 8.22195 10.9705 8.08732 10.8016 7.91756C10.6327 7.7478 10.499 7.54628 10.4084 7.32461C10.3177 7.10294 10.2719 6.86552 10.2735 6.62604V4.81304C10.2736 4.57389 10.321 4.33713 10.413 4.11638C10.505 3.89562 10.6397 3.69523 10.8094 3.52673C10.9791 3.35824 11.1804 3.22496 11.4018 3.13457C11.6232 3.04418 11.8603 2.99846 12.0995 3.00004H13.0225H21.1735C21.413 2.99964 21.6502 3.04666 21.8714 3.1384C22.0926 3.23013 22.2935 3.36476 22.4624 3.53452C22.6313 3.70428 22.7649 3.9058 22.8556 4.12747C22.9462 4.34914 22.9921 4.58656 22.9905 4.82604Z" fill="black"/>
<path d="M22.9895 12.0878V13.9008C22.9889 14.1396 22.9413 14.3759 22.8492 14.5963C22.7571 14.8166 22.6224 15.0166 22.4528 15.1848C22.2833 15.3529 22.0822 15.486 21.8611 15.5762C21.64 15.6665 21.4033 15.7122 21.1645 15.7108H14.0055C13.9702 15.7129 13.9348 15.7129 13.8995 15.7108H12.0865C11.8476 15.7106 11.6112 15.6633 11.3907 15.5716C11.1702 15.4799 10.97 15.3455 10.8016 15.1763C10.6331 15.007 10.4998 14.8061 10.4091 14.5852C10.3185 14.3642 10.2724 14.1276 10.2735 13.8888V12.0758C10.2734 11.8366 10.3207 11.5998 10.4126 11.379C10.5044 11.1582 10.639 10.9577 10.8086 10.7892C10.9783 10.6206 11.1795 10.4872 11.4009 10.3967C11.6222 10.3062 11.8593 10.2603 12.0985 10.2618H13.0215H21.1725C21.4119 10.2614 21.6491 10.3084 21.8703 10.4001C22.0916 10.4918 22.2924 10.6265 22.4614 10.7962C22.6303 10.966 22.7639 11.1675 22.8545 11.3892C22.9452 11.6109 22.991 11.8483 22.9895 12.0878Z" fill="black"/>
<path d="M22.9943 19.3728V21.1858C22.9941 21.4246 22.9469 21.661 22.8551 21.8815C22.7634 22.102 22.6291 22.3022 22.4598 22.4707C22.2905 22.6391 22.0896 22.7725 21.8687 22.8631C21.6477 22.9537 21.4111 22.9999 21.1723 22.9988H14.0133C13.978 23.001 13.9426 23.001 13.9073 22.9988H12.0943C11.8555 22.9987 11.619 22.9514 11.3985 22.8597C11.178 22.7679 10.9778 22.6336 10.8094 22.4643C10.6409 22.295 10.5076 22.0942 10.4169 21.8732C10.3263 21.6523 10.2802 21.4156 10.2813 21.1768V19.3638C10.2814 19.125 10.3287 18.8886 10.4204 18.6681C10.5121 18.4476 10.6465 18.2474 10.8158 18.0789C10.985 17.9105 11.1859 17.7771 11.4069 17.6865C11.6278 17.5959 11.8645 17.5497 12.1033 17.5508H13.0263H21.1773C21.4163 17.5507 21.6531 17.5977 21.8739 17.6893C22.0948 17.7809 22.2953 17.9152 22.4641 18.0845C22.633 18.2537 22.7667 18.4547 22.8577 18.6758C22.9486 18.8969 22.9951 19.1337 22.9943 19.3728Z" fill="black"/>
<path d="M4.83782 10.2656H6.64682C6.88617 10.2659 7.12311 10.3134 7.34408 10.4053C7.56505 10.4973 7.76572 10.6319 7.93459 10.8015C8.10346 10.9712 8.23721 11.1724 8.3282 11.3938C8.41918 11.6152 8.46561 11.8523 8.46482 12.0916V13.9006C8.46403 14.3832 8.27165 14.8456 7.92999 15.1863C7.58833 15.5271 7.12534 15.7182 6.64282 15.7176H4.82982C4.59014 15.7179 4.35277 15.6708 4.13134 15.5791C3.9099 15.4874 3.70876 15.3528 3.53947 15.1832C3.37017 15.0135 3.23606 14.8121 3.14483 14.5904C3.05359 14.3688 3.00703 14.1313 3.00782 13.8916V12.0826C3.00835 11.8431 3.05613 11.606 3.14844 11.3849C3.24076 11.1639 3.37578 10.9632 3.54577 10.7944C3.71577 10.6256 3.9174 10.492 4.13912 10.4013C4.36083 10.3106 4.59827 10.2645 4.83782 10.2656Z" fill="black"/>
<path d="M4.84163 17.5274H6.65063C7.13315 17.5281 7.5956 17.7205 7.93633 18.0622C8.27705 18.4038 8.46816 18.8668 8.46763 19.3494V21.1584C8.46683 21.6409 8.27446 22.1033 7.93279 22.4441C7.59113 22.7848 7.12815 22.9759 6.64563 22.9754H4.83663C4.59737 22.9755 4.36043 22.9284 4.13937 22.8369C3.91831 22.7454 3.71747 22.6112 3.54834 22.4419C3.3792 22.2727 3.24509 22.0718 3.15369 21.8507C3.06228 21.6296 3.01536 21.3926 3.01563 21.1534V19.3444C3.01602 19.1051 3.06358 18.8683 3.1556 18.6474C3.24761 18.4265 3.38227 18.226 3.55187 18.0572C3.72147 17.8885 3.92268 17.7548 4.14399 17.6639C4.3653 17.573 4.60237 17.5266 4.84163 17.5274Z" fill="black"/>
</g>
</svg>
