<svg width="26" height="26" viewBox="0 0 26 26" fill="none" xmlns="http://www.w3.org/2000/svg">
<mask id="mask0_239_357" style="mask-type:luminance" maskUnits="userSpaceOnUse" x="1" y="1" width="24" height="24">
<path d="M25 1H1V25H25V1Z" fill="white"/>
</mask>
<g mask="url(#mask0_239_357)">
<path d="M12.843 23.0012C12.6814 22.8686 12.5324 22.7213 12.3981 22.5611C11.2231 20.8781 10.0401 19.2011 8.89807 17.4961C7.93212 16.1007 7.14654 14.5887 6.56006 12.9961C6.18889 12.0006 5.99917 10.9466 6 9.88415C6.03462 8.19248 6.68078 6.57058 7.81897 5.31859C8.95716 4.06661 10.5103 3.26926 12.191 3.07409C13.8718 2.87891 15.5664 3.29911 16.9612 4.25695C18.356 5.21478 19.3566 6.64545 19.778 8.28417C20.1278 9.72866 20.0508 11.2436 19.556 12.6451C19.041 14.1949 18.3162 15.6669 17.402 17.0201C16.359 18.6041 15.262 20.1521 14.188 21.7201C13.993 22.0041 13.81 22.2972 13.599 22.5682C13.4607 22.725 13.3117 22.872 13.153 23.0082L12.843 23.0012ZM12.993 21.3641C13.027 21.3251 13.0451 21.3072 13.0601 21.2862C14.1341 19.7302 15.23 18.1861 16.276 16.6141C17.1826 15.2947 17.9059 13.8583 18.426 12.3442C18.8429 11.207 18.9374 9.97669 18.699 8.78917C18.5175 7.93211 18.1449 7.12701 17.6091 6.43389C17.0733 5.74076 16.3881 5.17744 15.6044 4.78588C14.8207 4.39432 13.9588 4.1846 13.0828 4.17235C12.2068 4.16011 11.3394 4.34564 10.545 4.71514C9.40137 5.25379 8.46144 6.14626 7.86426 7.26049C7.26708 8.37472 7.04431 9.65154 7.22901 10.9022C7.41023 11.9731 7.74713 13.0117 8.22901 13.9852C9.03217 15.5896 9.96676 17.1248 11.0231 18.5751C11.6731 19.5011 12.329 20.4221 12.993 21.3641Z" fill="#0071CD"/>
<path d="M13.0169 6.37502C13.7643 6.37246 14.4956 6.59195 15.118 7.0057C15.7404 7.41945 16.2258 8.00881 16.5127 8.69894C16.7997 9.38906 16.8752 10.1489 16.7295 10.8819C16.5839 11.615 16.2238 12.2882 15.6949 12.8163C15.166 13.3444 14.4921 13.7034 13.7588 13.8479C13.0255 13.9923 12.2659 13.9157 11.5762 13.6276C10.8866 13.3396 10.2979 12.8532 9.88518 12.2301C9.47242 11.607 9.2541 10.8754 9.25786 10.128C9.26051 9.13243 9.65756 8.17848 10.3621 7.47506C11.0667 6.77164 12.0213 6.37608 13.0169 6.37502ZM12.9988 7.63204C12.5007 7.62768 12.0126 7.77135 11.5962 8.04482C11.1799 8.31829 10.8541 8.70919 10.6602 9.16805C10.4663 9.62691 10.413 10.1331 10.5071 10.6222C10.6013 11.1114 10.8386 11.5615 11.1889 11.9157C11.5392 12.2698 11.9869 12.5119 12.475 12.6114C12.9631 12.7108 13.4698 12.6629 13.9307 12.474C14.3916 12.2851 14.7861 11.9636 15.064 11.5502C15.3419 11.1368 15.4909 10.6501 15.4919 10.152C15.4937 9.48758 15.2324 8.84947 14.7651 8.37722C14.2977 7.90497 13.6632 7.63706 12.9988 7.63204Z" fill="#0071CD"/>
</g>
</svg>
