<svg width="26" height="26" viewBox="0 0 26 26" fill="none" xmlns="http://www.w3.org/2000/svg">
<mask id="mask0_239_287" style="mask-type:luminance" maskUnits="userSpaceOnUse" x="1" y="1" width="24" height="24">
<path d="M25 1H1V25H25V1Z" fill="white"/>
</mask>
<g mask="url(#mask0_239_287)">
<mask id="mask1_239_287" style="mask-type:luminance" maskUnits="userSpaceOnUse" x="1" y="1" width="24" height="24">
<path d="M25 1H1V25H25V1Z" fill="white"/>
</mask>
<g mask="url(#mask1_239_287)">
<path d="M12.9944 3C11.08 3.00212 9.2445 3.76358 7.89076 5.11732C6.53702 6.47106 5.77555 8.30652 5.77344 10.221C5.77344 15.749 12.1934 22.491 12.4664 22.776C12.5347 22.847 12.6167 22.9035 12.7073 22.942C12.7979 22.9806 12.8954 23.0005 12.9939 23.0005C13.0924 23.0005 13.1899 22.9806 13.2806 22.942C13.3712 22.9035 13.4531 22.847 13.5214 22.776C13.7944 22.492 20.2144 15.749 20.2144 10.221C20.2123 8.30669 19.451 6.47139 18.0975 5.11767C16.7439 3.76396 14.9087 3.00238 12.9944 3ZM12.9944 13.547C12.3366 13.547 11.6936 13.3519 11.1466 12.9865C10.5997 12.621 10.1733 12.1016 9.92161 11.4938C9.66988 10.8861 9.60401 10.2173 9.73235 9.57213C9.86068 8.92695 10.1774 8.33431 10.6426 7.86916C11.1077 7.40401 11.7004 7.08724 12.3456 6.95891C12.9907 6.83057 13.6595 6.89644 14.2672 7.14818C14.875 7.39991 15.3944 7.82622 15.7599 8.37317C16.1254 8.92013 16.3204 9.56318 16.3204 10.221C16.3194 11.1028 15.9686 11.9482 15.3451 12.5717C14.7216 13.1952 13.8762 13.5459 12.9944 13.547Z" fill="black"/>
<path d="M7.71734 18.6602H5.56534C5.3741 18.6581 5.18936 18.7295 5.04938 18.8598C4.90939 18.9902 4.82488 19.1693 4.81334 19.3602C4.8086 19.4592 4.824 19.558 4.85859 19.6509C4.89319 19.7437 4.94627 19.8285 5.01461 19.9002C5.08296 19.9719 5.16514 20.029 5.2562 20.068C5.34725 20.1071 5.44528 20.1272 5.54434 20.1272H8.05134C8.14032 20.127 8.22756 20.1025 8.30362 20.0563C8.37967 20.0101 8.44165 19.944 8.48284 19.8651C8.52403 19.7862 8.54287 19.6976 8.53731 19.6088C8.53176 19.5199 8.50203 19.4343 8.45134 19.3612C8.11934 18.8812 8.04134 18.6602 7.71734 18.6602Z" fill="black"/>
<path d="M20.4261 18.6602H18.2741C17.9511 18.6602 17.8741 18.8802 17.5401 19.3602C17.4894 19.4333 17.4596 19.5189 17.4541 19.6078C17.4485 19.6966 17.4674 19.7852 17.5086 19.8641C17.5497 19.943 17.6117 20.0091 17.6878 20.0553C17.7638 20.1015 17.8511 20.126 17.9401 20.1262H20.4471C20.5461 20.1262 20.6441 20.1061 20.7352 20.067C20.8262 20.028 20.9084 19.9709 20.9768 19.8992C21.0451 19.8275 21.0982 19.7427 21.1328 19.6499C21.1674 19.557 21.1828 19.4582 21.1781 19.3592C21.1663 19.1685 21.0816 18.9896 20.9417 18.8595C20.8017 18.7294 20.6171 18.658 20.4261 18.6602Z" fill="black"/>
</g>
</g>
</svg>
