<svg width="26" height="26" viewBox="0 0 26 26" fill="none" xmlns="http://www.w3.org/2000/svg">
<mask id="mask0_239_306" style="mask-type:luminance" maskUnits="userSpaceOnUse" x="1" y="1" width="24" height="24">
<path d="M25 1H1V25H25V1Z" fill="white"/>
</mask>
<g mask="url(#mask0_239_306)">
<path d="M13.0074 14.113C13.1539 14.113 13.299 14.084 13.4342 14.0276C13.5694 13.9713 13.6921 13.8887 13.7952 13.7847C13.8983 13.6806 13.9798 13.5572 14.0349 13.4215C14.0901 13.2858 14.1178 13.1405 14.1164 12.994V4.109C14.1164 3.81487 13.9996 3.5328 13.7916 3.32482C13.5836 3.11684 13.3016 3 13.0074 3C12.7133 3 12.4312 3.11684 12.2233 3.32482C12.0153 3.5328 11.8984 3.81487 11.8984 4.109V13C11.8982 13.1457 11.9267 13.29 11.9823 13.4247C12.038 13.5594 12.1196 13.6817 12.2227 13.7848C12.3257 13.8878 12.4481 13.9695 12.5827 14.0251C12.7174 14.0808 12.8617 14.1093 13.0074 14.109" fill="#0071CD"/>
<path d="M20.6225 6.5596C20.5225 6.4396 20.4225 6.3196 20.3125 6.2096C20.109 6.00354 19.8331 5.88514 19.5436 5.87964C19.2541 5.87415 18.9739 5.982 18.7628 6.18019C18.5517 6.37838 18.4264 6.65121 18.4137 6.94049C18.4009 7.22976 18.5017 7.51258 18.6945 7.7286C20.0386 9.15416 20.7857 11.0403 20.7825 12.9996C20.785 14.2676 20.4775 15.517 19.8868 16.6391C19.2961 17.7611 18.4401 18.7217 17.3933 19.4374C16.3465 20.153 15.1407 20.6019 13.8808 20.7451C12.6208 20.8882 11.345 20.7212 10.1644 20.2586C8.98375 19.7961 7.93407 19.0519 7.10672 18.091C6.27937 17.1301 5.69943 15.9815 5.41739 14.7453C5.13535 13.509 5.15975 12.2226 5.48848 10.9979C5.8172 9.77321 6.44028 8.64745 7.30348 7.7186C7.45518 7.56357 7.55738 7.36695 7.59709 7.15371C7.63679 6.94047 7.61221 6.72024 7.52647 6.521C7.44073 6.32176 7.2977 6.15251 7.11555 6.03474C6.9334 5.91697 6.72035 5.85601 6.50348 5.8596C6.35142 5.85648 6.20046 5.88613 6.06087 5.94652C5.92128 6.00691 5.79632 6.09663 5.69448 6.2096C3.98408 8.03845 3.02262 10.4428 3.00039 12.9467C2.97817 15.4507 3.89681 17.8717 5.57448 19.7306C7.29613 21.6075 9.66333 22.7647 12.202 22.9703C14.7406 23.176 17.2632 22.4149 19.2645 20.8396C20.3066 20.0018 21.1703 18.9638 21.8046 17.7867C22.4389 16.6096 22.8309 15.3173 22.9575 13.9862C23.0841 12.6551 22.9427 11.3121 22.5416 10.0366C22.1406 8.76103 21.488 7.57877 20.6225 6.5596Z" fill="#0071CD"/>
</g>
</svg>
