<svg width="26" height="26" viewBox="0 0 26 26" fill="none" xmlns="http://www.w3.org/2000/svg">
<mask id="mask0_239_349" style="mask-type:luminance" maskUnits="userSpaceOnUse" x="1" y="1" width="24" height="24">
<path d="M25 1H1V25H25V1Z" fill="white"/>
</mask>
<g mask="url(#mask0_239_349)">
<path d="M6.32818 18.7156H4.13415C3.58407 18.725 3.04989 18.531 2.63415 18.1707C2.39212 17.9678 2.199 17.7128 2.06915 17.4249C1.93929 17.1369 1.87605 16.8235 1.88415 16.5077V5.26263C1.87344 4.95639 1.92724 4.65135 2.04205 4.36724C2.15685 4.08314 2.33013 3.8264 2.55059 3.61358C2.77105 3.40076 3.0338 3.23661 3.32177 3.13189C3.60974 3.02717 3.91649 2.98418 4.22216 3.00567H21.7582C22.0638 2.9836 22.3707 3.02613 22.6588 3.13043C22.9469 3.23472 23.2099 3.39843 23.4306 3.61102C23.6513 3.82361 23.8248 4.08028 23.9398 4.36431C24.0548 4.64835 24.1088 4.95345 24.0981 5.2597C24.0981 8.99303 24.0981 12.7263 24.0981 16.4597C24.1087 16.7659 24.0548 17.0711 23.9398 17.3552C23.8248 17.6392 23.6513 17.8959 23.4307 18.1086C23.21 18.3212 22.947 18.4851 22.6589 18.5895C22.3707 18.6939 22.0639 18.7366 21.7582 18.7147C18.8735 18.7147 15.9888 18.7166 13.1042 18.7206C12.9633 18.7239 12.8267 18.7696 12.7122 18.8517C11.0568 20.1184 9.40581 21.3894 7.75915 22.6647C7.68715 22.7207 7.61513 22.7777 7.54113 22.8307C7.43098 22.9219 7.2967 22.9789 7.15466 22.9951C7.01261 23.0112 6.86895 22.9857 6.74114 22.9217C6.61235 22.8653 6.50373 22.7711 6.42962 22.6517C6.35551 22.5322 6.31944 22.3932 6.32616 22.2527V19.0176L6.32818 18.7156ZM7.80914 20.7947C7.90914 20.7207 7.96314 20.6796 8.01714 20.6376C9.34214 19.6166 10.6682 18.5977 11.9882 17.5687C12.2264 17.3749 12.5262 17.2728 12.8332 17.2807C15.8098 17.2887 18.7865 17.2887 21.7632 17.2807C21.8767 17.2987 21.9928 17.2902 22.1025 17.2559C22.2122 17.2216 22.3124 17.1624 22.3954 17.0829C22.4784 17.0034 22.5419 16.9058 22.5809 16.7977C22.6199 16.6895 22.6333 16.5738 22.6202 16.4597C22.6202 12.719 22.6202 8.97839 22.6202 5.23773C22.6318 5.12546 22.6177 5.01193 22.5789 4.90594C22.5401 4.79995 22.4776 4.70424 22.3962 4.62603C22.3148 4.54783 22.2167 4.48919 22.1092 4.45464C22.0018 4.4201 21.8879 4.41057 21.7762 4.42669H4.21618C4.10273 4.4097 3.98688 4.41915 3.87768 4.45428C3.76848 4.4894 3.66887 4.54926 3.5866 4.62921C3.50434 4.70915 3.44161 4.80694 3.40337 4.91509C3.36514 5.02324 3.3524 5.13886 3.36614 5.25274V16.4527C3.35168 16.5667 3.3639 16.6826 3.40179 16.7911C3.43967 16.8996 3.50218 16.9978 3.58446 17.0781C3.66675 17.1583 3.76654 17.2184 3.87597 17.2536C3.9854 17.2888 4.10151 17.298 4.21514 17.2807H7.01513C7.11959 17.271 7.22494 17.284 7.32391 17.3188C7.42288 17.3536 7.51315 17.4094 7.58855 17.4824C7.66396 17.5553 7.72272 17.6436 7.7608 17.7414C7.79887 17.8391 7.81535 17.9439 7.80914 18.0486V20.7947Z" fill="white"/>
<path d="M12.8876 10.1715H7.13466C7.00948 10.1747 6.88546 10.1467 6.77376 10.0901C6.66205 10.0335 6.56619 9.9501 6.4947 9.84729C6.42322 9.74448 6.37835 9.62552 6.36421 9.5011C6.35007 9.37668 6.36707 9.25075 6.41365 9.13452C6.45706 9.00139 6.5389 8.88403 6.64888 8.79737C6.75886 8.7107 6.89204 8.65854 7.03163 8.64746C7.09824 8.64355 7.16503 8.64355 7.23164 8.64746H18.5316C18.6296 8.64276 18.7278 8.64811 18.8247 8.66345C19.0006 8.70598 19.1556 8.81 19.2618 8.95667C19.3679 9.10333 19.4182 9.28305 19.4036 9.4635C19.3964 9.64759 19.3206 9.82236 19.1911 9.95337C19.0615 10.0844 18.8876 10.1622 18.7036 10.1715C18.2036 10.1825 17.7036 10.1715 17.2036 10.1715H12.8876Z" fill="white"/>
<path d="M9.9797 11.4795H12.9167C13.0249 11.465 13.135 11.4736 13.2396 11.5049C13.3443 11.5362 13.441 11.5896 13.5235 11.6611C13.6059 11.7327 13.6723 11.8208 13.718 11.9199C13.7638 12.0191 13.788 12.1269 13.7889 12.2361C13.7898 12.3453 13.7675 12.4536 13.7234 12.5535C13.6793 12.6534 13.6145 12.7427 13.5333 12.8157C13.452 12.8886 13.3562 12.9435 13.2522 12.9766C13.1481 13.0096 13.0382 13.0202 12.9297 13.0076H7.00869C6.90024 13.0204 6.7903 13.0097 6.68618 12.9768C6.58206 12.9439 6.48616 12.8893 6.40481 12.8164C6.32345 12.7436 6.25851 12.6543 6.21431 12.5544C6.17012 12.4546 6.14767 12.3465 6.14846 12.2373C6.14924 12.1281 6.1732 12.0204 6.21883 11.9211C6.26446 11.8219 6.33071 11.7335 6.41311 11.6619C6.4955 11.5902 6.59221 11.5368 6.6968 11.5054C6.80138 11.4739 6.91142 11.4651 7.01967 11.4795H9.9797Z" fill="white"/>
</g>
</svg>
