<svg width="64" height="65" viewBox="0 0 64 65" fill="none" xmlns="http://www.w3.org/2000/svg">
<path d="M27.2789 23.8349C33.7671 27.4233 42.4212 22.33 42.2551 14.7474C42.2514 12.0308 41.1706 9.42647 39.2497 7.50552C37.3288 5.58457 34.7245 4.50374 32.0079 4.5C21.2513 4.63577 17.9027 18.8636 27.2789 23.8349Z" fill="black"/>
<path d="M16.4711 42.0604H47.5431C48.396 42.0575 49.2132 41.7174 49.8163 41.1143C50.4194 40.5113 50.7595 39.6941 50.7623 38.8412V34.8222C50.7632 32.9813 50.1842 31.1869 49.1074 29.6938C48.0306 28.2007 46.5109 27.0847 44.7639 26.5043L39.1953 24.6548C37.1088 26.1751 34.5938 26.9942 32.0121 26.9942C29.4305 26.9942 26.9155 26.1751 24.829 24.6548L19.2504 26.5043C17.5034 27.0847 15.9836 28.2007 14.9069 29.6938C13.8301 31.1869 13.2511 32.9813 13.252 34.8222V38.8412C13.2548 39.6941 13.5949 40.5113 14.198 41.1143C14.8011 41.7174 15.6182 42.0575 16.4711 42.0604Z" fill="black"/>
<path d="M57.1209 48.9786H54.4516C54.3936 48.979 54.337 48.9608 54.2902 48.9266C54.2434 48.8923 54.2088 48.844 54.1916 48.7886L53.3618 46.2493C53.2075 45.7979 52.9159 45.406 52.5278 45.1285C52.1397 44.851 51.6745 44.7018 51.1974 44.7018C50.7203 44.7018 50.2552 44.851 49.8671 45.1284C49.479 45.4059 49.1873 45.7978 49.033 46.2492L48.2132 48.7886C48.1935 48.8424 48.1583 48.8892 48.112 48.923C48.0658 48.9568 48.0105 48.9761 47.9533 48.9786H45.284C44.8033 48.9763 44.3343 49.1267 43.9446 49.4082C43.555 49.6896 43.2647 50.0875 43.1157 50.5445C42.9667 51.0015 42.9666 51.494 43.1156 51.9511C43.2645 52.4081 43.5547 52.8061 43.9443 53.0876L46.1037 54.6571C46.1482 54.6939 46.1812 54.7426 46.1989 54.7975C46.2166 54.8524 46.2183 54.9112 46.2037 54.967L45.3739 57.5064C45.2271 57.9639 45.2287 58.4561 45.3784 58.9127C45.5281 59.3693 45.8184 59.7668 46.2077 60.0485C46.5969 60.3302 47.0653 60.4816 47.5458 60.4811C48.0263 60.4806 48.4943 60.3282 48.883 60.0457L51.0325 58.4861C51.0787 58.4474 51.1371 58.4261 51.1974 58.4261C51.2577 58.4261 51.3161 58.4474 51.3623 58.4861L53.5218 60.0456C53.9112 60.3206 54.377 60.4668 54.8537 60.4637C55.3305 60.4607 55.7943 60.3084 56.1802 60.0284C56.5661 59.7484 56.8546 59.3547 57.0054 58.9024C57.1562 58.4501 57.1616 57.9619 57.0209 57.5064L56.2011 54.967C56.1824 54.9124 56.1811 54.8533 56.1971 54.7978C56.2132 54.7424 56.246 54.6932 56.2911 54.6571L58.4506 53.0876C58.833 52.8031 59.1167 52.4059 59.2617 51.9519C59.4067 51.4979 59.4058 51.0098 59.259 50.5563C59.1123 50.1028 58.8271 49.7067 58.4436 49.4237C58.0601 49.1407 57.5975 48.985 57.1209 48.9786Z" fill="black"/>
<path d="M18.7301 48.9786H16.0608C16.0035 48.9761 15.9483 48.9568 15.902 48.923C15.8557 48.8892 15.8205 48.8424 15.8008 48.7886L14.981 46.2493C14.8267 45.7979 14.5351 45.406 14.147 45.1285C13.7589 44.851 13.2937 44.7018 12.8166 44.7018C12.3395 44.7018 11.8744 44.851 11.4862 45.1284C11.0981 45.4059 10.8065 45.7978 10.6522 46.2492L9.82235 48.7886C9.80517 48.844 9.77061 48.8924 9.72379 48.9266C9.67698 48.9608 9.62039 48.9791 9.5624 48.9786H6.89314C6.4133 48.9785 5.94578 49.1304 5.55771 49.4126C5.16965 49.6948 4.88102 50.0928 4.73329 50.5493C4.58555 51.0058 4.58632 51.4974 4.73548 51.9535C4.88464 52.4096 5.17451 52.8066 5.56346 53.0876L7.72294 54.6571C7.76798 54.6932 7.80078 54.7424 7.81687 54.7979C7.83297 54.8533 7.83157 54.9124 7.81288 54.967L6.99309 57.5064C6.8459 57.9629 6.84678 58.4542 6.99563 58.9101C7.14447 59.366 7.43364 59.7632 7.8218 60.0449C8.20997 60.3266 8.67726 60.4784 9.15687 60.4785C9.63648 60.4787 10.1039 60.3272 10.4922 60.0457L12.6517 58.4861C12.6979 58.4474 12.7563 58.4261 12.8166 58.4261C12.8769 58.4261 12.9353 58.4474 12.9815 58.4861L15.1309 60.0456C15.5208 60.3216 15.9872 60.4688 16.4648 60.4663C16.9425 60.4639 17.4074 60.312 17.7944 60.032C18.1813 59.752 18.471 59.3579 18.6226 58.905C18.7743 58.452 18.7804 57.963 18.6401 57.5064L17.8103 54.967C17.7958 54.9112 17.7975 54.8524 17.8152 54.7975C17.8329 54.7426 17.8659 54.6939 17.9103 54.6571L20.0698 53.0875C20.4594 52.806 20.7496 52.4081 20.8985 51.9511C21.0474 51.494 21.0474 51.0015 20.8984 50.5445C20.7494 50.0875 20.4591 49.6896 20.0694 49.4081C19.6797 49.1267 19.2107 48.9763 18.7301 48.9786Z" fill="black"/>
<path d="M37.9266 48.9786H35.2573C35.1997 48.9776 35.1437 48.9588 35.0972 48.9248C35.0507 48.8907 35.0158 48.8432 34.9973 48.7886L34.1675 46.2493C34.0144 45.7981 33.7237 45.4062 33.3364 45.1287C32.9491 44.8511 32.4846 44.7018 32.0081 44.7018C31.5316 44.7018 31.0671 44.8511 30.6798 45.1286C30.2925 45.4062 30.0018 45.798 29.8487 46.2492L29.0189 48.7886C29.0004 48.8432 28.9655 48.8907 28.919 48.9247C28.8725 48.9588 28.8166 48.9776 28.7589 48.9786H26.0896C25.6103 48.9791 25.1433 49.1311 24.7556 49.4128C24.3678 49.6946 24.0789 50.0917 23.9304 50.5475C23.7818 51.0032 23.781 51.4942 23.9282 51.9504C24.0754 52.4066 24.363 52.8046 24.7499 53.0876L26.9094 54.6571C26.9575 54.6909 26.9933 54.7394 27.0113 54.7953C27.0293 54.8513 27.0287 54.9115 27.0094 54.967L26.1896 57.5064C26.0405 57.9631 26.0401 58.4554 26.1884 58.9123C26.3366 59.3693 26.626 59.7675 27.0148 60.0497C27.4037 60.3319 27.872 60.4835 28.3524 60.4828C28.8328 60.4821 29.3007 60.3291 29.6887 60.0457L31.8482 58.4861C31.8925 58.4475 31.9493 58.4261 32.0081 58.4261C32.0669 58.4261 32.1237 58.4475 32.168 58.4861L34.3274 60.0456C34.7166 60.322 35.1828 60.4694 35.6601 60.4669C36.1375 60.4645 36.6021 60.3124 36.9884 60.032C37.3748 59.7516 37.6635 59.3571 37.8139 58.9041C37.9642 58.451 37.9687 57.9622 37.8266 57.5064L37.0069 54.967C36.9876 54.9115 36.9869 54.8512 37.0049 54.7953C37.023 54.7394 37.0587 54.6909 37.1068 54.6571L39.2663 53.0875C39.6532 52.8046 39.9408 52.4066 40.088 51.9504C40.2352 51.4942 40.2344 51.0032 40.0859 50.5474C39.9373 50.0917 39.6484 49.6946 39.2607 49.4128C38.8729 49.1311 38.4059 48.9791 37.9266 48.9786Z" fill="black"/>
</svg>
