<svg width="26" height="26" viewBox="0 0 26 26" fill="none" xmlns="http://www.w3.org/2000/svg">
<mask id="mask0_239_313" style="mask-type:luminance" maskUnits="userSpaceOnUse" x="1" y="1" width="24" height="24">
<path d="M25 1H1V25H25V1Z" fill="white"/>
</mask>
<g mask="url(#mask0_239_313)">
<path d="M13.2657 1.62891C13.5849 1.73687 13.8932 1.87449 14.1867 2.03992C14.4365 2.21174 14.6405 2.44191 14.7811 2.71045C14.9218 2.97899 14.9948 3.2778 14.9937 3.58093C15.0067 3.91493 14.9937 4.25088 14.9937 4.58588C15.3087 4.71588 15.6238 4.82192 15.9168 4.97192C17.0993 5.52025 18.1005 6.39523 18.8023 7.49371C19.5041 8.5922 19.8772 9.86841 19.8778 11.1719C19.9097 11.9609 19.8777 12.7529 19.9257 13.5389C20.0519 15.4889 20.7364 17.3614 21.8977 18.9329C22.1587 19.2929 22.4547 19.6329 22.7487 19.9629C22.8614 20.0593 22.94 20.1895 22.9728 20.3341C23.0055 20.4787 22.9908 20.6301 22.9307 20.7656C22.8706 20.9012 22.7684 21.0138 22.6392 21.0866C22.5101 21.1594 22.3608 21.1887 22.2137 21.1699H3.78275C3.63433 21.1872 3.48429 21.1565 3.35456 21.0823C3.22483 21.0082 3.12221 20.8946 3.06174 20.7579C3.00493 20.6228 2.99263 20.4731 3.02661 20.3305C3.0606 20.1879 3.13909 20.0599 3.25074 19.9649C4.61889 18.5284 5.54024 16.7253 5.90274 14.7749C6.01626 14.0551 6.08573 13.3291 6.11075 12.6009C6.1031 11.7977 6.13645 10.9947 6.21073 10.1949C6.38153 8.93845 6.90165 7.75521 7.71189 6.77985C8.52212 5.80449 9.58993 5.07623 10.7937 4.67792C10.8557 4.65492 10.9197 4.63489 10.9937 4.60889V3.73993C10.9681 3.25196 11.122 2.77144 11.4263 2.38916C11.7307 2.00688 12.1644 1.74927 12.6457 1.66492C12.6737 1.65602 12.7008 1.64464 12.7267 1.63092L13.2657 1.62891ZM13.6657 4.32892C13.6657 4.07292 13.6787 3.8289 13.6657 3.5849C13.6529 3.42451 13.5822 3.27425 13.4669 3.16205C13.3516 3.04985 13.1994 2.98337 13.0387 2.97491C12.8778 2.96487 12.719 3.01495 12.5929 3.11548C12.4669 3.21601 12.3827 3.35982 12.3567 3.51892C12.3376 3.78852 12.3353 4.05903 12.3497 4.32892H13.6657Z" fill="#0071CD"/>
<path d="M3.01016 10.5193C3.08071 8.08981 4.07657 5.77892 5.79416 4.05923C5.85325 3.99908 5.92361 3.95119 6.00122 3.91824C6.07883 3.88529 6.16217 3.86796 6.24649 3.86721C6.3308 3.86647 6.41443 3.88232 6.49261 3.9139C6.57079 3.94548 6.642 3.99214 6.70215 4.05123C6.76229 4.11033 6.81022 4.18071 6.84317 4.25833C6.87612 4.33594 6.89345 4.41931 6.89419 4.50363C6.89494 4.58794 6.87908 4.67154 6.8475 4.74972C6.81592 4.8279 6.76924 4.89911 6.71014 4.95925C5.1646 6.51352 4.29555 8.61538 4.29214 10.8073C4.29826 10.9367 4.26427 11.0647 4.19482 11.1741C4.12538 11.2835 4.02386 11.3687 3.90414 11.4182C3.79908 11.4749 3.67841 11.4959 3.56039 11.4778C3.44238 11.4598 3.33346 11.4038 3.25015 11.3183C3.14267 11.1824 3.06282 11.0268 3.01513 10.8603C2.99678 10.7474 2.99512 10.6326 3.01016 10.5193Z" fill="#0071CD"/>
<path d="M22.9927 10.5926C23.0019 10.7061 23.0019 10.8202 22.9927 10.9337C22.9674 11.0923 22.8833 11.2355 22.757 11.3349C22.6308 11.4343 22.4718 11.4825 22.3116 11.4699C22.1514 11.4573 22.0019 11.3848 21.8928 11.2669C21.7836 11.149 21.7229 10.9944 21.7227 10.8337C21.719 10.0637 21.6128 9.29756 21.4067 8.55563C21.0316 7.21916 20.3239 5.99957 19.3497 5.01064C19.2716 4.943 19.2084 4.85978 19.1643 4.76626C19.1202 4.67274 19.0962 4.57104 19.0938 4.46767C19.093 4.3418 19.131 4.21876 19.2026 4.1152C19.2741 4.01163 19.3758 3.93257 19.4938 3.8887C19.6116 3.83574 19.7433 3.8222 19.8695 3.85012C19.9956 3.87805 20.1093 3.94592 20.1937 4.04366C20.6069 4.49515 20.9952 4.96886 21.3568 5.46267C22.3941 6.97486 22.9631 8.75904 22.9927 10.5926Z" fill="#0071CD"/>
<path d="M10.1016 22.4609H15.9016C15.6587 23.0289 15.2544 23.513 14.7389 23.8533C14.2234 24.1935 13.6192 24.3749 13.0016 24.3749C12.3839 24.3749 11.7798 24.1935 11.2643 23.8533C10.7487 23.513 10.3444 23.0289 10.1016 22.4609Z" fill="#0071CD"/>
</g>
</svg>
