<svg width="26" height="26" viewBox="0 0 26 26" fill="none" xmlns="http://www.w3.org/2000/svg">
<mask id="mask0_239_335" style="mask-type:luminance" maskUnits="userSpaceOnUse" x="1" y="1" width="24" height="24">
<path d="M25 1H1V25H25V1Z" fill="white"/>
</mask>
<g mask="url(#mask0_239_335)">
<path d="M9.09075 15.8991C9.15165 15.8276 9.19783 15.7448 9.22666 15.6554C9.25549 15.566 9.2664 15.4718 9.25875 15.3781V15.3141C9.26664 15.2211 9.25584 15.1274 9.22699 15.0387C9.19813 14.9499 9.15181 14.8677 9.09075 14.7971C9.02891 14.7391 8.95584 14.6943 8.87604 14.6656C8.79624 14.6369 8.7114 14.6248 8.62675 14.6301H7.96875V16.0671H8.62675C8.71146 16.0722 8.7963 16.0599 8.87609 16.031C8.95588 16.0021 9.02893 15.9573 9.09075 15.8991Z" fill="black"/>
<path d="M11.9572 17.3441C12.0178 17.2732 12.0638 17.191 12.0925 17.1023C12.1212 17.0136 12.1319 16.92 12.1242 16.8271V15.3141C12.1319 15.2211 12.1212 15.1276 12.0925 15.0388C12.0638 14.9501 12.0178 14.8679 11.9572 14.7971C11.8951 14.7391 11.8218 14.6945 11.7419 14.6658C11.6619 14.637 11.577 14.6249 11.4922 14.6301H10.8672V17.5101H11.4932C11.5777 17.5152 11.6625 17.5032 11.7422 17.4746C11.822 17.4461 11.8951 17.4017 11.9572 17.3441Z" fill="black"/>
<path d="M22.4914 9.235L16.7444 3.12C16.7091 3.08216 16.6664 3.05199 16.6189 3.03135C16.5714 3.01071 16.5202 3.00004 16.4684 3H8.63444C8.0315 3.00053 7.4534 3.24028 7.02706 3.66662C6.60072 4.09297 6.36097 4.67106 6.36044 5.274V12.027H4.14044C3.94355 12.0273 3.75483 12.1057 3.6157 12.245C3.47658 12.3843 3.39844 12.5731 3.39844 12.77V19.409C3.3987 19.6057 3.47696 19.7943 3.61606 19.9334C3.75515 20.0725 3.94373 20.1507 4.14044 20.151H6.36044V20.727C6.36097 21.3299 6.60072 21.908 7.02706 22.3344C7.4534 22.7607 8.0315 23.0005 8.63444 23.001H20.3204C20.9229 22.9997 21.5002 22.7596 21.9259 22.3333C22.3516 21.9071 22.5909 21.3294 22.5914 20.727V9.494C22.5922 9.39811 22.5564 9.30552 22.4914 9.235ZM21.8364 20.727C21.8359 21.1289 21.676 21.5142 21.3918 21.7984C21.1076 22.0826 20.7223 22.2425 20.3204 22.243H8.63444C8.23253 22.2425 7.84724 22.0826 7.56305 21.7984C7.27886 21.5142 7.11897 21.1289 7.11844 20.727V20.151H18.7914C18.9881 20.1507 19.1767 20.0725 19.3158 19.9334C19.4549 19.7943 19.5332 19.6057 19.5334 19.409V12.77C19.5334 12.5731 19.4553 12.3843 19.3162 12.245C19.177 12.1057 18.9883 12.0273 18.7914 12.027H7.11744V5.274C7.11929 4.87279 7.2799 4.48863 7.56416 4.20549C7.84843 3.92235 8.23322 3.76326 8.63444 3.763H16.0834V8.233C16.084 8.66832 16.2571 9.08566 16.565 9.39349C16.8728 9.70131 17.2901 9.87447 17.7254 9.875H21.8374L21.8364 20.727ZM7.39944 17.823V14.312C7.39926 14.2875 7.40456 14.2634 7.41494 14.2412C7.42532 14.2191 7.44052 14.1995 7.45944 14.184C7.50364 14.1479 7.55942 14.1291 7.61644 14.131H8.65244C8.85427 14.1284 9.05445 14.1676 9.24044 14.246C9.41655 14.321 9.56382 14.4508 9.66044 14.616C9.77194 14.8258 9.82512 15.0617 9.81444 15.299V15.341C9.82568 15.5784 9.77062 15.8142 9.65544 16.022C9.55483 16.1893 9.404 16.3205 9.22444 16.397C9.03427 16.4756 8.8302 16.515 8.62444 16.513H7.96244V17.823C7.96357 17.8526 7.95579 17.8819 7.9401 17.907C7.92441 17.9322 7.90154 17.952 7.87444 17.964C7.81453 17.995 7.7479 18.0108 7.68044 18.01C7.61453 18.0101 7.5496 17.994 7.49144 17.963C7.46375 17.9517 7.44015 17.9323 7.42372 17.9073C7.4073 17.8823 7.39883 17.8529 7.39944 17.823ZM10.2994 17.829V14.312C10.2996 14.2866 10.306 14.2617 10.318 14.2394C10.33 14.2171 10.3473 14.1981 10.3684 14.184C10.421 14.147 10.4842 14.1284 10.5484 14.131H11.4874C11.696 14.1278 11.903 14.1676 12.0954 14.248C12.2751 14.324 12.4255 14.4558 12.5244 14.624C12.6384 14.8355 12.6926 15.074 12.6814 15.314V16.827C12.6926 17.067 12.6384 17.3055 12.5244 17.517C12.426 17.6855 12.2754 17.8175 12.0954 17.893C11.903 17.9734 11.696 18.0132 11.4874 18.01H10.5454C10.4812 18.0126 10.418 17.994 10.3654 17.957C10.3444 17.9432 10.327 17.9243 10.315 17.9022C10.303 17.88 10.2966 17.8552 10.2964 17.83L10.2994 17.829ZM14.7254 15.844C14.7522 15.8425 14.7788 15.8481 14.8027 15.8602C14.8266 15.8723 14.8469 15.8905 14.8614 15.913C14.8919 15.9604 14.9079 16.0156 14.9074 16.072C14.9068 16.124 14.8919 16.1748 14.8644 16.219C14.8502 16.2425 14.8298 16.2616 14.8055 16.2743C14.7812 16.287 14.7538 16.2928 14.7264 16.291H13.9044V17.823C13.9056 17.8526 13.8978 17.8819 13.8821 17.907C13.8664 17.9322 13.8435 17.952 13.8164 17.964C13.7565 17.995 13.6899 18.0108 13.6224 18.01C13.5549 18.0113 13.4882 17.9955 13.4284 17.964C13.4013 17.952 13.3785 17.9322 13.3628 17.907C13.3471 17.8819 13.3393 17.8526 13.3404 17.823V14.317C13.3396 14.2889 13.3465 14.2612 13.3605 14.2368C13.3744 14.2125 13.3948 14.1925 13.4194 14.179C13.4705 14.1475 13.5294 14.1309 13.5894 14.131H15.4524C15.4806 14.1293 15.5087 14.136 15.533 14.1503C15.5574 14.1645 15.577 14.1856 15.5894 14.211C15.6174 14.2612 15.6322 14.3176 15.6324 14.375C15.6341 14.4375 15.6181 14.4991 15.5864 14.553C15.5734 14.5773 15.5539 14.5974 15.53 14.6112C15.5062 14.625 15.479 14.6318 15.4514 14.631H13.9014V15.845L14.7254 15.844Z" fill="black"/>
</g>
</svg>
