<svg width="55" height="60" viewBox="0 0 55 60" fill="none" xmlns="http://www.w3.org/2000/svg">
<mask id="mask0_239_328" style="mask-type:luminance" maskUnits="userSpaceOnUse" x="1" y="1" width="53" height="58">
<path d="M54 1H1V59H54V1Z" fill="white"/>
</mask>
<g mask="url(#mask0_239_328)">
<path d="M49.912 12.7295C51.1183 13.4199 52.1221 14.4152 52.8227 15.6157C53.5233 16.8161 53.8962 18.1795 53.904 19.5695L54 40.6005C54.005 42.0086 53.6349 43.3926 52.9279 44.6103C52.2208 45.8281 51.2024 46.8356 49.9771 47.5295L31.62 57.9545C30.4072 58.6426 29.0361 59.0028 27.6417 58.9997C26.2472 58.9965 24.8777 58.6301 23.668 57.9365L5.08605 47.2685C3.88067 46.5775 2.87799 45.5819 2.17844 44.3814C1.47889 43.181 1.10701 41.8178 1.10005 40.4285L1.00005 19.4065C0.99514 17.9984 1.36521 16.6143 2.07223 15.3966C2.77926 14.1788 3.79774 13.1713 5.02305 12.4775L23.381 2.04746C24.5936 1.3584 25.9649 0.997384 27.3595 1.00001C28.7542 1.00265 30.1241 1.36883 31.334 2.06246L49.912 12.7295Z" fill="#0071CD"/>
<path d="M27.804 40.0023C27.6172 39.9551 27.4473 39.8569 27.3133 39.7186C27.1792 39.5803 27.0863 39.4074 27.045 39.2193C27.0277 39.1169 27.0203 39.0131 27.023 38.9093V30.9793H26.785C24.267 30.9793 21.748 30.9693 19.23 30.9863C18.9646 31.0241 18.6944 30.9653 18.4687 30.8207C18.2429 30.676 18.0766 30.4552 18 30.1983V29.8073C18.0469 29.6205 18.145 29.4506 18.2834 29.3166C18.4218 29.1827 18.5948 29.0901 18.783 29.0493C18.8854 29.0318 18.9892 29.0245 19.093 29.0273H27.023V21.0383C27.0146 20.9076 27.0327 20.7765 27.076 20.6529C27.1194 20.5293 27.1872 20.4158 27.2753 20.3189C27.3635 20.2221 27.4703 20.144 27.5893 20.0892C27.7083 20.0345 27.8371 20.0043 27.968 20.0004C28.0989 19.9965 28.2293 20.019 28.3513 20.0666C28.4733 20.1141 28.5846 20.1857 28.6783 20.2772C28.7721 20.3686 28.8465 20.478 28.8972 20.5988C28.9478 20.7196 28.9736 20.8493 28.973 20.9803C28.98 21.7483 28.973 22.5163 28.973 23.2803V29.0233H36.981C37.1444 29.0161 37.307 29.0503 37.4536 29.1228C37.6003 29.1953 37.7262 29.3037 37.8197 29.4379C37.9132 29.5721 37.9713 29.7278 37.9884 29.8905C38.0056 30.0531 37.9814 30.2175 37.918 30.3683C37.8486 30.5531 37.7225 30.7112 37.5578 30.82C37.3931 30.9289 37.1982 30.9829 37.001 30.9743C36.292 30.9803 35.582 30.9743 34.873 30.9743H28.973V31.2113C28.973 33.7293 28.963 36.2483 28.98 38.7673C29.0177 39.0326 28.9589 39.3026 28.8143 39.5282C28.6697 39.7537 28.4488 39.9199 28.192 39.9963L27.804 40.0023Z" fill="white"/>
</g>
</svg>
