<svg width="26" height="26" viewBox="0 0 26 26" fill="none" xmlns="http://www.w3.org/2000/svg">
<mask id="mask0_239_343" style="mask-type:luminance" maskUnits="userSpaceOnUse" x="1" y="1" width="24" height="24">
<path d="M25 1H1V25H25V1Z" fill="white"/>
</mask>
<g mask="url(#mask0_239_343)">
<path d="M12.7708 1.29688H13.2708C13.2818 1.30687 13.2908 1.32193 13.3038 1.32593L20.0238 3.73792C20.5238 3.91792 21.0238 4.10792 21.5128 4.31592C21.7527 4.38498 21.9695 4.51733 22.1405 4.6991C22.3115 4.88086 22.4305 5.10529 22.4849 5.34888C22.6389 6.41788 22.7699 7.49297 22.8649 8.56897C23.0303 10.3606 23.0453 12.1628 22.9098 13.9569C22.8731 14.6559 22.7727 15.3501 22.6099 16.0309C22.2357 17.2218 21.5845 18.3072 20.7098 19.1979C18.7185 21.349 16.3702 23.1398 13.7688 24.491C13.5401 24.6306 13.2771 24.7034 13.0092 24.7013C12.7413 24.6992 12.4792 24.6221 12.2528 24.4789C11.5318 24.0539 10.7978 23.6499 10.0949 23.1959C8.33764 22.0926 6.73951 20.7542 5.34485 19.2179C4.50434 18.3284 3.8601 17.2723 3.45386 16.1179C3.2106 15.2677 3.07617 14.3899 3.05383 13.5059C2.89749 10.9259 3.03878 8.33659 3.47485 5.78894C3.49228 5.46104 3.60382 5.14508 3.79626 4.87903C3.98871 4.61298 4.25385 4.40813 4.55981 4.28894L10.6768 2.01697C11.3768 1.77097 12.0769 1.53887 12.7659 1.29688H12.7708ZM11.9458 14.8059C11.9458 15.1259 11.9278 15.4469 11.9528 15.7649C11.9663 15.9608 12.0201 16.1518 12.1108 16.3259C12.229 16.5227 12.4069 16.6764 12.6188 16.7646C12.8306 16.8529 13.0652 16.871 13.2881 16.8162C13.5109 16.7614 13.7104 16.6366 13.8572 16.4602C14.004 16.2838 14.0904 16.065 14.1038 15.8359C14.1218 15.1889 14.1168 14.5419 14.1088 13.8949C14.1003 13.818 14.1148 13.7403 14.1504 13.6716C14.186 13.6029 14.2411 13.5463 14.3088 13.5089C14.7354 13.2255 15.0587 12.8115 15.2301 12.3289C15.4015 11.8462 15.4117 11.3211 15.2594 10.8322C15.1071 10.3432 14.8004 9.91672 14.3853 9.61682C13.9701 9.31692 13.4689 9.15979 12.9568 9.16882C12.4447 9.17786 11.9495 9.35263 11.5452 9.66699C11.1409 9.98135 10.8493 10.4183 10.7144 10.9124C10.5794 11.4064 10.6082 11.9308 10.7965 12.4071C10.9848 12.8834 11.3224 13.2858 11.7588 13.554C11.8218 13.584 11.8739 13.6328 11.908 13.6937C11.942 13.7546 11.9563 13.8246 11.9489 13.8939C11.9349 14.1939 11.9489 14.5009 11.9489 14.8059H11.9458Z" fill="#0071CD"/>
</g>
</svg>
