<svg width="26" height="26" viewBox="0 0 26 26" fill="none" xmlns="http://www.w3.org/2000/svg">
<mask id="mask0_239_376" style="mask-type:luminance" maskUnits="userSpaceOnUse" x="1" y="1" width="24" height="24">
<path d="M25 1H1V25H25V1Z" fill="white"/>
</mask>
<g mask="url(#mask0_239_376)">
<path d="M12.9992 12.764C12.0336 12.764 11.0897 12.4777 10.2869 11.9412C9.48406 11.4048 8.85832 10.6423 8.48881 9.75026C8.1193 8.85819 8.02262 7.87659 8.211 6.92957C8.39937 5.98256 8.86433 5.11267 9.54709 4.42991C10.2299 3.74715 11.0997 3.28218 12.0468 3.09381C12.9938 2.90544 13.9754 3.00212 14.8675 3.37162C15.7595 3.74113 16.522 4.36687 17.0584 5.16971C17.5949 5.97255 17.8812 6.91643 17.8812 7.882C17.8812 9.17679 17.3668 10.4185 16.4513 11.3341C15.5357 12.2496 14.294 12.764 12.9992 12.764Z" fill="black"/>
<path d="M22 20.1755C21.9991 20.548 21.9233 20.9164 21.7771 21.259C21.6309 21.6016 21.4173 21.9112 21.149 22.1695C20.5926 22.7073 19.8478 23.006 19.074 23.0015H6.915C6.15371 23.0133 5.41892 22.7222 4.87226 22.1922C4.3256 21.6622 4.01184 20.9368 4 20.1755C4.00133 19.3938 4.16107 18.6205 4.46958 17.9022C4.77809 17.184 5.22898 16.5357 5.795 15.9965C6.95562 14.8764 8.50802 14.2541 10.121 14.2625H15.879C17.4743 14.2366 19.0148 14.8446 20.1624 15.9531C21.3099 17.0617 21.9708 18.5802 22 20.1755Z" fill="black"/>
</g>
</svg>
