<svg width="26" height="26" viewBox="0 0 26 26" fill="none" xmlns="http://www.w3.org/2000/svg">
<mask id="mask0_239_383" style="mask-type:luminance" maskUnits="userSpaceOnUse" x="1" y="1" width="24" height="24">
<path d="M24.999 1H1V24.999H24.999V1Z" fill="white"/>
</mask>
<g mask="url(#mask0_239_383)">
<path d="M12.9857 16.2501H4.50967C4.30267 16.2501 4.20967 16.2101 4.17967 15.9861C3.90967 14.1561 3.61767 12.3241 3.33467 10.4911L3.02367 8.49113C2.98528 8.34947 2.99376 8.1992 3.04783 8.06276C3.1019 7.92632 3.19867 7.81104 3.32367 7.73413C3.45032 7.65978 3.59751 7.6281 3.74353 7.64376C3.88955 7.65943 4.02667 7.72161 4.13467 7.82113L7.73467 10.5011C7.84021 10.6059 7.96918 10.6839 8.11089 10.7289C8.25261 10.7738 8.403 10.7844 8.54961 10.7597C8.69622 10.7349 8.83483 10.6756 8.95396 10.5867C9.07309 10.4977 9.16931 10.3817 9.23467 10.2481L12.2517 5.73313C12.3419 5.55419 12.4955 5.41518 12.6825 5.34311C12.8695 5.27104 13.0767 5.27105 13.2637 5.34313C13.4614 5.43422 13.6313 5.57645 13.7557 5.75513C14.7867 7.26813 15.8007 8.79313 16.8237 10.3121C16.89 10.4268 16.9808 10.5255 17.0894 10.6013C17.1981 10.6771 17.3221 10.7281 17.4526 10.7508C17.5831 10.7735 17.717 10.7673 17.8449 10.7326C17.9728 10.698 18.0915 10.6357 18.1927 10.5501L18.3097 10.4641C19.4843 9.5868 20.662 8.71013 21.8427 7.83413C21.9555 7.74353 22.087 7.67899 22.2277 7.64513C22.3304 7.62454 22.4366 7.62926 22.5372 7.65887C22.6377 7.68849 22.7295 7.74212 22.8047 7.81513C22.8796 7.88782 22.9356 7.97781 22.9677 8.07719C22.9998 8.17658 23.007 8.28232 22.9887 8.38513C22.7547 9.93213 22.5097 11.4821 22.2717 13.0251C22.1167 14.0251 21.9547 15.0251 21.8097 16.0311C21.7837 16.2121 21.7097 16.2481 21.5467 16.2481C18.6933 16.2435 15.8397 16.2435 12.9857 16.2481" fill="#0071CD"/>
<path d="M4.2327 17.8125H21.7727C21.7727 17.8785 21.7847 17.9385 21.7847 17.9985V19.6985C21.7982 19.8354 21.781 19.9736 21.7343 20.103C21.6876 20.2325 21.6126 20.3498 21.5147 20.4465C21.4165 20.5436 21.2981 20.6178 21.168 20.6637C21.0378 20.7097 20.8991 20.7264 20.7617 20.7125H5.2327C5.09688 20.7267 4.95962 20.7107 4.83068 20.6658C4.70174 20.6208 4.58429 20.548 4.4867 20.4525C4.3894 20.3574 4.31451 20.2418 4.26746 20.1142C4.22041 19.9865 4.20238 19.85 4.2147 19.7145V17.9965C4.2147 17.9425 4.2207 17.8965 4.2247 17.8155" fill="#0071CD"/>
</g>
</svg>
