<svg width="26" height="26" viewBox="0 0 26 26" fill="none" xmlns="http://www.w3.org/2000/svg">
<mask id="mask0_239_390" style="mask-type:luminance" maskUnits="userSpaceOnUse" x="1" y="1" width="24" height="24">
<path d="M25 1H1V25H25V1Z" fill="white"/>
</mask>
<g mask="url(#mask0_239_390)">
<path d="M22.9952 11.2163C22.8763 11.5351 22.668 11.8128 22.3952 12.0162C21.0682 13.1522 19.7502 14.2982 18.4242 15.4362C18.3704 15.4731 18.33 15.5266 18.3092 15.5885C18.2885 15.6504 18.2885 15.7174 18.3092 15.7793C18.7222 17.5443 19.1272 19.3142 19.5372 21.0792C19.6038 21.2866 19.6024 21.51 19.5334 21.7166C19.4643 21.9233 19.3312 22.1025 19.1532 22.2282C18.9759 22.3642 18.76 22.4404 18.5366 22.4458C18.3132 22.4512 18.0939 22.3855 17.9102 22.2583C16.3352 21.3293 14.7592 20.4042 13.1892 19.4672C13.1306 19.4254 13.0601 19.4035 12.9881 19.4047C12.9161 19.406 12.8464 19.4303 12.7892 19.4742C11.2232 20.4035 9.65657 21.3296 8.08923 22.2523C7.86448 22.4066 7.5897 22.4701 7.32002 22.4303C7.05034 22.3904 6.80572 22.2499 6.63524 22.0372C6.53292 21.9085 6.4623 21.7576 6.42912 21.5965C6.39594 21.4355 6.40113 21.2689 6.44424 21.1102C6.85224 19.3409 7.26224 17.5743 7.67424 15.8103C7.69876 15.7403 7.69972 15.6642 7.67697 15.5936C7.65422 15.523 7.60901 15.4618 7.54823 15.4193C6.16223 14.2333 4.78324 13.0352 3.40324 11.8432C3.23575 11.7125 3.11195 11.5339 3.04823 11.3313C2.98452 11.1286 2.98391 10.9114 3.04649 10.7083C3.10907 10.5053 3.23188 10.3261 3.39864 10.1944C3.56539 10.0628 3.76823 9.98501 3.98024 9.97127L7.28024 9.67123C8.04524 9.60223 8.81025 9.53227 9.58025 9.47127C9.63067 9.47047 9.67953 9.45368 9.71979 9.4233C9.76005 9.39293 9.78963 9.35048 9.80424 9.30221C10.5252 7.62821 11.2552 5.95426 11.9762 4.27926C12.0455 4.07899 12.1721 3.90352 12.3403 3.77462C12.5085 3.64572 12.7109 3.56911 12.9222 3.55428C13.1572 3.53517 13.3918 3.59469 13.5891 3.72359C13.7865 3.8525 13.9353 4.04338 14.0122 4.2662C14.6762 5.7972 15.3612 7.32129 15.9912 8.86629C16.0446 9.06143 16.1628 9.23248 16.3264 9.35152C16.4899 9.47057 16.6891 9.53041 16.8912 9.5212C18.5342 9.6322 20.1722 9.81019 21.8132 9.93819C22.0834 9.92921 22.3486 10.0122 22.5655 10.1736C22.7824 10.3349 22.9381 10.5649 23.0072 10.8263L22.9952 11.2163Z" fill="#0071CD"/>
</g>
</svg>
