<svg width="26" height="26" viewBox="0 0 26 26" fill="none" xmlns="http://www.w3.org/2000/svg">
<mask id="mask0_239_396" style="mask-type:luminance" maskUnits="userSpaceOnUse" x="1" y="1" width="24" height="24">
<path d="M25 1H1V25H25V1Z" fill="white"/>
</mask>
<g mask="url(#mask0_239_396)">
<path d="M22.216 22.9996C22.0558 22.9049 21.9036 22.7973 21.761 22.6777C20.119 21.071 18.4803 19.4607 16.845 17.8467C16.804 17.8067 16.761 17.7676 16.71 17.7206C16.654 17.7596 16.599 17.7926 16.549 17.8316C15.4821 18.6455 14.2369 19.1939 12.9163 19.4316C11.5956 19.6693 10.2373 19.5895 8.95358 19.1988C7.66985 18.808 6.49748 18.1175 5.53323 17.1843C4.56899 16.2511 3.84055 15.1019 3.40802 13.8316C3.20579 13.2336 3.0801 12.6123 3.034 11.9826C3.02644 11.9322 3.01507 11.8824 3 11.8337V10.7406C3.05 10.4076 3.09102 10.0726 3.15302 9.74064C3.37142 8.55351 3.86077 7.43276 4.58301 6.46562C5.26442 5.54143 6.12631 4.76514 7.11649 4.18376C8.10666 3.60238 9.20454 3.22802 10.3436 3.0833C11.4827 2.93857 12.6393 3.02654 13.7434 3.34184C14.8475 3.65714 15.8761 4.19322 16.767 4.91765C18.3709 6.20109 19.4301 8.04367 19.7318 10.0756C20.0336 12.1075 19.5557 14.1785 18.394 15.8727C18.168 16.2037 17.911 16.5146 17.634 16.8796C17.6936 16.9125 17.7498 16.951 17.802 16.9947C19.4454 18.6087 21.0873 20.2236 22.728 21.8396C23.016 22.1226 23.089 22.4266 22.893 22.6896C22.7745 22.8119 22.6399 22.9176 22.493 23.0036L22.216 22.9996ZM4.29501 11.0356C4.27231 12.0622 4.46725 13.0819 4.867 14.0276C5.3572 15.1783 6.14844 16.1757 7.15747 16.9148C8.1665 17.6539 9.35605 18.1074 10.601 18.2276C11.6648 18.3572 12.7441 18.2427 13.7569 17.8927C14.7698 17.5428 15.6895 16.9665 16.4464 16.2079C17.2032 15.4492 17.7772 14.5281 18.1247 13.5144C18.4722 12.5007 18.5842 11.4211 18.452 10.3576C18.333 9.24949 17.9353 8.18948 17.2961 7.27653C16.6568 6.36358 15.7967 5.62742 14.796 5.13664C13.7084 4.52189 12.474 4.2148 11.2252 4.24827C9.9763 4.28175 8.7601 4.65451 7.707 5.32664C6.6917 5.90036 5.84318 6.7284 5.24478 7.72935C4.64638 8.7303 4.31872 9.86971 4.29401 11.0356H4.29501Z" fill="#0071CD"/>
</g>
</svg>
