<svg width="26" height="26" viewBox="0 0 26 26" fill="none" xmlns="http://www.w3.org/2000/svg">
<mask id="mask0_239_402" style="mask-type:luminance" maskUnits="userSpaceOnUse" x="1" y="1" width="24" height="24">
<path d="M25 1H1V25H25V1Z" fill="white"/>
</mask>
<g mask="url(#mask0_239_402)">
<path d="M19.6259 2.44531C20.0614 2.54957 20.4893 2.68323 20.9068 2.84534C21.5803 3.16645 22.1401 3.68502 22.5116 4.33203C22.8832 4.97904 23.0489 5.72389 22.9868 6.46741C22.921 7.2258 22.6236 7.94562 22.1349 8.5293C21.6462 9.11297 20.9899 9.53222 20.2548 9.73035C19.604 9.91916 18.9134 9.92361 18.2602 9.74316C17.6069 9.56272 17.0165 9.2045 16.5548 8.70837C16.5079 8.65606 16.4642 8.60092 16.4239 8.54333L15.8819 8.86633C14.0632 9.94967 12.2439 11.0321 10.4239 12.1134C10.2759 12.2014 10.2238 12.2714 10.2888 12.4484C10.5559 13.1592 10.5725 13.9399 10.3358 14.6614L16.2099 17.6394C16.4459 17.3916 16.6964 17.1577 16.9599 16.9393C17.5192 16.4786 18.2052 16.1986 18.9271 16.1362C19.649 16.0739 20.3729 16.2323 21.0028 16.5903C21.6457 16.9014 22.179 17.4002 22.5324 18.0209C22.8857 18.6415 23.0424 19.3548 22.9818 20.0664C22.9194 20.99 22.5174 21.8578 21.8532 22.5027C21.1891 23.1476 20.3097 23.5238 19.3847 23.559C18.4596 23.5941 17.5542 23.2857 16.843 22.6931C16.1319 22.1005 15.6652 21.2656 15.5329 20.3494C15.4662 19.8718 15.503 19.3854 15.6408 18.9233C15.6728 18.8153 15.6649 18.7523 15.5509 18.6953C13.6482 17.7353 11.7482 16.7733 9.85086 15.8093C9.83162 15.8023 9.81188 15.7966 9.79184 15.7924C9.41728 16.3098 8.9161 16.7223 8.33633 16.9904C7.75656 17.2584 7.11767 17.3731 6.48086 17.3234C5.55517 17.2776 4.68397 16.8721 4.05288 16.1934C3.37477 15.5054 2.99628 14.5772 3.00003 13.6112C3.00377 12.6452 3.38941 11.72 4.07284 11.0374C4.43524 10.6703 4.86918 10.3815 5.34774 10.189C5.82631 9.99645 6.3393 9.90434 6.85495 9.91821C7.3706 9.93209 7.87791 10.0517 8.34543 10.2697C8.81295 10.4876 9.23071 10.7993 9.57284 11.1853L15.7608 7.49841C15.5777 7.02016 15.4914 6.5103 15.5069 5.99841C15.5532 5.13317 15.8988 4.31085 16.4845 3.67236C17.0703 3.03388 17.8598 2.61894 18.7179 2.49841C18.7716 2.4878 18.8247 2.4741 18.8769 2.4574L19.6259 2.44531Z" fill="#0071CD"/>
</g>
</svg>
