<svg width="26" height="26" viewBox="0 0 26 26" fill="none" xmlns="http://www.w3.org/2000/svg">
<mask id="mask0_239_418" style="mask-type:luminance" maskUnits="userSpaceOnUse" x="1" y="1" width="24" height="24">
<path d="M25 1H1V25H25V1Z" fill="white"/>
</mask>
<g mask="url(#mask0_239_418)">
<path d="M10.786 7.30745C10.7807 7.38969 10.7585 7.46995 10.7208 7.54325C10.6832 7.61654 10.6308 7.68128 10.567 7.73344C10.556 7.73344 10.556 7.74444 10.545 7.74444L10.534 7.76644C10.4734 7.82128 10.4025 7.86343 10.3253 7.89041C10.2482 7.91739 10.1665 7.92865 10.0849 7.92352C10.0033 7.91839 9.92364 7.89699 9.85049 7.86056C9.77734 7.82414 9.71223 7.77344 9.65899 7.71144L9.61699 7.66845L9.14699 7.07844C8.77499 6.61944 8.40299 6.17044 8.05399 5.72244C8.03199 5.70044 8.02099 5.68944 7.99899 5.68944C7.97999 5.68779 7.9609 5.69161 7.94399 5.70044C7.92498 5.71743 7.91318 5.74104 7.91099 5.76644V15.8664C7.91195 15.9544 7.89467 16.0415 7.86025 16.1224C7.82583 16.2033 7.775 16.2762 7.71099 16.3364C7.59052 16.4613 7.42544 16.5332 7.25199 16.5364H7.24299C7.10681 16.5305 6.97531 16.485 6.86464 16.4054C6.75397 16.3258 6.66894 16.2157 6.61999 16.0884C6.59227 15.974 6.58115 15.8561 6.58699 15.7384V5.73244C6.58428 5.71589 6.57661 5.70055 6.56499 5.68844C6.55399 5.67744 6.54299 5.67744 6.52099 5.67744H6.51099C6.47799 5.67744 6.45599 5.68844 6.45599 5.72144L6.44499 5.73244L4.89199 7.67944C4.81107 7.77898 4.70219 7.852 4.57938 7.88907C4.45657 7.92615 4.32548 7.92558 4.20299 7.88744C4.07286 7.85205 3.95683 7.77734 3.87074 7.67353C3.78466 7.56973 3.73271 7.44188 3.72199 7.30745C3.71142 7.19944 3.72678 7.09048 3.76678 6.9896C3.80678 6.88872 3.87028 6.79885 3.95199 6.72744L6.60899 3.39244C6.68806 3.29353 6.7761 3.20214 6.87199 3.11944C6.98227 3.05342 7.108 3.01764 7.23652 3.01571C7.36503 3.01378 7.49179 3.04576 7.60399 3.10844C7.7045 3.17753 7.79329 3.26227 7.86699 3.35944L10.644 6.83744C10.699 6.90161 10.7401 6.97655 10.7645 7.05747C10.789 7.1384 10.7963 7.22354 10.786 7.30745Z" fill="black"/>
<path d="M20.1756 14.4915L15.8756 14.4805C15.3194 14.4859 14.7874 14.7086 14.3931 15.1009C13.9989 15.4933 13.7737 16.0243 13.7656 16.5805V20.8885C13.7693 21.4452 13.9914 21.9783 14.3841 22.3729C14.7769 22.7676 15.3089 22.9922 15.8656 22.9985H20.1656C20.722 22.9966 21.2551 22.7748 21.6485 22.3814C22.0419 21.9879 22.2638 21.4549 22.2656 20.8985L22.2766 16.5985C22.2751 16.0411 22.0536 15.5068 21.6604 15.1117C21.2672 14.7167 20.734 14.4927 20.1766 14.4885M15.0916 16.5885C15.0924 16.3829 15.1744 16.186 15.3198 16.0406C15.4651 15.8953 15.6621 15.8133 15.8676 15.8125H20.1676C20.3732 15.8133 20.5701 15.8953 20.7155 16.0406C20.8608 16.186 20.9428 16.3829 20.9436 16.5885L20.9546 20.8885C20.9512 21.0951 20.8669 21.2922 20.7197 21.4373C20.5725 21.5824 20.3743 21.664 20.1676 21.6645H15.8676C15.6621 21.6637 15.4651 21.5817 15.3198 21.4363C15.1744 21.291 15.0924 21.094 15.0916 20.8885V16.5885Z" fill="black"/>
<path d="M20.1756 3H15.8756C15.3182 3.00156 14.784 3.223 14.3889 3.6162C13.9938 4.00941 13.7698 4.54262 13.7656 5.1V9.4C13.7654 9.95796 13.9862 10.4933 14.3798 10.8888C14.7734 11.2842 15.3077 11.5076 15.8656 11.51L20.1656 11.521C20.7209 11.5155 21.2519 11.2925 21.6445 10.8999C22.0371 10.5072 22.2602 9.97626 22.2656 9.421L22.2766 5.121C22.2754 4.56232 22.0542 4.0266 21.661 3.62968C21.2679 3.23277 20.7343 3.00657 20.1756 3ZM15.0936 5.11C15.0944 4.90444 15.1764 4.70752 15.3218 4.56216C15.4671 4.4168 15.6641 4.33479 15.8696 4.334H20.1696C20.3752 4.33479 20.5721 4.4168 20.7175 4.56216C20.8628 4.70752 20.9448 4.90444 20.9456 5.11V9.44C20.9381 9.64046 20.8529 9.83015 20.7081 9.96899C20.5633 10.1078 20.3702 10.1849 20.1696 10.184H15.8696C15.6641 10.1832 15.4671 10.1012 15.3218 9.95584C15.1764 9.81048 15.0944 9.61356 15.0936 9.408V5.11Z" fill="black"/>
<path d="M10.7637 18.9011L10.7527 18.9231C10.6806 19.0959 10.5791 19.2549 10.4527 19.3931L9.65273 20.3931C9.05273 21.1371 8.46073 21.8801 7.85973 22.6241C7.79009 22.7337 7.70135 22.8299 7.59773 22.9081C7.49129 22.9687 7.37018 22.9988 7.24773 22.9951C7.12982 22.994 7.01405 22.9635 6.91099 22.9062C6.80793 22.8489 6.72086 22.7667 6.65773 22.6671C5.78273 21.5671 4.89673 20.4581 4.01173 19.3671C3.8943 19.2355 3.8018 19.0837 3.73873 18.9191C3.70095 18.7973 3.7017 18.6668 3.7409 18.5454C3.7801 18.4241 3.85583 18.3178 3.95773 18.2411C4.05992 18.1598 4.18317 18.1094 4.31301 18.0958C4.44285 18.0821 4.57389 18.1058 4.69073 18.1641C4.80069 18.2377 4.89683 18.3301 4.97473 18.4371C5.46673 19.0491 5.95873 19.6731 6.45073 20.2851C6.45964 20.2978 6.47244 20.3074 6.48722 20.3123C6.502 20.3171 6.51796 20.3171 6.53271 20.3121C6.54747 20.3072 6.56022 20.2976 6.56905 20.2848C6.57789 20.272 6.58234 20.2566 6.58173 20.2411V18.8791C6.57363 18.7434 6.59232 18.6075 6.63673 18.4791C6.69146 18.337 6.79606 18.2198 6.93098 18.1493C7.0659 18.0788 7.22188 18.0599 7.36973 18.0961C7.52635 18.1244 7.66725 18.2089 7.76595 18.3337C7.86465 18.4586 7.91436 18.6152 7.90573 18.7741V20.2501C7.90532 20.2688 7.91183 20.287 7.92401 20.3012C7.93619 20.3154 7.95318 20.3246 7.97173 20.3271C7.98403 20.3276 7.99619 20.3243 8.00656 20.3177C8.01694 20.3111 8.02503 20.3015 8.02973 20.2901L9.59373 18.3331C9.69226 18.2075 9.83283 18.1218 9.98957 18.0916C10.1463 18.0615 10.3087 18.089 10.4467 18.1691C10.5772 18.2346 10.6805 18.344 10.7384 18.478C10.7964 18.612 10.8053 18.7611 10.7637 18.9011Z" fill="black"/>
</g>
</svg>
