<svg width="26" height="26" viewBox="0 0 26 26" fill="none" xmlns="http://www.w3.org/2000/svg">
<mask id="mask0_239_427" style="mask-type:luminance" maskUnits="userSpaceOnUse" x="1" y="1" width="24" height="24">
<path d="M25 1H1V25H25V1Z" fill="white"/>
</mask>
<g mask="url(#mask0_239_427)">
<path d="M13.0032 22.9988H5.2832C4.97947 23.0182 4.67509 22.9728 4.39025 22.8656C4.10542 22.7584 3.84663 22.5918 3.6311 22.377C3.41556 22.1621 3.24822 21.9038 3.14013 21.6193C3.03204 21.3348 2.98565 21.0306 3.00414 20.7268V11.0168C2.98524 10.7131 3.03119 10.4088 3.13891 10.1242C3.24663 9.83961 3.41369 9.58117 3.62896 9.36609C3.84423 9.15101 4.10281 8.98424 4.3875 8.87677C4.6722 8.7693 4.97645 8.72363 5.28014 8.7428H20.7192C21.023 8.72305 21.3275 8.76821 21.6125 8.87531C21.8975 8.9824 22.1563 9.14895 22.3719 9.36389C22.5875 9.57883 22.7549 9.83724 22.8629 10.1219C22.9709 10.4065 23.017 10.7109 22.9982 11.0148V20.7248C23.0171 21.0285 22.9711 21.3328 22.8634 21.6174C22.7557 21.902 22.5887 22.1604 22.3734 22.3755C22.1581 22.5906 21.8996 22.7573 21.6149 22.8648C21.3302 22.9723 21.0259 23.018 20.7222 22.9988H13.0032ZM9.43114 15.8478V18.6328C9.41387 18.7692 9.4363 18.9077 9.49566 19.0317C9.55501 19.1558 9.64879 19.2601 9.76586 19.3323C9.88293 19.4044 10.0183 19.4413 10.1558 19.4386C10.2933 19.4359 10.4271 19.3935 10.5412 19.3168C12.3825 18.4014 14.2232 17.4848 16.0632 16.5668C16.2097 16.5187 16.3373 16.4256 16.4277 16.3007C16.5182 16.1758 16.5669 16.0255 16.5669 15.8713C16.5669 15.7171 16.5182 15.5668 16.4277 15.4419C16.3373 15.317 16.2097 15.2239 16.0632 15.1758C14.2212 14.2618 12.3805 13.3451 10.5412 12.4258C10.427 12.3494 10.2932 12.3074 10.1559 12.3047C10.0185 12.3021 9.88324 12.3389 9.76617 12.4108C9.64909 12.4827 9.55515 12.5867 9.49541 12.7104C9.43568 12.8341 9.4127 12.9724 9.42919 13.1088V15.8478H9.43114Z" fill="#0071CD"/>
<path d="M13.0102 5.87376H20.7021C20.7984 5.86959 20.8949 5.87494 20.9902 5.88975C21.1596 5.92545 21.3104 6.02129 21.4147 6.15953C21.519 6.29777 21.5697 6.46908 21.5576 6.64183C21.5454 6.81457 21.4711 6.97706 21.3484 7.09929C21.2257 7.22151 21.063 7.29519 20.8902 7.30674H5.26116C5.10463 7.3238 4.9467 7.2912 4.80975 7.21348C4.6728 7.13577 4.56379 7.01689 4.49816 6.87376C4.45208 6.76921 4.43175 6.65509 4.4389 6.54106C4.44605 6.42702 4.48045 6.3164 4.53924 6.21843C4.59803 6.12045 4.67947 6.03798 4.77673 5.97801C4.87398 5.91804 4.98426 5.8823 5.0982 5.87376C5.1722 5.86776 5.24716 5.87376 5.32116 5.87376H13.0102Z" fill="#0071CD"/>
<path d="M13.0125 2.9992H19.3595C19.479 2.99037 19.5988 3.01168 19.7079 3.06122C19.817 3.11075 19.9118 3.18688 19.9838 3.28265C20.0558 3.37843 20.1026 3.49075 20.1198 3.60931C20.137 3.72787 20.1242 3.84887 20.0825 3.96118C20.0378 4.0928 19.9546 4.20795 19.8437 4.29175C19.7328 4.37555 19.5993 4.42411 19.4605 4.43115C19.3939 4.43469 19.3271 4.43469 19.2605 4.43115H6.74449C6.64078 4.43601 6.53684 4.42966 6.43449 4.41217C6.26562 4.37394 6.11626 4.27601 6.0139 4.13635C5.91155 3.99669 5.86309 3.82471 5.87749 3.65216C5.89103 3.47537 5.97049 3.31016 6.10014 3.18921C6.2298 3.06826 6.40019 3.00044 6.5775 2.9992C7.3495 2.9922 8.12148 2.9992 8.89348 2.9992H13.0125Z" fill="#0071CD"/>
<path d="M10.8594 14.1523L14.2593 15.8524L10.8594 17.5523V14.1523Z" fill="#0071CD"/>
</g>
</svg>
