<svg width="26" height="26" viewBox="0 0 26 26" fill="none" xmlns="http://www.w3.org/2000/svg">
<mask id="mask0_239_436" style="mask-type:luminance" maskUnits="userSpaceOnUse" x="1" y="1" width="24" height="24">
<path d="M25 1H1V25H25V1Z" fill="white"/>
</mask>
<g mask="url(#mask0_239_436)">
<path d="M3 13.6986V11.4336C3.01 11.3706 3.02302 11.3076 3.02902 11.2436C3.13702 10.0786 3.214 8.90965 3.358 7.74865C3.5155 6.7131 3.97911 5.74827 4.68924 4.97827C5.39937 4.20826 6.32357 3.66824 7.34302 3.42761C8.83459 3.14857 10.3486 3.00669 11.866 3.00366C13.5519 2.96821 15.2382 3.05742 16.911 3.27062C17.8405 3.34876 18.735 3.66111 19.511 4.17858C20.1027 4.5685 20.6082 5.0756 20.9964 5.66845C21.3846 6.2613 21.6472 6.92735 21.768 7.6256C22.0903 9.69097 22.2062 11.7833 22.114 13.8716C22.101 14.2196 22.081 14.5717 22.063 14.9307C21.0806 14.2071 19.8713 13.8597 18.6546 13.9515C17.4379 14.0434 16.2945 14.5685 15.4319 15.4314C14.5692 16.2943 14.0446 17.4378 13.953 18.6545C13.8615 19.8712 14.2092 21.0804 14.933 22.0626C14.438 22.0846 13.96 22.1146 13.481 22.1256C11.5611 22.1708 9.64061 22.0585 7.73901 21.7897C6.71034 21.6202 5.75422 21.152 4.98965 20.4432C4.22509 19.7345 3.68581 18.8165 3.439 17.8036C3.253 16.8426 3.18802 15.8576 3.08002 14.8816C3.03302 14.4816 3.025 14.0936 3 13.6986ZM12.573 9.83459H17.318C17.5475 9.8337 17.7709 9.7604 17.9563 9.62499C18.1416 9.48958 18.2794 9.29896 18.35 9.08056C18.4203 8.86567 18.4236 8.63453 18.3595 8.41772C18.2954 8.2009 18.1669 8.00866 17.991 7.86657C17.7542 7.69012 17.4628 7.60272 17.168 7.61962H7.96802C7.87036 7.62 7.7728 7.6267 7.67599 7.63964C7.5388 7.6548 7.40608 7.69743 7.2858 7.76513C7.16551 7.83283 7.06015 7.92414 6.97601 8.03356C6.84245 8.19543 6.75796 8.39215 6.73254 8.60046C6.70713 8.80877 6.74185 9.01999 6.83258 9.20922C6.92331 9.39845 7.06627 9.55782 7.2446 9.66845C7.42293 9.77908 7.62918 9.83639 7.83902 9.83361C9.41635 9.83361 10.9927 9.83361 12.568 9.83361L12.573 9.83459ZM10.637 12.2516H7.82501C7.54176 12.2523 7.26993 12.3635 7.06732 12.5614C6.86471 12.7593 6.74731 13.0285 6.74002 13.3116C6.73284 13.4685 6.75911 13.6251 6.81714 13.771C6.87517 13.9169 6.96362 14.0488 7.07657 14.1578C7.18952 14.2669 7.32442 14.3507 7.47226 14.4036C7.6201 14.4565 7.77751 14.4773 7.93402 14.4646C9.72402 14.4686 11.514 14.4686 13.304 14.4646C13.4341 14.4659 13.5639 14.4505 13.69 14.4186C13.9505 14.3523 14.1777 14.193 14.3288 13.9706C14.4798 13.7482 14.5442 13.4781 14.5097 13.2115C14.4752 12.9449 14.3443 12.7002 14.1417 12.5236C13.9391 12.3469 13.6788 12.2504 13.41 12.2526C12.486 12.2466 11.561 12.2526 10.633 12.2526L10.637 12.2516Z" fill="#0071CD"/>
<path d="M18.6147 22.9982C18.3997 22.9522 18.1807 22.9152 17.9687 22.8582C17.0113 22.6001 16.1841 21.995 15.6484 21.1606C15.1127 20.3261 14.9067 19.3221 15.0705 18.3441C15.2344 17.3662 15.7563 16.4842 16.5348 15.8699C17.3133 15.2557 18.2925 14.9531 19.2818 15.0211C20.271 15.0892 21.1995 15.5232 21.8865 16.2383C22.5735 16.9534 22.9697 17.8986 22.998 18.8898C23.0263 19.881 22.6847 20.8472 22.0397 21.6004C21.3947 22.3535 20.4925 22.8398 19.5087 22.9643C19.4711 22.9725 19.4344 22.9838 19.3987 22.9982H18.6147ZM19.7527 19.9982V19.0382C19.7527 18.8409 19.6743 18.6516 19.5347 18.5121C19.3952 18.3726 19.206 18.2942 19.0087 18.2942C18.8114 18.2942 18.6222 18.3726 18.4826 18.5121C18.3431 18.6516 18.2647 18.8409 18.2647 19.0382C18.2607 19.6769 18.2607 20.3156 18.2647 20.9543C18.261 21.0542 18.2775 21.1538 18.3133 21.2472C18.349 21.3406 18.4032 21.4258 18.4726 21.4978C18.542 21.5698 18.6251 21.6271 18.7172 21.6662C18.8092 21.7053 18.9082 21.7255 19.0082 21.7255C19.1082 21.7255 19.2072 21.7053 19.2992 21.6662C19.3912 21.6271 19.4744 21.5698 19.5438 21.4978C19.6132 21.4258 19.6674 21.3406 19.7031 21.2472C19.7389 21.1538 19.7553 21.0542 19.7517 20.9543C19.7517 20.6393 19.7517 20.3191 19.7517 20.0002L19.7527 19.9982ZM18.2527 17.0163C18.2527 17.6473 18.3797 17.7802 18.9997 17.7802C19.6197 17.7802 19.7487 17.6492 19.7507 17.0382C19.7507 16.4002 19.6217 16.2712 18.9817 16.2782C18.3717 16.2892 18.2567 16.4072 18.2547 17.0202L18.2527 17.0163Z" fill="#0071CD"/>
</g>
</svg>
