<svg width="26" height="26" viewBox="0 0 26 26" fill="none" xmlns="http://www.w3.org/2000/svg">
<mask id="mask0_239_443" style="mask-type:luminance" maskUnits="userSpaceOnUse" x="1" y="1" width="24" height="24">
<path d="M25 1H1V25H25V1Z" fill="white"/>
</mask>
<g mask="url(#mask0_239_443)">
<path fill-rule="evenodd" clip-rule="evenodd" d="M6.409 1.63672H14.591V3.90972C14.591 4.44696 14.6968 4.97893 14.9024 5.47528C15.108 5.97162 15.4093 6.42261 15.7892 6.80249C16.1691 7.18238 16.6201 7.48372 17.1164 7.68931C17.6128 7.8949 18.1448 8.00072 18.682 8.00072H20.273V12.7897C19.3612 12.3332 18.356 12.0942 17.3364 12.0915C16.3167 12.0887 15.3103 12.3222 14.396 12.7737H7.32C7.20315 12.7792 7.09289 12.8295 7.01214 12.9141C6.93138 12.9988 6.88632 13.1112 6.88632 13.2282C6.88632 13.3452 6.93138 13.4577 7.01214 13.5423C7.09289 13.627 7.20315 13.6772 7.32 13.6827H13.02C12.2292 14.3619 11.6104 15.2186 11.214 16.1827H7.32C7.20315 16.1882 7.09289 16.2385 7.01214 16.3231C6.93138 16.4078 6.88632 16.5202 6.88632 16.6372C6.88632 16.7542 6.93138 16.8667 7.01214 16.9513C7.09289 17.036 7.20315 17.0862 7.32 17.0917H10.92C10.7186 17.9093 10.6741 18.7576 10.789 19.5917H7.32C7.25852 19.5888 7.19709 19.5985 7.13944 19.62C7.08179 19.6415 7.0291 19.6745 6.98457 19.717C6.94004 19.7595 6.9046 19.8106 6.88038 19.8672C6.85616 19.9238 6.84368 19.9847 6.84368 20.0462C6.84368 20.1078 6.85616 20.1687 6.88038 20.2253C6.9046 20.2818 6.94004 20.3329 6.98457 20.3754C7.0291 20.4179 7.08179 20.4509 7.13944 20.4724C7.19709 20.494 7.25852 20.5036 7.32 20.5007H10.983C11.4506 22.1243 12.5223 23.507 13.978 24.3647H6.409C5.96124 24.3647 5.51787 24.2765 5.1042 24.1051C4.69054 23.9337 4.31469 23.6826 3.99812 23.3659C3.68155 23.0492 3.43047 22.6733 3.25921 22.2596C3.08795 21.8459 2.99987 21.4025 3 20.9547V5.04572C3 4.1416 3.35916 3.2745 3.99847 2.63519C4.63778 1.99588 5.50488 1.63672 6.409 1.63672ZM8.599 5.27272C8.37024 5.27364 8.14389 5.3196 7.9329 5.408C7.7219 5.49639 7.53038 5.62547 7.36927 5.78788C7.20816 5.95029 7.08061 6.14285 6.99392 6.35455C6.90723 6.56625 6.86308 6.79296 6.864 7.02172V9.20672C6.86321 9.43548 6.90749 9.66216 6.9943 9.87381C7.08112 10.0855 7.20877 10.2779 7.36997 10.4403C7.53118 10.6026 7.72277 10.7316 7.93382 10.8198C8.14487 10.9081 8.37124 10.9539 8.6 10.9547H9.9C10.1288 10.9539 10.3551 10.9081 10.5662 10.8198C10.7772 10.7316 10.9688 10.6026 11.13 10.4403C11.2912 10.2779 11.4189 10.0855 11.5057 9.87381C11.5925 9.66216 11.6368 9.43548 11.636 9.20672V7.02172C11.6368 6.79296 11.5925 6.56628 11.5057 6.35463C11.4189 6.14297 11.2912 5.9505 11.13 5.78818C10.9688 5.62586 10.7772 5.49688 10.5662 5.40861C10.3551 5.32034 10.1288 5.27451 9.9 5.27372L8.599 5.27272ZM13.227 9.47272C13.1655 9.46983 13.1041 9.47945 13.0464 9.50099C12.9888 9.52253 12.9361 9.55554 12.8916 9.59803C12.847 9.64052 12.8116 9.6916 12.7874 9.74818C12.7632 9.80476 12.7507 9.86567 12.7507 9.92722C12.7507 9.98877 12.7632 10.0497 12.7874 10.1062C12.8116 10.1628 12.847 10.2139 12.8916 10.2564C12.9361 10.2989 12.9888 10.3319 13.0464 10.3534C13.1041 10.375 13.1655 10.3846 13.227 10.3817H16.409C16.4705 10.3846 16.5319 10.375 16.5896 10.3534C16.6472 10.3319 16.6999 10.2989 16.7444 10.2564C16.789 10.2139 16.8244 10.1628 16.8486 10.1062C16.8728 10.0497 16.8853 9.98877 16.8853 9.92722C16.8853 9.86567 16.8728 9.80476 16.8486 9.74818C16.8244 9.6916 16.789 9.64052 16.7444 9.59803C16.6999 9.55554 16.6472 9.52253 16.5896 9.50099C16.5319 9.47945 16.4705 9.46983 16.409 9.47272H13.227Z" fill="#0071CD"/>
<path d="M20.26 7.08953H18.682C17.8381 7.08953 17.0287 6.75429 16.432 6.15755C15.8352 5.5608 15.5 4.75145 15.5 3.90753V1.64453C15.9801 1.6945 16.4211 1.93207 16.727 2.30553C17.0763 2.73353 17.4263 3.1612 17.777 3.58853C18.477 4.44453 19.177 5.30153 19.877 6.16653C20.0895 6.43204 20.2232 6.75182 20.263 7.08953H20.26Z" fill="#0071CD"/>
<path fill-rule="evenodd" clip-rule="evenodd" d="M22.9968 18.682C22.9968 19.8058 22.6636 20.9044 22.0392 21.8388C21.4149 22.7732 20.5275 23.5014 19.4892 23.9315C18.451 24.3615 17.3085 24.4741 16.2063 24.2548C15.1041 24.0356 14.0917 23.4944 13.297 22.6998C12.5024 21.9051 11.9612 20.8927 11.742 19.7905C11.5228 18.6883 11.6353 17.5458 12.0653 16.5076C12.4954 15.4693 13.2237 14.5819 14.1581 13.9576C15.0925 13.3332 16.191 13 17.3148 13C18.8218 13 20.267 13.5986 21.3326 14.6642C22.3982 15.7298 22.9968 17.175 22.9968 18.682ZM17.7698 15.727C17.7727 15.6655 17.7631 15.6041 17.7415 15.5464C17.72 15.4888 17.687 15.4361 17.6445 15.3916C17.602 15.347 17.5509 15.3116 17.4944 15.2874C17.4378 15.2632 17.3769 15.2507 17.3153 15.2507C17.2538 15.2507 17.1929 15.2632 17.1363 15.2874C17.0797 15.3116 17.0286 15.347 16.9861 15.3916C16.9436 15.4361 16.9106 15.4888 16.8891 15.5464C16.8675 15.6041 16.8579 15.6655 16.8608 15.727V18.341H14.4738C14.4123 18.3381 14.3509 18.3477 14.2933 18.3693C14.2356 18.3908 14.1829 18.4238 14.1384 18.4663C14.0939 18.5088 14.0584 18.5599 14.0342 18.6165C14.01 18.673 13.9975 18.734 13.9975 18.7955C13.9975 18.857 14.01 18.918 14.0342 18.9745C14.0584 19.0311 14.0939 19.0822 14.1384 19.1247C14.1829 19.1672 14.2356 19.2002 14.2933 19.2217C14.3509 19.2433 14.4123 19.2529 14.4738 19.25H17.0878C17.2687 19.25 17.4422 19.1781 17.5701 19.0502C17.698 18.9223 17.7698 18.7489 17.7698 18.568V15.727Z" fill="#0071CD"/>
</g>
</svg>
