<svg width="26" height="26" viewBox="0 0 26 26" fill="none" xmlns="http://www.w3.org/2000/svg">
<mask id="mask0_239_451" style="mask-type:luminance" maskUnits="userSpaceOnUse" x="1" y="1" width="24" height="24">
<path d="M25 1H1V25H25V1Z" fill="white"/>
</mask>
<g mask="url(#mask0_239_451)">
<path d="M23 12.373V13.622C22.9859 13.6715 22.9752 13.722 22.968 13.773C22.8517 15.4685 22.289 17.1031 21.337 18.511C20.5956 19.6487 19.6273 20.621 18.4926 21.3669C17.3579 22.1129 16.0814 22.6164 14.743 22.846C14.374 22.915 13.999 22.946 13.629 23.001H12.373C12.129 22.971 11.884 22.945 11.641 22.91C9.54609 22.6185 7.59708 21.6718 6.07284 20.2054C4.54861 18.739 3.52728 16.8281 3.155 14.746C3.088 14.376 3.054 14 3 13.632V12.373C3.028 12.135 3.054 11.896 3.087 11.664C3.34782 9.66982 4.21453 7.80376 5.57 6.318C7.06011 4.63624 9.08324 3.51805 11.3 3.151C11.653 3.089 12.012 3.05 12.373 3H13.622C13.6712 3.01414 13.7213 3.02484 13.772 3.032C15.2653 3.13211 16.714 3.58334 18 4.349C19.2709 5.0723 20.3652 6.06897 21.2038 7.26695C22.0424 8.46493 22.6044 9.83428 22.849 11.276C22.917 11.638 22.949 12.008 23.003 12.376M9.968 10.544C10.018 10.478 10.054 10.427 10.096 10.378C10.4446 9.97513 10.8693 9.64502 11.3458 9.40656C11.8222 9.1681 12.341 9.02599 12.8725 8.98837C13.4039 8.95075 13.9376 9.01836 14.4428 9.18731C14.9481 9.35627 15.4151 9.62327 15.817 9.973C16.5027 10.5743 16.9688 11.3866 17.142 12.282C17.1586 12.3687 17.1925 12.4512 17.2416 12.5245C17.2908 12.5978 17.3542 12.6605 17.4282 12.7087C17.5021 12.757 17.585 12.7899 17.6719 12.8054C17.7588 12.8209 17.8479 12.8187 17.934 12.799C18.0206 12.7808 18.1027 12.7457 18.1757 12.6956C18.2486 12.6456 18.3109 12.5815 18.359 12.5072C18.4071 12.433 18.44 12.3499 18.4557 12.2628C18.4715 12.1758 18.4699 12.0864 18.451 12C18.2752 11.0964 17.8709 10.253 17.2766 9.54998C16.6823 8.84702 15.9178 8.308 15.0561 7.98432C14.1944 7.66065 13.2641 7.5631 12.354 7.70099C11.4438 7.83888 10.5842 8.2076 9.857 8.772C9.557 9.01 9.282 9.292 8.975 9.572L8.541 9.113C8.49847 9.04951 8.43648 9.00154 8.36435 8.9763C8.29222 8.95105 8.21384 8.94989 8.141 8.973C7.974 9.032 7.941 9.173 7.915 9.327C7.795 10.1557 7.672 10.985 7.546 11.815C7.489 12.189 7.635 12.344 8.01 12.288C8.845 12.162 9.681 12.033 10.516 11.908C10.5878 11.9081 10.6579 11.8868 10.7176 11.8469C10.7772 11.807 10.8236 11.7503 10.851 11.684C10.8747 11.6116 10.8742 11.5335 10.8497 11.4613C10.8252 11.3892 10.7779 11.327 10.715 11.284C10.466 11.039 10.215 10.791 9.964 10.538M15.884 16.006C15.1946 16.6253 14.3101 16.9837 13.384 17.019C12.4663 17.064 11.5606 16.7956 10.8155 16.2579C10.0705 15.7202 9.53041 14.9452 9.284 14.06C9.26601 13.9694 9.22938 13.8836 9.17643 13.8079C9.12348 13.7322 9.05537 13.6684 8.97642 13.6204C8.89748 13.5725 8.80943 13.5415 8.71786 13.5294C8.6263 13.5173 8.53322 13.5244 8.44454 13.5503C8.35587 13.5761 8.27353 13.6201 8.20277 13.6794C8.132 13.7388 8.07436 13.8122 8.03349 13.895C7.99263 13.9779 7.96944 14.0683 7.96539 14.1605C7.96135 14.2528 7.97654 14.3449 8.01 14.431C8.24674 15.2749 8.68599 16.0483 9.28958 16.6839C9.89317 17.3195 10.6428 17.7981 11.4734 18.0781C12.304 18.3581 13.1905 18.431 14.0557 18.2905C14.9208 18.15 15.7387 17.8004 16.438 17.272C16.572 17.172 16.7 17.072 16.843 16.95C16.993 17.107 17.134 17.25 17.27 17.399C17.3133 17.4648 17.3767 17.5149 17.4507 17.5419C17.5247 17.569 17.6055 17.5714 17.681 17.549C17.855 17.487 17.881 17.333 17.91 17.173C18.0327 16.3437 18.1577 15.5147 18.285 14.686C18.336 14.356 18.194 14.193 17.867 14.239C17.011 14.359 16.157 14.489 15.301 14.613C15.143 14.636 15.008 14.684 14.958 14.854C14.9415 14.9242 14.9464 14.9977 14.9721 15.0651C14.9977 15.1324 15.043 15.1906 15.102 15.232C15.356 15.481 15.608 15.732 15.88 16.002" fill="#0071CD"/>
</g>
</svg>
