<svg width="13" height="16" viewBox="0 0 13 16" fill="none" xmlns="http://www.w3.org/2000/svg">
<mask id="mask0_239_457" style="mask-type:luminance" maskUnits="userSpaceOnUse" x="1" y="1" width="11" height="14">
<path d="M12 1H1V15H12V1Z" fill="white"/>
</mask>
<g mask="url(#mask0_239_457)">
<mask id="mask1_239_457" style="mask-type:luminance" maskUnits="userSpaceOnUse" x="1" y="1" width="11" height="14">
<path d="M12 1H1V15H12V1Z" fill="white"/>
</mask>
<g mask="url(#mask1_239_457)">
<path d="M10.1674 2.18359H2.82737C2.43804 2.18359 2.06465 2.33826 1.78934 2.61356C1.51404 2.88886 1.35938 3.26226 1.35938 3.65159V10.1396C1.35951 10.3983 1.42802 10.6524 1.55798 10.8762C1.68793 11.0999 1.8747 11.2853 2.09938 11.4136L6.13337 13.7196C6.24418 13.7831 6.36966 13.8165 6.49738 13.8165C6.62509 13.8165 6.75057 13.7831 6.86137 13.7196L10.8954 11.4136C11.1201 11.2854 11.3069 11.1 11.4369 10.8762C11.5669 10.6525 11.6353 10.3983 11.6354 10.1396V3.65159C11.6354 3.26226 11.4807 2.88886 11.2054 2.61356C10.9301 2.33826 10.5567 2.18359 10.1674 2.18359ZM9.37638 6.83459L6.23238 9.98359L4.08737 7.83459C4.01833 7.76663 3.96342 7.68568 3.92581 7.5964C3.8882 7.50711 3.86864 7.41127 3.86826 7.31439C3.86787 7.21751 3.88667 7.12151 3.92357 7.03193C3.96046 6.94235 4.01473 6.86096 4.08324 6.79245C4.15174 6.72395 4.23313 6.66968 4.32271 6.63279C4.41229 6.59589 4.50829 6.57709 4.60517 6.57748C4.70205 6.57786 4.79789 6.59742 4.88718 6.63503C4.97646 6.67264 5.05742 6.72755 5.12537 6.79659L6.23238 7.90259L8.34337 5.79659C8.41133 5.72755 8.49229 5.67264 8.58157 5.63503C8.67086 5.59742 8.7667 5.57786 8.86358 5.57748C8.96046 5.57709 9.05646 5.59589 9.14604 5.63279C9.23562 5.66968 9.31701 5.72395 9.38552 5.79245C9.45402 5.86096 9.50828 5.94235 9.54518 6.03193C9.58208 6.12151 9.60088 6.21751 9.60049 6.31439C9.60011 6.41127 9.58055 6.50711 9.54294 6.5964C9.50533 6.68568 9.45042 6.76663 9.38137 6.83459H9.37638Z" fill="white"/>
</g>
</g>
</svg>
