<svg id="onbo_a" xmlns="http://www.w3.org/2000/svg" xmlns:xlink="http://www.w3.org/1999/xlink" width="338.999" height="224" viewBox="0 0 338.999 224">
  <defs>
    <clipPath id="clip-path">
      <path id="Path_23237" data-name="Path 23237" d="M503.8,12.48a14.216,14.216,0,0,0-14.222,14.211V203.563A14.217,14.217,0,0,0,503.8,217.774h73.487a14.211,14.211,0,0,0,14.222-14.211V26.691A14.217,14.217,0,0,0,577.287,12.48Z" transform="translate(-489.577 -12.48)" fill="none"/>
    </clipPath>
    <linearGradient id="linear-gradient" x1="-0.276" y1="1.026" x2="-0.275" y2="1.026" gradientUnits="objectBoundingBox">
      <stop offset="0" stop-color="#510394"/>
      <stop offset="0.141" stop-color="#4a0387"/>
      <stop offset="0.397" stop-color="#380368"/>
      <stop offset="0.736" stop-color="#1b0334"/>
      <stop offset="1" stop-color="#030408"/>
    </linearGradient>
    <clipPath id="clip-path-2">
      <rect id="Rectangle_2257" data-name="Rectangle 2257" width="338.999" height="221.023" fill="none"/>
    </clipPath>
    <clipPath id="clip-path-3">
      <rect id="Rectangle_2256" data-name="Rectangle 2256" width="310.666" height="21.778" fill="none"/>
    </clipPath>
    <clipPath id="clip-path-4">
      <path id="Path_23243" data-name="Path 23243" d="M15.21,852.89C9.438,853.565.06,854.8,0,856.583c-.054,1.607,7.5,2.924,10.14,3.385,30.225,5.271,36.79-3.566,76.781.249,20.975,2,17.811,5.319,36.412,6.154,25.451,1.142,64.243-5.792,96.06-5.48,13.575.133,13.789,1.256,32.264,2.154,7.257.353,58.092,2.769,59-.923.164-.667-1.062-2.528-23.045-7.077,0,0-104.953-21.719-272.4-2.154" transform="translate(0 -844.72)" fill="none"/>
    </clipPath>
    <linearGradient id="linear-gradient-2" y1="0.97" x2="0.001" y2="0.97" gradientUnits="objectBoundingBox">
      <stop offset="0" stop-color="#d3d6db"/>
      <stop offset="0.999" stop-color="#7a869b"/>
      <stop offset="1" stop-color="#7a869b"/>
    </linearGradient>
  </defs>
  <g id="Group_5467" data-name="Group 5467">
    <g id="Group_4748" data-name="Group 4748" transform="translate(3.559)">
      <g id="Group_5468" data-name="Group 5468">
        <g id="Group_4746" data-name="Group 4746" opacity="0.59">
          <g id="Group_4745" data-name="Group 4745">
            <g id="Group_5469" data-name="Group 5469">
              <path id="Path_23236" data-name="Path 23236" d="M17.362,104.936C1.435,17.784,76.412-12.4,110.607-.5,125.335,4.63,123.269,24.427,139.3,38.992c45.774,41.6,133.532-38.46,182.5-2.131,24.164,17.928,36.148,62.171,24.048,89.184-36.319,81.082-314.54,55.168-328.48-21.109" transform="translate(-15.171 2.979)" fill="#f6f5fa"/>
            </g>
          </g>
        </g>
      </g>
    </g>
    <g id="Group_4750" data-name="Group 4750" transform="translate(115.57 5.92)">
      <g id="Group_4749" data-name="Group 4749" clip-path="url(#clip-path)">
        <rect id="Rectangle_2254" data-name="Rectangle 2254" width="214.726" height="219.734" transform="translate(-102.487 95.607) rotate(-43.034)" fill="url(#linear-gradient)"/>
      </g>
    </g>
    <g id="Group_4757" data-name="Group 4757" transform="translate(0 2.977)">
      <g id="Group_4756" data-name="Group 4756" clip-path="url(#clip-path-2)">
        <path id="Path_23238" data-name="Path 23238" d="M593.757,36.013h-69.8a9.74,9.74,0,0,0-9.745,9.737V218.96a9.74,9.74,0,0,0,9.745,9.737h69.8a9.741,9.741,0,0,0,9.745-9.737V45.75a9.74,9.74,0,0,0-9.745-9.737" transform="translate(-392.824 -27.519)" fill="#fff"/>
        <path id="Path_23239" data-name="Path 23239" d="M548.46,59.629h-8.854a1.449,1.449,0,1,1,0-2.9h8.854a1.449,1.449,0,1,1,0,2.9" transform="translate(-411.118 -43.35)" fill="#510394"/>
        <path id="Path_23240" data-name="Path 23240" d="M823.339,59.629h-.392a1.449,1.449,0,1,1,0-2.9h.392a1.449,1.449,0,1,1,0,2.9" transform="translate(-627.574 -43.35)" fill="#510394"/>
        <path id="Path_23241" data-name="Path 23241" d="M847.906,59.629h-3.878a1.449,1.449,0,1,1,0-2.9h3.878a1.449,1.449,0,1,1,0,2.9" transform="translate(-643.678 -43.35)" fill="#510394"/>
        <path id="Path_23242" data-name="Path 23242" d="M699.98,54.915a2.459,2.459,0,1,1-2.459-2.457,2.458,2.458,0,0,1,2.459,2.457" transform="translate(-530.985 -40.085)" fill="#510394"/>
        <g id="Group_4755" data-name="Group 4755" transform="translate(0 199.245)" opacity="0.3">
          <g id="Group_4754" data-name="Group 4754">
            <g id="Group_4753" data-name="Group 4753" clip-path="url(#clip-path-3)">
              <g id="Group_4752" data-name="Group 4752" transform="translate(0)">
                <g id="Group_4751" data-name="Group 4751" clip-path="url(#clip-path-4)">
                  <rect id="Rectangle_2255" data-name="Rectangle 2255" width="310.872" height="34.188" transform="translate(-0.054 -11.395)" fill="url(#linear-gradient-2)"/>
                </g>
              </g>
            </g>
          </g>
        </g>
        <path id="Path_23244" data-name="Path 23244" d="M976.814,772.1H953.8a1.512,1.512,0,0,1-1.5-1.34l-3.629-31.9h33.272l-3.628,31.9a1.512,1.512,0,0,1-1.5,1.34" transform="translate(-724.728 -564.577)" fill="#4cbcf3"/>
        <path id="Path_23245" data-name="Path 23245" d="M981.944,734.334c0,1.043-7.448,1.889-16.636,1.889s-16.636-.846-16.636-1.889,7.448-1.889,16.636-1.889,16.636.846,16.636,1.889" transform="translate(-724.728 -559.682)" fill="#1c2b6b"/>
        <path id="Path_23246" data-name="Path 23246" d="M991.6,479.319c-9.074.755-6.05,27.956-6.05,27.956,2.268,23.423,5.293,34,7.562,34.757s6.806-33.245,6.806-41.557c0,0,.756-21.912-8.318-21.156" transform="translate(-752.527 -366.247)" fill="#1e3286"/>
        <path id="Path_23247" data-name="Path 23247" d="M1013.874,545.656l-.047,0a.378.378,0,0,1-.329-.421c2.984-24.6-.719-55.512-.756-55.821a.378.378,0,0,1,.75-.092c.038.31,3.752,31.31.756,56a.377.377,0,0,1-.374.332" transform="translate(-773.671 -373.649)" fill="#fff"/>
        <path id="Path_23248" data-name="Path 23248" d="M897.145,420.748c-.756,3.778,3.781,4.533,4.537,9.822s-1.512,6.8-.756,9.823,5.293,3.778,6.049,11.334-2.269,6.8-1.512,11.334,5.293,4.533,6.049,8.311.756,9.067,2.269,13.6,6.049,11.334,8.318,11.334,8.318-12.845,6.806-16.623-3.781-4.533-3.781-7.556,3.025-10.578,2.268-15.867-7.562-7.556-8.318-11.334,1.512-13.6-3.781-18.134-17.392-9.823-18.148-6.045" transform="translate(-685.299 -320.52)" fill="#fa6e53"/>
        <path id="Path_23249" data-name="Path 23249" d="M1060.447,453.948c2.674,2.671-6.05,3.778-6.806,9.067s-.756,7.556-3.781,10.578-7.562,3.778-6.806,8.311,2.268,9.067,0,11.334-7.562,2.267-9.074,6.045-.756,8.311-3.781,12.089-7.562,11.334-11.343,9.823-1.512-18.89,0-21.912,3.025-5.289,3.025-7.556-.756-6.045.756-9.823,9.831-5.289,10.587-7.556,1.512-14.356,6.05-17.378,16.636-7.556,21.173-3.022" transform="translate(-776.764 -345.409)" fill="#40cd8a"/>
        <path id="Path_23250" data-name="Path 23250" d="M1029.3,533.454a.382.382,0,0,1-.195-.054.378.378,0,0,1-.129-.519c.03-.051,3.059-5.11,3.7-7.668.165-.659.364-1.657.594-2.812.836-4.194,2.1-10.532,4.043-12.475,2.822-2.819,7.331-11.454,10.49-22.5,3.892-13.614,16.762-17.6,16.891-17.637a.378.378,0,0,1,.217.724c-.126.038-12.6,3.914-16.381,17.12-3.195,11.173-7.793,19.943-10.683,22.831-1.782,1.78-3.068,8.233-3.835,12.088-.233,1.165-.433,2.171-.6,2.847-.667,2.667-3.658,7.662-3.785,7.874a.378.378,0,0,1-.324.183" transform="translate(-786.033 -358.965)" fill="#fff"/>
        <path id="Path_23251" data-name="Path 23251" d="M935.551,501.964a.378.378,0,0,1-.378-.376c0-.1-.065-9.917-2.945-12.794-2.922-2.92-4.588-11.851-5.4-28.961-.742-15.547-11.893-28.353-12.005-28.48a.378.378,0,1,1,.567-.5c.115.129,11.44,13.127,12.193,28.944.8,16.679,2.442,25.723,5.183,28.462,3.1,3.1,3.165,12.91,3.167,13.326a.378.378,0,0,1-.377.379Z" transform="translate(-698.794 -329.129)" fill="#fff"/>
        <path id="Path_23252" data-name="Path 23252" d="M511.506,211.908l-6.189-1.3a1.223,1.223,0,0,1-.947-1.448l3.125-14.9a1.224,1.224,0,0,1,1.449-.946l6.189,1.3a1.223,1.223,0,0,1,.947,1.448l-3.125,14.9a1.223,1.223,0,0,1-1.449.946" transform="translate(-385.288 -147.702)" fill="#fff"/>
        <path id="Path_23253" data-name="Path 23253" d="M510.611,211.143a1.59,1.59,0,0,1-.324-.033l-6.19-1.3a1.577,1.577,0,0,1-1.221-1.867L506,193.05a1.578,1.578,0,0,1,1.868-1.22l6.189,1.3a1.577,1.577,0,0,1,1.221,1.867l-3.125,14.9a1.577,1.577,0,0,1-1.544,1.253m-.179-.726a.869.869,0,0,0,1.03-.672l3.125-14.9a.869.869,0,0,0-.673-1.029l-6.189-1.3a.87.87,0,0,0-1.03.672l-3.125,14.9a.868.868,0,0,0,.673,1.029Z" transform="translate(-384.141 -146.557)" fill="#510394"/>
        <path id="Path_23254" data-name="Path 23254" d="M497.523,246.972s2.376-5.1,2.518-7.52,2.049-7.723,2.049-7.723v5.064a8.269,8.269,0,0,1,1.081,3.681l3.481.729s-3.622,6.935-4.248,9.442Z" transform="translate(-380.077 -177.071)" fill="#fff"/>
        <path id="Path_23255" data-name="Path 23255" d="M501.259,249.854a.353.353,0,0,1-.213-.071l-4.882-3.673a.354.354,0,0,1-.108-.432c.024-.05,2.349-5.064,2.485-7.391.143-2.445,1.99-7.6,2.069-7.822a.354.354,0,0,1,.687.12v4.974a8.925,8.925,0,0,1,1.09,3.485l3.191.668a.354.354,0,0,1,.241.51c-.036.069-3.61,6.927-4.218,9.364a.354.354,0,0,1-.344.268m-4.441-4.139,4.243,3.193a78.552,78.552,0,0,1,3.917-8.6l-3.026-.634a.354.354,0,0,1-.28-.376,7.965,7.965,0,0,0-1.037-3.478.353.353,0,0,1-.045-.173v-2.9a28.76,28.76,0,0,0-1.341,5.579c-.127,2.171-1.938,6.3-2.431,7.387" transform="translate(-378.931 -175.925)" fill="#510394"/>
        <path id="Path_23256" data-name="Path 23256" d="M364.615,858.282c-.218.6,1.964,10.594,4.9,10.521s4.244-8.8,3.813-10.738c-.347-1.559-8.492-.387-8.709.217" transform="translate(-278.533 -655.079)" fill="#4cbcf3"/>
        <path id="Path_23257" data-name="Path 23257" d="M161.27,839.45s-2.645,4.747-3.374,6.527,6.964-1.079,8.206-1.214,5.534-5.853,5.642-6.527.783-.539.783-.3l-.232,6.724a.23.23,0,0,0,.455.043c.355-1.887,1.071-6.525,1.4-6.966.567-.77,1.53-5.343-.549-7.767s-12.326,9.476-12.326,9.476" transform="translate(-120.586 -633.958)" fill="#4cbcf3"/>
        <path id="Path_23258" data-name="Path 23258" d="M351.935,671.87a71.6,71.6,0,0,1,1.275,8.453c0,2.2-.927,12.737,0,15.979s3.013,9.61,2.781,12.389-1.043,6.021-.7,6.716,4.519,2.779,4.519,2.779,3.476-1.621,3.592-3.011-1.854-5.789-1.854-7.41,0-10.091.232-14.772-1.275-10.354-1.275-14.059.464-8.916.464-8.916Z" transform="translate(-268.857 -511.979)" fill="#fff"/>
        <path id="Path_23259" data-name="Path 23259" d="M358.669,717.391a.352.352,0,0,1-.158-.037c-1-.5-4.306-2.195-4.678-2.937-.248-.495-.1-1.563.217-3.565.164-1.05.35-2.24.442-3.339.19-2.28-1.287-7.254-2.264-10.545-.187-.632-.36-1.213-.5-1.718-.714-2.5-.369-8.925-.14-13.178.071-1.321.127-2.365.127-2.9a71.743,71.743,0,0,0-1.268-8.382.354.354,0,0,1,.276-.418l9.039-1.853a.354.354,0,0,1,.424.378c0,.052-.462,5.238-.462,8.884a43.431,43.431,0,0,0,.583,5.646,45.567,45.567,0,0,1,.692,8.431c-.2,4.065-.231,10.989-.231,14.754a16.42,16.42,0,0,0,.926,3.6,13.641,13.641,0,0,1,.927,3.84c-.129,1.549-3.421,3.127-3.8,3.3a.354.354,0,0,1-.15.033M351.205,671a64.685,64.685,0,0,1,1.212,8.177c0,.552-.057,1.6-.128,2.936-.212,3.95-.567,10.561.114,12.946.144.5.316,1.082.5,1.711,1.052,3.542,2.492,8.392,2.291,10.805-.094,1.124-.282,2.327-.448,3.389a11.463,11.463,0,0,0-.284,3.138,20.05,20.05,0,0,0,4.207,2.544c1.276-.619,3.166-1.818,3.235-2.646a14.166,14.166,0,0,0-.894-3.563,16.13,16.13,0,0,1-.961-3.818c0-3.772.03-10.709.232-14.789a45.038,45.038,0,0,0-.685-8.3,43.879,43.879,0,0,1-.59-5.746c0-3.029.312-7.1.425-8.474Z" transform="translate(-267.711 -510.832)" fill="#510394"/>
        <path id="Path_23260" data-name="Path 23260" d="M190.048,661.62s-6.142,12.737-7.416,19.1-3.205,15.827-5.059,19.3-5.794,10.884-5.794,10.884,6.6-1.389,8.807-4.052,4.063-4.053,3.654-6.137.981-5.79,3.531-10.305,8.923-23.389,9.27-27.673-6.992-1.122-6.992-1.122" transform="translate(-131.228 -504.704)" fill="#fff"/>
        <path id="Path_23261" data-name="Path 23261" d="M170.631,710.136a.354.354,0,0,1-.313-.52s3.94-7.411,5.794-10.885c1.889-3.539,3.929-13.729,5.025-19.2,1.269-6.339,7.193-18.668,7.444-19.189a.354.354,0,0,1,.179-.171c.194-.083,4.763-2.028,6.666-.663a2.22,2.22,0,0,1,.819,2.138c-.341,4.2-6.7,23.179-9.315,27.818-2.654,4.7-3.861,8.181-3.492,10.063.355,1.807-.792,3.094-2.379,4.875-.432.485-.879.986-1.349,1.555-2.255,2.727-8.732,4.115-9.007,4.173a.353.353,0,0,1-.073.008m18.531-49.369c-.627,1.313-6.145,12.977-7.331,18.9-1.527,7.628-3.306,16.047-5.094,19.4-1.51,2.83-4.4,8.271-5.426,10.192,1.774-.45,6.187-1.736,7.853-3.752.479-.58.95-1.108,1.366-1.575,1.506-1.69,2.5-2.806,2.213-4.268-.408-2.08.793-5.628,3.57-10.547,2.595-4.6,8.889-23.377,9.226-27.528a1.547,1.547,0,0,0-.526-1.506c-1.269-.91-4.542.143-5.852.686" transform="translate(-130.081 -503.577)" fill="#510394"/>
        <path id="Path_23262" data-name="Path 23262" d="M233.107,288.138c-.418,7.178-2.09,33.77-4.738,41.01s-5.434,11.417-2.647,13.227,14.491.139,18.811,1.392,12.262,4.037,22.434,0,11.983-2.39,9.057-15.745a357.119,357.119,0,0,1-7.828-49.146c-2.052-22.325-1.14-35.311-8.892-37.589s-13.68-1.627-16.416,1.92-9.781,44.93-9.781,44.93" transform="translate(-171.553 -183.358)" fill="#3a3e3f"/>
        <path id="Path_23263" data-name="Path 23263" d="M344.1,226.182c1.783.794,7.174.832,8.135,1.984s6.021,1.408,7.623,3.264,11.411,20.132,11.472,20.993,6.591-11.14,7.823-11.756,6.837,3.077,7.084,5.109-6.653,20.065-12.443,19.88-11.642-10.34-11.642-9.663,4.735,30.134,5.1,33.135.147,6.15-5.642,6.15-6.595-4.1-7.547-10.47-6.654-51.416-8.378-54.079a8.149,8.149,0,0,1-1.587-4.549" transform="translate(-262.87 -172.832)" fill="#0071cd"/>
        <path id="Path_23264" data-name="Path 23264" d="M247.414,229.711c-3.345,0-4.547,1.98-7.22,2.458-2.931.524-6.845.451-9.4,4.843s-1.276,39.418-2.41,43.3-4.4,8.979-2.552,10.821,5.137,10.2,18.519,8.075,9.412-13.034,9.412-18.275-.782-36.28-2.419-40.773-3.933-10.446-3.933-10.446" transform="translate(-172.101 -175.529)" fill="#0071cd"/>
        <path id="Path_23265" data-name="Path 23265" d="M282.636,142.173c-7.6-.2-11.351.942-13.948-4.729s1.443-5.094,2.5-11.245,4.328-8.266,9.619-8.65,10.292,1.442,11.447,3.46,3.99,13.2,3.463,16.532c-.577,3.652-6.541,4.8-13.082,4.633" transform="translate(-204.608 -89.783)" fill="#510394"/>
        <path id="Path_23266" data-name="Path 23266" d="M318.951,184.892s-.644,8.325-1.473,9.705.23,6.669,4.557,6.531a3.665,3.665,0,0,0,3.315-5.7c-1.1-1.518-1.2-6.532-1.059-7.957s-5.34-2.576-5.34-2.576" transform="translate(-242.335 -141.281)" fill="#fff"/>
        <path id="Path_23267" data-name="Path 23267" d="M320.731,200.339a4.638,4.638,0,0,1-4.117-2.42c-1-1.7-1.109-3.776-.584-4.65.644-1.073,1.246-7.258,1.423-9.55a.354.354,0,0,1,.426-.319c1.358.285,5.776,1.34,5.619,2.956-.14,1.44-.015,6.331.992,7.715a4.268,4.268,0,0,1,.252,4.115,4.033,4.033,0,0,1-3.842,2.15l-.172,0m-2.6-16.161c-.149,1.815-.722,8.176-1.49,9.455a4.737,4.737,0,0,0,.587,3.927,3.935,3.935,0,0,0,3.655,2.068,3.426,3.426,0,0,0,3.228-1.754,3.566,3.566,0,0,0-.189-3.388c-1.184-1.627-1.262-6.784-1.125-8.2.05-.513-1.8-1.46-4.667-2.109" transform="translate(-241.192 -140.135)" fill="#510394"/>
        <path id="Path_23268" data-name="Path 23268" d="M318.241,134.809c3.478.053,3.058,5.729,3.153,8.211a6.71,6.71,0,0,0,1.338,3.915l-2.246.477s-.06,4.427-1,5.06-7.777-1.549-9.265-3.587a9.373,9.373,0,0,1-1.414-4.25s-3.7-1.986-2.482-3.608c1.777-2.367,1.89.113,3.606.178,4.012.152,2.007-6.493,8.314-6.4" transform="translate(-233.823 -103.01)" fill="#fff"/>
        <path id="Path_23269" data-name="Path 23269" d="M317.742,151.784c-2.234,0-7.639-2.034-8.954-3.834a9.421,9.421,0,0,1-1.465-4.241c-.6-.345-2.422-1.486-2.707-2.779a1.5,1.5,0,0,1,.278-1.259c.565-.753,1.023-1.11,1.486-1.158a1.6,1.6,0,0,1,1.2.567,1.938,1.938,0,0,0,1.213.627c1.552.058,2.061-1.043,2.709-2.437.831-1.79,1.867-4.009,5.6-3.961,3.4.052,3.45,4.729,3.482,7.524,0,.379.008.727.02,1.028a6.444,6.444,0,0,0,1.252,3.7.354.354,0,0,1-.195.577l-1.972.419c-.013.407-.049,1.2-.143,2.044-.255,2.272-.7,2.813-1.009,3.022a1.489,1.489,0,0,1-.795.163m-11.259-12.569h-.03c-.165.017-.471.183-.992.878a.785.785,0,0,0-.153.682c.216.976,1.892,2.065,2.52,2.4a.354.354,0,0,1,.186.288,9.075,9.075,0,0,0,1.347,4.065c1.492,2.042,8.086,3.956,8.782,3.5.487-.328.819-2.732.847-4.772a.354.354,0,0,1,.28-.341l1.719-.365a7.435,7.435,0,0,1-1.091-3.667c-.012-.306-.016-.661-.02-1.047-.039-3.432-.286-6.786-2.785-6.824-3.267-.051-4.121,1.781-4.943,3.551-.668,1.437-1.354,2.921-3.378,2.846a2.571,2.571,0,0,1-1.654-.8c-.276-.243-.46-.4-.633-.4" transform="translate(-232.679 -101.865)" fill="#510394"/>
        <path id="Path_23270" data-name="Path 23270" d="M241.837,479.835a33.552,33.552,0,0,0-1.317,5.632c-.011.6.421,3.211.421,3.211l.632-3.264.737,5.79.738-5.475.706,6.281.206-4.193,2.091,3.6-1.071-3.5,1.071-2.236,1.159,3.843V484.31l-.689-4.18Z" transform="translate(-183.743 -366.656)" fill="#fff"/>
        <path id="Path_23271" data-name="Path 23271" d="M242.609,491.22a.354.354,0,0,1-.352-.314l-.385-3.432-.355,2.633a.354.354,0,0,1-.351.307h0a.354.354,0,0,1-.35-.309l-.458-3.6-.212,1.1a.363.363,0,0,1-.353.286.354.354,0,0,1-.344-.3c-.045-.271-.438-2.662-.426-3.276a33.491,33.491,0,0,1,1.351-5.776.354.354,0,0,1,.343-.2l4.685.294a.354.354,0,0,1,.327.3l.689,4.18a.363.363,0,0,1,0,.057v5.211a.354.354,0,0,1-.693.1l-.9-2.968-.617,1.288,1.03,3.37a.354.354,0,0,1-.645.281l-1.49-2.563-.148,3a.354.354,0,0,1-.343.336h-.011m.206-4.9a.354.354,0,0,1,.306.176l.549.945-.174-.568a.354.354,0,0,1,.019-.256l1.071-2.236a.354.354,0,0,1,.659.051l.466,1.545v-2.782l-.639-3.874-4.149-.261a37.337,37.337,0,0,0-1.195,5.27,10.315,10.315,0,0,0,.111,1.118l.241-1.245a.354.354,0,0,1,.7.023l.4,3.11.377-2.8a.354.354,0,0,1,.351-.307h0a.354.354,0,0,1,.348.314l.226,2.011a.353.353,0,0,1,.25-.227.362.362,0,0,1,.084-.01" transform="translate(-182.597 -365.51)" fill="#510394"/>
        <path id="Path_23272" data-name="Path 23272" d="M253.95,506.157a.354.354,0,0,1-.347-.425l.429-2.079a.354.354,0,0,1,.694.143l-.428,2.079a.354.354,0,0,1-.347.283" transform="translate(-193.731 -384.639)" fill="#510394"/>
        <path id="Path_23273" data-name="Path 23273" d="M244.666,342.7c-.524,0-.874-.018-.9-.02l-4.688-.294a.352.352,0,0,1-.121-.03l-1.317-.583a.354.354,0,0,1-.21-.3l-.492-7.816a.354.354,0,0,1,.707-.045l.479,7.6,1.063.471,4.621.29c1.933.1,5.2-.116,5.712-1.147.363-.826-.015-10.909-.348-19.8-.377-10.047-.733-19.537-.352-21.248a.354.354,0,0,1,.691.153c-.361,1.622.01,11.508.369,21.068.448,11.937.7,19.3.275,20.148-.4.79-1.612,1.286-3.614,1.474-.7.065-1.365.082-1.871.082" transform="translate(-181.004 -228.857)" fill="#510394"/>
        <path id="Path_23274" data-name="Path 23274" d="M544.195,239.957l1.879.8-1.85.6,1.266,1.035-1.526-.2,1.065,1.438-1.62.091Z" transform="translate(-415.132 -183.358)" fill="#fff"/>
        <path id="Path_23275" data-name="Path 23275" d="M542.264,242.932a.354.354,0,0,1-.347-.426l.785-3.768a.354.354,0,0,1,.486-.253l1.879.8a.354.354,0,0,1-.029.662l-1.235.4.766.626a.354.354,0,0,1-.271.625l-.7-.092.569.768a.354.354,0,0,1-.265.564l-1.62.091h-.02m.556-1.286-.115.553.5-.028Zm.193-.928.144.019-.126-.1Zm.294-1.413-.1.5.719-.234Z" transform="translate(-413.986 -182.211)" fill="#510394"/>
        <path id="Path_23276" data-name="Path 23276" d="M530.622,202.4a.358.358,0,0,1-.08-.009l-2.777-.642a.354.354,0,1,1,.16-.689l2.777.642a.354.354,0,0,1-.079.7" transform="translate(-402.971 -153.625)" fill="#510394"/>
        <path id="Path_23277" data-name="Path 23277" d="M301.562,277.226a.354.354,0,0,1-.335-.238l-10.36-29.8a.354.354,0,0,1,.669-.232l10.36,29.8a.354.354,0,0,1-.334.47" transform="translate(-222.19 -188.523)" fill="#510394"/>
        <path id="Path_23278" data-name="Path 23278" d="M375.491,272.682h-.009a.354.354,0,0,1-.345-.363L375.9,243a.362.362,0,0,1,.363-.345.354.354,0,0,1,.345.363l-.767,29.322a.354.354,0,0,1-.354.345" transform="translate(-286.581 -185.417)" fill="#510394"/>
        <path id="Path_23279" data-name="Path 23279" d="M393.984,414.283a.354.354,0,0,1-.052-.7l5.918-.879a.354.354,0,1,1,.1.7l-5.917.879a.366.366,0,0,1-.053,0" transform="translate(-300.709 -315.353)" fill="#510394"/>
        <path id="Path_23280" data-name="Path 23280" d="M305.993,416.025a.338.338,0,0,1-.046,0l-5.837-.759a.354.354,0,1,1,.091-.7l5.837.759a.354.354,0,0,1-.045.7" transform="translate(-229.03 -316.775)" fill="#510394"/>
        <path id="Path_23281" data-name="Path 23281" d="M700.593,336.862c-1.361-1.674,2.915-8.286,3.267-9.708.5-2.024-1.941-4.054-1.1-7.3.079-.306.419-2.013.419-2.013a.68.68,0,0,0-1.317-.34l-.5,1.926a11.39,11.39,0,0,1-9.369,3.083c-2.634-.257-3.138-1.266-3.187-1.9l.718-2.773a.68.68,0,0,0-1.317-.34s-2.791,7.6-1.853,10.445c.743,2.248,2.111,1.851,2.455,3.228s1.19,4.006,0,6.634-17.568,37.04-17.568,37.04,15,9.023,21.888,9.176,26.174-6.729,26.939-10.247-18.111-35.241-19.472-36.915" transform="translate(-512.785 -242.222)" fill="#be73ff"/>
        <path id="Path_23282" data-name="Path 23282" d="M746.464,273l-12.86-8.4v-.734a2.7,2.7,0,1,0-3.357-2.616.658.658,0,0,0,1.316,0,1.383,1.383,0,1,1,1.383,1.382.658.658,0,0,0-.658.658V264.6l-12.86,8.4a.658.658,0,0,0,.36,1.208H746.1a.658.658,0,0,0,.36-1.208M722,272.891l10.949-7.152,10.949,7.152Z" transform="translate(-549.371 -197.565)" fill="#be73ff"/>
        <path id="Path_23283" data-name="Path 23283" d="M644.527,336.862c-1.361-1.674,2.914-8.286,3.267-9.708.5-2.024-1.941-4.054-1.105-7.3.079-.306.419-2.013.419-2.013a.68.68,0,0,0-1.317-.34l-.5,1.926a11.39,11.39,0,0,1-9.369,3.083c-2.634-.257-3.138-1.266-3.187-1.9l.718-2.773a.68.68,0,0,0-1.317-.34s-2.791,7.6-1.853,10.445c.743,2.248,2.111,1.851,2.456,3.228s1.19,4.006,0,6.634-17.568,37.04-17.568,37.04,15,9.023,21.888,9.176,26.174-6.729,26.939-10.247-18.111-35.241-19.472-36.915" transform="translate(-469.954 -242.222)" fill="#d19cff"/>
        <path id="Path_23284" data-name="Path 23284" d="M690.4,273l-12.86-8.4v-.734a2.7,2.7,0,1,0-3.357-2.616.658.658,0,0,0,1.316,0,1.383,1.383,0,1,1,1.383,1.382.658.658,0,0,0-.658.658V264.6l-12.86,8.4a.658.658,0,0,0,.36,1.208h26.317A.658.658,0,0,0,690.4,273m-24.467-.107,10.949-7.152,10.949,7.152Z" transform="translate(-506.539 -197.565)" fill="#d19cff"/>
        <path id="Path_23285" data-name="Path 23285" d="M588.461,336.862c-1.361-1.674,2.915-8.286,3.267-9.708.5-2.024-1.941-4.054-1.1-7.3.079-.306.419-2.013.419-2.013a.68.68,0,0,0-1.317-.34l-.5,1.926a11.39,11.39,0,0,1-9.369,3.083c-2.635-.257-3.138-1.266-3.187-1.9l.718-2.773a.68.68,0,0,0-1.317-.34s-2.791,7.6-1.853,10.445c.743,2.248,2.111,1.851,2.455,3.228s1.19,4.006,0,6.634-17.568,37.04-17.568,37.04,15,9.023,21.888,9.176,26.174-6.729,26.939-10.247-18.111-35.241-19.472-36.915" transform="translate(-427.123 -242.222)" fill="#dfbaff"/>
        <path id="Path_23286" data-name="Path 23286" d="M634.331,273l-12.86-8.4v-.734a2.7,2.7,0,1,0-3.357-2.616.658.658,0,0,0,1.316,0,1.383,1.383,0,1,1,1.383,1.382.658.658,0,0,0-.658.658V264.6l-12.86,8.4a.658.658,0,0,0,.36,1.208h26.317a.658.658,0,0,0,.36-1.208m-24.467-.107,10.949-7.152,10.949,7.152Z" transform="translate(-463.709 -197.565)" fill="#dfbaff"/>
        <path id="Path_23287" data-name="Path 23287" d="M616.36,268.475H544.6a1.821,1.821,0,0,0-1.822,1.821V399.658h9.886a.91.91,0,1,0,0-1.821H544.6v-126.7a.841.841,0,0,1,.841-.84h70.074a.841.841,0,0,1,.841.84v126.7H608.3a.91.91,0,1,0,0,1.821h9.886V270.3a1.821,1.821,0,0,0-1.822-1.821" transform="translate(-414.652 -205.149)" fill="#be73ff"/>
      </g>
    </g>
  </g>
</svg>
