<svg id="onbo_b" xmlns="http://www.w3.org/2000/svg" xmlns:xlink="http://www.w3.org/1999/xlink" width="339" height="224" viewBox="0 0 339 224">
  <defs>
    <clipPath id="clip-path">
      <rect id="Rectangle_2273" data-name="Rectangle 2273" width="339" height="224" fill="none"/>
    </clipPath>
    <clipPath id="clip-path-2">
      <rect id="Rectangle_2260" data-name="Rectangle 2260" width="338.999" height="224" fill="none"/>
    </clipPath>
    <clipPath id="clip-path-3">
      <rect id="Rectangle_2259" data-name="Rectangle 2259" width="339" height="177.569" fill="#f6f5fa"/>
    </clipPath>
    <clipPath id="clip-path-4">
      <path id="Path_23289" data-name="Path 23289" d="M478.461,0a14.608,14.608,0,0,0-14.624,14.6V196.27a14.61,14.61,0,0,0,14.624,14.6h75.561a14.6,14.6,0,0,0,14.624-14.6V14.6A14.612,14.612,0,0,0,554.022,0Z" transform="translate(-463.837)" fill="none"/>
    </clipPath>
    <linearGradient id="linear-gradient" x1="-0.247" y1="1.026" x2="-0.246" y2="1.026" gradientUnits="objectBoundingBox">
      <stop offset="0" stop-color="#510394"/>
      <stop offset="0.141" stop-color="#4a0387"/>
      <stop offset="0.397" stop-color="#380368"/>
      <stop offset="0.736" stop-color="#1b0334"/>
      <stop offset="1" stop-color="#030408"/>
    </linearGradient>
    <clipPath id="clip-path-6">
      <rect id="Rectangle_2263" data-name="Rectangle 2263" width="319.435" height="22.369" fill="none"/>
    </clipPath>
    <clipPath id="clip-path-7">
      <path id="Path_23295" data-name="Path 23295" d="M79.156,840.632c-5.935.693-15.578,1.963-15.639,3.793-.056,1.651,7.709,3,10.426,3.477,31.078,5.414,37.828-3.663,78.949.256,21.567,2.055,18.313,5.464,37.44,6.321,26.17,1.173,66.056-5.949,98.771-5.629,13.958.136,14.178,1.29,33.174,2.213,7.462.362,59.732,2.844,60.662-.948.168-.686-1.092-2.6-23.7-7.269,0,0-107.915-22.309-280.087-2.212" transform="translate(-63.517 -832.24)" fill="none"/>
    </clipPath>
    <linearGradient id="linear-gradient-2" x1="-0.048" y1="0.97" x2="-0.047" y2="0.97" gradientUnits="objectBoundingBox">
      <stop offset="0" stop-color="#d3d6db"/>
      <stop offset="0.999" stop-color="#7a869b"/>
      <stop offset="1" stop-color="#7a869b"/>
    </linearGradient>
    <clipPath id="clip-path-8">
      <rect id="Rectangle_2264" data-name="Rectangle 2264" width="72.615" height="59.022" fill="none"/>
    </clipPath>
    <clipPath id="clip-path-9">
      <rect id="Rectangle_2265" data-name="Rectangle 2265" width="72.615" height="40.474" fill="none"/>
    </clipPath>
    <clipPath id="clip-path-11">
      <rect id="Rectangle_2268" data-name="Rectangle 2268" width="24.529" height="24.55" fill="none"/>
    </clipPath>
  </defs>
  <g id="Group_4798" data-name="Group 4798" clip-path="url(#clip-path)">
    <g id="Group_4764" data-name="Group 4764">
      <g id="Group_4763" data-name="Group 4763" clip-path="url(#clip-path-2)">
        <g id="Group_4762" data-name="Group 4762" transform="translate(0 14.011)" opacity="0.59">
          <g id="Group_4761" data-name="Group 4761">
            <g id="Group_4760" data-name="Group 4760" clip-path="url(#clip-path-3)">
              <path id="Path_23288" data-name="Path 23288" d="M.133,140.09C-3.737,60.64,77.543,48.054,110.639,63.662c14.255,6.722,8.6,20.964,22.843,36.228,40.672,43.594,153.781,5.563,183.5,39.8,19.264,22.193,30.388,45.8,14.259,67.892C282.835,273.9,3.521,209.626.133,140.09" transform="translate(0 -57.83)" fill="#f6f5fa"/>
            </g>
          </g>
        </g>
      </g>
    </g>
    <g id="Group_4766" data-name="Group 4766" transform="translate(112.584)">
      <g id="Group_4765" data-name="Group 4765" clip-path="url(#clip-path-4)">
        <rect id="Rectangle_2261" data-name="Rectangle 2261" width="220.588" height="225.721" transform="translate(-105.38 98.203) rotate(-43.034)" fill="url(#linear-gradient)"/>
      </g>
    </g>
    <g id="Group_4797" data-name="Group 4797">
      <g id="Group_4796" data-name="Group 4796" clip-path="url(#clip-path-2)">
        <path id="Path_23290" data-name="Path 23290" d="M570.262,23.533H498.488a10.009,10.009,0,0,0-10.02,10V211.446a10.009,10.009,0,0,0,10.02,10h71.775a10.01,10.01,0,0,0,10.02-10V33.534a10.01,10.01,0,0,0-10.02-10" transform="translate(-369.905 -17.832)" fill="#fff"/>
        <path id="Path_23291" data-name="Path 23291" d="M523.011,47.228h-9.1a1.488,1.488,0,1,1,0-2.977h9.1a1.488,1.488,0,1,1,0,2.977" transform="translate(-388.041 -33.53)" fill="#510394"/>
        <path id="Path_23292" data-name="Path 23292" d="M797.651,47.228h-.4a1.488,1.488,0,1,1,0-2.977h.4a1.488,1.488,0,1,1,0,2.977" transform="translate(-602.608 -33.53)" fill="#510394"/>
        <path id="Path_23293" data-name="Path 23293" d="M822.317,47.228H818.33a1.488,1.488,0,1,1,0-2.977h3.987a1.488,1.488,0,1,1,0,2.977" transform="translate(-618.573 -33.53)" fill="#510394"/>
        <path id="Path_23294" data-name="Path 23294" d="M674.379,42.5a2.528,2.528,0,1,1-2.528-2.524,2.526,2.526,0,0,1,2.528,2.524" transform="translate(-506.862 -30.292)" fill="#510394"/>
        <g id="Group_4771" data-name="Group 4771" transform="translate(15.417 201.631)" opacity="0.3">
          <g id="Group_4770" data-name="Group 4770">
            <g id="Group_4769" data-name="Group 4769" clip-path="url(#clip-path-6)">
              <g id="Group_4768" data-name="Group 4768" transform="translate(0)">
                <g id="Group_4767" data-name="Group 4767" clip-path="url(#clip-path-7)">
                  <rect id="Rectangle_2262" data-name="Rectangle 2262" width="319.646" height="35.116" transform="translate(-0.056 -11.704)" fill="url(#linear-gradient-2)"/>
                </g>
              </g>
            </g>
          </g>
        </g>
        <path id="Path_23296" data-name="Path 23296" d="M363.016,793.2s.082,3.1-.654,4.485-1.389,1.672-1.062,2.161,3.458,6.586,6.563,6.016a8.833,8.833,0,0,0,5.647-4.708c.082-.693-3.506-4.047-3.264-7.1.1-1.3-7.231-.856-7.231-.856" transform="translate(-273.539 -600.97)" fill="#fff"/>
        <path id="Path_23297" data-name="Path 23297" d="M366.3,805.1c-1.9,0-4-1.989-6.277-5.924-.083-.143-.141-.245-.172-.291-.34-.51-.044-.911.3-1.376a8.659,8.659,0,0,0,.745-1.157c.682-1.286.612-4.276.611-4.306a.364.364,0,0,1,.342-.372c1.06-.065,6.4-.334,7.4.679a.712.712,0,0,1,.219.569c-.152,1.918,1.358,4.027,2.358,5.422.657.917.946,1.338.9,1.69-.111.941-2.8,4.446-5.943,5.023a2.664,2.664,0,0,1-.483.044m-4.063-12.72a11.268,11.268,0,0,1-.7,4.313,9.4,9.4,0,0,1-.8,1.247c-.322.437-.324.476-.279.543s.1.168.2.332c1.579,2.735,3.9,5.913,6,5.528,2.861-.526,5.236-3.75,5.349-4.375a7.133,7.133,0,0,0-.771-1.2c-1.061-1.481-2.665-3.719-2.491-5.9-.225-.431-3.22-.656-6.5-.484" transform="translate(-272.394 -599.813)" fill="#510394"/>
        <path id="Path_23298" data-name="Path 23298" d="M236.276,809.18c-2.485.086-5.306,2.22-5.577,4.324s.225,10.988,1.576,11.8,5.568.918,6.866,0,2.168-6.351,1.947-9.522-2.055-6.7-4.812-6.6" transform="translate(-174.649 -613.135)" fill="#4cbcf3"/>
        <path id="Path_23299" data-name="Path 23299" d="M241.581,810.015s-.277,3.868-.484,5.8,1.038,4.835,3.944,4.558,3.41-3.848,3.2-4.942c-.37-1.891-1.259-6.247-1.259-6.247Z" transform="translate(-182.56 -613.141)" fill="#fff"/>
        <path id="Path_23300" data-name="Path 23300" d="M243.53,819.619a3.571,3.571,0,0,1-2.6-1.074,5.071,5.071,0,0,1-1.325-3.905c.2-1.905.481-5.75.483-5.789a.364.364,0,0,1,.308-.333l5.4-.829a.363.363,0,0,1,.412.287c.009.044.894,4.38,1.259,6.25a5.746,5.746,0,0,1-1,3.948,3.443,3.443,0,0,1-2.519,1.426q-.209.02-.412.02m-2.74-10.427c-.069.936-.292,3.915-.464,5.526a4.305,4.305,0,0,0,1.118,3.317,2.878,2.878,0,0,0,2.429.841,2.743,2.743,0,0,0,2-1.137,5.1,5.1,0,0,0,.869-3.373c-.305-1.561-.972-4.843-1.189-5.9Z" transform="translate(-181.427 -612.004)" fill="#510394"/>
        <path id="Path_23301" data-name="Path 23301" d="M208.482,428.447s-4.57,23.515-2.286,45.687,4.629,41.646,5.247,44.465,4.061,3.172,6.886,2.643,4.767-2.643,4.855-4.053,2.911-58.03,2.911-61.98,11.956,14.746,13.948,25.884,3.985,34.011,3.985,34.011a5.057,5.057,0,0,0,5.181,2.785c3.786-.4,6.775-2.387,6.775-4.575s1.395-37.193-1.594-46.74-13.749-36.2-17.535-39.182-28.372,1.055-28.372,1.055" transform="translate(-155.663 -323.013)" fill="#3a3e3f"/>
        <path id="Path_23302" data-name="Path 23302" d="M199.013,356.477s-2.437,11.927-1.808,13.026,4.874,6.042,4.874,6.042l2.987-18.126Z" transform="translate(-149.261 -270.112)" fill="#fff"/>
        <path id="Path_23303" data-name="Path 23303" d="M200.992,374.772a.365.365,0,0,1-.276-.127c-.174-.2-4.275-4.983-4.914-6.1s1.189-10.449,1.768-13.279a.363.363,0,0,1,.413-.286l6.053.942a.364.364,0,0,1,.3.418l-2.987,18.127a.363.363,0,0,1-.261.291.358.358,0,0,1-.1.014m-2.778-19.019c-1.144,5.652-2.11,11.767-1.779,12.435.476.832,3.183,4.045,4.325,5.388l2.8-16.992Z" transform="translate(-148.173 -268.975)" fill="#510394"/>
        <path id="Path_23304" data-name="Path 23304" d="M352.844,290.036l6.835,7.4S372.63,288.672,374,286.087s5.756-6.894,5.756-6.894l-1.367,3.591,5.9-5.027-2.446,4.165,5.324-4.524-3.885,5.817,3.885-2.657-3.382,4.524,3.094-2.011-3.957,4.668a54.494,54.494,0,0,0-5.4,2.442c-2.23,1.221-13.094,15.081-17.915,15.512s-11.8-11.634-11.8-11.634Z" transform="translate(-263.387 -210.191)" fill="#fff"/>
        <path id="Path_23305" data-name="Path 23305" d="M358.223,304.93c-4.967,0-11.582-11.335-11.867-11.827a.364.364,0,0,1,.088-.466l5.037-4.021a.364.364,0,0,1,.495.037l6.623,7.167c4.523-3.073,12.913-9.1,13.941-11.04,1.378-2.605,5.641-6.806,5.823-6.984a.364.364,0,0,1,.6.388l-.862,2.263,4.818-4.105a.364.364,0,0,1,.551.46l-1.358,2.313,3.686-3.132a.364.364,0,0,1,.539.478l-2.841,4.254,2.333-1.6a.364.364,0,0,1,.5.517l-2.159,2.89,1.382-.9a.364.364,0,0,1,.476.539l-3.957,4.668a.363.363,0,0,1-.147.1,54.431,54.431,0,0,0-5.352,2.422,36.518,36.518,0,0,0-4.43,4.352c-4.332,4.6-10.265,10.9-13.627,11.2-.093.008-.187.012-.281.012m-11.077-11.922a56.68,56.68,0,0,0,3.908,5.673c2.989,3.771,5.543,5.681,7.385,5.513,3.087-.276,9.15-6.716,13.162-10.977a33.581,33.581,0,0,1,4.611-4.492,54.3,54.3,0,0,1,5.353-2.428l2.294-2.707-1.014.659a.364.364,0,0,1-.491-.522l2.07-2.77-2.076,1.42a.364.364,0,0,1-.509-.5l2.439-3.652-3.339,2.838a.364.364,0,0,1-.551-.461l1.354-2.305-4.257,3.627a.364.364,0,0,1-.577-.405l.746-1.958a32.34,32.34,0,0,0-4.472,5.56c-1.394,2.635-13.9,11.118-14.436,11.478a.364.364,0,0,1-.472-.054L351.67,289.4Z" transform="translate(-262.251 -209.055)" fill="#510394"/>
        <path id="Path_23306" data-name="Path 23306" d="M210.272,264c-7.118.86-11.559,7.764-14.757,14.946s-3.8,7.182-3.2,8.28,5.6,2.394,6.3,1.9c0,0-1.6,13.067-2.1,16.658s5.367,5.885,16.924,5.187,15.755-1.5,16.954-6.284-3.2-18.953-2.9-18.953,3.1,1.2,6.7-2.195,2.7-5.686,2.7-5.686-3.67-4.328-5.5-6.584c-4.155-5.131-8.453-8.179-14.786-7.722Z" transform="translate(-145.481 -199.661)" fill="#0071cd"/>
        <path id="Path_23307" data-name="Path 23307" d="M272.581,236.077l.687,6.17a4.65,4.65,0,0,1-3.205.99c-2.213,0-3.129-.3-3.129-.533s1.526-7.312,1.526-7.312Z" transform="translate(-202.143 -178.362)" fill="#fff"/>
        <path id="Path_23308" data-name="Path 23308" d="M268.927,242.464c-3.493,0-3.493-.675-3.493-.9s.961-4.729,1.534-7.389a.365.365,0,0,1,.416-.282l4.121.686a.364.364,0,0,1,.3.318l.687,6.17a.362.362,0,0,1-.1.3,4.983,4.983,0,0,1-3.462,1.1m-2.742-1.019a8.249,8.249,0,0,0,2.742.292,4.724,4.724,0,0,0,2.821-.782l-.635-5.7-3.506-.583c-.542,2.518-1.28,5.991-1.422,6.775" transform="translate(-201.007 -177.225)" fill="#510394"/>
        <path id="Path_23309" data-name="Path 23309" d="M242.483,186.8c-.712,2.959-1.119,3.68-3.455,3.637s-4.819-3.245-6.895-4-3.276-9.715.889-12.085,7.266-7.421,11.375-5.041-.791,12.1-1.628,12.993-.286,4.494-.286,4.494" transform="translate(-174.352 -127.823)" fill="#510394"/>
        <path id="Path_23310" data-name="Path 23310" d="M266.238,186.9s5.869,2.842,5.594,3.748-.641,1.417-.423,2.12,2.732,6.081.331,7.431-7.647,1.45-8.085,1.029a6.059,6.059,0,0,1-.887-1.325s-2.639.261-3.034-.966.238-2.427.9-2.286.741.972,1.159.8-.681-1.372-.433-1.775,4.713-1.98,4.88-8.776" transform="translate(-196.598 -141.623)" fill="#fff"/>
        <path id="Path_23311" data-name="Path 23311" d="M264.219,200.679a3.721,3.721,0,0,1-1.944-.321,5.546,5.546,0,0,1-.846-1.207c-.743.039-2.763.027-3.169-1.235a2.557,2.557,0,0,1,.374-2.4.993.993,0,0,1,.947-.354,1.194,1.194,0,0,1,.442.194,1.058,1.058,0,0,1-.1-1,1.6,1.6,0,0,1,.524-.417c1.14-.729,4.168-2.665,4.3-8.178a.364.364,0,0,1,.523-.318c.015.007,1.5.726,2.923,1.546,2.586,1.487,3.014,2.128,2.861,2.634-.077.253-.16.476-.234.674a1.818,1.818,0,0,0-.189,1.233c.023.073.084.229.161.426.652,1.665,2.385,6.089,0,7.429a13.5,13.5,0,0,1-4.927,1.224c-.152.013-.878.071-1.645.071m-1.455-.86c.551.266,5.367.226,7.669-1.069,1.833-1.03.212-5.171-.321-6.531-.086-.219-.148-.377-.178-.475a2.435,2.435,0,0,1,.2-1.7c.07-.186.142-.379.209-.6-.175-.5-2.564-1.941-4.894-3.105-.331,5.469-3.425,7.448-4.614,8.208-.1.064-.212.136-.276.182a3.122,3.122,0,0,0,.258.591c.2.4.381.739.27,1.038a.506.506,0,0,1-.287.3c-.468.193-.76-.191-.917-.4a.849.849,0,0,0-.457-.383c-.1-.021-.2.073-.255.131a1.823,1.823,0,0,0-.22,1.688c.248.771,2.043.775,2.651.715a.366.366,0,0,1,.362.2,5.7,5.7,0,0,0,.8,1.209m-2.368-3.656h0Z" transform="translate(-195.47 -140.486)" fill="#510394"/>
        <path id="Path_23312" data-name="Path 23312" d="M352.164,813.927c-2.191.975-.422,2.606-.885,4.078s-1.476,3.2-.379,5.807,7.013,2.339,12.356,2.409,13.216.351,14.2-1.965-4.007-3.859-4.921-4.912-5.37-4.267-6.325-5.419-3.969-2.765-4.556-.491.789,3.594,2.342,3.7c0,0-2.82,2.531-4.363,2.311s-1.543-3.191-2.425-3.338-1.1.587-2.278-.073-1.891-2.5-2.765-2.113" transform="translate(-265.355 -615.491)" fill="#4cbcf3"/>
        <path id="Path_23313" data-name="Path 23313" d="M242.69,839.481c-1.086,0-1.674,1.731-3.5,1.818s.832,3.43,3.355,3.343,5.649-3.615,3.546-3.591c-1.864.022-2.3-1.57-3.405-1.57" transform="translate(-180.68 -636.096)" fill="#4cbcf3"/>
        <path id="Path_23314" data-name="Path 23314" d="M1006.975,760.519H983.316a1.554,1.554,0,0,1-1.545-1.377l-3.731-32.771h34.211l-3.731,32.771a1.554,1.554,0,0,1-1.545,1.377" transform="translate(-740.647 -550.39)" fill="#4cbcf3"/>
        <path id="Path_23315" data-name="Path 23315" d="M1012.251,721.905c0,1.072-7.658,1.94-17.105,1.94s-17.106-.869-17.106-1.94,7.658-1.94,17.106-1.94,17.105.868,17.105,1.94" transform="translate(-740.647 -545.536)" fill="#1c2b6b"/>
        <path id="Path_23316" data-name="Path 23316" d="M1021.148,466.84c-9.33.776-6.22,28.715-6.22,28.715,2.333,24.059,5.443,34.924,7.775,35.7s7-34.148,7-42.685c0,0,.777-22.506-8.553-21.73" transform="translate(-768.204 -353.721)" fill="#1e3286"/>
        <path id="Path_23317" data-name="Path 23317" d="M1043.274,534.715a.411.411,0,0,1-.048,0,.389.389,0,0,1-.339-.432c3.068-25.272-.739-57.019-.778-57.337a.389.389,0,0,1,.772-.094c.039.319,3.858,32.16.777,57.524a.388.388,0,0,1-.385.341" transform="translate(-789.163 -361.062)" fill="#fff"/>
        <path id="Path_23318" data-name="Path 23318" d="M926.515,408.3c-.777,3.881,3.888,4.657,4.665,10.089s-1.555,6.985-.777,10.089,5.443,3.88,6.22,11.641-2.333,6.985-1.555,11.641,5.443,4.657,6.22,8.537.778,9.313,2.333,13.97,6.22,11.641,8.553,11.641,8.553-13.193,7-17.074-3.888-4.657-3.888-7.761,3.11-10.865,2.333-16.3-7.775-7.761-8.553-11.641,1.555-13.97-3.888-18.626-17.883-10.089-18.661-6.209" transform="translate(-701.562 -308.378)" fill="#fa6e53"/>
        <path id="Path_23319" data-name="Path 23319" d="M1091.046,441.52c2.749,2.744-6.22,3.88-7,9.313s-.777,7.761-3.888,10.865-7.775,3.88-7,8.537,2.333,9.313,0,11.641-7.775,2.328-9.33,6.209-.777,8.537-3.887,12.417-7.775,11.641-11.663,10.089-1.555-19.4,0-22.507,3.11-5.433,3.11-7.761-.777-6.209.777-10.089,10.108-5.433,10.885-7.761,1.555-14.746,6.22-17.85,17.105-7.761,21.771-3.1" transform="translate(-792.228 -333.058)" fill="#40cd8a"/>
        <path id="Path_23320" data-name="Path 23320" d="M1058.677,522.7a.393.393,0,0,1-.2-.055.388.388,0,0,1-.133-.532c.031-.052,3.146-5.249,3.8-7.876.169-.677.374-1.7.61-2.888.859-4.308,2.158-10.819,4.157-12.814,2.9-2.9,7.538-11.765,10.787-23.115,4-13.984,17.235-18.075,17.368-18.115a.388.388,0,1,1,.223.744c-.129.039-12.96,4.02-16.843,17.585-3.285,11.477-8.013,20.484-10.984,23.451-1.832,1.829-3.154,8.457-3.944,12.417-.239,1.2-.445,2.23-.619,2.925-.686,2.739-3.761,7.87-3.892,8.088a.389.389,0,0,1-.333.188" transform="translate(-801.417 -346.5)" fill="#fff"/>
        <path id="Path_23321" data-name="Path 23321" d="M965.506,491.419a.388.388,0,0,1-.389-.387c0-.1-.067-10.186-3.028-13.141-3-3-4.718-12.173-5.556-29.747-.762-15.969-12.228-29.122-12.344-29.254a.388.388,0,1,1,.583-.513c.118.133,11.762,13.483,12.537,29.729.818,17.132,2.511,26.422,5.33,29.235,3.187,3.181,3.254,13.26,3.256,13.688a.388.388,0,0,1-.387.389Z" transform="translate(-714.939 -316.915)" fill="#fff"/>
        <g id="Group_4774" data-name="Group 4774" transform="translate(128.681 76.116)" opacity="0.59">
          <g id="Group_4773" data-name="Group 4773">
            <g id="Group_4772" data-name="Group 4772" clip-path="url(#clip-path-8)">
              <path id="Path_23322" data-name="Path 23322" d="M596.648,373.193H536.276a6.116,6.116,0,0,1-6.121-6.11v-46.8a6.116,6.116,0,0,1,6.121-6.11h60.372a6.116,6.116,0,0,1,6.122,6.11v46.8a6.116,6.116,0,0,1-6.122,6.11" transform="translate(-530.155 -314.171)" fill="#f6eeff"/>
            </g>
          </g>
        </g>
        <g id="Group_4777" data-name="Group 4777" transform="translate(128.681 27.27)" opacity="0.59">
          <g id="Group_4776" data-name="Group 4776">
            <g id="Group_4775" data-name="Group 4775" clip-path="url(#clip-path-9)">
              <path id="Path_23323" data-name="Path 23323" d="M596.648,153.032H536.276a6.116,6.116,0,0,1-6.121-6.11V118.668a6.116,6.116,0,0,1,6.121-6.11h60.372a6.116,6.116,0,0,1,6.122,6.11v28.253a6.116,6.116,0,0,1-6.122,6.11" transform="translate(-530.155 -112.558)" fill="#f6eeff"/>
            </g>
          </g>
        </g>
        <g id="Group_4780" data-name="Group 4780" transform="translate(128.681 143.739)" opacity="0.59">
          <g id="Group_4779" data-name="Group 4779">
            <g id="Group_4778" data-name="Group 4778" clip-path="url(#clip-path-9)">
              <path id="Path_23324" data-name="Path 23324" d="M596.648,633.762H536.276a6.116,6.116,0,0,1-6.121-6.11V599.4a6.116,6.116,0,0,1,6.121-6.11h60.372a6.116,6.116,0,0,1,6.122,6.11v28.253a6.116,6.116,0,0,1-6.122,6.11" transform="translate(-530.155 -593.288)" fill="#f6eeff"/>
            </g>
          </g>
        </g>
        <g id="Group_4786" data-name="Group 4786" transform="translate(137.38 35.232)" opacity="0.59">
          <g id="Group_4785" data-name="Group 4785">
            <g id="Group_4784" data-name="Group 4784" clip-path="url(#clip-path-11)">
              <path id="Path_23326" data-name="Path 23326" d="M590.489,155.478l-2.135-6.9a.726.726,0,0,0-.369-.435l-5.3-2.646a.727.727,0,0,0-.373-.074c-.01,0-.02,0-.031,0a4.662,4.662,0,0,1-8.055,0c-.011,0-.021,0-.031,0a.727.727,0,0,0-.373.074l-5.3,2.646a.727.727,0,0,0-.369.435l-2.135,6.9a.726.726,0,0,0,.348.853l3.661,1.986v7.227a3.5,3.5,0,0,0,2.23,3.28,16.552,16.552,0,0,0,5.994,1.147,17.025,17.025,0,0,0,6.074-1.156,3.55,3.55,0,0,0,2.252-3.289v-7.265l3.558-1.93a.726.726,0,0,0,.348-.853" transform="translate(-565.993 -145.422)" fill="#bb88fc"/>
            </g>
          </g>
        </g>
        <path id="Path_23327" data-name="Path 23327" d="M718.939,158.343H698.162a1.341,1.341,0,1,1,0-2.682h20.776a1.341,1.341,0,1,1,0,2.682" transform="translate(-527.685 -117.948)" fill="#bb88fc"/>
        <path id="Path_23328" data-name="Path 23328" d="M709.458,187.7h-11.3a1.341,1.341,0,1,1,0-2.682h11.3a1.341,1.341,0,1,1,0,2.682" transform="translate(-527.685 -140.193)" fill="#bb88fc"/>
        <path id="Path_23330" data-name="Path 23330" d="M718.939,639.073H698.162a1.341,1.341,0,1,1,0-2.682h20.776a1.341,1.341,0,1,1,0,2.682" transform="translate(-527.685 -482.21)" fill="#bb88fc"/>
        <path id="Path_23331" data-name="Path 23331" d="M709.458,668.43h-11.3a1.341,1.341,0,1,1,0-2.682h11.3a1.341,1.341,0,1,1,0,2.682" transform="translate(-527.685 -504.454)" fill="#bb88fc"/>
        <path id="Path_23332" data-name="Path 23332" d="M619.867,480.9H567.336a1.341,1.341,0,1,1,0-2.682h52.531a1.341,1.341,0,1,1,0,2.682" transform="translate(-428.613 -362.361)" fill="#bb88fc"/>
        <path id="Path_23333" data-name="Path 23333" d="M597.555,510.261H567.336a1.341,1.341,0,1,1,0-2.682h30.219a1.341,1.341,0,1,1,0,2.682" transform="translate(-428.613 -384.605)" fill="#bb88fc"/>
        <path id="Path_23334" data-name="Path 23334" d="M570.776,435.2a2.392,2.392,0,1,1-2.392-2.387,2.39,2.39,0,0,1,2.392,2.387" transform="translate(-428.612 -327.955)" fill="#bb88fc"/>
        <path id="Path_23335" data-name="Path 23335" d="M621.305,435.2a2.392,2.392,0,1,1-2.392-2.387,2.39,2.39,0,0,1,2.392,2.387" transform="translate(-466.878 -327.955)" fill="#bb88fc"/>
        <g id="Group_4792" data-name="Group 4792" transform="translate(214.648 27.27)" opacity="0.59">
          <g id="Group_4791" data-name="Group 4791">
            <g id="Group_4790" data-name="Group 4790" clip-path="url(#clip-path-9)">
              <path id="Path_23336" data-name="Path 23336" d="M950.827,153.032H890.454a6.116,6.116,0,0,1-6.121-6.11V118.668a6.116,6.116,0,0,1,6.121-6.11h60.372a6.116,6.116,0,0,1,6.122,6.11v28.253a6.116,6.116,0,0,1-6.122,6.11" transform="translate(-884.333 -112.558)" fill="#fff"/>
            </g>
          </g>
        </g>
        <path id="Path_23338" data-name="Path 23338" d="M1073.117,158.343H1052.34a1.341,1.341,0,1,1,0-2.682h20.776a1.341,1.341,0,1,1,0,2.682" transform="translate(-795.895 -117.948)" fill="#bb88fc"/>
        <path id="Path_23339" data-name="Path 23339" d="M1063.636,187.7h-11.3a1.341,1.341,0,1,1,0-2.682h11.3a1.341,1.341,0,1,1,0,2.682" transform="translate(-795.895 -140.193)" fill="#bb88fc"/>
        <g id="couch" transform="translate(167.452 83.137)" opacity="0.59">
          <path id="Path_23424" data-name="Path 23424" d="M396.913,29.86h3.919a.019.019,0,0,1,.018.015l.269,1.292a.019.019,0,0,1-.019.023h-4.469a.019.019,0,0,1-.018-.023l.281-1.292A.019.019,0,0,1,396.913,29.86Z" transform="translate(-375.196 -29.86)" fill="#bb88fc"/>
          <path id="Path_23425" data-name="Path 23425" d="M381.728,61.26h4.678a.019.019,0,0,1,.019.015l.749,3.613a.019.019,0,0,1-.019.023h-6.213a.019.019,0,0,1-.019-.023l.786-3.613A.019.019,0,0,1,381.728,61.26Z" transform="translate(-360.4 -59.475)" fill="#bb88fc"/>
          <path id="Path_23426" data-name="Path 23426" d="M384.544,152.583q.693.006,1.386,0a2.527,2.527,0,0,1,.793.077.981.981,0,0,1,.57.639.022.022,0,0,1,0,.021.024.024,0,0,1-.019.01h-6.25q-.037,0-.026-.035a.971.971,0,0,1,.544-.626,1.95,1.95,0,0,1,.686-.085l1.516,0a.025.025,0,0,0,.028-.028V133.541a.021.021,0,0,1,.02-.021h.7a.028.028,0,0,1,.032.032v19A.024.024,0,0,0,384.544,152.583Z" transform="translate(-360.466 -127.629)" fill="#bb88fc"/>
          <path id="Path_23427" data-name="Path 23427" d="M85.323,209.121a2.421,2.421,0,0,1,2.421,1.9,6.139,6.139,0,0,1,.066,1.131q0,1.215,0,2.432a1.947,1.947,0,0,1-.056.472q-.211.859-.433,1.714a.032.032,0,0,1-.034.026H74.834a.02.02,0,0,1-.019-.015q-.213-.858-.428-1.721a2.007,2.007,0,0,1-.059-.48q-.005-1.612,0-3.223a1.8,1.8,0,0,1,.11-.552,2.422,2.422,0,0,1,1.793-1.621,6.386,6.386,0,0,1,1.134-.065Q83.629,209.124,85.323,209.121Zm-9.006,1.77a.214.214,0,0,0-.214-.214h-.386a.214.214,0,0,0-.214.214v.026a.214.214,0,0,0,.214.214H76.1a.214.214,0,0,0,.214-.214Zm5.232,0a.216.216,0,0,0-.216-.216h-4.05a.216.216,0,0,0-.216.216v.022a.216.216,0,0,0,.216.216h4.05a.216.216,0,0,0,.216-.216Z" transform="translate(-71.258 -198.932)" fill="#bb88fc"/>
          <path id="Path_23428" data-name="Path 23428" d="M24.244,310.344a1.239,1.239,0,0,0,1.02.51q4.94-.007,9.881-.009a1.23,1.23,0,0,0,1.185-.544,2.505,2.505,0,0,0,.232-.671l.762-3.16a1.681,1.681,0,0,1,.2-.549.678.678,0,0,1,.577-.268q.585,0,1.169,0c.645,0,.919.414.771,1.024q-.5,2.071-1,4.141a4.736,4.736,0,0,1-.309.947,2.7,2.7,0,0,1-1.9,1.488,4.243,4.243,0,0,1-.91.075H24.311a2.808,2.808,0,0,1-2.518-1.6,6.357,6.357,0,0,1-.33-1.085q-.477-1.986-.958-3.971a.738.738,0,0,1,.789-1.02q.869-.006,1.139,0c.485.007.664.289.774.742q.406,1.679.814,3.359A1.819,1.819,0,0,0,24.244,310.344Z" transform="translate(-20.465 -289.979)" fill="#bb88fc"/>
          <path id="Path_23429" data-name="Path 23429" d="M86.174,354.313a.731.731,0,0,1-.685-.4,3.267,3.267,0,0,1-.126-.436q-.152-.609-.294-1.228-.007-.03.023-.03H97.305q.03,0,.023.03-.154.677-.323,1.343a1.2,1.2,0,0,1-.213.49.709.709,0,0,1-.555.23Z" transform="translate(-81.39 -333.9)" fill="#bb88fc"/>
          <path id="Path_23430" data-name="Path 23430" d="M89.052,450.676h-.974a.018.018,0,0,1-.018-.023l.5-1.86a.018.018,0,0,1,.017-.014h1.453a.018.018,0,0,1,.016.027l-.983,1.859A.018.018,0,0,1,89.052,450.676Z" transform="translate(-84.211 -424.973)" fill="#bb88fc"/>
          <path id="Path_23431" data-name="Path 23431" d="M262.444,448.78H263.9a.018.018,0,0,1,.017.013l.5,1.861a.018.018,0,0,1-.017.022h-.974a.018.018,0,0,1-.016-.01l-.984-1.861a.018.018,0,0,1,.015-.026Z" transform="translate(-248.65 -424.973)" fill="#bb88fc"/>
        </g>
        <g id="loan" transform="translate(135.508 150.791)" opacity="0.59">
          <path id="Path_23432" data-name="Path 23432" d="M323.361,18.89l-3.424-2.38a.064.064,0,0,1-.026-.039.483.483,0,0,1,.2-.587.841.841,0,0,1,.408-.074q1.149,0,2.293,0c.391,0,.58.125.58.521q0,1.28,0,2.542Q323.39,18.91,323.361,18.89Z" transform="translate(-303.103 -15.81)" fill="#bb88fc"/>
          <path id="Path_23433" data-name="Path 23433" d="M117.374,19.227q-3.57,2.472-7.132,4.957c-.3.21-.526.059-.715-.212l-.967-1.387c-.233-.334-.008-.546.274-.742l8.244-5.73a.457.457,0,0,1,.586-.039l8.287,5.758c.328.227.516.422.251.8q-.471.677-.946,1.353a.474.474,0,0,1-.782.14q-3.52-2.458-7.051-4.9A.042.042,0,0,0,117.374,19.227Z" transform="translate(-103.23 -15.975)" fill="#bb88fc"/>
          <path id="Path_23434" data-name="Path 23434" d="M163.92,98.28a.453.453,0,0,0-.427.478q.006,2.36,0,4.732a.027.027,0,0,1-.026.027l-3.448,0A.021.021,0,0,1,160,103.5v-4.5a.052.052,0,0,1,.023-.045l6.075-4.222a.038.038,0,0,1,.044,0l6.073,4.22a.052.052,0,0,1,.023.045v4.392a.066.066,0,0,1-.021.049l-.713.712a.032.032,0,0,1-.047,0,3.879,3.879,0,0,0-2.7-.629.019.019,0,0,1-.019-.019V98.859c0-.383-.12-.578-.514-.578Z" transform="translate(-151.951 -90.416)" fill="#bb88fc"/>
          <path id="Path_23435" data-name="Path 23435" d="M114.4,221.909A2.168,2.168,0,0,1,113,224.891a3.537,3.537,0,0,1-.85.077q-2.184,0-4.369,0a.908.908,0,0,0-.418.068.46.46,0,0,0,.017.75.725.725,0,0,0,.326.053q2.081,0,4.162,0a6.616,6.616,0,0,0,1.088-.059,3.044,3.044,0,0,0,1.955-4.758.031.031,0,0,1,0-.044q1.366-1.363,2.73-2.721a2.075,2.075,0,0,1,3.207.3,2.147,2.147,0,0,1,.1,2.006,5.08,5.08,0,0,1-.456.746q-1.784,2.559-3.552,5.129a4.745,4.745,0,0,1-1.877,1.632,4.617,4.617,0,0,1-2.127.381q-3.54,0-7.079,0-.071,0-.275.022a.06.06,0,0,1-.052-.019L99.5,222.441a.017.017,0,0,1,0-.027,5,5,0,0,1,3.71-1.809q4.33.007,8.659,0a4.942,4.942,0,0,1,1.061.078A2.088,2.088,0,0,1,114.4,221.909Z" transform="translate(-94.748 -206.632)" fill="#bb88fc"/>
          <rect id="Rectangle_2283" data-name="Rectangle 2283" width="10.755" height="4.579" transform="translate(3.241 15.537) rotate(45)" fill="#bb88fc"/>
        </g>
        <g id="handbag" transform="translate(222.885 33.13)" opacity="0.59">
          <path id="Path_23436" data-name="Path 23436" d="M191.483,24.362a6.079,6.079,0,0,0-.617,3.351,1.81,1.81,0,0,0,.137.527.707.707,0,0,1,.07.315.652.652,0,0,1-.478.542.052.052,0,0,1-.047-.013l-.181-.167a.077.077,0,0,1-.025-.054,4.7,4.7,0,0,0-.131-.942.106.106,0,0,1,0-.055,1.76,1.76,0,0,0,.1-.568,5.939,5.939,0,0,1,3.122-5.777,4.807,4.807,0,0,1,5.341.8,6.013,6.013,0,0,1,1.927,4.146q.018.313.014,1.381c0,.2.153.483.159.681a.556.556,0,1,1-1.108-.065.8.8,0,0,1,.122-.292,1.942,1.942,0,0,0,.273-.9,5.269,5.269,0,0,0-2.3-4.763A4.435,4.435,0,0,0,191.483,24.362Z" transform="translate(-182.189 -21.044)" fill="#bb88fc"/>
          <path id="Path_23437" data-name="Path 23437" d="M131.391,118.276c.2-.092.407-.2.571-.061a3.28,3.28,0,0,1,1,2.3.046.046,0,0,1-.024.045l-1.065.629a.046.046,0,0,1-.051,0,3.7,3.7,0,0,1-1.773-2.1c-.037-.155.1-.262.241-.324Z" transform="translate(-125.365 -112.759)" fill="#bb88fc"/>
          <path id="Path_23438" data-name="Path 23438" d="M165.229,172.9l-.955-.992a.113.113,0,0,1,.023-.175l1.121-.667a.113.113,0,0,1,.142.021l.937,1.041a.113.113,0,0,1-.029.174l-1.1.618A.113.113,0,0,1,165.229,172.9Z" transform="translate(-157.667 -162.728)" fill="#bb88fc"/>
          <path id="Path_23439" data-name="Path 23439" d="M118.544,173.463q.867-.133,1.727-.3c.44-.086.818-.09,1.052.3a1.914,1.914,0,0,1,.162.528,81.777,81.777,0,0,1,1.273,8.551,33.963,33.963,0,0,1,.135,4.339,4.43,4.43,0,0,1-.268,1.735,2.62,2.62,0,0,1-1.836,1.5,5.983,5.983,0,0,1-1.107.069H105.715a2.645,2.645,0,0,1-2.414-1.544,4.725,4.725,0,0,1-.289-1.068,18.536,18.536,0,0,1-.284-3.552.458.458,0,0,1,.06-.221,61.3,61.3,0,0,1,3.176-5.409q.021-.029.018.007-.194,2.5-.4,4.988a.5.5,0,0,0,.168.424q.952.9,1.907,1.8a.55.55,0,0,0,.881-.141,1.268,1.268,0,0,0,.061-.372q.188-2.887.38-5.774,0-.031.031-.02a1.267,1.267,0,0,0,1.014-.018q.511-.226,1.016-.463a1.225,1.225,0,0,0,.842-1.1,2.1,2.1,0,0,0-.173-.775,5.582,5.582,0,0,0-2.411-3.042,0,0,0,0,1,0,0,0,0,0,0,1,.005,0,37.818,37.818,0,0,0,7.847-.241.035.035,0,0,0,.034-.036l.078-.974q0-.035.036-.023a1.11,1.11,0,0,0,1.013-.105q.034-.022.042.018l.161.9A.025.025,0,0,0,118.544,173.463Zm2.439,14.236a.483.483,0,0,0-.484-.481l-2.908.005a.483.483,0,0,0-.482.483v.6a.483.483,0,0,0,.484.481l2.908-.005a.483.483,0,0,0,.482-.483Z" transform="translate(-99.57 -164.109)" fill="#bb88fc"/>
          <path id="Path_23440" data-name="Path 23440" d="M115.073,188.01q-.021.029-.016-.006.118-1.029.272-2.071c.085-.572.111-1,.684-1.134a2.9,2.9,0,0,1,1.111.175q.029.008.012.032Z" transform="translate(-111.215 -175.697)" fill="#bb88fc"/>
          <path id="Path_23441" data-name="Path 23441" d="M46.748,204.849q.845-1.659,1.823-3.244,1.764-2.856,3.712-5.6a.014.014,0,0,1,.024,0q.434.457.879.908a.568.568,0,0,0,.356.133.034.034,0,0,1,.031.03l.124,1.014a.043.043,0,0,1-.013.037,17.894,17.894,0,0,0-3.177,4.337q-1.869,3.354-3.769,6.7a.048.048,0,0,1-.046.024.077.077,0,0,1-.062-.036,3.194,3.194,0,0,1-.459-3.081Q46.323,205.683,46.748,204.849Z" transform="translate(-45.957 -186.294)" fill="#bb88fc"/>
          <path id="Path_23442" data-name="Path 23442" d="M193.762,203.481c1.361.306,2.259,1.892,2.7,3.12a.69.69,0,0,1-.072.7,1.486,1.486,0,0,1-.52.329l-.665.3a1.387,1.387,0,0,1-.54.16.692.692,0,0,1-.539-.289,6.965,6.965,0,0,1-1.186-3.85.049.049,0,0,1,.026-.048l.74-.417A.075.075,0,0,1,193.762,203.481Z" transform="translate(-184.768 -193.356)" fill="#bb88fc"/>
          <path id="Path_23443" data-name="Path 23443" d="M165.435,245.788a5.471,5.471,0,0,0,.973,2.212.086.086,0,0,1,.02.062l-.414,6.282a.016.016,0,0,1-.026.011l-1.853-1.726a.058.058,0,0,1-.019-.048l.476-5.9a.035.035,0,0,1,.008-.019l.786-.885Q165.424,245.735,165.435,245.788Z" transform="translate(-157.548 -233.29)" fill="#bb88fc"/>
          <rect id="Rectangle_2284" data-name="Rectangle 2284" width="2.764" height="0.455" transform="translate(18.094 23.667)" fill="#bb88fc"/>
        </g>
      </g>
    </g>
  </g>
</svg>
