<svg id="onbo_c" xmlns="http://www.w3.org/2000/svg" xmlns:xlink="http://www.w3.org/1999/xlink" width="339" height="224" viewBox="0 0 339 224">
  <defs>
    <clipPath id="clip-path">
      <rect id="Rectangle_2278" data-name="Rectangle 2278" width="308.264" height="26.375" fill="none"/>
    </clipPath>
    <clipPath id="clip-path-2">
      <path id="Path_23372" data-name="Path 23372" d="M79.5,741.264c-5.728.817-15.033,2.314-15.093,4.472-.054,1.946,7.439,3.541,10.062,4.1,29.991,6.383,36.506-4.319,76.188.3,20.813,2.423,17.673,6.442,36.13,7.453,25.254,1.384,63.746-7.014,95.317-6.637,13.47.161,13.682,1.521,32.014,2.609,7.2.427,57.643,3.354,58.54-1.118.162-.809-1.054-3.062-22.867-8.572,0,0-104.141-26.3-270.291-2.609" transform="translate(-64.41 -731.369)" fill="none"/>
    </clipPath>
    <linearGradient id="linear-gradient" x1="-0.047" y1="0.97" x2="-0.047" y2="0.97" gradientUnits="objectBoundingBox">
      <stop offset="0" stop-color="#d3d6db"/>
      <stop offset="0.999" stop-color="#7a869b"/>
      <stop offset="1" stop-color="#7a869b"/>
    </linearGradient>
    <clipPath id="clip-path-3">
      <rect id="Rectangle_2279" data-name="Rectangle 2279" width="16.089" height="9.712" fill="none"/>
    </clipPath>
  </defs>
  <g id="Group_5471" data-name="Group 5471" transform="translate(0 0)">
    <g id="Group_4821" data-name="Group 4821">
      <g id="Group_5472" data-name="Group 5472">
        <g id="Group_4802" data-name="Group 4802" transform="translate(110.397)">
          <path id="Path_23340" data-name="Path 23340" d="M586.019,103.1H489.629c-3.178,0-5.754-3.023-5.754-6.752V6.752c0-3.729,2.576-6.752,5.754-6.752h96.391c3.178,0,5.754,3.023,5.754,6.752v89.6c0,3.729-2.576,6.752-5.754,6.752" transform="translate(-483.875 0)" fill="#f6f5fa" opacity="0.59"/>
          <path id="Path_25772" data-name="Path 25772" d="M621.312,263.326H541.79a1.266,1.266,0,0,1-1.263-1.262V260.6a1.266,1.266,0,0,1,1.263-1.262h79.522a1.266,1.266,0,0,1,1.263,1.262v1.467a1.266,1.266,0,0,1-1.263,1.262" transform="translate(-527.602 -193.56)" fill="#bb88fc"/>
          <path id="Path_25773" data-name="Path 25773" d="M588.159,309.733H541.79a1.266,1.266,0,0,1-1.263-1.262V307a1.266,1.266,0,0,1,1.263-1.262h46.369A1.266,1.266,0,0,1,589.422,307v1.467a1.266,1.266,0,0,1-1.263,1.262" transform="translate(-527.602 -229.383)" fill="#bb88fc"/>
          <path id="Path_25774" data-name="Path 25774" d="M547.635,191.108a3.554,3.554,0,1,1-3.554-3.553,3.554,3.554,0,0,1,3.554,3.553" transform="translate(-527.602 -138.153)" fill="#bb88fc"/>
          <path id="Path_25775" data-name="Path 25775" d="M627.512,191.108a3.554,3.554,0,1,1-3.554-3.553,3.553,3.553,0,0,1,3.554,3.553" transform="translate(-589.254 -138.153)" fill="#bb88fc"/>
          <path id="Path_25776" data-name="Path 25776" d="M822.486,73.15h-3a1.071,1.071,0,1,1,0-2.142h2.169l2.734-10.8-2.752-1.318a1.071,1.071,0,1,1,.926-1.932l3.543,1.7a1.071,1.071,0,0,1,.576,1.229l-3.154,12.46a1.071,1.071,0,0,1-1.039.808" transform="translate(-742.086 -37.26)" fill="#bb88fc"/>
          <path id="Path_25777" data-name="Path 25777" d="M835.563,141.193a13.246,13.246,0,0,1-2.083-.17,1.071,1.071,0,1,1,.337-2.116,8.048,8.048,0,0,0,7.518-2.252c-2.236-1.655-7.513-6.483-9.736-16.429a1.072,1.072,0,0,1,2.092-.467,28.688,28.688,0,0,0,5.833,12.229,16.748,16.748,0,0,0,3.883,3.483,1.074,1.074,0,0,1,.4,1.469,9.535,9.535,0,0,1-8.243,4.255" transform="translate(-752.246 -85.172)" fill="#bb88fc"/>
          <path id="Path_25778" data-name="Path 25778" d="M778.96,73.15h-3a1.071,1.071,0,0,1-1.039-.809l-3.154-12.46a1.071,1.071,0,0,1,.576-1.229l3.543-1.7a1.071,1.071,0,1,1,.926,1.932l-2.752,1.318,2.734,10.8h2.169a1.071,1.071,0,1,1,0,2.142" transform="translate(-706.057 -37.26)" fill="#bb88fc"/>
          <path id="Path_25779" data-name="Path 25779" d="M741.768,137.474a1.071,1.071,0,0,1-.528-2,16.75,16.75,0,0,0,3.882-3.482,28.125,28.125,0,0,0,5.833-12.228,1.071,1.071,0,0,1,2.091.467c-2.8,12.518-10.432,16.929-10.755,17.11a1.067,1.067,0,0,1-.524.137" transform="translate(-682.102 -85.173)" fill="#bb88fc"/>
          <path id="Path_25780" data-name="Path 25780" d="M793.284,63.23a5.964,5.964,0,0,1-5.889-4.944,1.072,1.072,0,0,1,2.111-.368,3.836,3.836,0,0,0,7.577-.14,1.071,1.071,0,0,1,2.123.289,6,6,0,0,1-5.923,5.163" transform="translate(-718.135 -37.26)" fill="#bb88fc"/>
          <path id="Path_25781" data-name="Path 25781" d="M749.927,197.217a10.82,10.82,0,0,1-5.3-1.377,11.563,11.563,0,0,1-3.747-3.309,1.071,1.071,0,0,1,1.782-1.19c.174.258,4.235,6.083,11.911,2.656a1.071,1.071,0,1,1,.874,1.956,13.457,13.457,0,0,1-5.515,1.263" transform="translate(-682.102 -140.71)" fill="#bb88fc"/>
          <path id="Path_25782" data-name="Path 25782" d="M791.034,199.327a1.075,1.075,0,0,1-.293-.041c-.809-.229-4.911-1.425-6.209-2.467a1.071,1.071,0,1,1,1.342-1.671,25.1,25.1,0,0,0,5.451,2.076,1.071,1.071,0,0,1-.291,2.1" transform="translate(-715.627 -143.833)" fill="#bb88fc"/>
        </g>
        <g id="Group_5474" data-name="Group 5474" transform="translate(0 27.778)">
          <path id="Path_23352" data-name="Path 23352" d="M94.431,125.895H5.754A5.754,5.754,0,0,1,0,120.141V75.7A5.754,5.754,0,0,1,5.754,69.95H94.431a5.754,5.754,0,0,1,5.754,5.754v44.436a5.754,5.754,0,0,1-5.754,5.754" transform="translate(0 -69.95)" fill="#f6f5fa" opacity="0.59"/>
          <path id="Path_23353" data-name="Path 23353" d="M275.74,136.923H245.894a1.267,1.267,0,0,1-1.263-1.263v-1.182a1.267,1.267,0,0,1,1.263-1.263H275.74A1.267,1.267,0,0,1,277,134.479v1.182a1.267,1.267,0,0,1-1.263,1.263" transform="translate(-188.818 -118.782)" fill="#bb88fc"/>
          <path id="Path_23354" data-name="Path 23354" d="M262.659,180.013H245.894a1.267,1.267,0,0,1-1.263-1.263v-1.182a1.267,1.267,0,0,1,1.263-1.263h16.766a1.267,1.267,0,0,1,1.263,1.263v1.182a1.267,1.267,0,0,1-1.263,1.263" transform="translate(-188.818 -152.041)" fill="#bb88fc"/>
          <path id="Path_23355" data-name="Path 23355" d="M128.547,132.55h-2.789a.995.995,0,1,1,0-1.99h2.014l2.538-10.033-2.555-1.224a.995.995,0,0,1,.86-1.794l3.289,1.576a1,1,0,0,1,.535,1.141L129.511,131.8a1,1,0,0,1-.965.751" transform="translate(-96.299 -106.583)" fill="#bb88fc"/>
          <path id="Path_23356" data-name="Path 23356" d="M140.69,195.73a12.279,12.279,0,0,1-1.935-.158.995.995,0,0,1,.313-1.965,7.472,7.472,0,0,0,6.981-2.092c-2.076-1.537-6.976-6.021-9.04-15.259a.995.995,0,0,1,1.942-.434,26.648,26.648,0,0,0,5.416,11.357,15.543,15.543,0,0,0,3.605,3.234,1,1,0,0,1,.371,1.364,8.852,8.852,0,0,1-7.654,3.952" transform="translate(-105.732 -151.067)" fill="#bb88fc"/>
          <path id="Path_23357" data-name="Path 23357" d="M88.132,132.55H85.344a1,1,0,0,1-.965-.751l-2.928-11.573a1,1,0,0,1,.535-1.141l3.289-1.576a.995.995,0,0,1,.86,1.794l-2.555,1.224,2.538,10.033h2.014a.995.995,0,1,1,0,1.99" transform="translate(-62.844 -106.583)" fill="#bb88fc"/>
          <path id="Path_23358" data-name="Path 23358" d="M53.6,192.276a.995.995,0,0,1-.49-1.861,15.581,15.581,0,0,0,3.6-3.234,26.126,26.126,0,0,0,5.416-11.357.995.995,0,1,1,1.942.434c-2.6,11.626-9.686,15.723-9.987,15.892a.99.99,0,0,1-.486.128" transform="translate(-40.602 -151.068)" fill="#bb88fc"/>
          <path id="Path_23359" data-name="Path 23359" d="M101.433,123.338a5.538,5.538,0,0,1-5.468-4.592.995.995,0,1,1,1.96-.342,3.561,3.561,0,0,0,7.035-.13.995.995,0,0,1,1.972.269,5.568,5.568,0,0,1-5.5,4.8" transform="translate(-74.061 -106.585)" fill="#bb88fc"/>
          <path id="Path_23360" data-name="Path 23360" d="M61.176,247.746a10.046,10.046,0,0,1-4.926-1.279,10.741,10.741,0,0,1-3.48-3.073.995.995,0,0,1,1.655-1.1c.162.239,3.933,5.65,11.059,2.467a.995.995,0,0,1,.812,1.817,12.493,12.493,0,0,1-5.12,1.173" transform="translate(-40.602 -202.63)" fill="#bb88fc"/>
          <path id="Path_23361" data-name="Path 23361" d="M99.343,249.7a1,1,0,0,1-.272-.038c-.751-.213-4.56-1.324-5.765-2.291a.995.995,0,1,1,1.245-1.552,23.3,23.3,0,0,0,5.062,1.928,1,1,0,0,1-.271,1.952" transform="translate(-71.732 -205.528)" fill="#bb88fc"/>
        </g>
        <g id="Group_5473" data-name="Group 5473" transform="translate(228.367 27.777)">
          <path id="Path_23362" data-name="Path 23362" d="M1095.386,125.895h-88.677a5.754,5.754,0,0,1-5.754-5.754V75.7a5.754,5.754,0,0,1,5.754-5.754h88.677a5.754,5.754,0,0,1,5.754,5.754v44.436a5.754,5.754,0,0,1-5.754,5.754" transform="translate(-1000.955 -69.95)" fill="#f6f5fa" opacity="0.59"/>
          <path id="Path_23363" data-name="Path 23363" d="M1276.695,136.923h-29.846a1.267,1.267,0,0,1-1.263-1.263v-1.182a1.267,1.267,0,0,1,1.263-1.263h29.846a1.267,1.267,0,0,1,1.263,1.263v1.182a1.267,1.267,0,0,1-1.263,1.263" transform="translate(-1189.773 -118.781)" fill="#bb88fc"/>
          <path id="Path_23364" data-name="Path 23364" d="M1263.614,180.013h-16.766a1.267,1.267,0,0,1-1.263-1.263v-1.182a1.267,1.267,0,0,1,1.263-1.263h16.766a1.267,1.267,0,0,1,1.263,1.263v1.182a1.267,1.267,0,0,1-1.263,1.263" transform="translate(-1189.773 -152.04)" fill="#bb88fc"/>
          <path id="Path_23365" data-name="Path 23365" d="M1129.5,132.55h-2.789a.995.995,0,1,1,0-1.99h2.014l2.538-10.033-2.555-1.224a.995.995,0,0,1,.86-1.794l3.289,1.576a1,1,0,0,1,.535,1.141l-2.928,11.573a1,1,0,0,1-.965.751" transform="translate(-1097.254 -106.582)" fill="#bb88fc"/>
          <path id="Path_23366" data-name="Path 23366" d="M1141.645,195.73a12.272,12.272,0,0,1-1.934-.158.995.995,0,1,1,.313-1.965,7.472,7.472,0,0,0,6.981-2.092c-2.076-1.537-6.976-6.021-9.04-15.259a.995.995,0,1,1,1.942-.434,26.646,26.646,0,0,0,5.416,11.357,15.554,15.554,0,0,0,3.605,3.234,1,1,0,0,1,.372,1.364,8.853,8.853,0,0,1-7.654,3.952" transform="translate(-1106.687 -151.066)" fill="#bb88fc"/>
          <path id="Path_23367" data-name="Path 23367" d="M1089.088,132.55H1086.3a1,1,0,0,1-.965-.751l-2.928-11.573a1,1,0,0,1,.535-1.141l3.289-1.576a.995.995,0,0,1,.86,1.794l-2.555,1.224,2.538,10.033h2.014a.995.995,0,1,1,0,1.99" transform="translate(-1063.801 -106.582)" fill="#bb88fc"/>
          <path id="Path_23368" data-name="Path 23368" d="M1054.553,192.276a1,1,0,0,1-.49-1.861,15.578,15.578,0,0,0,3.6-3.234,26.125,26.125,0,0,0,5.416-11.357,1,1,0,0,1,1.942.434c-2.6,11.626-9.686,15.723-9.987,15.892a.99.99,0,0,1-.486.128" transform="translate(-1041.557 -151.066)" fill="#bb88fc"/>
          <path id="Path_23369" data-name="Path 23369" d="M1102.387,123.338a5.538,5.538,0,0,1-5.468-4.592.995.995,0,0,1,1.96-.342,3.561,3.561,0,0,0,7.035-.13,1,1,0,0,1,1.972.269,5.568,5.568,0,0,1-5.5,4.8" transform="translate(-1075.014 -106.583)" fill="#bb88fc"/>
          <path id="Path_23370" data-name="Path 23370" d="M1062.13,247.746a10.047,10.047,0,0,1-4.926-1.279,10.744,10.744,0,0,1-3.479-3.073.995.995,0,0,1,1.655-1.1c.162.239,3.933,5.65,11.059,2.467a.995.995,0,1,1,.812,1.817,12.5,12.5,0,0,1-5.12,1.173" transform="translate(-1041.557 -202.628)" fill="#bb88fc"/>
          <path id="Path_23371" data-name="Path 23371" d="M1100.3,249.7a1,1,0,0,1-.272-.038c-.751-.213-4.56-1.324-5.765-2.291a.995.995,0,0,1,1.245-1.552,23.3,23.3,0,0,0,5.062,1.928,1,1,0,0,1-.271,1.952" transform="translate(-1072.687 -205.527)" fill="#bb88fc"/>
        </g>
        <g id="Group_4813" data-name="Group 4813" transform="translate(14.695 197.625)" opacity="0.3">
          <g id="Group_4812" data-name="Group 4812">
            <g id="Group_4811" data-name="Group 4811" clip-path="url(#clip-path)">
              <g id="Group_4810" data-name="Group 4810" transform="translate(0)">
                <g id="Group_4809" data-name="Group 4809" clip-path="url(#clip-path-2)">
                  <rect id="Rectangle_2277" data-name="Rectangle 2277" width="308.467" height="41.405" transform="translate(-0.053 -13.8)" fill="url(#linear-gradient)"/>
                </g>
              </g>
            </g>
          </g>
        </g>
        <path id="Path_23373" data-name="Path 23373" d="M1232.572,684.8h-24.7a1.624,1.624,0,0,1-1.614-1.44l-3.9-34.273h35.722l-3.9,34.273a1.624,1.624,0,0,1-1.614,1.44" transform="translate(-928.042 -470.227)" fill="#4cbcf3"/>
        <path id="Path_23374" data-name="Path 23374" d="M1238.081,644c0,1.12-8,2.029-17.861,2.029s-17.861-.909-17.861-2.029,8-2.029,17.861-2.029,17.861.908,17.861,2.029" transform="translate(-928.041 -464.734)" fill="#1c2b6b"/>
        <path id="Path_23375" data-name="Path 23375" d="M1249.8,360.776c-9.742.812-6.5,30.031-6.5,30.031,2.436,25.161,5.683,36.524,8.119,37.336s7.307-35.712,7.307-44.641c0,0,.812-23.538-8.931-22.726" transform="translate(-959.244 -247.662)" fill="#1e3286"/>
        <path id="Path_23376" data-name="Path 23376" d="M1274.748,432.391a.4.4,0,0,1-.4-.455c3.2-26.43-.771-59.632-.812-59.964a.406.406,0,0,1,.805-.1c.041.333,4.028,33.633.812,60.16a.405.405,0,0,1-.4.357" transform="translate(-982.975 -255.969)" fill="#fff"/>
        <path id="Path_23377" data-name="Path 23377" d="M1145.115,295.663c-.812,4.058,4.06,4.87,4.871,10.551s-1.624,7.3-.812,10.551,5.683,4.058,6.495,12.175-2.436,7.3-1.624,12.175,5.683,4.87,6.495,8.928.812,9.74,2.435,14.61,6.495,12.174,8.931,12.174,8.931-13.8,7.307-17.856-4.059-4.87-4.059-8.116,3.248-11.363,2.436-17.045-8.119-8.116-8.931-12.175,1.624-14.61-4.059-19.479-18.673-10.551-19.485-6.493" transform="translate(-883.787 -196.347)" fill="#fa6e53"/>
        <path id="Path_23378" data-name="Path 23378" d="M1324.9,332.522c2.87,2.87-6.495,4.058-7.307,9.74s-.812,8.116-4.059,11.363-8.119,4.058-7.307,8.928,2.436,9.74,0,12.175-8.119,2.435-9.743,6.493-.812,8.928-4.059,12.986-8.119,12.175-12.178,10.551-1.624-20.291,0-23.538,3.247-5.682,3.247-8.116-.812-6.493.812-10.551,10.554-5.682,11.366-8.116,1.624-15.421,6.495-18.668,17.861-8.116,22.732-3.247" transform="translate(-986.445 -224.277)" fill="#40cd8a"/>
        <path id="Path_23379" data-name="Path 23379" d="M1291.911,418.578a.406.406,0,0,1-.348-.615c.033-.055,3.285-5.489,3.971-8.237.177-.708.391-1.78.637-3.021.9-4.506,2.254-11.314,4.341-13.4,3.03-3.029,7.871-12.3,11.263-24.174,4.179-14.624,18-18.9,18.135-18.945a.406.406,0,0,1,.233.778c-.135.04-13.533,4.2-17.588,18.39-3.43,12-8.366,21.423-11.469,24.525-1.913,1.913-3.293,8.844-4.118,12.986-.25,1.251-.465,2.332-.646,3.059-.716,2.865-3.927,8.231-4.063,8.458a.406.406,0,0,1-.348.2" transform="translate(-996.849 -239.49)" fill="#fff"/>
        <path id="Path_23380" data-name="Path 23380" d="M1187.006,383.32a.406.406,0,0,1-.406-.4c0-.106-.07-10.652-3.162-13.743-3.136-3.136-4.926-12.731-5.8-31.11-.8-16.7-12.769-30.456-12.889-30.594a.406.406,0,1,1,.609-.536c.123.139,12.282,14.1,13.09,31.091.854,17.917,2.622,27.633,5.565,30.575,3.328,3.327,3.4,13.868,3.4,14.315a.406.406,0,0,1-.4.407Z" transform="translate(-898.933 -206.008)" fill="#fff"/>
        <path id="Path_23381" data-name="Path 23381" d="M561.151,356.756l-11.205-2.369a3.59,3.59,0,0,1-2.77-4.255l3.564-16.845A3.591,3.591,0,0,1,555,330.518l11.205,2.369a3.591,3.591,0,0,1,2.77,4.255l-3.564,16.845a3.587,3.587,0,0,1-4.256,2.769" transform="translate(-422.278 -224.26)" fill="#fff"/>
        <path id="Path_23382" data-name="Path 23382" d="M560.745,356.015a3.957,3.957,0,0,1-.818-.086l-11.2-2.369a3.932,3.932,0,0,1-3.034-4.66l3.564-16.845a3.934,3.934,0,0,1,4.662-3.033l11.2,2.369a3.932,3.932,0,0,1,3.034,4.66L564.589,352.9a3.93,3.93,0,0,1-3.844,3.119m-7.654-26.4a3.252,3.252,0,0,0-3.17,2.577l-3.564,16.845a3.248,3.248,0,0,0,2.506,3.849l11.2,2.369a3.245,3.245,0,0,0,3.85-2.505l3.564-16.845a3.247,3.247,0,0,0-2.506-3.849l-11.2-2.369a3.282,3.282,0,0,0-.681-.072" transform="translate(-421.124 -223.099)" fill="#510394"/>
        <g id="Group_4816" data-name="Group 4816" transform="translate(128.997 108.635)" opacity="0.59">
          <g id="Group_4815" data-name="Group 4815">
            <g id="Group_4814" data-name="Group 4814" clip-path="url(#clip-path-3)">
              <path id="Path_23383" data-name="Path 23383" d="M578.921,350.89l-12.429-2.628a1.37,1.37,0,0,1-1.057-1.624l.919-4.344a1.37,1.37,0,0,1,1.624-1.057l12.429,2.628a1.369,1.369,0,0,1,1.057,1.623l-.919,4.345a1.37,1.37,0,0,1-1.624,1.057" transform="translate(-565.405 -341.208)" fill="#f6eeff"/>
            </g>
          </g>
        </g>
        <g id="Group_4819" data-name="Group 4819" transform="translate(127.034 117.01)" opacity="0.59">
          <g id="Group_4818" data-name="Group 4818">
            <g id="Group_4817" data-name="Group 4817" clip-path="url(#clip-path-3)">
              <path id="Path_23384" data-name="Path 23384" d="M570.318,387.607l-12.429-2.628a1.369,1.369,0,0,1-1.057-1.623l.919-4.344a1.37,1.37,0,0,1,1.624-1.057l12.429,2.628a1.369,1.369,0,0,1,1.057,1.623l-.919,4.345a1.37,1.37,0,0,1-1.624,1.056" transform="translate(-556.802 -377.925)" fill="#f6eeff"/>
            </g>
          </g>
        </g>
        <path id="Path_23385" data-name="Path 23385" d="M585.521,426.713a.967.967,0,1,1-.967-.966.967.967,0,0,1,.967.966" transform="translate(-450.443 -297.83)" fill="#510394"/>
        <path id="Path_23386" data-name="Path 23386" d="M884.14,598.914H815.812V561.689s-.788-11.72,34.164-11.72,34.164,11.72,34.164,11.72Z" transform="translate(-629.684 -393.719)" fill="#ffac00"/>
        <path id="Path_23387" data-name="Path 23387" d="M881.729,744.305a3.938,3.938,0,0,0-1.537-.31H819.759a3.948,3.948,0,1,0,0,7.9h2.181v3.978h6.378V751.89h43.315v3.978h6.378V751.89h2.181a3.948,3.948,0,0,0,1.537-7.585" transform="translate(-629.684 -543.49)" fill="#ff7f00"/>
        <path id="Path_23388" data-name="Path 23388" d="M324.12,598.914H255.792V561.689s-.788-11.72,34.164-11.72,34.164,11.72,34.164,11.72Z" transform="translate(-197.432 -393.719)" fill="#ffac00"/>
        <path id="Path_23389" data-name="Path 23389" d="M321.709,744.305a3.938,3.938,0,0,0-1.537-.31H259.739a3.948,3.948,0,1,0,0,7.9h2.181v3.978H268.3V751.89h43.315v3.978h6.378V751.89h2.181a3.948,3.948,0,0,0,1.537-7.585" transform="translate(-197.432 -543.49)" fill="#ff7f00"/>
        <path id="Path_23390" data-name="Path 23390" d="M457.281,374.37s10.985-.772,13.558-2.551,1.946-2.595,4.143-2.595a30.68,30.68,0,0,1,6.34,1.255l-5.586.565s.251,5.209-1.569,5.648-2.009-.188-3.7.439-10.169,5.648-16.132,5.773,2.95-8.534,2.95-8.534" transform="translate(-349.09 -254.199)" fill="#fff"/>
        <path id="Path_23391" data-name="Path 23391" d="M453.069,382.09c-1.153,0-1.878-.336-2.156-1-.947-2.264,4.38-7.531,4.991-8.124a.342.342,0,0,1,.214-.1c.109-.008,10.92-.785,13.388-2.491a10.474,10.474,0,0,0,1.851-1.6,2.709,2.709,0,0,1,2.487-1.054,30.475,30.475,0,0,1,6.439,1.27.342.342,0,0,1-.065.668l-5.268.533c.029,1.254-.025,5.234-1.842,5.672a5.788,5.788,0,0,1-1.89.164,3.705,3.705,0,0,0-1.775.264c-.35.13-1.047.478-1.93.918-3.343,1.669-9.567,4.776-14.313,4.876l-.13,0m3.223-8.546c-2.175,2.133-5.318,5.919-4.747,7.283.169.4.721.6,1.64.578,4.593-.1,10.727-3.159,14.022-4.8.937-.468,1.613-.805,2-.948a4.356,4.356,0,0,1,2.049-.306,5.151,5.151,0,0,0,1.694-.146c1.125-.271,1.4-3.394,1.308-5.3a.342.342,0,0,1,.307-.357l3.758-.38a21.618,21.618,0,0,0-4.476-.757,2.065,2.065,0,0,0-1.989.84,11.2,11.2,0,0,1-1.959,1.694c-2.5,1.728-12.313,2.506-13.6,2.6" transform="translate(-347.951 -253.041)" fill="#510394"/>
        <path id="Path_23392" data-name="Path 23392" d="M636.549,730.221c-.9,1.247-1.17,4.142.4,5.186s1.592.681,2.565,1.841,6.578,7.413,6.578,7.413l.9-1.437s-6.32-6.336-5.649-7.042,4.3.756,6.335,2.513,2.927,3.318,5.161,2.262,5.387-4.18,5.154-4.54c-.583-.9-6.264-1.081-6.827-1.65s-6.03-4.655-9.764-5.159-4.853.613-4.853.613" transform="translate(-490.759 -532.284)" fill="#510394"/>
        <path id="Path_23393" data-name="Path 23393" d="M526.04,514.155S542.824,531.1,547.7,538.5s4.405,10.853,4.405,10.853,2.2-.472,3.461.393,6.608,5.584,10.62,4.483a18.624,18.624,0,0,1-4.248-5.662c-2.2-4.09-7.552-14.471-10.935-19.976s-21.5-31.256-23.749-33.2-1.216,18.769-1.216,18.769" transform="translate(-405.842 -351.486)" fill="#fff"/>
        <path id="Path_23394" data-name="Path 23394" d="M563.757,553.574c-3.362,0-7.127-2.876-8.855-4.2-.294-.225-.526-.4-.685-.511-1.12-.77-3.175-.345-3.2-.341a.343.343,0,0,1-.411-.381c0-.032.367-3.465-4.352-10.618-4.8-7.28-21.451-24.121-21.619-24.29a.342.342,0,0,1-.1-.224c0-.045-.225-4.57-.236-9.139-.023-9.441.859-9.871,1.236-10.054a.682.682,0,0,1,.782.149c2.223,1.926,20.328,27.6,23.817,33.282,2.621,4.265,6.471,11.55,9.02,16.369.765,1.447,1.425,2.7,1.924,3.623a18.6,18.6,0,0,0,4.156,5.554.342.342,0,0,1-.118.6,5.14,5.14,0,0,1-1.364.176m-11.462-5.853a4.145,4.145,0,0,1,2.309.582c.173.119.411.3.713.531,1.765,1.348,5.749,4.39,8.97,4.027a21.756,21.756,0,0,1-3.806-5.294c-.5-.929-1.161-2.18-1.927-3.628-2.544-4.812-6.389-12.085-9-16.331-3.477-5.658-21.483-31.217-23.682-33.123a.348.348,0,0,0-.052-.039c-.722.51-1.141,7.476-.6,18.4,1.35,1.369,16.959,17.249,21.612,24.3,3.965,6.01,4.445,9.465,4.474,10.637a7.642,7.642,0,0,1,.992-.066" transform="translate(-404.685 -350.327)" fill="#510394"/>
        <path id="Path_23395" data-name="Path 23395" d="M526.391,741.585c-1.437.555-3.234,2.841-2.482,4.572s.966,1.437,1.153,2.939,1.493,9.8,1.493,9.8l1.535-.718s-1.862-8.752-.915-8.98,3.2,2.971,3.953,5.551.653,4.376,3.1,4.7,6.794-.583,6.794-1.012c0-1.074-4.671-4.311-4.834-5.094s-2.532-7.183-5.392-9.634-4.407-2.121-4.407-2.121" transform="translate(-404.243 -541.619)" fill="#510394"/>
        <path id="Path_23396" data-name="Path 23396" d="M478.851,455.935s6.284-4.568,9.733-3.362,6.285,18.3,6.971,32.567,1.921,31.366,2.648,33.328,2.544,10.359,2.544,10.359-3.126-6-5.306-7.307-4.434-1.453-4.434-2.616-3.579-23.294-4.4-28.471-3.4-16.4-4.275-16.4a11.7,11.7,0,0,0-3.175,1.24Z" transform="translate(-369.602 -318.381)" fill="#fff"/>
        <path id="Path_23397" data-name="Path 23397" d="M499.59,528.015a.342.342,0,0,1-.3-.184c-.031-.059-3.106-5.928-5.179-7.171a15.119,15.119,0,0,0-2.373-1.1c-1.244-.484-2.227-.866-2.227-1.814,0-.923-2.5-16.589-3.708-24.118-.295-1.845-.536-3.355-.686-4.3-.872-5.52-3.218-15.23-4.014-16.11a11.57,11.57,0,0,0-2.936,1.2.342.342,0,0,1-.505-.3l-.308-19.336a.342.342,0,0,1,.141-.282c.263-.191,6.471-4.659,10.048-3.408,1.743.61,3.339,4.527,4.744,11.641a153.375,153.375,0,0,1,2.455,21.232c.683,14.2,1.93,31.344,2.627,33.226.727,1.962,2.483,10.061,2.558,10.4a.343.343,0,0,1-.218.394.339.339,0,0,1-.116.02m-18.417-55.48h.005c.347,0,.872,0,2.49,6.521.848,3.414,1.7,7.5,2.122,10.17.149.945.391,2.455.686,4.3,1.8,11.248,3.716,23.324,3.716,24.226,0,.458.647.732,1.791,1.177a15.679,15.679,0,0,1,2.477,1.146c1.418.85,3.169,3.512,4.295,5.411-.592-2.628-1.555-6.769-2.03-8.051-.73-1.97-1.969-18.876-2.669-33.431a152.686,152.686,0,0,0-2.443-21.133c-1.3-6.57-2.864-10.626-4.3-11.128-2.963-1.037-8.329,2.556-9.275,3.214l.3,18.6a8.982,8.982,0,0,1,2.838-1.023" transform="translate(-368.444 -317.227)" fill="#510394"/>
        <path id="Path_23398" data-name="Path 23398" d="M319.57,293.858s3.135.472,3.534,1.512c2.445,6.368-7.764,36.945-5.693,38.911s14.492-5.9,16.252-5.9,1.656,4.967,2.381,7.244-.207,7.762-2.691,12.211,2.277,3.933-2.381,7.348-13.25,9.728-28.363,8.8-17.08-10.245-16.562-18.421,13.354-55.469,20.595-53.3Z" transform="translate(-220.729 -194.737)" fill="#0071cd"/>
        <path id="Path_23399" data-name="Path 23399" d="M423.762,397.375s-5.079,20.66-5.254,24.074-3.15,21.185-3.15,21.185,6.709,1.532,7.4,1.814,3.221,4.6,3.221,4.6h-.688l-.563,1.407-.751-1.376-.532,1.376-1.689-2.408s-5.88,1.47-8.35,1.438-4.066-.563-3.941-3.033S410.6,417.578,411.187,413,416,396.557,416,396.557Z" transform="translate(-316.04 -275.298)" fill="#fff"/>
        <path id="Path_23400" data-name="Path 23400" d="M423.568,449.634a.342.342,0,0,1-.3-.179l-.4-.728-.266.687a.342.342,0,0,1-.6.073l-1.554-2.216a47.526,47.526,0,0,1-8.209,1.392c-1.307-.017-2.755-.153-3.587-1.039a3.043,3.043,0,0,1-.691-2.353c.024-.469.08-1.821.158-3.692.326-7.8,1.089-26.062,1.567-29.785.585-4.564,4.66-16.027,4.833-16.512a.343.343,0,0,1,.358-.226l7.76.818a.342.342,0,0,1,.3.422c-.051.206-5.073,20.667-5.244,24.01-.163,3.184-2.688,18.425-3.1,20.906,1.436.329,6.506,1.5,7.137,1.758.738.3,2.779,3.7,3.387,4.74a.342.342,0,0,1-.3.515h-.456l-.477,1.192a.342.342,0,0,1-.3.215h-.02m-2.971-3.092a.342.342,0,0,1,.28.146l1.321,1.883.3-.778a.342.342,0,0,1,.62-.04l.4.737.293-.732a.342.342,0,0,1,.318-.215h.087a20.984,20.984,0,0,0-2.751-3.938c-.541-.221-5.484-1.371-7.342-1.8a.342.342,0,0,1-.261-.39c.03-.177,2.974-17.79,3.146-21.146.164-3.192,4.456-20.84,5.17-23.757l-7.1-.749c-.614,1.745-4.181,11.993-4.709,16.116-.474,3.694-1.236,21.937-1.562,29.727-.078,1.873-.135,3.226-.159,3.7a2.411,2.411,0,0,0,.506,1.85c.515.549,1.47.8,3.1.823,2.4.038,8.2-1.413,8.263-1.428a.346.346,0,0,1,.083-.01" transform="translate(-314.882 -274.138)" fill="#510394"/>
        <path id="Path_23401" data-name="Path 23401" d="M385.854,247.4s-2.272,3.974-2.2,5.82,6.815,2.91,7.454,3.9-3.411,2.342-7.455,1.49a20.175,20.175,0,0,1-6.59-2.233c-1.136-.639-.423-11.909,2.842-12.76s5.95,3.78,5.95,3.78" transform="translate(-290.646 -157.165)" fill="#fff"/>
        <path id="Path_23402" data-name="Path 23402" d="M385.157,258.066a13.372,13.372,0,0,1-2.736-.278,20.746,20.746,0,0,1-6.687-2.269c-.932-.524-.713-4.267-.466-6.173.255-1.971,1.1-6.619,3.39-7.217,3.478-.906,6.218,3.741,6.332,3.94a.342.342,0,0,1,0,.341c-.022.039-2.222,3.91-2.156,5.636.034.879,2.654,1.756,4.388,2.336s2.709.924,3.012,1.4a.751.751,0,0,1-.034.864c-.554.8-2.642,1.424-5.044,1.424M379.55,242.7a2.845,2.845,0,0,0-.72.093c-.985.257-1.885,1.837-2.471,4.334-.842,3.591-.7,7.435-.281,7.8.986.554,2.349,1.32,6.484,2.191,3.324.7,6.577-.143,7.075-.865.046-.067.035-.084.022-.106a9.307,9.307,0,0,0-2.653-1.117c-2.361-.79-4.8-1.607-4.855-2.958-.066-1.713,1.7-5.013,2.146-5.824-.458-.717-2.413-3.55-4.746-3.55" transform="translate(-289.485 -156.002)" fill="#510394"/>
        <path id="Path_23403" data-name="Path 23403" d="M408.95,204.932l2.527,8.085H409.6s.722,4.981-.433,6.064-3.759,1.263-6.936-1.336c-2.449-2-2.311-5.125-2.094-7.435s4.12-6.1,8.814-5.378" transform="translate(-308.761 -127.31)" fill="#fff"/>
        <path id="Path_23404" data-name="Path 23404" d="M405.849,219.009a8.213,8.213,0,0,1-5.016-2.164c-2.733-2.236-2.4-5.811-2.218-7.732a6.272,6.272,0,0,1,2.586-3.859,8.668,8.668,0,0,1,6.62-1.824.342.342,0,0,1,.275.236l2.527,8.085a.342.342,0,0,1-.327.444H408.81c.157,1.276.5,4.95-.59,5.971a3.4,3.4,0,0,1-2.371.843m.726-14.992a8.173,8.173,0,0,0-4.953,1.775,5.687,5.687,0,0,0-2.325,3.384c-.25,2.666-.184,5.377,1.97,7.139,2.039,1.668,4.938,2.8,6.486,1.351.747-.7.6-3.908.329-5.765a.342.342,0,0,1,.339-.391h1.412l-2.324-7.434a7.479,7.479,0,0,0-.932-.059" transform="translate(-307.581 -126.145)" fill="#510394"/>
        <path id="Path_23405" data-name="Path 23405" d="M362.408,186.478c-5.009-3.6-17.072-3.217-17.7,7.506-.4,6.874,2.592,8.919,2.592,10.133s-6.167,4.164-5.72,11.223,2.814,15.548-.023,20.373-3.56,10.26-.513,10.544c10.547.983,11.3-37.436,9.242-41.551-1.08-2.161,4.247-.3,10.154-9.471,3.139-4.875,3.249-7.834,1.966-8.757" transform="translate(-261.713 -111.556)" fill="#510394"/>
        <path id="Path_23406" data-name="Path 23406" d="M430.8,303.455s6.952,2.391,7.806,8.669.61,14.141-.671,14.446-9.45.975-11.1-.488.6-20.022,3.961-22.628" transform="translate(-329.032 -203.431)" fill="#0071cd"/>
        <path id="Path_23407" data-name="Path 23407" d="M433.133,365.892a43.184,43.184,0,0,1-7.7-.8c-.618-.113-1.138-.906-.762-5.89.2-2.663.581-5.328.585-5.355a.342.342,0,0,1,.678.1c-.764,5.326-.93,10.125-.363,10.479,6.3,1.155,9.445.693,9.476.689a.342.342,0,0,1,.106.676,14.245,14.245,0,0,1-2.014.108" transform="translate(-327.681 -242.1)" fill="#510394"/>
        <path id="Path_23408" data-name="Path 23408" d="M452.077,612.254a.341.341,0,0,1-.258-.117l-2.543-2.9-4.841-1.005a.342.342,0,0,1,.139-.67l4.953,1.029a.342.342,0,0,1,.188.109l2.619,2.991a.342.342,0,0,1-.257.568" transform="translate(-342.827 -438.166)" fill="#510394"/>
        <path id="Path_23409" data-name="Path 23409" d="M451.487,615.861a.342.342,0,0,1-.254-.112l-1.88-2.073-3.98-.817a.342.342,0,0,1,.138-.671l4.089.839a.346.346,0,0,1,.185.105l1.955,2.156a.342.342,0,0,1-.253.572" transform="translate(-343.551 -441.741)" fill="#510394"/>
        <path id="Path_23410" data-name="Path 23410" d="M730.894,748.945s-7.867,5.474-7.28,6.472,6.206,3.964,8.88,2.113,4.695-7.266,4.695-7.266L735.6,756.9l2.079.19s-.206-4.645.912-5.89,3.364-2.669,2.454-4.731-2.068-6.143-3.469-5.192-6.687,7.671-6.687,7.671" transform="translate(-558.497 -541.281)" fill="#510394"/>
        <path id="Path_23411" data-name="Path 23411" d="M740.406,712.266s-.19,6.79-.708,8.248-5.536,10.687-5.536,10.687,8.8-4.311,10.383-6.89,2.488-4.864,1.2-5.32-.413-5.363-.413-5.363Z" transform="translate(-566.664 -518.998)" fill="#fff"/>
        <path id="Path_23412" data-name="Path 23412" d="M733,730.385a.342.342,0,0,1-.3-.505c.05-.092,5.011-9.222,5.514-10.639.4-1.113.623-5.813.689-8.143a.342.342,0,0,1,.433-.32l4.926,1.363a.342.342,0,0,1,.245.39c-.4,2.231-.415,4.765.191,4.98a1.188,1.188,0,0,1,.749.74c.33.934-.25,2.6-1.772,5.081-1.613,2.633-10.161,6.84-10.524,7.018a.341.341,0,0,1-.151.035m6.573-18.832c-.052,1.542-.256,6.628-.715,7.917-.426,1.2-3.729,7.355-5.036,9.773,2.319-1.2,8.064-4.3,9.269-6.268,1.821-2.972,1.853-4.092,1.711-4.5a.5.5,0,0,0-.332-.324c-.7-.249-1-1.293-.917-3.19a21.908,21.908,0,0,1,.23-2.247Z" transform="translate(-565.506 -517.84)" fill="#510394"/>
        <path id="Path_23413" data-name="Path 23413" d="M795.433,474.523s-28.749-7.411-33.118-4.072-5.342,15.637-4.864,22.671-.725,30.142-1.175,31.8,7.369,3.317,7.369,3.317,5-21.571,6.688-26.319,1.153-15.866,1.153-15.866,16.68,8.8,25.878,8.4c11.314-.489,17.823-5.677,17.3-13.112s-19.227-6.827-19.227-6.827" transform="translate(-583.718 -331.67)" fill="#3a3e3f"/>
        <path id="Path_23414" data-name="Path 23414" d="M779.1,346.119s-2.436,3.969-3.973,4.376-13.2-5.126-14.176-6.5-1.965-5.605-3.2-6.044-8.013-3.431-8.013-3.431l4.079,3.573s-1.438.954-1.47,1.456.273,5,1.64,5.49,5.505,1,7.417,2.633,11.758,10.987,14.827,10.392,7.966-8.252,7.966-8.252Z" transform="translate(-578.687 -227.411)" fill="#fff"/>
        <path id="Path_23415" data-name="Path 23415" d="M774.782,357.275c-2.662,0-8.328-4.747-13.578-9.454-.515-.462-.922-.827-1.179-1.046-1.326-1.132-3.817-1.711-5.635-2.134-.689-.16-1.283-.3-1.674-.437-1.747-.62-1.87-5.783-1.867-5.834.03-.479.731-1.079,1.257-1.465l-3.751-3.285a.342.342,0,0,1,.364-.57c.068.03,6.779,2.992,7.989,3.422.9.32,1.551,1.971,2.241,3.72a13.617,13.617,0,0,0,1.125,2.448c.4.567,3.3,2.2,6.744,3.8,3.984,1.855,6.569,2.693,7.066,2.561,1.151-.3,3.111-3.152,3.768-4.224a.342.342,0,0,1,.493-.1l5.1,3.693a.342.342,0,0,1,.087.461c-.2.318-5.013,7.788-8.19,8.4a1.863,1.863,0,0,1-.357.032m-24.3-22.7,2.407,2.108a.342.342,0,0,1-.036.542,4.22,4.22,0,0,0-1.318,1.2c-.049.778.4,4.781,1.413,5.142.355.126.932.26,1.6.416,1.887.439,4.471,1.04,5.924,2.28.263.225.673.592,1.192,1.057,2.971,2.664,10.861,9.743,13.348,9.259,1.174-.228,2.878-1.688,4.929-4.224,1.229-1.52,2.243-3.012,2.637-3.607l-4.536-3.287c-.644,1-2.568,3.841-3.98,4.215-1.752.462-13.534-5.214-14.543-6.631a13.88,13.88,0,0,1-1.2-2.594c-.547-1.386-1.227-3.111-1.833-3.326-.809-.287-3.894-1.625-6-2.546" transform="translate(-577.529 -226.253)" fill="#510394"/>
        <path id="Path_23416" data-name="Path 23416" d="M901.188,297.249c-2.092,1.259-6.629,4.868-6.274,7.491s-3.018,7.857-3,10.585,5.783,4.172,5.537,8.7.919,17.642.021,20.169,6.874,10.023,14.49,8.985,12.234-7.1,10.984-12.967-5.455-36.609-10.249-40.5-11.5-2.461-11.5-2.461" transform="translate(-688.421 -198.441)" fill="#0071cd"/>
        <path id="Path_23417" data-name="Path 23417" d="M932.814,265.82s.07,5.176-.286,5.908,5.9.854,6.711-1.433-4.227-6.366-4.227-6.366Z" transform="translate(-719.761 -172.921)" fill="#fff"/>
        <path id="Path_23418" data-name="Path 23418" d="M933.167,271.384c-.933,0-1.8-.126-2.059-.474a.469.469,0,0,1-.045-.489,32.846,32.846,0,0,0,.252-5.754.343.343,0,0,1,.119-.264l2.2-1.89a.343.343,0,0,1,.439-.007,23.218,23.218,0,0,1,2.459,2.364c1.626,1.833,2.257,3.307,1.875,4.382-.485,1.366-2.457,1.848-3.59,2.014a11.785,11.785,0,0,1-1.647.118m-1.425-.844a8.637,8.637,0,0,0,4.05-.176c.755-.213,1.71-.618,1.966-1.34.569-1.6-2.439-4.572-3.9-5.8l-1.858,1.6a36.467,36.467,0,0,1-.259,5.722" transform="translate(-718.604 -171.763)" fill="#510394"/>
        <path id="Path_23419" data-name="Path 23419" d="M909.2,238.39s-.534,8.29,3.111,9.5,5.878-2.735,6.061-3.252-1.06-6.612-9.172-6.25" transform="translate(-701.747 -153.194)" fill="#fff"/>
        <path id="Path_23420" data-name="Path 23420" d="M912.51,247.3a4.65,4.65,0,0,1-1.472-.246c-3.851-1.279-3.367-9.5-3.345-9.848a.342.342,0,0,1,.326-.32c4.665-.208,7.072,1.673,8.267,3.288a5.332,5.332,0,0,1,1.243,3.419,7.3,7.3,0,0,1-1.831,2.417,4.827,4.827,0,0,1-3.189,1.29m-4.148-9.741a23.332,23.332,0,0,0,.2,3.927c.281,1.929.975,4.349,2.69,4.919,3.574,1.188,5.615-3,5.631-3.042a5.769,5.769,0,0,0-1.512-3.232c-1.089-1.234-3.181-2.662-7.011-2.572" transform="translate(-700.58 -152.036)" fill="#510394"/>
        <path id="Path_23421" data-name="Path 23421" d="M893.489,194.244c-3.049,4.776,3.341,8.616,6.028,9.128s4.9,7.55,4.811,9.653-.242,5.652,5.571,6.686,13.679-8.457,9.294-10.419c-5.968-2.671-7.039-15.188-12.03-17.917-6.327-3.459-10.688-1.809-13.675,2.868" transform="translate(-689.017 -115.489)" fill="#510394"/>
        <path id="Path_23422" data-name="Path 23422" d="M876.39,317.409s-9.086,12.556-9.957,14.5,5.637,6.776,7.712,7.873,7.535-8.944,8.354-11-1.261-10.485-6.11-11.376" transform="translate(-668.696 -214.202)" fill="#0071cd"/>
        <path id="Path_23423" data-name="Path 23423" d="M913.217,375.239a.342.342,0,0,1-.256-.569c1.177-1.333,5.106-8.628,5.146-8.7a.342.342,0,0,1,.6.324c-.163.3-4.006,7.438-5.235,8.831a.342.342,0,0,1-.257.116" transform="translate(-704.604 -251.547)" fill="#510394"/>
      </g>
    </g>
  </g>
</svg>
