<svg xmlns="http://www.w3.org/2000/svg" xmlns:xlink="http://www.w3.org/1999/xlink" width="339" height="200" viewBox="0 0 339 200">
  <defs>
    <clipPath id="clip-path">
      <rect id="Rectangle_18140" data-name="Rectangle 18140" width="339" height="200" fill="#c3e2fc"/>
    </clipPath>
  </defs>
  <g id="user_verification" clip-path="url(#clip-path)">
    <path id="Path_26143" data-name="Path 26143" d="M209.532,133.92C159.464,102.652,175.487,39.7,175.487,39.7c22.062-10.334,52.375-18.1,52.375-18.1s26.271,17,43.9,33.816c0,0-4.822,64.778-62.233,78.506" fill="#fff"/>
    <path id="Path_26144" data-name="Path 26144" d="M209.535,134.288a.373.373,0,0,1-.2-.056,74.406,74.406,0,0,1-26.572-28.051,85.889,85.889,0,0,1-9.4-31.055,109.99,109.99,0,0,1,1.762-35.517.389.389,0,0,1,.073-.144.376.376,0,0,1,.127-.1c21.851-10.235,52.147-18.049,52.45-18.127a.37.37,0,0,1,.151-.006.361.361,0,0,1,.141.054c.263.17,26.5,17.215,43.957,33.858a.354.354,0,0,1,.091.137.361.361,0,0,1,.022.163,109.926,109.926,0,0,1-9.621,34.234,85.845,85.845,0,0,1-18.781,26.452,74.392,74.392,0,0,1-34.111,18.148.355.355,0,0,1-.086.01M175.811,39.96a109.861,109.861,0,0,0-1.7,35.106c2.046,17.806,9.867,42.386,35.492,58.457,29.4-7.09,44.635-27.909,52.236-44.14a109.818,109.818,0,0,0,9.549-33.825C254.635,39.62,229.864,23.341,227.8,21.995c-2.383.621-31.042,8.18-51.993,17.964"/>
    <path id="Path_26145" data-name="Path 26145" d="M211.445,122.19a59.534,59.534,0,0,1-19.327-21.141,70.166,70.166,0,0,1-7.723-25.3,94.24,94.24,0,0,1,.931-27.511c15.757-6.6,36.511-15.39,40.7-15.414,3.962,1.354,20.848,16.289,33.691,27.556a94.282,94.282,0,0,1-7.864,26.379,70.17,70.17,0,0,1-15.367,21.534,59.535,59.535,0,0,1-25.046,13.9" fill="#fa6e53"/>
    <path id="Path_26146" data-name="Path 26146" d="M214.465,103.714a34.928,34.928,0,0,1-11.335-12.4A41.146,41.146,0,0,1,198.6,76.475a55.245,55.245,0,0,1,.546-16.134c9.241-3.869,21.413-9.026,23.872-9.04,2.324.794,12.227,9.553,19.759,16.161a55.287,55.287,0,0,1-4.612,15.471,41.158,41.158,0,0,1-9.012,12.629A34.93,34.93,0,0,1,214.465,103.714Z" fill="#fff"/>
    <path id="Path_26147" data-name="Path 26147" d="M215.288,101.168a34.454,34.454,0,0,1-8.524-10.774,45.907,45.907,0,0,1-4.513-15.952,66.285,66.285,0,0,1,.137-14.733,71.135,71.135,0,0,1,19.928-3.736,71.136,71.136,0,0,1,17.852,9.612,66.371,66.371,0,0,1-4.344,14.079,45.887,45.887,0,0,1-9.143,13.828,34.462,34.462,0,0,1-11.393,7.677" fill="#fff"/>
    <path id="Path_26148" data-name="Path 26148" d="M214.091,83.126l-.1-.018a1.8,1.8,0,0,1-1.154-.809l-2.924-4.687a1.8,1.8,0,1,1,3.056-1.906l1.934,3.1,14-9.484a1.8,1.8,0,1,1,2.02,2.982L215.37,82.837a1.8,1.8,0,0,1-1.286.288" fill="#fa6e53"/>
    <path id="Path_26149" data-name="Path 26149" d="M282.814,35.193v8.556a5.618,5.618,0,0,1-5.62,5.62H231.042a5.617,5.617,0,0,1-5.62-5.62V35.186a5.62,5.62,0,0,1,5.62-5.62H277.19a5.641,5.641,0,0,1,5.624,5.628" fill="#fff"/>
    <path id="Path_26150" data-name="Path 26150" d="M277.2,49.738H231.045a6,6,0,0,1-5.99-5.99V35.185a6,6,0,0,1,5.99-5.99h46.148a6,6,0,0,1,5.994,6v8.554a6,6,0,0,1-5.99,5.989Zm-46.152-19.8a5.255,5.255,0,0,0-5.25,5.25v8.56a5.255,5.255,0,0,0,5.25,5.25H277.2a5.257,5.257,0,0,0,5.25-5.25V35.192a5.262,5.262,0,0,0-5.254-5.258Z"/>
    <path id="Path_26151" data-name="Path 26151" d="M245.878,40.46a.4.4,0,0,1,.27.451,2.91,2.91,0,0,1-.444,1.077,2.763,2.763,0,0,1-.713.91.414.414,0,0,1-.524-.007l-2.9-2.314.583,3.652a.386.386,0,0,1-.248.466,4.3,4.3,0,0,1-2.328,0,.386.386,0,0,1-.248-.466l.582-3.652-2.9,2.314a.389.389,0,0,1-.509,0,2.968,2.968,0,0,1-.728-.917,2.675,2.675,0,0,1-.437-1.063.407.407,0,0,1,.262-.451l3.463-1.339L235.6,37.782a.407.407,0,0,1-.213-.178.412.412,0,0,1-.049-.273,4.157,4.157,0,0,1,1.157-1.994.387.387,0,0,1,.517.014l2.9,2.314-.582-3.652a.384.384,0,0,1,.248-.459,4.131,4.131,0,0,1,2.328,0,.387.387,0,0,1,.248.459l-.583,3.652,2.9-2.314a.383.383,0,0,1,.516-.007,3.2,3.2,0,0,1,.72.924,2.807,2.807,0,0,1,.444,1.063.4.4,0,0,1-.27.451l-3.448,1.339Z" fill="#c3e2fc"/>
    <path id="Path_26152" data-name="Path 26152" d="M261.378,40.46a.4.4,0,0,1,.27.451,2.912,2.912,0,0,1-.444,1.077,2.763,2.763,0,0,1-.713.91.415.415,0,0,1-.524-.007l-2.9-2.314.582,3.652a.387.387,0,0,1-.247.466,4.3,4.3,0,0,1-2.328,0,.385.385,0,0,1-.247-.466l.582-3.652-2.9,2.314a.39.39,0,0,1-.51,0,2.986,2.986,0,0,1-.728-.917,2.675,2.675,0,0,1-.437-1.063.407.407,0,0,1,.262-.451l3.463-1.339L251.1,37.782a.407.407,0,0,1-.213-.178.412.412,0,0,1-.049-.273,4.157,4.157,0,0,1,1.157-1.994.387.387,0,0,1,.517.014l2.9,2.314-.582-3.652a.384.384,0,0,1,.034-.278.379.379,0,0,1,.213-.181,4.131,4.131,0,0,1,2.328,0,.383.383,0,0,1,.212.182.388.388,0,0,1,.035.277l-.582,3.652,2.9-2.314a.383.383,0,0,1,.517-.007,3.2,3.2,0,0,1,.72.924,2.807,2.807,0,0,1,.444,1.063.4.4,0,0,1-.27.451l-3.448,1.339Z" fill="#c3e2fc"/>
    <path id="Path_26153" data-name="Path 26153" d="M276.878,40.46a.4.4,0,0,1,.27.451,2.912,2.912,0,0,1-.444,1.077,2.764,2.764,0,0,1-.713.91.415.415,0,0,1-.524-.007l-2.9-2.314.582,3.652a.387.387,0,0,1-.247.466,4.3,4.3,0,0,1-2.328,0,.385.385,0,0,1-.247-.466l.582-3.652-2.9,2.314a.39.39,0,0,1-.51,0,2.985,2.985,0,0,1-.728-.917,2.674,2.674,0,0,1-.437-1.063.41.41,0,0,1,.262-.451l3.463-1.339L266.6,37.782a.407.407,0,0,1-.213-.178.412.412,0,0,1-.049-.273,4.156,4.156,0,0,1,1.157-1.994.388.388,0,0,1,.517.014l2.9,2.314-.582-3.652a.388.388,0,0,1,.033-.278.384.384,0,0,1,.214-.181,4.131,4.131,0,0,1,2.328,0,.383.383,0,0,1,.212.182.388.388,0,0,1,.035.277l-.582,3.652,2.9-2.314a.383.383,0,0,1,.517-.007,3.2,3.2,0,0,1,.72.924,2.808,2.808,0,0,1,.444,1.063.4.4,0,0,1-.27.451l-3.448,1.339Z" fill="#c3e2fc"/>
    <path id="Path_26154" data-name="Path 26154" d="M133.88,97.23l16.759,10.124,2.409-25.995,13.594,3.71s7.16,38.067-7.8,42.976c-11.5,3.772-39.678-18.809-39.678-18.809" fill="#fff"/>
    <path id="Path_26155" data-name="Path 26155" d="M155.9,128.847c-12.7,0-35.9-18.462-36.967-19.315a.37.37,0,0,1-.05-.515.369.369,0,0,1,.244-.135.365.365,0,0,1,.269.073c.28.224,28.157,22.413,39.331,18.746,13.891-4.558,8.148-39.177,7.594-42.33l-12.942-3.533-2.369,25.556a.371.371,0,0,1-.382.335.384.384,0,0,1-.177-.053L133.7,97.552a.37.37,0,0,1,.382-.633l16.254,9.819,2.351-25.406a.373.373,0,0,1,.049-.152.362.362,0,0,1,.109-.117.369.369,0,0,1,.307-.053l13.594,3.71a.371.371,0,0,1,.175.106.362.362,0,0,1,.091.182,117,117,0,0,1,1.716,19.719c-.108,13.62-3.393,21.587-9.765,23.677a9.777,9.777,0,0,1-3.057.444"/>
    <path id="Path_26156" data-name="Path 26156" d="M139.6,70.426l-78.655,16.3a5.759,5.759,0,1,0,2.019,11.339l78.656-16.3a22.841,22.841,0,1,0-2.02-11.339Zm35.511-.471a12.925,12.925,0,1,1-1.836-4.7A12.929,12.929,0,0,1,175.109,69.955Z" fill="#c3e2fc"/>
    <path id="Path_26157" data-name="Path 26157" d="M61.935,98.526a6.129,6.129,0,0,1-1.06-12.163l78.374-16.246A23.214,23.214,0,1,1,141.4,82.184L63.034,98.428a6.253,6.253,0,0,1-1.1.1m100.49-48.791a22.754,22.754,0,0,0-3.987.354,22.471,22.471,0,0,0-18.473,20.36.37.37,0,0,1-.293.333L61.018,87.089A5.389,5.389,0,0,0,62.9,97.7l78.645-16.3a.37.37,0,0,1,.242.032.364.364,0,0,1,.169.176,22.475,22.475,0,1,0,20.474-31.873m-.081,35.778a13.319,13.319,0,1,1,2.361-.21A13.45,13.45,0,0,1,162.345,85.515Zm.037-25.857a12.586,12.586,0,1,0,8.056,2.941A12.557,12.557,0,0,0,162.382,59.658Z"/>
    <path id="Path_26158" data-name="Path 26158" d="M73.976,70.251l7.073-1.259,2.444,13.724-19.61,3.492-2-11.26,6.7-1.194,1.025,5.81,5.832-1.038Z" fill="#c3e2fc"/>
    <path id="Path_26159" data-name="Path 26159" d="M63.579,86.635,61.445,74.647l7.433-1.323,1.035,5.81,5.1-.909L73.54,69.951l7.8-1.389,2.573,14.452ZM62.3,75.245l1.875,10.532,18.882-3.362-2.314-13L74.4,70.546l1.473,8.274-6.56,1.168-1.033-5.8Z"/>
    <path id="Path_26160" data-name="Path 26160" d="M119.078,199.632a320.171,320.171,0,0,1-12.086-29.715l-2.07-26.3,27.357,8.837s9.454,32.863,14.067,47.183Z" fill="#fff"/>
    <path id="Path_26161" data-name="Path 26161" d="M146.339,200a.37.37,0,0,1-.352-.256c-4.381-13.6-13.236-44.3-14.016-47l-26.644-8.606,2.023,25.707c.323.936,5.64,16.241,12.054,29.631a.371.371,0,0,1,.042.142.368.368,0,0,1-.091.276.368.368,0,0,1-.118.089.36.36,0,0,1-.144.036.379.379,0,0,1-.146-.023.367.367,0,0,1-.21-.2c-6.6-13.789-12.048-29.6-12.1-29.755a.41.41,0,0,1-.019-.091l-2.07-26.3a.371.371,0,0,1,.03-.177.364.364,0,0,1,.109-.142.371.371,0,0,1,.164-.074.362.362,0,0,1,.179.012l27.357,8.837a.366.366,0,0,1,.152.1.373.373,0,0,1,.09.155c.1.329,9.505,33.021,14.064,47.172a.366.366,0,0,1,.017.143.359.359,0,0,1-.04.139.374.374,0,0,1-.089.113.38.38,0,0,1-.126.07.361.361,0,0,1-.113.018"/>
    <path id="Path_26162" data-name="Path 26162" d="M111.054,199.632H82.273c2.137-17.445,5.354-43.4,5.858-45.771.765-3.6,32.218,3.9,32.218,3.9l-4.031,18.16Z" fill="#fff"/>
    <path id="Path_26163" data-name="Path 26163" d="M82.276,200h-.045a.371.371,0,0,1-.322-.412c2.4-19.624,5.374-43.5,5.864-45.8a1.134,1.134,0,0,1,.544-.723c3.766-2.38,30.965,4.061,32.121,4.337a.36.36,0,0,1,.137.057.375.375,0,0,1,.1.106.364.364,0,0,1,.053.138.369.369,0,0,1,0,.148.379.379,0,0,1-.063.135.39.39,0,0,1-.111.1.374.374,0,0,1-.288.036c-7.79-1.855-28.644-6.269-31.554-4.431-.188.119-.209.219-.216.251-.51,2.4-3.886,29.686-5.853,45.739a.37.37,0,0,1-.367.325"/>
    <path id="Path_26164" data-name="Path 26164" d="M111.058,200a.37.37,0,0,1-.362-.45l5.264-23.716a.38.38,0,0,1,.055-.137.371.371,0,0,1,.105-.1.356.356,0,0,1,.137-.055.347.347,0,0,1,.147,0,.366.366,0,0,1,.135.06.371.371,0,0,1,.1.108.371.371,0,0,1,.042.286l-5.264,23.715a.367.367,0,0,1-.361.29"/>
    <path id="Path_26165" data-name="Path 26165" d="M130.994,146.184c1.954,1.323,3,4.986,3.953,8.114a2.027,2.027,0,0,1-.5,2.037c-3.191,3.119-13.794,6.47-26.877,5.09-11.689-1.233-21.732-5.6-22.407-7.32s1.822-8.406,1.822-8.406Z" fill="#0071cd"/>
    <path id="Path_26166" data-name="Path 26166" d="M113.656,162.112a58.2,58.2,0,0,1-6.12-.325c-11.177-1.18-21.9-5.478-22.713-7.553-.706-1.8,1.56-7.973,1.82-8.67a.364.364,0,0,1,.35-.24l44.006.485a.373.373,0,0,1,.2.063c1.988,1.346,3.051,4.855,3.989,7.951l.11.362a2.378,2.378,0,0,1-.592,2.409c-2.609,2.55-10.48,5.518-21.054,5.518m-26.41-16.046c-.725,1.989-2.225,6.647-1.735,7.9.579,1.479,10.455,5.858,22.1,7.087,13.371,1.41,23.592-2.067,26.58-4.987a1.643,1.643,0,0,0,.4-1.665l-.11-.363c-.887-2.929-1.891-6.241-3.608-7.491Z"/>
    <path id="Path_26167" data-name="Path 26167" d="M116.781,110.083l10.962,7.1,5.153,3.341c3.444,1.891,14.369-16.944,10.837-18.892,0,0-1.664-1.512-4.347-3.494-1.1-.811-2.375-1.7-3.776-2.607-4.241-2.73-7.43-4.905-9.019-5.4a7.843,7.843,0,0,0-1.512-.354Z" fill="#0071cd"/>
    <path id="Path_26168" data-name="Path 26168" d="M128.891,117.926l4.009,2.6c3.338,1.828,14.172-17.066,10.837-18.892,0,0-.218-.416-2.9-2.4C140.837,99.234,135.867,115.145,128.891,117.926Z" fill="#0071cd"/>
    <path id="Path_26169" data-name="Path 26169" d="M133.451,121.037a1.508,1.508,0,0,1-.731-.183l-16.138-10.46a.371.371,0,0,1-.141-.45l8.3-20.3a.369.369,0,0,1,.465-.209c.007,0,.671.236,1.669.546,1.544.478,4.339,2.279,8.207,4.771l.734.472a69.638,69.638,0,0,1,8.138,6.108,1.987,1.987,0,0,1,.834,1.812c.1,4.3-5.989,15.031-9.877,17.4a2.865,2.865,0,0,1-1.457.491m-16.21-11.1L133.1,120.214c.316.171.8.074,1.425-.3,3.656-2.229,9.619-12.718,9.523-16.751-.015-.629-.18-1.034-.49-1.2a.348.348,0,0,1-.07-.051,68.36,68.36,0,0,0-8.073-6.062l-.734-.473c-3.819-2.46-6.578-4.238-8.025-4.686-.591-.183-1.067-.341-1.362-.44Z"/>
    <path id="Path_26170" data-name="Path 26170" d="M126.292,90.6c-9.862-4.455-36.385-4.955-41.093,6.385-2.255,5.432,3.262,28.865,2.992,31.835s-2.41,15.985-1.612,17.593c3.865,7.791,46.021,10.738,49.1,1.542.919-2.744-4.183-9.266-4.74-28.132-.158-5.354,1.592-11.509,1.867-16.673" fill="#0071cd"/>
    <path id="Path_26171" data-name="Path 26171" d="M114.975,154.488c-12.751,0-27.333-2.9-29.593-7.454-.588-1.185.13-6.9,1.054-13.7.242-1.775.45-3.308.521-4.091a64.03,64.03,0,0,0-1.134-8.156C84.4,112.625,82.44,101.036,83.992,97.3c1.232-2.969,4.062-5.346,8.41-7.065,10.38-4.1,27.659-3.379,35.045-.042a.368.368,0,0,1,.129.079.37.37,0,0,1,.085.42.37.37,0,0,1-.514.175c-7.256-3.278-24.25-3.984-34.468.056-4.155,1.643-6.847,3.884-8,6.661-1.47,3.54.545,15.48,1.877,23.381A59.06,59.06,0,0,1,87.7,129.31c-.073.8-.272,2.267-.525,4.124-.58,4.261-1.659,12.193-1.124,13.271,2.382,4.8,20.694,7.793,34.017,6.876,8.216-.566,13.465-2.493,14.4-5.288.3-.891-.176-2.417-.9-4.725A79.261,79.261,0,0,1,129.7,120.29a53.428,53.428,0,0,1,.981-9.756,67.088,67.088,0,0,0,.886-6.947.365.365,0,0,1,.116-.268.354.354,0,0,1,.126-.079.368.368,0,0,1,.147-.022.362.362,0,0,1,.145.037.376.376,0,0,1,.117.092.362.362,0,0,1,.072.13.376.376,0,0,1,.015.149,67.758,67.758,0,0,1-.894,7.026,52.882,52.882,0,0,0-.972,9.616,78.594,78.594,0,0,0,3.83,23.08c.789,2.533,1.265,4.062.891,5.18-1.418,4.235-10.039,5.446-15.051,5.791-1.653.114-3.378.169-5.138.169"/>
    <path id="Path_26172" data-name="Path 26172" d="M131,158.9a.367.367,0,0,1-.352-.256,30.122,30.122,0,0,0-2.43-5.574.367.367,0,0,1-.059-.134.383.383,0,0,1,0-.147.388.388,0,0,1,.056-.136.368.368,0,0,1,.1-.1.375.375,0,0,1,.136-.055.364.364,0,0,1,.147,0,.369.369,0,0,1,.134.06.364.364,0,0,1,.1.107,30.054,30.054,0,0,1,2.515,5.753.369.369,0,0,1-.239.465A.354.354,0,0,1,131,158.9Z"/>
    <path id="Path_26173" data-name="Path 26173" d="M124.9,160.894h-.038a.369.369,0,0,1-.33-.4c.214-2.093-1.62-6.581-1.639-6.626a.375.375,0,0,1-.034-.144.38.38,0,0,1,.026-.145.37.37,0,0,1,.081-.124.374.374,0,0,1,.268-.11.367.367,0,0,1,.265.117.371.371,0,0,1,.078.125c.079.191,1.923,4.706,1.69,6.982a.375.375,0,0,1-.12.237.37.37,0,0,1-.247.1"/>
    <path id="Path_26174" data-name="Path 26174" d="M118.109,161.932a.359.359,0,0,1-.161-.037.364.364,0,0,1-.128-.1.382.382,0,0,1-.072-.149.368.368,0,0,1,0-.165c.591-2.56-.593-7.266-.605-7.313a.37.37,0,0,1,.547-.408.374.374,0,0,1,.17.225c.051.2,1.241,4.926.609,7.662a.369.369,0,0,1-.36.286"/>
    <path id="Path_26175" data-name="Path 26175" d="M110.15,162.005a.365.365,0,0,1-.177-.046.382.382,0,0,1-.134-.125.371.371,0,0,1-.024-.354c1.255-2.7.275-7.348.265-7.395a.371.371,0,0,1,.56-.381.369.369,0,0,1,.163.225c.043.2,1.041,4.935-.317,7.862a.367.367,0,0,1-.136.156A.373.373,0,0,1,110.15,162.005Z"/>
    <path id="Path_26176" data-name="Path 26176" d="M101.659,160.9a.364.364,0,0,1-.211-.066.368.368,0,0,1-.136-.175.372.372,0,0,1,.106-.41c1.313-1.126,1.97-5.237,2.113-6.726a.37.37,0,0,1,.736.07c-.022.231-.561,5.667-2.368,7.217A.365.365,0,0,1,101.659,160.9Z"/>
    <path id="Path_26177" data-name="Path 26177" d="M94.311,159.016a.373.373,0,0,1-.329-.211.37.37,0,0,1,.044-.389c1.315-1.6,1.869-5.922,1.875-5.965a.373.373,0,0,1,.137-.253.362.362,0,0,1,.131-.067.38.38,0,0,1,.146-.011.363.363,0,0,1,.139.047.38.38,0,0,1,.11.1.366.366,0,0,1,.064.132.372.372,0,0,1,.007.147c-.023.186-.588,4.585-2.038,6.344a.366.366,0,0,1-.127.1.359.359,0,0,1-.158.036"/>
    <path id="Path_26178" data-name="Path 26178" d="M89.2,157.1a.367.367,0,0,1-.346-.239.372.372,0,0,1,.1-.409c.631-.555,1.432-3.517,1.789-5.254a.376.376,0,0,1,.052-.139.368.368,0,0,1,.1-.107.363.363,0,0,1,.137-.059.372.372,0,0,1,.149,0,.363.363,0,0,1,.137.059.357.357,0,0,1,.1.108.363.363,0,0,1,.052.139.368.368,0,0,1-.007.148c-.1.485-1,4.761-2.025,5.661A.366.366,0,0,1,89.2,157.1Z"/>
    <path id="Path_26179" data-name="Path 26179" d="M100.948,83.734a53,53,0,0,0-4.276,5.589s4.841,9.189,15.545,9.189a11.42,11.42,0,0,1,.619-7.831Z" fill="#0071cd"/>
    <path id="Path_26180" data-name="Path 26180" d="M112.211,98.881c-10.8,0-15.823-9.292-15.872-9.386a.37.37,0,0,1,.018-.374,53.876,53.876,0,0,1,4.31-5.634.369.369,0,0,1,.462-.073l11.888,6.947a.37.37,0,0,1,.153.466,11.159,11.159,0,0,0-.606,7.574.368.368,0,0,1-.055.329.365.365,0,0,1-.131.111A.373.373,0,0,1,112.211,98.881ZM97.1,89.337c.747,1.267,5.437,8.546,14.621,8.8a11.8,11.8,0,0,1,.644-7.3l-11.345-6.63A53.441,53.441,0,0,0,97.1,89.337Z"/>
    <path id="Path_26181" data-name="Path 26181" d="M112.836,90.68s3.086,1.624,4.29,6.556c0,0,2.594-3.3,1.935-6.649-.816-4.149-3.039-5.165-3.039-5.165Z" fill="#0071cd"/>
    <path id="Path_26182" data-name="Path 26182" d="M117.125,97.6a.364.364,0,0,1-.257-.1.372.372,0,0,1-.1-.177c-1.151-4.716-4.073-6.3-4.1-6.317a.369.369,0,0,1-.115-.1.369.369,0,0,1-.029-.424l3.186-5.257a.371.371,0,0,1,.47-.145c.1.045,2.4,1.144,3.248,5.43.684,3.479-1.9,6.809-2.007,6.949a.36.36,0,0,1-.129.1.367.367,0,0,1-.161.037m-3.784-7.048a10.55,10.55,0,0,1,3.93,5.809,8.427,8.427,0,0,0,1.426-5.709c-.593-3.018-1.963-4.3-2.553-4.725Z"/>
    <path id="Path_26183" data-name="Path 26183" d="M101.542,70.375l-.628,14.033c0,3.5,15.05,11.3,15.1,1.18V74.019Z" fill="#fff"/>
    <path id="Path_26184" data-name="Path 26184" d="M111.43,90.956H111.4c-4.366-.014-10.859-3.932-10.857-6.55l.629-14.049a.371.371,0,0,1,.149-.28.369.369,0,0,1,.311-.062l14.476,3.648a.37.37,0,0,1,.279.359V85.586c-.019,3.464-1.781,5.369-4.961,5.369m-9.535-20.113-.608,13.58c0,1.845,5.667,5.779,10.12,5.793h.024c2.784,0,4.2-1.558,4.221-4.632V74.311Z"/>
    <path id="Path_26185" data-name="Path 26185" d="M101.585,70.414s-6.472-4.427-5-8.388,5.794.52,5.794.52-3.168-14.235,8.852-16.565a8.617,8.617,0,0,1,9.2,3.65c5.56,8.607,5.4,27.02-2.586,29.419a11.806,11.806,0,0,1-11.858-2.392" fill="#fff"/>
    <path id="Path_26186" data-name="Path 26186" d="M113.736,80.062a11.788,11.788,0,0,1-7.986-3.128.37.37,0,0,1-.025-.515.37.37,0,0,1,.514-.04A11.433,11.433,0,0,0,117.746,78.7c2.092-.629,3.768-2.51,4.847-5.44,2.492-6.771,1.363-17.5-2.465-23.425a8.235,8.235,0,0,0-8.821-3.487,10.186,10.186,0,0,0-6.912,4.349c-3.147,4.8-1.664,11.7-1.649,11.772a.37.37,0,0,1-.186.405.37.37,0,0,1-.441-.068c-.631-.653-2.563-2.285-3.9-2.008-.565.118-.984.563-1.282,1.361-1.358,3.644,4.8,7.911,4.858,7.954a.365.365,0,0,1,.106.1.36.36,0,0,1,.059.136.368.368,0,0,1,0,.148.36.36,0,0,1-.058.136.369.369,0,0,1-.525.088c-.274-.187-6.692-4.639-5.133-8.822a2.567,2.567,0,0,1,1.826-1.827c1.326-.275,2.855.734,3.769,1.482-.308-2.2-.652-7.313,1.936-11.261a10.9,10.9,0,0,1,7.392-4.673,8.955,8.955,0,0,1,9.583,3.812c3.937,6.094,5.1,17.122,2.538,24.081-1.162,3.157-3,5.195-5.328,5.893a14.669,14.669,0,0,1-4.222.659"/>
    <path id="Path_26187" data-name="Path 26187" d="M123.917,46c-3.748,9.547-19.214,4.326-18.154,6.469,1.557,3.149-1.448,11.582-2.222,11.68s-1.156-1.607-1.156-1.607-4.317-4.477-5.794-.52,5,8.388,5,8.388c-9.517.323-14.221-11.852-13.861-18.99s5-7.377,5-7.377c-.376-4.017,4.017-6.892,7.566-6.056s16.593,5.445,16.819-1.07c5.2-2.578,9.16,3.094,6.809,9.083"/>
    <path id="Path_26188" data-name="Path 26188" d="M101.208,70.791a11.036,11.036,0,0,1-8.052-3.571c-4.121-4.189-6.037-11.126-5.8-15.814.312-6.185,3.816-7.429,4.977-7.671a5.673,5.673,0,0,1,2.073-4.5,6.884,6.884,0,0,1,5.968-1.6c.474.111,1.114.289,1.856.495,3.757,1.041,10.751,2.979,13.433,1.012a2.688,2.688,0,0,0,1.074-2.23.377.377,0,0,1,.059-.187.368.368,0,0,1,.147-.131,5.082,5.082,0,0,1,5.959.612c2.14,1.963,2.685,5.555,1.357,8.937-2.656,6.766-10.971,6.386-15.439,6.18a12.467,12.467,0,0,0-2.709.024c1.361,2.834-.581,9.214-1.715,11.326-.306.57-.54.816-.809.85-.969.127-1.415-1.3-1.538-1.788-.693-.692-2.538-2.2-3.829-1.937-.565.118-.985.563-1.282,1.361-1.358,3.644,4.8,7.911,4.858,7.954a.37.37,0,0,1-.2.675c-.133,0-.263.007-.389.007M99.022,38.223a6.43,6.43,0,0,0-4.133,1.57,4.92,4.92,0,0,0-1.8,4.224.37.37,0,0,1-.349.4c-.174.01-4.31.334-4.648,7.027-.228,4.526,1.618,11.221,5.589,15.258a10.44,10.44,0,0,0,6.768,3.322c-1.789-1.439-5.424-4.864-4.207-8.126a2.567,2.567,0,0,1,1.826-1.827c2.009-.416,4.478,2.111,4.582,2.219a.372.372,0,0,1,.1.176c.135.6.459,1.267.7,1.319.7-.687,3.411-8.26,1.984-11.147a.664.664,0,0,1,.007-.683c.323-.5,1.227-.474,3.418-.374,4.583.21,12.253.561,14.716-5.712,1.406-3.58.427-6.659-1.168-8.122a4.331,4.331,0,0,0-4.94-.586,3.364,3.364,0,0,1-1.364,2.573c-2.971,2.18-9.917.255-14.067-.9-.735-.2-1.368-.38-1.828-.488a5.152,5.152,0,0,0-1.181-.133"/>
    <path id="Path_26189" data-name="Path 26189" d="M110.02,50.578l-.082-.735a29.586,29.586,0,0,0,5.447-.958,9.613,9.613,0,0,0,4.539-2.787,5.691,5.691,0,0,0,1.336-4.888l.719-.175a6.44,6.44,0,0,1-1.491,5.542,10.2,10.2,0,0,1-4.884,3.015,30.117,30.117,0,0,1-5.583.987" fill="#fff"/>
    <path id="Path_26190" data-name="Path 26190" d="M111.328,47.856a6.744,6.744,0,0,1-1.461-.159l.16-.722a6.051,6.051,0,0,0,6.523-2.834l.637.375a6.778,6.778,0,0,1-5.858,3.339" fill="#fff"/>
    <path id="Path_26191" data-name="Path 26191" d="M95.891,44.281A3.4,3.4,0,0,1,97.463,40.6a4.291,4.291,0,0,1,2.213-.5l-.013.739a3.547,3.547,0,0,0-1.834.4,2.64,2.64,0,0,0-1.22,2.859Z" fill="#fff"/>
    <path id="Path_26192" data-name="Path 26192" d="M104.714,58.6l-.667-.32a4.447,4.447,0,0,0,.066-3.651l.678-.3a5.194,5.194,0,0,1-.077,4.267" fill="#fff"/>
    <path id="Path_26193" data-name="Path 26193" d="M110.454,61.267c.139.691.68,1.166,1.21,1.059a1.158,1.158,0,0,0,.707-1.444c-.139-.691-.681-1.165-1.21-1.059a1.158,1.158,0,0,0-.707,1.444Z"/>
    <path id="Path_26194" data-name="Path 26194" d="M119.388,59.65a1.014,1.014,0,0,0,1.816-.083,1.013,1.013,0,0,0-1.173-1.389,1.157,1.157,0,0,0-.647,1.472"/>
    <path id="Path_26195" data-name="Path 26195" d="M112.082,58.661c-1.478-.685-1.788.152-2.246.843Z" fill="#fff"/>
    <path id="Path_26196" data-name="Path 26196" d="M109.838,59.868a.367.367,0,0,1-.189-.053.361.361,0,0,1-.136-.142.368.368,0,0,1,.017-.379c.045-.067.088-.136.131-.2a1.706,1.706,0,0,1,2.578-.769.372.372,0,0,1,.122.083.374.374,0,0,1,.1.27.375.375,0,0,1-.034.144.373.373,0,0,1-.215.194.364.364,0,0,1-.146.02.37.37,0,0,1-.142-.039c-1.032-.478-1.249-.134-1.641.491-.046.074-.093.148-.141.221a.368.368,0,0,1-.309.166"/>
    <path id="Path_26197" data-name="Path 26197" d="M120.748,56.812a1.887,1.887,0,0,0-2.209.935" fill="#fff"/>
    <path id="Path_26198" data-name="Path 26198" d="M118.541,58.119a.371.371,0,0,1-.318-.182.371.371,0,0,1,0-.367,2.257,2.257,0,0,1,2.669-1.1.375.375,0,0,1,.126.077.386.386,0,0,1,.086.12.374.374,0,0,1,.006.289.38.38,0,0,1-.081.123.37.37,0,0,1-.411.079,1.525,1.525,0,0,0-1.749.77.37.37,0,0,1-.324.191"/>
    <path id="Path_26199" data-name="Path 26199" d="M115.586,62.117c.57,1.868,1.49,3.592,2.06,5.46a2.009,2.009,0,0,1,.128.946,1.352,1.352,0,0,1-.79.911,3.986,3.986,0,0,1-1.214.282" fill="#fff"/>
    <path id="Path_26200" data-name="Path 26200" d="M115.771,70.084a.369.369,0,0,1-.36-.347.37.37,0,0,1,.315-.389,3.7,3.7,0,0,0,1.1-.25.993.993,0,0,0,.367-.256.983.983,0,0,0,.216-.39,1.737,1.737,0,0,0-.119-.768c-.28-.917-.655-1.822-1.018-2.7s-.752-1.813-1.042-2.764a.37.37,0,0,1,.525-.423.367.367,0,0,1,.182.207c.28.917.655,1.821,1.018,2.7s.752,1.813,1.042,2.764a2.312,2.312,0,0,1,.138,1.123,1.707,1.707,0,0,1-1,1.177,4.323,4.323,0,0,1-1.326.314h-.046"/>
    <path id="Path_26201" data-name="Path 26201" d="M116.94,72.869a2.793,2.793,0,0,1-4.346-.65" fill="#fff"/>
    <path id="Path_26202" data-name="Path 26202" d="M115.009,74a2.809,2.809,0,0,1-.348-.021,3.551,3.551,0,0,1-2.365-1.541.369.369,0,0,1-.07-.132.371.371,0,0,1,.134-.4.367.367,0,0,1,.135-.063.37.37,0,0,1,.394.155,2.8,2.8,0,0,0,1.862,1.248,2.59,2.59,0,0,0,1.953-.664.369.369,0,0,1,.514.057.37.37,0,0,1-.046.516,3.428,3.428,0,0,1-2.164.847"/>
    <path id="Path_26203" data-name="Path 26203" d="M120.291,63.543a4.935,4.935,0,0,1-4.579-4.486,5.51,5.51,0,0,1,.769-3.745,4.06,4.06,0,0,1,6.272-.886,5.686,5.686,0,0,1,1.007,7.13,4.157,4.157,0,0,1-2.923,1.948A3.894,3.894,0,0,1,120.291,63.543Zm-.336-9.478a3.177,3.177,0,0,0-.447.031,3.426,3.426,0,0,0-2.4,1.615,4.77,4.77,0,0,0-.659,3.243c.338,2.392,2.262,4.108,4.289,3.819a3.425,3.425,0,0,0,2.4-1.615,4.947,4.947,0,0,0-.872-6.176A3.5,3.5,0,0,0,119.955,54.065Z" fill="#c3e2fc"/>
    <path id="Path_26204" data-name="Path 26204" d="M110.647,65.79a4.227,4.227,0,0,1-2.8-1.1,5.689,5.689,0,0,1-1.007-7.13,4.154,4.154,0,0,1,2.925-1.948c2.429-.342,4.73,1.652,5.125,4.448a5.5,5.5,0,0,1-.77,3.745,4.151,4.151,0,0,1-2.923,1.948,3.964,3.964,0,0,1-.553.039m-.332-9.479a3.172,3.172,0,0,0-.444.031,3.431,3.431,0,0,0-2.4,1.615,4.95,4.95,0,0,0,.872,6.176,3.322,3.322,0,0,0,5.162-.729,4.769,4.769,0,0,0,.658-3.243,4.2,4.2,0,0,0-3.845-3.85" fill="#c3e2fc"/>
    <path id="Path_26205" data-name="Path 26205" d="M114.447,60.049a.369.369,0,0,1-.185-.05.368.368,0,0,1-.184-.32.363.363,0,0,1,.05-.185,1.914,1.914,0,0,1,2.016-.852.368.368,0,0,1,.138.051.377.377,0,0,1,.108.1.386.386,0,0,1,.059.135.365.365,0,0,1,0,.147.375.375,0,0,1-.055.137.37.37,0,0,1-.1.1.375.375,0,0,1-.137.055.367.367,0,0,1-.147,0,1.188,1.188,0,0,0-1.243.5.368.368,0,0,1-.136.131.373.373,0,0,1-.183.048" fill="#c3e2fc"/>
    <path id="Path_26206" data-name="Path 26206" d="M106.533,62.116a.37.37,0,0,1-.136-.026c-.026-.01-1.578-.579-5.908-.218a.37.37,0,0,1-.061-.737c4.566-.38,6.176.241,6.243.268a.372.372,0,0,1,.186.166.371.371,0,0,1-.089.462A.37.37,0,0,1,106.533,62.116Z" fill="#c3e2fc"/>
    <path id="Path_26207" data-name="Path 26207" d="M132.106,134.892s3.42-6.475.77-6.827-6.61,5.825-6.61,5.825" fill="#fff"/>
    <path id="Path_26208" data-name="Path 26208" d="M132.1,135.266a.371.371,0,0,1-.316-.179.371.371,0,0,1-.011-.363c.655-1.241,2.219-4.725,1.6-5.931a.653.653,0,0,0-.548-.357c-1.984-.264-5.184,4-6.249,5.658a.367.367,0,0,1-.1.1.375.375,0,0,1-.133.057.365.365,0,0,1-.278-.05.354.354,0,0,1-.1-.1.363.363,0,0,1-.058-.132.393.393,0,0,1,0-.145.38.38,0,0,1,.053-.134c.418-.653,4.159-6.363,6.97-5.993a1.4,1.4,0,0,1,1.108.751c.91,1.763-1.34,6.124-1.6,6.615a.371.371,0,0,1-.327.2"/>
    <path id="Path_26209" data-name="Path 26209" d="M134.995,147.764l9.576-.16a4.969,4.969,0,0,0,4.712-4.312l2.092-18.5a3.635,3.635,0,0,0-3.752-4.171l-9.576.16a4.969,4.969,0,0,0-4.712,4.312l-2.092,18.5a3.635,3.635,0,0,0,3.752,4.171Z" fill="#c3e2fc"/>
    <path id="Path_26210" data-name="Path 26210" d="M134.919,148.138a4.047,4.047,0,0,1-3.042-1.3,4.114,4.114,0,0,1-1.005-3.281l2.092-18.5a5.355,5.355,0,0,1,5.073-4.64l9.577-.16a4.038,4.038,0,0,1,3.12,1.3,4.1,4.1,0,0,1,1.005,3.281l-2.092,18.5a5.355,5.355,0,0,1-5.073,4.64l-9.577.16ZM147.691,121h-.065l-9.576.16a4.6,4.6,0,0,0-4.351,3.983l-2.092,18.5a3.383,3.383,0,0,0,.818,2.7,3.316,3.316,0,0,0,2.561,1.059l9.577-.16a4.6,4.6,0,0,0,4.35-3.983l2.092-18.5a3.37,3.37,0,0,0-.818-2.7,3.3,3.3,0,0,0-2.5-1.059"/>
    <path id="Path_26211" data-name="Path 26211" d="M126.268,133.89,98.18,129.9l-5.09-18.981-15.028,4.643s3.274,22.718,9.558,26.863c8.548,5.641,39.228,2.226,39.228,2.226s14.442,1.16,17.681-1.544c2.073-1.732.335-2.564.335-2.564,2.257-1.964-.537-3.073-.537-3.073,1.059-.489,1.793-1.936.577-2.7-1.15-.723-5.773.955-6.268,1.136.534-.211,5.833-1.968,4.71-3.466-1.575-2.1-11.238,2.45-11.238,2.45" fill="#fff"/>
    <path id="Path_26212" data-name="Path 26212" d="M107.921,146.062c-8.085,0-16.55-.715-20.509-3.327-6.35-4.189-9.586-26.185-9.721-27.119a.369.369,0,0,1,.054-.25.373.373,0,0,1,.2-.156l15.028-4.643a.385.385,0,0,1,.147-.014.369.369,0,0,1,.319.272l5.027,18.745,27.846,3.957a.371.371,0,0,1,.3.414.373.373,0,0,1-.135.238.367.367,0,0,1-.261.08l-28.088-3.991a.368.368,0,0,1-.3-.27l-4.991-18.61-14.357,4.436c.423,2.737,3.668,22.548,9.349,26.3,8.339,5.5,38.676,2.2,38.982,2.167a.409.409,0,0,1,.07,0c.143.011,14.329,1.117,17.416-1.46.619-.517.923-.985.88-1.353a.888.888,0,0,0-.17-.349.906.906,0,0,0-.3-.245.372.372,0,0,1-.183-.462.382.382,0,0,1,.1-.149c.56-.487.81-.933.743-1.324-.118-.689-1.162-1.122-1.173-1.126a.369.369,0,0,1-.232-.333.363.363,0,0,1,.056-.205.378.378,0,0,1,.158-.141,1.7,1.7,0,0,0,.992-1.269.833.833,0,0,0-.456-.78c-.7-.44-3.571.3-5.945,1.17a.372.372,0,0,1-.278-.013.376.376,0,0,1-.19-.2.371.371,0,0,1,.2-.474c.047-.019.13-.049.242-.09,3.544-1.294,4.262-2.121,4.374-2.5a.32.32,0,0,0-.066-.313c-1.015-1.356-7.153.852-10.784,2.563a.362.362,0,0,1-.276.005.367.367,0,0,1-.2-.188.37.37,0,0,1,.164-.486c1.659-.782,10.019-4.57,11.691-2.337a1.055,1.055,0,0,1,.183.966,2.371,2.371,0,0,1-.963,1.145,3.616,3.616,0,0,1,2.24.127,1.562,1.562,0,0,1,.8,1.453,2.273,2.273,0,0,1-.848,1.53,2.2,2.2,0,0,1,1.039,1.373,1.971,1.971,0,0,1-.654,1.688,1.436,1.436,0,0,1,.467.87c.08.64-.3,1.318-1.139,2.017-3.267,2.728-16.937,1.709-17.913,1.632-.9.1-9.664,1.038-18.927,1.039"/>
    <path id="Path_26213" data-name="Path 26213" d="M139.127,139.19a.37.37,0,0,1-.306-.577.376.376,0,0,1,.213-.151l5.2-1.351a.37.37,0,0,1,.186.716l-5.2,1.351A.359.359,0,0,1,139.127,139.19Z"/>
    <path id="Path_26214" data-name="Path 26214" d="M139.594,142.136a.372.372,0,0,1-.245-.1.368.368,0,0,1-.12-.233.37.37,0,0,1,.282-.4l5.262-1.22a.374.374,0,0,1,.149-.011.37.37,0,0,1,.14.048.393.393,0,0,1,.111.1.387.387,0,0,1,.062.135.394.394,0,0,1,0,.149.38.38,0,0,1-.161.244.385.385,0,0,1-.138.055l-5.262,1.22A.394.394,0,0,1,139.594,142.136Z"/>
    <path id="Path_26215" data-name="Path 26215" d="M77.256,126.3c3.528-.641,15.8-1.956,19.541-9.377l-3.786-12.177L89.245,92.18s-8.315,3.66-12.179,10.962c-3.542,6.7.189,23.16.189,23.16" fill="#0071cd"/>
    <path id="Path_26216" data-name="Path 26216" d="M76.039,119.81c.493,2.57,1.215,6.493,1.215,6.493,4.161-.988,16.179-2.035,19.543-9.377l-1.687-5.18C91.256,117.117,80.77,118.877,76.039,119.81Z" fill="#0071cd"/>
    <path id="Path_26217" data-name="Path 26217" d="M77.258,126.675a.37.37,0,0,1-.36-.288c-.154-.678-3.72-16.675-.155-23.415C80.622,95.641,89.015,91.881,89.1,91.844a.37.37,0,0,1,.3.677c-.082.036-8.244,3.7-12,10.8-3.163,5.98-.347,20.214.151,22.573,4.339-.611,15.628-2.227,18.857-8.99l-3.743-12.04-1.249-4.169a.369.369,0,0,1,.253-.442.366.366,0,0,1,.273.024.372.372,0,0,1,.181.206l1.248,4.165,3.785,12.173a.371.371,0,0,1-.017.264c-3.329,7.268-15.107,8.925-19.541,9.549l-.285.04h-.052"/>
    <path id="Path_26218" data-name="Path 26218" d="M167.029,79.16c1.417.5,1.94,2.681,1.169,4.875s-2.546,3.569-3.962,3.071-1.94-2.681-1.169-4.875S165.613,78.662,167.029,79.16Z" fill="#fff"/>
    <path id="Path_26219" data-name="Path 26219" d="M164.844,87.578a2.2,2.2,0,0,1-.732-.124,2.7,2.7,0,0,1-1.642-2.064,5.915,5.915,0,0,1,.247-3.282c.852-2.423,2.8-3.872,4.434-3.3a2.708,2.708,0,0,1,1.642,2.064,6.335,6.335,0,0,1-2.109,6A3.039,3.039,0,0,1,164.844,87.578Zm1.585-8.15c-1.118,0-2.412,1.21-3.015,2.924a5.166,5.166,0,0,0-.226,2.865,1.753,1.753,0,0,0,3.042,1.07,5.6,5.6,0,0,0,1.843-5.24,2,2,0,0,0-1.168-1.539A1.426,1.426,0,0,0,166.429,79.428Z"/>
    <path id="Path_26220" data-name="Path 26220" d="M163.984,78.185c1.417.5,1.867,2.888,1.006,5.338s-2.708,4.032-4.125,3.534-1.867-2.888-1.006-5.338S162.568,77.687,163.984,78.185Z" fill="#fff"/>
    <path id="Path_26221" data-name="Path 26221" d="M161.423,87.521a2.012,2.012,0,0,1-.673-.114c-1.634-.575-2.175-3.127-1.232-5.81s2.963-4.335,4.6-3.76,2.175,3.127,1.232,5.81c-.817,2.324-2.441,3.874-3.923,3.874m2.022-9.057c-1.145,0-2.54,1.414-3.231,3.379-.779,2.216-.421,4.444.781,4.867s2.875-1.093,3.654-3.308.422-4.444-.78-4.867A1.285,1.285,0,0,0,163.449,78.464Z"/>
    <path id="Path_26222" data-name="Path 26222" d="M160.312,77.121c1.564.55,2.061,3.189,1.11,5.894s-2.99,4.452-4.555,3.9-2.061-3.189-1.11-5.894S158.747,76.569,160.312,77.121Z" fill="#fff"/>
    <path id="Path_26223" data-name="Path 26223" d="M157.477,87.386a2.205,2.205,0,0,1-.732-.124,2.935,2.935,0,0,1-1.739-2.419,8.471,8.471,0,0,1,2.558-7.276,2.932,2.932,0,0,1,2.87-.8c1.784.627,2.371,3.423,1.337,6.365-.9,2.55-2.675,4.252-4.294,4.252m2.23-10a2.657,2.657,0,0,0-1.662.743,7.739,7.739,0,0,0-2.313,6.577,2.243,2.243,0,0,0,1.258,1.858c1.346.472,3.216-1.21,4.083-3.675s.462-4.949-.884-5.422A1.447,1.447,0,0,0,159.707,77.384Z"/>
    <path id="Path_26224" data-name="Path 26224" d="M156.39,76.322c1.417.5,1.867,2.888,1.006,5.338s-2.709,4.032-4.125,3.534-1.867-2.888-1.006-5.338S154.973,75.824,156.39,76.322Z" fill="#fff"/>
    <path id="Path_26225" data-name="Path 26225" d="M153.819,85.658a2.01,2.01,0,0,1-.672-.114,2.687,2.687,0,0,1-1.6-2.217,7.7,7.7,0,0,1,2.329-6.623,2.392,2.392,0,0,1,4.232,1.488,7.7,7.7,0,0,1-2.33,6.622,3.085,3.085,0,0,1-1.962.843m2.022-9.057a2.369,2.369,0,0,0-1.482.664,6.974,6.974,0,0,0-2.083,5.924,1.674,1.674,0,0,0,3.024,1.063,6.974,6.974,0,0,0,2.083-5.924,2,2,0,0,0-1.117-1.657,1.281,1.281,0,0,0-.425-.071"/>
    <path id="Path_26226" data-name="Path 26226" d="M198.336,142.7l3.338,16.63a5.044,5.044,0,0,1-3.953,5.939L181.1,168.608a5.046,5.046,0,0,1-5.94-3.954l-3.338-16.63a5.048,5.048,0,0,1,3.954-5.939l16.626-3.338a5.046,5.046,0,0,1,5.939,3.954Z" fill="#04b5a4"/>
    <path id="Path_26227" data-name="Path 26227" d="M177.384,166.941a5.422,5.422,0,0,1-5.3-4.351l-3.338-16.63a5.415,5.415,0,0,1,4.244-6.375l16.626-3.338a5.414,5.414,0,0,1,6.375,4.243l3.338,16.63a5.415,5.415,0,0,1-4.243,6.375l-16.627,3.338a5.555,5.555,0,0,1-1.077.108m13.309-30.061a4.693,4.693,0,0,0-.93.093l-16.626,3.338a4.68,4.68,0,0,0-3.664,5.5l3.338,16.63a4.682,4.682,0,0,0,5.5,3.664l16.627-3.338a4.676,4.676,0,0,0,3.663-5.5l-3.338-16.63a4.677,4.677,0,0,0-4.574-3.757"/>
    <path id="Path_26228" data-name="Path 26228" d="M173.423,140.245a.372.372,0,0,1-.234-.085.377.377,0,0,1-.128-.215l-1.1-5.479a8.48,8.48,0,0,1,16.628-3.338l1.1,5.479a.367.367,0,0,1,0,.144.368.368,0,0,1-.291.291l-15.9,3.192a.354.354,0,0,1-.073.007m6.854-15.186a7.745,7.745,0,0,0-7.591,9.264l1.027,5.116,15.178-3.047-1.027-5.116a7.754,7.754,0,0,0-7.587-6.218"/>
    <path id="Path_26229" data-name="Path 26229" d="M185.263,153.129l2.3,3.838-4.639.931.638-4.427a2.6,2.6,0,1,1,1.7-.342"/>
    <path id="Path_26230" data-name="Path 26230" d="M32.473,199.634H306.53a.45.45,0,1,0,0-.9H32.473a.462.462,0,0,0-.172.034.455.455,0,0,0-.146.1.452.452,0,0,0-.1.491.458.458,0,0,0,.1.146.437.437,0,0,0,.146.1A.426.426,0,0,0,32.473,199.634Z" fill-rule="evenodd"/>
  </g>
</svg>
