<svg width="20" height="20" viewBox="0 0 20 20" fill="none" xmlns="http://www.w3.org/2000/svg">
<g clip-path="url(#clip0_239_468)">
<mask id="mask0_239_468" style="mask-type:luminance" maskUnits="userSpaceOnUse" x="0" y="0" width="20" height="20">
<path d="M20 0H0V20H20V0Z" fill="white"/>
</mask>
<g mask="url(#mask0_239_468)">
<mask id="mask1_239_468" style="mask-type:luminance" maskUnits="userSpaceOnUse" x="0" y="0" width="20" height="20">
<path d="M20 0H0V20H20V0Z" fill="white"/>
</mask>
<g mask="url(#mask1_239_468)">
<path d="M9.99569 1.25C11.0918 1.25474 12.18 1.43572 13.2187 1.786C14.2198 2.13366 15.1316 2.69862 15.8885 3.44034C16.6454 4.18206 17.2288 5.08215 17.5967 6.076C17.8297 6.70946 18.0015 7.36378 18.1097 8.03C18.3363 9.35577 18.2825 10.7143 17.9517 12.018C17.6525 13.2128 17.0051 14.2917 16.0917 15.118C15.1914 15.9367 14.0566 16.452 12.8477 16.591C12.529 16.6211 12.2088 16.6341 11.8887 16.63H11.4567H11.1367H11.1317C10.9405 16.6304 10.7517 16.6731 10.5789 16.7548C10.406 16.8366 10.2533 16.9555 10.1317 17.103L10.1237 17.113L10.1157 17.123C10.0169 17.2492 9.93548 17.3881 9.87369 17.536C9.73879 17.8895 9.50075 18.1942 9.19047 18.4107C8.88019 18.6272 8.512 18.7454 8.13369 18.75C7.86821 18.7484 7.60597 18.6915 7.36369 18.583C6.60184 18.2505 5.88839 17.8165 5.24269 17.293C4.61762 16.7845 4.06308 16.195 3.59369 15.54C2.63683 14.1853 2.03481 12.6124 1.84269 10.965C1.66055 9.54321 1.77357 8.09914 2.17469 6.723C2.53315 5.50152 3.19638 4.39128 4.10201 3.49667C5.00764 2.60206 6.12592 1.95248 7.35169 1.609C8.21338 1.37347 9.1024 1.25276 9.99569 1.25ZM9.99569 0C8.99236 0.00133324 7.99363 0.135841 7.02569 0.4C5.59317 0.799015 4.28598 1.55658 3.22759 2.60116C2.16919 3.64573 1.3945 4.94284 0.976694 6.37C0.52534 7.90983 0.397995 9.52649 0.602694 11.118C0.795293 12.9775 1.47564 14.7531 2.5749 16.2652C3.67415 17.7773 5.15331 18.9722 6.86269 19.729C7.24594 19.9014 7.6603 19.9939 8.08048 20.0008C8.50067 20.0078 8.91785 19.929 9.30659 19.7694C9.69532 19.6097 10.0474 19.3725 10.3415 19.0723C10.6355 18.772 10.8652 18.415 11.0167 18.023C11.0348 17.9778 11.0587 17.9351 11.0877 17.896C11.0928 17.8897 11.0992 17.8847 11.1064 17.8812C11.1137 17.8778 11.1216 17.876 11.1297 17.876C11.3757 17.876 11.6297 17.876 11.8857 17.876C12.253 17.8804 12.6202 17.8644 12.9857 17.828C14.4518 17.6449 15.8275 17.0201 16.9299 16.0364C18.0324 15.0527 18.8094 13.7569 19.1577 12.321C19.5324 10.8502 19.5934 9.31695 19.3367 7.821C19.2166 7.07534 19.0251 6.34296 18.7647 5.634C18.3311 4.46595 17.6439 3.4086 16.7525 2.53812C15.8611 1.66764 14.7877 1.00571 13.6097 0.6C12.4451 0.206887 11.2248 0.00428277 9.99569 0Z" fill="black"/>
<path d="M12.9289 6.91797H6.42188C6.25611 6.91797 6.09714 6.85212 5.97993 6.73491C5.86272 6.6177 5.79688 6.45873 5.79688 6.29297C5.79688 6.12721 5.86272 5.96824 5.97993 5.85103C6.09714 5.73382 6.25611 5.66797 6.42188 5.66797H12.9289C13.0946 5.66797 13.2536 5.73382 13.3708 5.85103C13.488 5.96824 13.5539 6.12721 13.5539 6.29297C13.5539 6.45873 13.488 6.6177 13.3708 6.73491C13.2536 6.85212 13.0946 6.91797 12.9289 6.91797Z" fill="black"/>
<path d="M10.6219 10.6602H6.42188C6.25611 10.6602 6.09714 10.5943 5.97993 10.4771C5.86272 10.3599 5.79688 10.2009 5.79688 10.0352C5.79688 9.8694 5.86272 9.71043 5.97993 9.59321C6.09714 9.476 6.25611 9.41016 6.42188 9.41016H10.6219C10.7876 9.41016 10.9466 9.476 11.0638 9.59321C11.181 9.71043 11.2469 9.8694 11.2469 10.0352C11.2469 10.2009 11.181 10.3599 11.0638 10.4771C10.9466 10.5943 10.7876 10.6602 10.6219 10.6602Z" fill="black"/>
</g>
</g>
</g>
<defs>
<clipPath id="clip0_239_468">
<rect width="20" height="20" fill="white"/>
</clipPath>
</defs>
</svg>
