<svg width="20" height="20" viewBox="0 0 20 20" fill="none" xmlns="http://www.w3.org/2000/svg">
<g clip-path="url(#clip0_239_489)">
<mask id="mask0_239_489" style="mask-type:luminance" maskUnits="userSpaceOnUse" x="0" y="0" width="20" height="20">
<path d="M20 0H0V20H20V0Z" fill="white"/>
</mask>
<g mask="url(#mask0_239_489)">
<path d="M10.0211 1.25C10.4577 1.2535 10.8869 1.3626 11.2721 1.568C11.8049 1.84022 12.3167 2.15175 12.8031 2.5C14.3841 3.63 15.8031 4.695 17.0261 5.665C17.3742 5.95244 17.7007 6.26494 18.0031 6.6C18.3323 6.96422 18.5644 7.40545 18.6781 7.883C18.793 8.93773 18.6503 10.0046 18.2621 10.992C17.8551 12.341 17.4231 13.702 16.9801 15.038C16.8101 15.552 16.6141 16.065 16.3991 16.561C16.2396 16.9555 16.0229 17.3244 15.7561 17.656C15.4361 17.9948 15.0477 18.2619 14.6167 18.4394C14.1858 18.617 13.722 18.701 13.2561 18.686C12.7281 18.73 12.0381 18.752 11.2081 18.752H10.1511C9.07214 18.752 8.10514 18.752 7.18914 18.715C6.47549 18.7171 5.76783 18.5848 5.10314 18.325C4.15314 17.883 3.63514 16.833 3.14714 15.393C2.77014 14.282 2.31014 12.841 1.77814 11.112C1.49841 10.3179 1.32196 9.49112 1.25314 8.652C1.23423 8.25265 1.30022 7.85383 1.44673 7.48185C1.59325 7.10987 1.81697 6.77318 2.10314 6.494C2.48184 6.0993 2.88966 5.73361 3.32314 5.4C4.64014 4.375 6.00314 3.368 7.36214 2.406C7.95038 1.94462 8.61191 1.58529 9.31914 1.343C9.54759 1.28246 9.78281 1.25121 10.0191 1.25M8.08114 17.394L11.9271 17.387C12.4443 17.3833 12.939 17.1747 13.3026 16.8069C13.6663 16.4391 13.8693 15.9422 13.8671 15.425V15.385C13.8671 14.8682 13.6625 14.3725 13.2981 14.0061C12.9336 13.6398 12.4389 13.4326 11.9221 13.43L8.07614 13.437C7.55895 13.441 7.06443 13.6498 6.70096 14.0178C6.3375 14.3857 6.13474 14.8828 6.13714 15.4V15.44C6.13687 15.9567 6.34125 16.4524 6.70556 16.8188C7.06988 17.1852 7.56447 17.3924 8.08114 17.395M10.0211 0C9.67748 0.00104583 9.33537 0.0460785 9.00314 0.134C8.14859 0.409391 7.3491 0.832832 6.64114 1.385C5.25648 2.36233 3.89481 3.37133 2.55614 4.412C2.07357 4.783 1.61962 5.18982 1.19814 5.629C0.799193 6.02797 0.487085 6.50515 0.281433 7.03056C0.0757816 7.55596 -0.018967 8.11822 0.00314235 8.682C0.0725287 9.63515 0.26755 10.5749 0.583142 11.477C1.12114 13.2257 1.58114 14.6637 1.96314 15.791C2.45414 17.243 3.10314 18.769 4.57514 19.455C5.39129 19.7851 6.26279 19.9568 7.14314 19.961C8.10314 20 9.11714 20 10.1511 20H11.2141C12.0808 20 12.7985 19.9763 13.3671 19.929C13.995 19.9298 14.6163 19.8003 15.1915 19.5487C15.7668 19.297 16.2836 18.9287 16.7091 18.467C17.0572 18.0401 17.3405 17.5643 17.5501 17.055C17.7808 16.5217 17.9878 15.9793 18.1711 15.428C18.6198 14.0747 19.0505 12.7153 19.4631 11.35C19.9275 10.1514 20.0766 8.85369 19.8961 7.581C19.7331 6.90443 19.4038 6.27922 18.9381 5.762C18.587 5.37477 18.2076 5.01411 17.8031 4.683C16.5598 3.695 15.1351 2.62833 13.5291 1.483C12.9925 1.09846 12.428 0.754509 11.8401 0.454C11.2786 0.159907 10.655 0.00425139 10.0211 0ZM8.08114 16.144C7.98913 16.1432 7.89818 16.1243 7.81348 16.0883C7.72879 16.0524 7.65202 16.0001 7.58756 15.9344C7.5231 15.8687 7.47222 15.791 7.43783 15.7056C7.40344 15.6203 7.38622 15.529 7.38714 15.437V15.4C7.38582 15.3079 7.40269 15.2165 7.43677 15.1309C7.47086 15.0453 7.5215 14.9673 7.58578 14.9014C7.65007 14.8354 7.72674 14.7828 7.8114 14.7465C7.89606 14.7103 7.98704 14.691 8.07914 14.69L11.9251 14.683C12.0172 14.6838 12.1081 14.7027 12.1928 14.7387C12.2775 14.7746 12.3543 14.8269 12.4187 14.8926C12.4832 14.9583 12.5341 15.036 12.5684 15.1214C12.6028 15.2067 12.6201 15.298 12.6191 15.39V15.43C12.6205 15.5221 12.6036 15.6135 12.5695 15.6991C12.5354 15.7847 12.4848 15.8627 12.4205 15.9286C12.3562 15.9946 12.2795 16.0472 12.1949 16.0835C12.1102 16.1197 12.0192 16.139 11.9271 16.14L8.08114 16.147V16.144Z" fill="black"/>
</g>
</g>
<defs>
<clipPath id="clip0_239_489">
<rect width="20" height="20" fill="white"/>
</clipPath>
</defs>
</svg>
