<svg width="20" height="20" viewBox="0 0 20 20" fill="none" xmlns="http://www.w3.org/2000/svg">
<g clip-path="url(#clip0_239_509)">
<mask id="mask0_239_509" style="mask-type:luminance" maskUnits="userSpaceOnUse" x="0" y="0" width="20" height="20">
<path d="M20 0H0V20H20V0Z" fill="white"/>
</mask>
<g mask="url(#mask0_239_509)">
<path d="M18.2643 11.661C18.1443 11.894 17.96 12.0877 17.7333 12.219C16.7333 12.875 15.7263 13.538 14.7263 14.188C13.2974 15.142 11.6411 15.6999 9.92627 15.805C9.66527 15.821 9.37427 15.823 9.06627 15.825C8.68027 15.825 8.28027 15.831 7.92627 15.863C6.25357 16.0241 4.63657 16.5501 3.18927 17.404L3.17427 17.411C3.16565 17.4123 3.15688 17.4123 3.14827 17.411C3.13117 17.411 3.1145 17.4056 3.10067 17.3955C3.08684 17.3855 3.07655 17.3713 3.07127 17.355L2.28827 15.064C2.28208 15.0476 2.27994 15.0299 2.28203 15.0125C2.28412 14.9951 2.29037 14.9785 2.30027 14.964C2.65127 14.415 3.00827 13.864 3.36027 13.314C3.80439 12.6265 4.41436 12.0618 5.134 11.672C5.85364 11.2821 6.65981 11.0795 7.47827 11.083C7.60127 11.083 7.72627 11.083 7.84927 11.097C8.13427 11.117 8.34227 11.127 8.46827 11.127C9.28927 11.127 10.1233 11.127 10.9453 11.135C11.0924 11.1276 11.2395 11.1508 11.3773 11.203C11.5026 11.2617 11.6082 11.3555 11.6813 11.473C11.7544 11.5905 11.7919 11.7267 11.7893 11.865C11.791 12.0023 11.7528 12.1371 11.6793 12.253C11.6058 12.3689 11.5002 12.461 11.3753 12.518C11.2376 12.5694 11.091 12.5922 10.9443 12.585H9.57627H9.17627C9.03416 12.5776 8.89187 12.5959 8.75627 12.639C8.64731 12.6861 8.55475 12.7644 8.49031 12.8641C8.42587 12.9638 8.39245 13.0803 8.39427 13.199C8.39092 13.3236 8.42468 13.4465 8.49127 13.5519C8.55786 13.6573 8.65428 13.7405 8.76827 13.791C8.88322 13.8309 9.00472 13.8486 9.12627 13.843H10.4363H11.0183C11.4625 13.8501 11.8964 13.7096 12.2522 13.4436C12.608 13.1776 12.8655 12.8011 12.9843 12.373C12.9929 12.3443 13.0122 12.3199 13.0383 12.305C14.2473 11.589 15.4753 10.862 16.6883 10.146C16.8516 10.0505 17.038 10.0014 17.2273 10.004C17.4379 10.0051 17.6445 10.0621 17.8259 10.1693C18.0072 10.2765 18.1568 10.43 18.2593 10.614C18.3455 10.7745 18.391 10.9537 18.3919 11.1359C18.3928 11.3181 18.349 11.4977 18.2643 11.659V11.661Z" fill="#0071CD"/>
<path d="M15.1393 2.17059C15.0828 1.96781 14.9748 1.78307 14.8259 1.63432C14.677 1.48556 14.4921 1.37783 14.2893 1.32159C14.119 1.27704 13.9432 1.25717 13.7673 1.26259H5.96827C5.70085 1.2615 5.43981 1.34427 5.22187 1.49925C5.00392 1.65423 4.84004 1.87363 4.75327 2.12659C4.69355 2.39931 4.67002 2.67872 4.68327 2.95759C4.68327 5.40559 4.68327 7.89359 4.68327 10.3496C4.68245 10.3598 4.68375 10.3702 4.68708 10.3799C4.69042 10.3896 4.69572 10.3986 4.70266 10.4062C4.7096 10.4138 4.71803 10.4199 4.72743 10.4241C4.73682 10.4283 4.74698 10.4305 4.75727 10.4306C4.77044 10.4304 4.78341 10.4273 4.79527 10.4216C5.62664 10.0273 6.53514 9.82235 7.45527 9.82159C7.62427 9.82159 7.79627 9.82859 7.96627 9.84159C8.24627 9.86359 8.46627 9.87459 8.61727 9.87459H10.8753C11.0968 9.86849 11.3182 9.88795 11.5353 9.93259C11.8003 9.99752 12.0493 10.116 12.2668 10.2808C12.4844 10.4455 12.6659 10.6531 12.8003 10.8906C12.8055 10.9003 12.8127 10.9088 12.8215 10.9156C12.8302 10.9224 12.8402 10.9273 12.8509 10.9301C12.8616 10.9328 12.8728 10.9333 12.8837 10.9315C12.8946 10.9297 12.905 10.9256 12.9143 10.9196L15.1393 9.60259C15.155 9.59374 15.1681 9.5808 15.1771 9.56513C15.186 9.54946 15.1906 9.53165 15.1903 9.51359V2.68359C15.1952 2.51059 15.175 2.33779 15.1303 2.17059H15.1393ZM13.2393 4.20259C13.1981 4.38414 13.136 4.56031 13.0543 4.72759C12.8344 5.23129 12.5027 5.67827 12.0843 6.03459C11.6673 6.37358 11.1759 6.6087 10.6503 6.72059C10.4084 6.7755 10.1613 6.80334 9.91327 6.80359C9.20604 6.79405 8.51903 6.56624 7.94622 6.15131C7.37341 5.73638 6.94279 5.15461 6.71327 4.48559C6.63163 4.30802 6.60886 4.10901 6.64827 3.91759C6.68801 3.78597 6.76951 3.67086 6.88047 3.58967C6.99143 3.50849 7.1258 3.46563 7.26327 3.46759C7.36669 3.46636 7.46863 3.49221 7.55897 3.54255C7.64931 3.5929 7.72491 3.666 7.77827 3.75459C7.78327 3.76459 7.80927 3.82259 7.92527 4.13859C8.02133 4.40735 8.17219 4.65321 8.36827 4.86059C8.61943 5.13029 8.93595 5.3306 9.2872 5.44212C9.63846 5.55365 10.0126 5.57261 10.3733 5.49719C10.734 5.42176 11.0692 5.2545 11.3463 5.01158C11.6235 4.76867 11.8332 4.45832 11.9553 4.11059C11.9975 3.97998 12.05 3.85291 12.1123 3.73059C12.1649 3.64912 12.2372 3.58223 12.3225 3.53608C12.4078 3.48994 12.5033 3.46604 12.6003 3.46659C12.6985 3.4672 12.7955 3.48916 12.8844 3.53095C12.9733 3.57273 13.0521 3.63335 13.1153 3.70859C13.1722 3.77607 13.2129 3.85564 13.2344 3.94125C13.2559 4.02686 13.2576 4.11624 13.2393 4.20259Z" fill="#0071CD"/>
<path d="M6.37275 0.00176942H6.35975C6.07912 -0.00521597 5.79836 0.00848781 5.51975 0.0427694C5.02336 0.132279 4.56475 0.367214 4.20208 0.71777C3.83942 1.06833 3.58906 1.5187 3.48275 2.01177C3.43838 2.29248 3.41997 2.57668 3.42775 2.86077V11.2768C3.42765 11.2923 3.4243 11.3076 3.41793 11.3217C3.41156 11.3358 3.4023 11.3484 3.39075 11.3588C2.77589 11.9452 2.2509 12.6191 1.83275 13.3588C1.82609 13.3711 1.81631 13.3815 1.80437 13.3889C1.79244 13.3962 1.77877 13.4003 1.76475 13.4008C1.74804 13.4004 1.73193 13.3945 1.71892 13.384C1.7059 13.3735 1.6967 13.359 1.69275 13.3428C1.67675 13.2958 1.65975 13.2428 1.64475 13.1958C1.61002 13.071 1.56208 12.9503 1.50175 12.8358C1.4474 12.7472 1.371 12.6744 1.28002 12.6242C1.18905 12.5741 1.08662 12.5484 0.98275 12.5498C0.82502 12.5444 0.671179 12.5994 0.552488 12.7034C0.433797 12.8074 0.359162 12.9527 0.34375 13.1098C0.351721 13.2858 0.389244 13.4592 0.45475 13.6228C1.10675 15.5618 1.76875 17.5218 2.42275 19.4558C2.45676 19.5757 2.5116 19.6888 2.58475 19.7898C2.64111 19.8563 2.71128 19.9097 2.79038 19.9463C2.86947 19.9829 2.95559 20.0018 3.04275 20.0018C3.13499 20.0005 3.22602 19.9807 3.31039 19.9434C3.39476 19.9061 3.47074 19.8521 3.53375 19.7848C3.59039 19.7236 3.63326 19.6509 3.65948 19.5717C3.6857 19.4926 3.69466 19.4087 3.68575 19.3258C3.66119 19.1785 3.62062 19.0343 3.56475 18.8958C3.54475 18.8388 3.52575 18.7848 3.50775 18.7318C3.50193 18.7148 3.50224 18.6963 3.50863 18.6794C3.51502 18.6626 3.52709 18.6486 3.54275 18.6398C4.09101 18.321 4.6588 18.0371 5.24275 17.7898C6.3678 17.3374 7.56722 17.0983 8.77975 17.0848H9.05675C9.47175 17.0848 9.90175 17.0768 10.2567 17.0458C12.0277 16.9026 13.7361 16.3253 15.2307 15.3648C15.6857 15.0738 16.7308 14.3878 18.3418 13.3258C18.5711 13.1833 18.7855 13.0182 18.9818 12.8328C19.2472 12.5554 19.4426 12.2187 19.5518 11.8506C19.6609 11.4825 19.6806 11.0937 19.6092 10.7164C19.5378 10.3392 19.3774 9.98446 19.1413 9.6817C18.9052 9.37895 18.6002 9.13693 18.2518 8.97577C17.9434 8.83024 17.6067 8.75444 17.2658 8.75377C17.0273 8.755 16.7901 8.78864 16.5608 8.85377C16.5518 8.85485 16.5427 8.85485 16.5338 8.85377C16.5227 8.8538 16.5118 8.85155 16.5017 8.84716C16.4916 8.84277 16.4825 8.83633 16.475 8.82826C16.4674 8.82018 16.4617 8.81064 16.458 8.80023C16.4544 8.78982 16.4529 8.77877 16.4538 8.76777C16.4538 6.77377 16.4538 4.75877 16.4538 2.78077C16.4603 2.51746 16.4405 2.25415 16.3948 1.99477C16.2899 1.52023 16.0511 1.08572 15.7067 0.742769C15.3631 0.396086 14.9254 0.15761 14.4477 0.0567694C14.1674 0.0124912 13.8835 -0.00591961 13.5997 0.00176942H6.37275ZM9.87275 1.26177H13.7727C13.9487 1.25635 14.1245 1.27622 14.2947 1.32077C14.4976 1.37701 14.6825 1.48474 14.8314 1.6335C14.9803 1.78225 15.0883 1.96699 15.1447 2.16977C15.1895 2.33697 15.2097 2.50977 15.2048 2.68277V9.51477C15.2037 9.53365 15.1973 9.55184 15.1863 9.56724C15.1754 9.58264 15.1603 9.59461 15.1427 9.60177L12.9137 10.9188C12.9045 10.9248 12.8941 10.9288 12.8832 10.9306C12.8723 10.9324 12.8611 10.932 12.8504 10.9292C12.8397 10.9265 12.8297 10.9216 12.8209 10.9148C12.8122 10.908 12.805 10.8995 12.7997 10.8898C12.6661 10.6534 12.4857 10.4468 12.2696 10.2824C12.0535 10.1181 11.8062 9.99945 11.5427 9.93377C11.3257 9.88913 11.1042 9.86967 10.8827 9.87577H8.62475C8.47275 9.87577 8.25375 9.86477 7.97375 9.84277C7.80275 9.82877 7.63075 9.82277 7.46275 9.82277C6.54261 9.82353 5.63411 10.0285 4.80275 10.4228C4.79088 10.4285 4.77792 10.4316 4.76475 10.4318C4.75446 10.4317 4.7443 10.4294 4.7349 10.4252C4.72551 10.421 4.71708 10.415 4.71014 10.4074C4.7032 10.3998 4.69789 10.3908 4.69456 10.3811C4.69122 10.3713 4.68993 10.361 4.69075 10.3508C4.69075 7.89377 4.69075 5.40677 4.69075 2.95877C4.67749 2.6799 4.70103 2.40049 4.76075 2.12777C4.84696 1.87508 5.01009 1.65571 5.22726 1.50041C5.44443 1.34511 5.70476 1.26166 5.97175 1.26177H9.87275ZM10.4427 13.8498H11.0247C11.4689 13.8569 11.9029 13.7164 12.2587 13.4504C12.6145 13.1844 12.8719 12.8078 12.9907 12.3798C12.9994 12.351 13.0187 12.3267 13.0447 12.3118C14.2537 11.5958 15.4817 10.8688 16.6947 10.1528C16.8561 10.0548 17.041 10.0026 17.2297 10.0018C17.4404 10.0028 17.647 10.0599 17.8283 10.1671C18.0097 10.2742 18.1593 10.4277 18.2618 10.6118C18.348 10.7723 18.3935 10.9515 18.3944 11.1336C18.3953 11.3158 18.3514 11.4955 18.2668 11.6568C18.1468 11.8898 17.9625 12.0834 17.7358 12.2148C16.7358 12.8708 15.7287 13.5338 14.7287 14.1838C13.2999 15.1377 11.6436 15.6957 9.92875 15.8008C9.66775 15.8168 9.37675 15.8188 9.06875 15.8208C8.68275 15.8208 8.28275 15.8268 7.92875 15.8588C6.2559 16.0204 4.63889 16.5472 3.19175 17.4018L3.17675 17.4088C3.16813 17.4101 3.15937 17.4101 3.15075 17.4088C3.13365 17.4088 3.11699 17.4033 3.10315 17.3933C3.08932 17.3832 3.07903 17.369 3.07375 17.3528L2.29075 15.0618C2.28456 15.0454 2.28242 15.0277 2.28451 15.0103C2.2866 14.9929 2.29285 14.9762 2.30275 14.9618C2.65375 14.4128 3.01075 13.8618 3.36275 13.3118C3.80687 12.6243 4.41684 12.0596 5.13648 11.6697C5.85612 11.2798 6.66229 11.0773 7.48075 11.0808C7.60375 11.0808 7.72875 11.0808 7.85175 11.0948C8.13675 11.1148 8.34475 11.1248 8.47075 11.1248C9.29175 11.1248 10.1257 11.1248 10.9477 11.1328C11.0949 11.1254 11.242 11.1485 11.3797 11.2008C11.5051 11.2595 11.6106 11.3533 11.6838 11.4708C11.7569 11.5883 11.7944 11.7244 11.7917 11.8628C11.7935 12 11.7553 12.1348 11.6818 12.2508C11.6083 12.3667 11.5026 12.4588 11.3777 12.5158C11.2401 12.5672 11.0935 12.59 10.9467 12.5828H9.57875H9.17875C9.03664 12.5753 8.89435 12.5936 8.75875 12.6368C8.64979 12.6838 8.55723 12.7622 8.49279 12.8618C8.42836 12.9615 8.39493 13.0781 8.39675 13.1968C8.3934 13.3214 8.42716 13.4442 8.49375 13.5496C8.56034 13.655 8.65676 13.7383 8.77075 13.7888C8.8857 13.8287 9.0072 13.8463 9.12875 13.8408H10.4387L10.4427 13.8498Z" fill="black"/>
<path d="M12.6115 3.46485C12.5145 3.4643 12.4189 3.4882 12.3337 3.53435C12.2484 3.58049 12.1761 3.64739 12.1235 3.72885C12.0612 3.85118 12.0087 3.97824 11.9665 4.10885C11.8444 4.45659 11.6347 4.76693 11.3575 5.00985C11.0804 5.25276 10.7452 5.42003 10.3845 5.49545C10.0237 5.57088 9.64965 5.55191 9.2984 5.44038C8.94714 5.32886 8.63062 5.12855 8.37947 4.85885C8.18338 4.65147 8.03252 4.40561 7.93647 4.13685C7.82147 3.82085 7.79547 3.76385 7.78947 3.75285C7.73611 3.66426 7.6605 3.59116 7.57016 3.54082C7.47982 3.49047 7.37788 3.46463 7.27447 3.46585C7.13699 3.4639 7.00262 3.50675 6.89166 3.58794C6.78071 3.66913 6.6992 3.78423 6.65947 3.91585C6.62005 4.10728 6.64283 4.30628 6.72447 4.48385C6.95404 5.15304 7.38482 5.73492 7.95782 6.14986C8.53083 6.5648 9.21806 6.79252 9.92547 6.80185C10.1735 6.8016 10.4206 6.77376 10.6625 6.71885C11.188 6.60697 11.6795 6.37185 12.0965 6.03285C12.5149 5.67654 12.8466 5.22956 13.0665 4.72585C13.1464 4.55868 13.2068 4.38285 13.2465 4.20185C13.2647 4.1155 13.2631 4.02612 13.2416 3.94051C13.2201 3.85491 13.1794 3.77533 13.1225 3.70785C13.059 3.63297 12.9801 3.5726 12.8913 3.53085C12.8024 3.48909 12.7056 3.46693 12.6075 3.46585L12.6115 3.46485Z" fill="black"/>
</g>
</g>
<defs>
<clipPath id="clip0_239_509">
<rect width="20" height="20" fill="white"/>
</clipPath>
</defs>
</svg>
