<svg width="20" height="20" viewBox="0 0 20 20" fill="none" xmlns="http://www.w3.org/2000/svg">
<g clip-path="url(#clip0_239_502)">
<mask id="mask0_239_502" style="mask-type:luminance" maskUnits="userSpaceOnUse" x="0" y="0" width="20" height="20">
<path d="M20 0H0V20H20V0Z" fill="white"/>
</mask>
<g mask="url(#mask0_239_502)">
<path d="M6.37275 0.00176942H6.35975C6.07912 -0.00521597 5.79836 0.00848781 5.51975 0.0427694C5.02336 0.132279 4.56475 0.367214 4.20208 0.71777C3.83942 1.06833 3.58906 1.5187 3.48275 2.01177C3.43838 2.29248 3.41997 2.57668 3.42775 2.86077V11.2768C3.42765 11.2923 3.4243 11.3076 3.41793 11.3217C3.41156 11.3358 3.4023 11.3484 3.39075 11.3588C2.77589 11.9452 2.2509 12.6191 1.83275 13.3588C1.82609 13.3711 1.81631 13.3815 1.80437 13.3889C1.79244 13.3962 1.77877 13.4003 1.76475 13.4008C1.74804 13.4004 1.73193 13.3945 1.71892 13.384C1.7059 13.3735 1.6967 13.359 1.69275 13.3428C1.67675 13.2958 1.65975 13.2428 1.64475 13.1958C1.61002 13.071 1.56208 12.9503 1.50175 12.8358C1.4474 12.7472 1.371 12.6744 1.28002 12.6242C1.18905 12.5741 1.08662 12.5484 0.98275 12.5498C0.82502 12.5444 0.671179 12.5994 0.552488 12.7034C0.433797 12.8074 0.359162 12.9527 0.34375 13.1098C0.351721 13.2858 0.389244 13.4592 0.45475 13.6228C1.10675 15.5618 1.76875 17.5218 2.42275 19.4558C2.45676 19.5757 2.5116 19.6888 2.58475 19.7898C2.64111 19.8563 2.71128 19.9097 2.79038 19.9463C2.86947 19.9829 2.95559 20.0018 3.04275 20.0018C3.13499 20.0005 3.22602 19.9807 3.31039 19.9434C3.39476 19.9061 3.47074 19.8521 3.53375 19.7848C3.59039 19.7236 3.63326 19.6509 3.65948 19.5717C3.6857 19.4926 3.69466 19.4087 3.68575 19.3258C3.66119 19.1785 3.62062 19.0343 3.56475 18.8958C3.54475 18.8388 3.52575 18.7848 3.50775 18.7318C3.50193 18.7148 3.50224 18.6963 3.50863 18.6794C3.51502 18.6626 3.52709 18.6486 3.54275 18.6398C4.09101 18.321 4.6588 18.0371 5.24275 17.7898C6.3678 17.3374 7.56722 17.0983 8.77975 17.0848H9.05675C9.47175 17.0848 9.90175 17.0768 10.2567 17.0458C12.0277 16.9026 13.7361 16.3253 15.2307 15.3648C15.6857 15.0738 16.7308 14.3878 18.3418 13.3258C18.5711 13.1833 18.7855 13.0182 18.9818 12.8328C19.2472 12.5554 19.4426 12.2187 19.5518 11.8506C19.6609 11.4825 19.6806 11.0937 19.6092 10.7164C19.5378 10.3392 19.3774 9.98446 19.1413 9.6817C18.9052 9.37895 18.6002 9.13693 18.2518 8.97577C17.9434 8.83024 17.6067 8.75444 17.2658 8.75377C17.0273 8.755 16.7901 8.78864 16.5608 8.85377C16.5518 8.85485 16.5427 8.85485 16.5338 8.85377C16.5227 8.8538 16.5118 8.85155 16.5017 8.84716C16.4916 8.84277 16.4825 8.83633 16.475 8.82826C16.4674 8.82018 16.4617 8.81064 16.458 8.80023C16.4544 8.78982 16.4529 8.77877 16.4538 8.76777C16.4538 6.77377 16.4538 4.75877 16.4538 2.78077C16.4603 2.51746 16.4405 2.25415 16.3948 1.99477C16.2899 1.52023 16.0511 1.08572 15.7067 0.742769C15.3631 0.396086 14.9254 0.15761 14.4477 0.0567694C14.1674 0.0124912 13.8835 -0.00591961 13.5997 0.00176942H6.37275ZM9.87275 1.26177H13.7727C13.9487 1.25635 14.1245 1.27622 14.2947 1.32077C14.4976 1.37701 14.6825 1.48474 14.8314 1.6335C14.9803 1.78225 15.0883 1.96699 15.1447 2.16977C15.1895 2.33697 15.2097 2.50977 15.2048 2.68277V9.51477C15.2037 9.53365 15.1973 9.55184 15.1863 9.56724C15.1754 9.58264 15.1603 9.59461 15.1427 9.60177L12.9137 10.9188C12.9045 10.9248 12.8941 10.9288 12.8832 10.9306C12.8723 10.9324 12.8611 10.932 12.8504 10.9292C12.8397 10.9265 12.8297 10.9216 12.8209 10.9148C12.8122 10.908 12.805 10.8995 12.7997 10.8898C12.6661 10.6534 12.4857 10.4468 12.2696 10.2824C12.0535 10.1181 11.8062 9.99945 11.5427 9.93377C11.3257 9.88913 11.1042 9.86967 10.8827 9.87577H8.62475C8.47275 9.87577 8.25375 9.86477 7.97375 9.84277C7.80275 9.82877 7.63075 9.82277 7.46275 9.82277C6.54261 9.82353 5.63411 10.0285 4.80275 10.4228C4.79088 10.4285 4.77792 10.4316 4.76475 10.4318C4.75446 10.4317 4.7443 10.4294 4.7349 10.4252C4.72551 10.421 4.71708 10.415 4.71014 10.4074C4.7032 10.3998 4.69789 10.3908 4.69456 10.3811C4.69122 10.3713 4.68993 10.361 4.69075 10.3508C4.69075 7.89377 4.69075 5.40677 4.69075 2.95877C4.67749 2.6799 4.70103 2.40049 4.76075 2.12777C4.84696 1.87508 5.01009 1.65571 5.22726 1.50041C5.44443 1.34511 5.70476 1.26166 5.97175 1.26177H9.87275ZM10.4427 13.8498H11.0247C11.4689 13.8569 11.9029 13.7164 12.2587 13.4504C12.6145 13.1844 12.8719 12.8078 12.9907 12.3798C12.9994 12.351 13.0187 12.3267 13.0447 12.3118C14.2537 11.5958 15.4817 10.8688 16.6947 10.1528C16.8561 10.0548 17.041 10.0026 17.2297 10.0018C17.4404 10.0028 17.647 10.0599 17.8283 10.1671C18.0097 10.2742 18.1593 10.4277 18.2618 10.6118C18.348 10.7723 18.3935 10.9515 18.3944 11.1336C18.3953 11.3158 18.3514 11.4955 18.2668 11.6568C18.1468 11.8898 17.9625 12.0834 17.7358 12.2148C16.7358 12.8708 15.7287 13.5338 14.7287 14.1838C13.2999 15.1377 11.6436 15.6957 9.92875 15.8008C9.66775 15.8168 9.37675 15.8188 9.06875 15.8208C8.68275 15.8208 8.28275 15.8268 7.92875 15.8588C6.2559 16.0204 4.63889 16.5472 3.19175 17.4018L3.17675 17.4088C3.16813 17.4101 3.15937 17.4101 3.15075 17.4088C3.13365 17.4088 3.11699 17.4033 3.10315 17.3933C3.08932 17.3832 3.07903 17.369 3.07375 17.3528L2.29075 15.0618C2.28456 15.0454 2.28242 15.0277 2.28451 15.0103C2.2866 14.9929 2.29285 14.9762 2.30275 14.9618C2.65375 14.4128 3.01075 13.8618 3.36275 13.3118C3.80687 12.6243 4.41684 12.0596 5.13648 11.6697C5.85612 11.2798 6.66229 11.0773 7.48075 11.0808C7.60375 11.0808 7.72875 11.0808 7.85175 11.0948C8.13675 11.1148 8.34475 11.1248 8.47075 11.1248C9.29175 11.1248 10.1257 11.1248 10.9477 11.1328C11.0949 11.1254 11.242 11.1485 11.3797 11.2008C11.5051 11.2595 11.6106 11.3533 11.6838 11.4708C11.7569 11.5883 11.7944 11.7244 11.7917 11.8628C11.7935 12 11.7553 12.1348 11.6818 12.2508C11.6083 12.3667 11.5026 12.4588 11.3777 12.5158C11.2401 12.5672 11.0935 12.59 10.9467 12.5828H9.57875H9.17875C9.03664 12.5753 8.89435 12.5936 8.75875 12.6368C8.64979 12.6838 8.55723 12.7622 8.49279 12.8618C8.42836 12.9615 8.39493 13.0781 8.39675 13.1968C8.3934 13.3214 8.42716 13.4442 8.49375 13.5496C8.56034 13.655 8.65676 13.7383 8.77075 13.7888C8.8857 13.8287 9.0072 13.8463 9.12875 13.8408H10.4387L10.4427 13.8498Z" fill="black"/>
<path d="M12.6115 3.46485C12.5145 3.4643 12.4189 3.4882 12.3337 3.53435C12.2484 3.58049 12.1761 3.64739 12.1235 3.72885C12.0612 3.85118 12.0087 3.97824 11.9665 4.10885C11.8444 4.45659 11.6347 4.76693 11.3575 5.00985C11.0804 5.25276 10.7452 5.42003 10.3845 5.49545C10.0237 5.57088 9.64965 5.55191 9.2984 5.44038C8.94714 5.32886 8.63062 5.12855 8.37947 4.85885C8.18338 4.65147 8.03252 4.40561 7.93647 4.13685C7.82147 3.82085 7.79547 3.76385 7.78947 3.75285C7.73611 3.66426 7.6605 3.59116 7.57016 3.54082C7.47982 3.49047 7.37788 3.46463 7.27447 3.46585C7.13699 3.4639 7.00262 3.50675 6.89166 3.58794C6.78071 3.66913 6.6992 3.78423 6.65947 3.91585C6.62005 4.10728 6.64283 4.30628 6.72447 4.48385C6.95404 5.15304 7.38482 5.73492 7.95782 6.14986C8.53083 6.5648 9.21806 6.79252 9.92547 6.80185C10.1735 6.8016 10.4206 6.77376 10.6625 6.71885C11.188 6.60697 11.6795 6.37185 12.0965 6.03285C12.5149 5.67654 12.8466 5.22956 13.0665 4.72585C13.1464 4.55868 13.2068 4.38285 13.2465 4.20185C13.2647 4.1155 13.2631 4.02612 13.2416 3.94051C13.2201 3.85491 13.1794 3.77533 13.1225 3.70785C13.059 3.63297 12.9801 3.5726 12.8913 3.53085C12.8024 3.48909 12.7056 3.46693 12.6075 3.46585L12.6115 3.46485Z" fill="black"/>
</g>
</g>
<defs>
<clipPath id="clip0_239_502">
<rect width="20" height="20" fill="white"/>
</clipPath>
</defs>
</svg>
