<svg width="20" height="20" viewBox="0 0 20 20" fill="none" xmlns="http://www.w3.org/2000/svg">
<g clip-path="url(#clip0_239_518)">
<mask id="mask0_239_518" style="mask-type:luminance" maskUnits="userSpaceOnUse" x="0" y="0" width="20" height="20">
<path d="M20 0H0V20H20V0Z" fill="white"/>
</mask>
<g mask="url(#mask0_239_518)">
<path d="M9.998 1.25C10.6902 1.25 11.3669 1.45527 11.9425 1.83986C12.5181 2.22444 12.9667 2.77107 13.2316 3.41061C13.4965 4.05015 13.5658 4.75388 13.4308 5.43282C13.2957 6.11175 12.9624 6.73539 12.4729 7.22487C11.9834 7.71436 11.3598 8.0477 10.6808 8.18275C10.0019 8.3178 9.29815 8.24848 8.65861 7.98358C8.01907 7.71867 7.47244 7.27007 7.08786 6.6945C6.70327 6.11892 6.498 5.44223 6.498 4.75C6.498 3.82174 6.86675 2.9315 7.52313 2.27513C8.17951 1.61875 9.06974 1.25 9.998 1.25ZM9.998 0C9.05894 0 8.14096 0.278465 7.36015 0.800182C6.57935 1.3219 5.97079 2.06344 5.61142 2.93102C5.25206 3.7986 5.15803 4.75327 5.34123 5.67429C5.52444 6.59531 5.97664 7.44132 6.64066 8.10534C7.30468 8.76936 8.15069 9.22157 9.07171 9.40477C9.99273 9.58797 10.9474 9.49394 11.815 9.13458C12.6826 8.77522 13.4241 8.16665 13.9458 7.38585C14.4675 6.60504 14.746 5.68707 14.746 4.748C14.746 3.48875 14.2458 2.28108 13.3553 1.39066C12.4649 0.500234 11.2573 0 9.998 0Z" fill="black"/>
<path d="M10.035 10.7617V12.0117C11.3662 11.9974 12.6817 12.2998 13.873 12.8937C14.2937 13.0829 14.6728 13.3534 14.9886 13.6896C15.3043 14.0258 15.5505 14.4211 15.713 14.8527C15.8354 15.2977 15.7965 15.7717 15.603 16.1907C15.3795 16.6707 15.0349 17.0843 14.603 17.3907C13.2634 18.3118 11.6673 18.787 10.042 18.7487C9.21456 18.7495 8.39054 18.642 7.59102 18.4287C6.30902 18.0857 4.78002 17.2837 4.33002 16.0627C4.21672 15.7406 4.18481 15.3955 4.23715 15.058C4.2895 14.7206 4.42446 14.4014 4.63002 14.1287C5.45763 13.1508 6.59883 12.4903 7.85902 12.2597C8.57104 12.0957 9.29935 12.0128 10.03 12.0127V10.7627M10.03 10.7627C9.20479 10.763 8.38223 10.8566 7.57802 11.0417C6.02476 11.3409 4.6244 12.1723 3.61802 13.3927C3.29105 13.8311 3.07773 14.3437 2.99712 14.8846C2.9165 15.4255 2.97109 15.978 3.15602 16.4927C3.77502 18.1747 5.63302 19.1977 7.26702 19.6357C8.17233 19.8768 9.10518 19.9988 10.042 19.9987C11.9339 20.037 13.7892 19.4751 15.342 18.3937C15.9703 17.9885 16.4585 17.3997 16.7403 16.7073C17.0221 16.0149 17.0838 15.2524 16.917 14.5237C16.7155 13.9216 16.3918 13.3675 15.9663 12.8962C15.5407 12.4249 15.0225 12.0465 14.444 11.7847C13.0755 11.0994 11.5635 10.7494 10.033 10.7637L10.03 10.7627Z" fill="black"/>
</g>
</g>
<defs>
<clipPath id="clip0_239_518">
<rect width="20" height="20" fill="white"/>
</clipPath>
</defs>
</svg>
