<svg xmlns="http://www.w3.org/2000/svg" xmlns:xlink="http://www.w3.org/1999/xlink" width="134.731" height="37.571" viewBox="0 0 134.731 37.571">
  <defs>
    <linearGradient id="linear-gradient" y1="0.5" x2="1" y2="0.5" gradientUnits="objectBoundingBox">
      <stop offset="0" stop-color="#6abdbd"/>
      <stop offset="1" stop-color="#117f7c"/>
    </linearGradient>
    <linearGradient id="linear-gradient-2" y1="0.5" x2="1" y2="0.5" gradientUnits="objectBoundingBox">
      <stop offset="0" stop-color="#579d9e"/>
      <stop offset="1" stop-color="#00615e"/>
    </linearGradient>
    <linearGradient id="linear-gradient-3" x1="-0.189" y1="0.688" x2="1.18" y2="0.095" xlink:href="#linear-gradient"/>
    <linearGradient id="linear-gradient-4" x1="0.562" y1="-0.124" x2="0.457" y2="0.932" gradientUnits="objectBoundingBox">
      <stop offset="0" stop-color="#f07"/>
      <stop offset="1" stop-color="#c60264"/>
    </linearGradient>
    <linearGradient id="linear-gradient-5" x1="12.243" y1="0.374" x2="14.05" y2="0.374" xlink:href="#linear-gradient-4"/>
    <linearGradient id="linear-gradient-6" y1="0.5" x2="1" y2="0.5" gradientUnits="objectBoundingBox">
      <stop offset="0" stop-color="#f07"/>
      <stop offset="1" stop-color="#79003b"/>
    </linearGradient>
    <linearGradient id="linear-gradient-7" x1="0.01" y1="-0.214" x2="0.422" y2="0.373" gradientUnits="objectBoundingBox">
      <stop offset="0" stop-color="#a7c62a"/>
      <stop offset="1" stop-color="#6f8200"/>
    </linearGradient>
    <linearGradient id="linear-gradient-8" x1="0.506" y1="0.25" x2="0.48" y2="1.14" gradientUnits="objectBoundingBox">
      <stop offset="0.004" stop-color="#718b32"/>
      <stop offset="1" stop-color="#3c4e1f"/>
    </linearGradient>
    <linearGradient id="linear-gradient-9" x1="0.426" y1="-0.303" x2="0.688" y2="1.055" xlink:href="#linear-gradient-7"/>
    <linearGradient id="linear-gradient-10" x1="0.406" y1="-0.242" x2="0.54" y2="0.816" gradientUnits="objectBoundingBox">
      <stop offset="0" stop-color="#fda037"/>
      <stop offset="1" stop-color="#c96400"/>
    </linearGradient>
    <linearGradient id="linear-gradient-11" x1="-0.228" y1="-0.007" x2="1.901" y2="1.476" xlink:href="#linear-gradient-10"/>
  </defs>
  <g id="company_logo" opacity="0">
    <path id="Path_13282" data-name="Path 13282" d="M-21.065,0h.8V-5.91l2.48,3.61h.04l2.48-3.59V0h.8V-7.45h-.7l-2.6,3.78-2.6-3.78h-.7Zm10.3.12a2.469,2.469,0,0,0,1.12-.25,1.915,1.915,0,0,0,.76-.64V0h.75V-3.68a1.717,1.717,0,0,0-.255-.935A1.752,1.752,0,0,0-9.1-5.25a2.285,2.285,0,0,0-1.045-.23,2.359,2.359,0,0,0-.87.165,2.572,2.572,0,0,0-.745.445,1.758,1.758,0,0,0-.475.62l.68.37A1.509,1.509,0,0,1-11-4.515a1.522,1.522,0,0,1,.86-.245,1.349,1.349,0,0,1,.91.3.979.979,0,0,1,.35.78v.28l-1.94.32a2.166,2.166,0,0,0-1.3.61,1.571,1.571,0,0,0-.41,1.08,1.359,1.359,0,0,0,.23.78,1.575,1.575,0,0,0,.63.535,2.05,2.05,0,0,0,.91.2Zm-.97-1.54a.9.9,0,0,1,.255-.64,1.467,1.467,0,0,1,.835-.37l1.76-.29v.4a1.753,1.753,0,0,1-.23.89,1.7,1.7,0,0,1-.64.635,1.9,1.9,0,0,1-.96.235,1.074,1.074,0,0,1-.735-.25.782.782,0,0,1-.285-.61ZM-3.675.12a2.513,2.513,0,0,0,1.14-.26,2.026,2.026,0,0,0,.82-.73V0h.75V-7.57h-.75v3.02a2.362,2.362,0,0,0-.83-.68,2.492,2.492,0,0,0-1.13-.25,2.539,2.539,0,0,0-1.355.365,2.621,2.621,0,0,0-.94,1,2.949,2.949,0,0,0-.345,1.44,2.957,2.957,0,0,0,.345,1.43,2.6,2.6,0,0,0,.945,1A2.546,2.546,0,0,0-3.675.12Zm.04-.75A1.761,1.761,0,0,1-4.6-.9a1.9,1.9,0,0,1-.67-.735A2.207,2.207,0,0,1-5.515-2.68,2.2,2.2,0,0,1-5.27-3.73a1.9,1.9,0,0,1,.675-.73,1.768,1.768,0,0,1,.96-.27,1.811,1.811,0,0,1,.975.27,1.953,1.953,0,0,1,.69.735A2.137,2.137,0,0,1-1.715-2.68,2.137,2.137,0,0,1-1.97-1.635,1.953,1.953,0,0,1-2.66-.9a1.811,1.811,0,0,1-.975.27Zm7.15.75A2.645,2.645,0,0,0,4.52-.065a2.568,2.568,0,0,0,.78-.49,2.032,2.032,0,0,0,.5-.665l-.64-.34a2.249,2.249,0,0,1-.65.7,1.684,1.684,0,0,1-.99.28,1.845,1.845,0,0,1-.9-.23,1.867,1.867,0,0,1-.685-.645,1.938,1.938,0,0,1-.285-1H5.87q.02-.13.03-.255t.01-.225a2.651,2.651,0,0,0-.17-.935,2.63,2.63,0,0,0-.49-.82,2.356,2.356,0,0,0-.775-.58,2.394,2.394,0,0,0-1.04-.21,2.458,2.458,0,0,0-1.315.36,2.581,2.581,0,0,0-.925.985A2.955,2.955,0,0,0,.855-2.7a2.972,2.972,0,0,0,.35,1.45,2.614,2.614,0,0,0,.955,1A2.572,2.572,0,0,0,3.515.12Zm-.08-4.9a1.66,1.66,0,0,1,.825.21,1.628,1.628,0,0,1,.6.57,1.645,1.645,0,0,1,.24.85H1.665a1.874,1.874,0,0,1,.315-.865,1.776,1.776,0,0,1,.635-.565,1.734,1.734,0,0,1,.82-.2ZM10.035,0h3.14A2.447,2.447,0,0,0,14.9-.585a2.049,2.049,0,0,0,.635-1.585,2,2,0,0,0-.3-1.08,2.053,2.053,0,0,0-.845-.76,1.7,1.7,0,0,0,.85-1.57,1.754,1.754,0,0,0-.56-1.355,2.144,2.144,0,0,0-1.51-.515H10.04Zm.8-4.3V-6.7H13.1a1.489,1.489,0,0,1,.965.3,1.035,1.035,0,0,1,.365.855,1.192,1.192,0,0,1-.365.9,1.336,1.336,0,0,1-.965.35Zm0,3.55V-3.58h2.34a1.626,1.626,0,0,1,1.135.38,1.328,1.328,0,0,1,.425,1.035A1.309,1.309,0,0,1,14.31-1.13a1.653,1.653,0,0,1-1.135.375Zm6.63,2.95a1.764,1.764,0,0,0,.9-.215,1.918,1.918,0,0,0,.615-.565,3.806,3.806,0,0,0,.4-.74l2.45-6.05H21L19.255-.94,17.5-5.37h-.81L18.835,0l-.19.46a2.032,2.032,0,0,1-.51.785,1.189,1.189,0,0,1-.75.2,1.975,1.975,0,0,1-.315-.025q-.155-.025-.255-.035v.7a1.611,1.611,0,0,0,.325.085,2.167,2.167,0,0,0,.325.03Z" transform="translate(67.069 7.57)" fill="rgba(255,255,255,0.5)"/>
    <g id="wrteam_logo">
      <path id="Path_52" data-name="Path 52" d="M2304.02,817.281l-.515,2.682h-11.739a.948.948,0,0,0-.019-.146,3.482,3.482,0,0,0-.6-1.489,3.3,3.3,0,0,0-1.286-1.047Z" transform="translate(-2209.719 -801.242)" fill="#fff"/>
      <path id="Path_53" data-name="Path 53" d="M2404.02,912.837l-1.83,9.532h3.837l1.83-9.532Z" transform="translate(-2317.74 -893.141)" fill="#fff"/>
      <path id="Path_54" data-name="Path 54" d="M1462.09,825.461l-1.454-8.175H1456.7l2.81,13.2Z" transform="translate(-1408.444 -801.247)" fill="#fff"/>
      <path id="Path_55" data-name="Path 55" d="M1541.05,824.426l-1.542-7.14h-2.686l-6.773,13.187v.009h3.18l3.864-7.679,1.5,6.4Z" transform="translate(-1478.987 -801.247)" fill="#fff"/>
      <path id="Path_56" data-name="Path 56" d="M1769.23,817.286l-6.778,13.2h3.11l7.022-13.2Z" transform="translate(-1702.493 -801.247)" fill="#fff"/>
      <path id="Path_57" data-name="Path 57" d="M1957.41,825.342a5.442,5.442,0,0,0,.636-.191,5.059,5.059,0,0,0,1.656-.98,4.943,4.943,0,0,0,1.555-2.736,4.3,4.3,0,0,0,.036-1.456,3.078,3.078,0,0,0-.533-1.323,3.009,3.009,0,0,0-1.278-.99,5.15,5.15,0,0,0-2.1-.381h-9.439l-.512,2.669h7.331v.01h.4a3.945,3.945,0,0,1,1.89.2q.472.348.291,1.29a2,2,0,0,1-.414.961,1.531,1.531,0,0,1-.833.457,7.024,7.024,0,0,1-1.5.124h-.828l.394-2.052h-3.846l-1.83,9.531h3.846l.95-4.948H1954l1.861,4.948h3.664Z" transform="translate(-1880.27 -801.247)" fill="#fff"/>
      <path id="Path_58" data-name="Path 58" d="M2878,1015.08a1.465,1.465,0,0,1-.677.185.694.694,0,0,1-.552-.244.8.8,0,0,1-.123-.7,1.509,1.509,0,0,1,.711-1.016,8.133,8.133,0,0,1,1.09-.553l.285-1.485-.216.069-1.054.33a16.764,16.764,0,0,0-1.992.732,4.076,4.076,0,0,0-1.288.908,2.764,2.764,0,0,0-.685,1.4,2.437,2.437,0,0,0,.032,1.089,1.492,1.492,0,0,0,.669.877,2.732,2.732,0,0,0,1.5.348,3.791,3.791,0,0,0,1.711-.412,2.4,2.4,0,0,0,.337-.218Z" transform="translate(-2770.959 -987.8)" fill="#fff"/>
      <path id="Path_59" data-name="Path 59" d="M2939.92,920.3a.328.328,0,0,1-.331-.409l.8-4.142a2.162,2.162,0,0,0-.565-2.128c-.532-.5-1.293-.754-3.111-.771h-2.87l-.4,2.083h2.788c.444.031.731.149.839.366a1.668,1.668,0,0,1,.061,1.048l-.281,1.464-.418,2.177-.208,1.085a1.01,1.01,0,0,0,.933,1.3h4.349l.4-2.073Z" transform="translate(-2828.652 -893.146)" fill="#fff"/>
      <path id="Path_60" data-name="Path 60" d="M3154.33,915.975a4.052,4.052,0,0,0-.56-1.694,3.189,3.189,0,0,0-1.316-1.192,4.5,4.5,0,0,0-2.023-.419,5.691,5.691,0,0,0-1.984.351,5.541,5.541,0,0,0-1.56.9,3.247,3.247,0,0,0-1.061-.835,4.5,4.5,0,0,0-2.023-.419,5.69,5.69,0,0,0-1.983.351,5.6,5.6,0,0,0-1.776,1.079,6.193,6.193,0,0,0-1.321,1.673,6.925,6.925,0,0,0-.74,2.058c-.013.074-.028.15-.035.206l-.8,4.172h3l.886-4.613a2.128,2.128,0,0,1,2.122-1.746,1.411,1.411,0,0,1,1.506,1.614l-.911,4.745h3.033l.821-4.275q.036-.187.065-.376a2.117,2.117,0,0,1,2.114-1.708,1.411,1.411,0,0,1,1.506,1.614l-.911,4.745h3.033l.807-4.2a6.186,6.186,0,0,0,.111-2.031Z" transform="translate(-3024.561 -892.98)" fill="#fff"/>
      <path id="Path_61" data-name="Path 61" d="M2603.77,918.45h9.529l.126-.657a5.145,5.145,0,0,0-.108-2.862,2.976,2.976,0,0,0-1.37-1.6,4.264,4.264,0,0,0-2.02-.488,6.72,6.72,0,0,0-2.943.616,5.384,5.384,0,0,0-2.069,1.7,6.143,6.143,0,0,0-1.05,2.451,4.38,4.38,0,0,0-.1.719,1.052,1.052,0,0,1,0,.121Zm4.187-3.047a2,2,0,0,1,1.388-.543,1.214,1.214,0,0,1,1.129.534,1.985,1.985,0,0,1,.154,1.429H2607.2a2.5,2.5,0,0,1,.76-1.423Z" transform="translate(-2511.605 -893.146)" fill="#fff"/>
      <path id="Path_62" data-name="Path 62" d="M2607.53,1077.82h-3.43c.015.136.029.272.056.406a3.23,3.23,0,0,0,.744,1.5,3.54,3.54,0,0,0,1.429.964,5.326,5.326,0,0,0,1.956.338h1.615l.461-2.4h-1.4a1.707,1.707,0,0,1-1.431-.808Z" transform="translate(-2511.924 -1051.811)" fill="#fff"/>
      <g id="Group_5303" data-name="Group 5303">
        <path id="Path_63" data-name="Path 63" d="M880.352,781.052l-5.7,19.763-.219.667c-.508,1.545-.828,2.413-1.615,2.487H864.23l3.46-12,.335-1.163,2.813-9.755Z" transform="translate(-838.653 -766.4)" fill="url(#linear-gradient)"/>
        <path id="Path_64" data-name="Path 64" d="M961.039,1046.57c-.508,1.545-.828,2.413-1.615,2.487h-1.215l-.669-.589-3.243-11.411-.013-.047.349-1.116.031.1.089.289.14.453q.092.3.186.594l.225.711.258.8.284.874.3.92q.149.459.319.943t.327.942q.166.471.328.918t.323.87q.152.4.313.8.143.354.3.7c.087.2.176.393.272.586a2.486,2.486,0,0,0,.412.659,1.2,1.2,0,0,0,.6.329,1.072,1.072,0,0,0,.377.007,1.58,1.58,0,0,0,.506-.176,3.328,3.328,0,0,0,.816-.643Z" transform="translate(-925.258 -1011.489)" fill="url(#linear-gradient-2)"/>
        <path id="Path_65" data-name="Path 65" d="M1043.96,797.71l4.8-16.655h-9.418a40.493,40.493,0,0,0,4.618,16.655Z" transform="translate(-1007.068 -766.403)" fill="url(#linear-gradient-3)"/>
        <path id="Path_66" data-name="Path 66" d="M635.3,803.976h-9.512c-.915-.086-1.229-1.236-1.879-3.292-.017-.053-.9-3.086-1.893-6.524l-.6-2.065c-1.129-3.894-2.221-7.66-2.248-7.746-.65-2.056-.964-3.205-1.879-3.292h9.482c.688.065,1.036.73,1.442,1.93.134.4.275.851.436,1.361.056.178,4.714,16.156,4.771,16.334.652,2.058.966,3.207,1.88,3.294Z" transform="translate(-601.166 -766.406)" fill="url(#linear-gradient-4)"/>
        <path id="Path_67" data-name="Path 67" d="M737.071,1097.45c-.926-3.373-3.451-7.154-5.894-7.154,1.137,3.923,2.241,7.729,2.26,7.789.65,2.056.964,3.2,1.879,3.292h4.3c-1.039-.377-2.088-2.257-2.545-3.927Z" transform="translate(-710.692 -1063.808)" fill="url(#linear-gradient-5)"/>
        <path id="Path_68" data-name="Path 68" d="M727.589,782.988c-.011-.025-.024-.049-.037-.073a1.273,1.273,0,0,0-1.265-.6,1.047,1.047,0,0,0-.635.275,2.145,2.145,0,0,0-.388.573l-.025.048c-.271.526-.508,1.068-.731,1.616s-.431,1.11-.634,1.669q-.592,1.63-1.122,3.281-.463,1.422-.9,2.853-.227.741-.447,1.484l-.015.05-.764.748c-.037,0,.081-1.674.165-2.813l.078-1.034,2.056-6.71,1.564-2.542.661-.751h1c.685.061,1.033.726,1.439,1.926Z" transform="translate(-700.54 -766.406)" fill="url(#linear-gradient-6)"/>
        <path id="Path_69" data-name="Path 69" d="M212.258,803.976H203.67c-.776-.073-1.1-.918-1.594-2.422l-.24-.732-5.7-19.763h9.512l2.793,9.684.082.285Z" transform="translate(-196.133 -766.406)" fill="url(#linear-gradient-7)"/>
        <path id="Path_70" data-name="Path 70" d="M358,1037.01l-.013.047-3.243,11.411-.669.589H352.9c-.776-.073-1.1-.918-1.594-2.422a3.2,3.2,0,0,0,.755.588,1.582,1.582,0,0,0,.506.175,1.063,1.063,0,0,0,.377-.007,1.206,1.206,0,0,0,.6-.33,2.482,2.482,0,0,0,.412-.659c.1-.193.186-.389.272-.586l.3-.7q.161-.4.313-.8.165-.434.324-.87.167-.458.328-.918c.11-.314,2.191-6.591,2.2-6.632l.062.214Z" transform="translate(-345.363 -1011.486)" fill="url(#linear-gradient-8)"/>
        <path id="Path_71" data-name="Path 71" d="M201.489,799.61a39.66,39.66,0,0,1,5-15.634l-.843-2.922h-9.512Z" transform="translate(-196.134 -766.403)" fill="url(#linear-gradient-9)"/>
        <path id="Path_72" data-name="Path 72" d="M409.858,784.347c-.056.178-4.7,16.212-4.74,16.335-.65,2.055-.964,3.205-1.879,3.292h-9.512c.915-.086,1.229-1.236,1.879-3.292.056-.178,4.714-16.157,4.771-16.335.65-2.055.964-3.205,1.879-3.292h9.481C410.822,781.141,410.508,782.291,409.858,784.347Z" transform="translate(-386.159 -766.403)" fill="url(#linear-gradient-10)"/>
        <path id="Path_73" data-name="Path 73" d="M398.247,803.973c1.167-2.212,2.111-4.526,3.186-6.789A38.683,38.683,0,0,1,405.9,790a43.193,43.193,0,0,1,3.427-3.826l.531-1.826c.65-2.055.964-3.205,1.879-3.292h-9.481c-.915.086-1.229,1.236-1.879,3.292-.056.178-4.714,16.157-4.771,16.335-.65,2.055-.964,3.205-1.879,3.292Z" transform="translate(-386.159 -766.403)" fill="url(#linear-gradient-11)"/>
      </g>
      <path id="Path_25644" data-name="Path 25644" d="M1.319,46.737l1.04-1.944h.267l-1.183,2.18v1.373H1.188V46.992L0,44.793H.284Zm6.4-.173A1.984,1.984,0,0,1,7.3,47.9a1.456,1.456,0,0,1-1.166.492A1.453,1.453,0,0,1,4.97,47.9a1.992,1.992,0,0,1-.423-1.342,1.958,1.958,0,0,1,.426-1.335,1.468,1.468,0,0,1,1.165-.487,1.452,1.452,0,0,1,1.164.49,1.986,1.986,0,0,1,.421,1.339Zm-2.906,0a1.82,1.82,0,0,0,.34,1.18,1.188,1.188,0,0,0,.977.417,1.2,1.2,0,0,0,.98-.413,1.822,1.822,0,0,0,.339-1.183,1.8,1.8,0,0,0-.339-1.177,1.194,1.194,0,0,0-.976-.409,1.2,1.2,0,0,0-.978.413,1.787,1.787,0,0,0-.339,1.173Zm7.942-1.771v2.3a1.274,1.274,0,0,1-.355.957,1.359,1.359,0,0,1-.989.345,1.2,1.2,0,0,1-1.31-1.312v-2.29h.25v2.3a.99.99,0,0,0,1.089,1.084.972.972,0,0,0,1.067-1.059V44.793Zm2.822,2v1.548h-.248V44.793h.846a1.593,1.593,0,0,1,.977.244.871.871,0,0,1,.316.735.961.961,0,0,1-.188.6,1.047,1.047,0,0,1-.572.352l.965,1.618h-.3l-.91-1.542Zm0-.214h.678a1.082,1.082,0,0,0,.7-.2.716.716,0,0,0,.248-.592.694.694,0,0,0-.243-.59,1.326,1.326,0,0,0-.792-.185H15.58Zm10.047,1.762h-.2l-.78-2.741q-.1-.338-.146-.554-.039.211-.111.486T23.6,48.346h-.2l-.977-3.552h.26l.622,2.289.068.256q.032.118.057.221t.046.2q.021.1.038.193.058-.33.248-1l.607-2.155h.275l.712,2.474q.124.428.177.69.032-.175.081-.372t.75-2.792h.25Zm6.2-1.781A1.984,1.984,0,0,1,31.4,47.9a1.625,1.625,0,0,1-2.33,0,1.992,1.992,0,0,1-.423-1.342,1.958,1.958,0,0,1,.426-1.335,1.468,1.468,0,0,1,1.165-.487,1.452,1.452,0,0,1,1.164.49,1.986,1.986,0,0,1,.428,1.341Zm-2.906,0a1.82,1.82,0,0,0,.34,1.18,1.362,1.362,0,0,0,1.957,0,1.822,1.822,0,0,0,.339-1.183,1.8,1.8,0,0,0-.339-1.177,1.366,1.366,0,0,0-1.954,0,1.787,1.787,0,0,0-.336,1.185Zm5.582.24v1.548h-.248V44.793H35.1a1.593,1.593,0,0,1,.977.244.871.871,0,0,1,.316.735.961.961,0,0,1-.188.6,1.047,1.047,0,0,1-.572.352l.965,1.618h-.3L35.384,46.8Zm0-.214h.678a1.082,1.082,0,0,0,.7-.2.716.716,0,0,0,.248-.592.694.694,0,0,0-.243-.59,1.326,1.326,0,0,0-.792-.185H34.5Zm6.705,1.762h-.3L39.541,46.47l-.474.418v1.458h-.248V44.793h.248V46.64l.394-.394,1.392-1.453h.316l-1.455,1.5Zm7.149-2.532a.944.944,0,0,1-.35.79,1.573,1.573,0,0,1-.991.275h-.549v1.468h-.248V44.793h.87q1.27,0,1.27,1.021Zm-1.89.85h.488a1.48,1.48,0,0,0,.867-.2.747.747,0,0,0,.267-.643.726.726,0,0,0-.253-.609,1.263,1.263,0,0,0-.782-.2h-.588Zm5.981.428H51l-.5,1.254h-.275l1.429-3.567h.158l1.4,3.567H52.94Zm-1.353-.224h1.271l-.484-1.281q-.061-.151-.146-.418a3.9,3.9,0,0,1-.143.423Zm4.484-.07v1.548H55.33V44.793h.846a1.593,1.593,0,0,1,.977.244.871.871,0,0,1,.316.735.96.96,0,0,1-.188.6,1.047,1.047,0,0,1-.572.352l.965,1.618h-.3L56.46,46.8Zm0-.214h.678a1.082,1.082,0,0,0,.7-.2.716.716,0,0,0,.248-.592.694.694,0,0,0-.243-.59,1.326,1.326,0,0,0-.792-.185h-.588Zm5.242,1.762h-.25V45.026H59.415v-.233h2.559v.233H60.82Zm5.872,0h-.25l-2.1-3.154h-.019q.029.564.029.85v2.3h-.238V44.793h.248l2.1,3.149h.015q-.022-.437-.022-.831V44.793h.241Zm4.555,0H69.3V44.793h1.941v.228H69.553v1.344h1.6v.228h-1.6v1.524h1.694ZM73.906,46.8v1.548h-.248V44.793H74.5a1.593,1.593,0,0,1,.977.244.871.871,0,0,1,.316.735.96.96,0,0,1-.188.6,1.047,1.047,0,0,1-.572.352L76,48.346h-.3L74.788,46.8Zm0-.214h.678a1.082,1.082,0,0,0,.7-.2.716.716,0,0,0,.248-.592.694.694,0,0,0-.243-.59,1.326,1.326,0,0,0-.792-.185h-.588Z" transform="translate(50.983 -12.759)" fill="#fff"/>
      <path id="Path_25645" data-name="Path 25645" d="M3636.96,815.384a1.248,1.248,0,1,0-.26.753,1.229,1.229,0,0,0,.26-.753Zm-1.775.629v-1.3h.668a.968.968,0,0,1,.284.032.3.3,0,0,1,.157.118.354.354,0,0,1,.06.21.348.348,0,0,1-.173.313.48.48,0,0,1-.14.051.392.392,0,0,1,.1.048.382.382,0,0,1,.064.068.51.51,0,0,1,.055.081l.194.376H3636l-.214-.4a.3.3,0,0,0-.073-.1.17.17,0,0,0-.1-.03h-.035v.526h-.4Zm.4-.771h.169a.608.608,0,0,0,.106-.018.106.106,0,0,0,.065-.041.116.116,0,0,0,.025-.075.119.119,0,0,0-.04-.1.241.241,0,0,0-.15-.034h-.176v.263Zm1.707.142a1.555,1.555,0,0,1-.329.958,1.584,1.584,0,0,1-.129.146,1.555,1.555,0,1,1,.462-1.1Z" transform="translate(-3502.564 -797.916)" fill="#fff"/>
    </g>
  </g>
</svg>
