<svg xmlns="http://www.w3.org/2000/svg" xmlns:xlink="http://www.w3.org/1999/xlink" width="250" height="147" viewBox="0 0 250 147">
  <defs>
    <linearGradient id="linear-gradient" y1="0.5" x2="1" y2="0.5" gradientUnits="objectBoundingBox">
      <stop offset="0" stop-color="#12395e"/>
      <stop offset="0.14" stop-color="#144b7a"/>
      <stop offset="0.31" stop-color="#175d96"/>
      <stop offset="0.49" stop-color="#196aaa"/>
      <stop offset="0.66" stop-color="#1a72b6"/>
      <stop offset="0.83" stop-color="#1b75ba"/>
    </linearGradient>
    <linearGradient id="linear-gradient-2" y1="0.5" x2="1" y2="0.5" gradientUnits="objectBoundingBox">
      <stop offset="0.3" stop-color="#fd5d23"/>
      <stop offset="1" stop-color="#fdb000"/>
    </linearGradient>
  </defs>
  <g id="placeholder" transform="translate(12595 5868)">
    <rect id="image" width="250" height="147" transform="translate(-12595 -5868)" fill="none"/>
    <g id="LOGO_DESIGN" data-name="LOGO DESIGN" transform="translate(-12572.156 -5826.929)" opacity="0.55">
      <g id="Web_logo" data-name="Web logo">
        <g id="Text_logo" data-name="Text logo" transform="translate(83.322 15.969)">
          <g id="Group_5554" data-name="Group 5554">
            <path id="Path_28700" data-name="Path 28700" d="M1096.98,272.2h0l4.678-23.422Z" transform="translate(-1080.563 -242.129)" fill="#12395e"/>
            <path id="Path_28701" data-name="Path 28701" d="M931.759,245.916l-.509,2.419c-1.018-1.909-2.991-2.7-5.474-2.7-5.155,0-9.357,4.232-9.357,9.961,0,5.028,3.564,7.86,7.288,7.86a7.132,7.132,0,0,0,4.583-1.559l-2.365,11.768h6.047l.864-4.322,4.682-23.422Zm-5.951,12.666a3.027,3.027,0,0,1-3.278-3.278,5.165,5.165,0,0,1,1.37-3.733,4,4,0,0,1,4.2-.839,2.892,2.892,0,0,1,.421.213c.044.026.087.055.129.084s.083.059.123.09a3.224,3.224,0,0,1,1.145,2.659C929.914,256.642,928.227,258.583,925.809,258.583Z" transform="translate(-916.42 -239.266)" fill="#12395e"/>
            <path id="Path_28702" data-name="Path 28702" d="M1338.48,261.39a7.371,7.371,0,0,1,1.378,1.1A7.335,7.335,0,0,0,1338.48,261.39Z" transform="translate(-1300.106 -253.593)" fill="#12395e"/>
            <path id="Path_28703" data-name="Path 28703" d="M1179.35,251.168c-.055-.194-.116-.384-.186-.568a6.882,6.882,0,0,0-.967-1.768c-.042-.057-.086-.114-.133-.17a6.465,6.465,0,0,0-.44-.5,7.327,7.327,0,0,0-1.378-1.1c-.056-.035-.115-.071-.174-.105q-.262-.154-.54-.291a11.081,11.081,0,0,0-4.915-1.037c-6.174,0-10.6,4.265-10.6,9.961,0,4.742,3.532,7.86,9.038,7.86,6.174,0,10.6-4.264,10.6-9.992A8.4,8.4,0,0,0,1179.35,251.168Zm-9.942,7.415a3,3,0,0,1-3.246-3.278,5.171,5.171,0,0,1,1.358-3.733,4.016,4.016,0,0,1,4.2-.839,2.84,2.84,0,0,1,.416.213c.044.026.086.055.128.084s.082.059.121.09a3.236,3.236,0,0,1,1.126,2.659C1173.513,256.642,1171.826,258.583,1169.408,258.583Z" transform="translate(-1137.871 -239.266)" fill="#12395e"/>
            <path id="Path_28704" data-name="Path 28704" d="M1403.208,182.567l-.063.35h4.073l-.891,4.52h-3.914l-2.418,12.093h-6.046l2.418-12.093h-2.546l.923-4.52h2.546l.127-.7c.8-3.946,3.5-6.587,8.115-6.587a8.6,8.6,0,0,1,4.169.923l-2.323,4.232a3.338,3.338,0,0,0-1.782-.509C1404.258,180.276,1403.558,181.008,1403.208,182.567Z" transform="translate(-1350.414 -175.63)" fill="#12395e"/>
            <path id="Path_28705" data-name="Path 28705" d="M1697.052,253.676a7.6,7.6,0,0,1,2.093,1.5A7.593,7.593,0,0,0,1697.052,253.676Zm-.379-.175q-.192-.085-.393-.16C1696.414,253.391,1696.544,253.444,1696.673,253.5Z" transform="translate(-1625.374 -246.275)" fill="#12395e"/>
            <path id="Path_28706" data-name="Path 28706" d="M1551.774,248.166a7.593,7.593,0,0,0-2.093-1.5c-.124-.062-.25-.12-.379-.175s-.259-.109-.393-.16a11.656,11.656,0,0,0-4.142-.7c-6.173,0-10.6,4.265-10.6,9.961,0,4.742,3.532,7.86,9.038,7.86,6.174,0,10.6-4.264,10.6-9.992a7.37,7.37,0,0,0-2.03-5.293Zm-8.217,10.417a3,3,0,0,1-3.246-3.278,5.171,5.171,0,0,1,1.357-3.733,4.014,4.014,0,0,1,4.2-.839,2.816,2.816,0,0,1,.417.213c.044.026.086.055.128.084s.082.059.121.09a3.236,3.236,0,0,1,1.126,2.659C1547.663,256.642,1545.976,258.583,1543.558,258.583Z" transform="translate(-1478.003 -239.266)" fill="#12395e"/>
            <path id="Path_28707" data-name="Path 28707" d="M1782.123,251.486a10.34,10.34,0,0,1-.223,2.132l-1.909,9.547h-6.046l1.782-8.975a5.027,5.027,0,0,0,.127-1.145c0-1.5-.764-2.291-2.387-2.291-2.068,0-3.5,1.24-4.042,3.882l-1.718,8.528h-6.047l3.438-17.249h5.728l-.35,1.782a7.86,7.86,0,0,1,5.41-2.068C1779.577,245.63,1782.123,247.635,1782.123,251.486Z" transform="translate(-1684.81 -239.266)" fill="#12395e"/>
            <path id="Path_28708" data-name="Path 28708" d="M2169.86,263.76a4.8,4.8,0,0,1,.564.706A4.7,4.7,0,0,0,2169.86,263.76Z" transform="translate(-2055.896 -255.747)" fill="#12395e"/>
            <path id="Path_28709" data-name="Path 28709" d="M2030.112,245.916l-.413,2.068h0a4.8,4.8,0,0,0-.564-.706,6.338,6.338,0,0,0-4.719-1.648c-5.155,0-9.356,4.232-9.356,9.961,0,5.028,3.564,7.86,7.287,7.86a7.08,7.08,0,0,0,5-1.909l-.349,1.623h5.728l3.437-17.249Zm-5.664,12.666a3.027,3.027,0,0,1-3.278-3.278,5.165,5.165,0,0,1,1.37-3.733,4,4,0,0,1,4.2-.839,2.935,2.935,0,0,1,.421.213c.044.026.087.055.129.084s.083.059.123.09a3.224,3.224,0,0,1,1.145,2.659C2028.553,256.641,2026.866,258.583,2024.448,258.583Z" transform="translate(-1915.17 -239.265)" fill="#12395e"/>
          </g>
          <g id="Group_5555" data-name="Group 5555" transform="translate(22.48 29.577)">
            <path id="Path_28710" data-name="Path 28710" d="M1167.75,507.981c0,.923-.77,1.394-1.935,1.394h-2.145l.891-4.455h1.973c.891,0,1.407.337,1.407.98a1.212,1.212,0,0,1-.821,1.177.891.891,0,0,1,.63.9Zm-.631.006c0-.452-.331-.611-.929-.611h-1.49l-.293,1.483h1.451C1166.661,508.86,1167.119,508.554,1167.119,507.988Zm-2.03-2.552-.286,1.426h1.3c.7,0,1.171-.286,1.171-.859,0-.388-.324-.566-.878-.566Z" transform="translate(-1163.67 -504.557)" fill="#1b75ba"/>
            <path id="Path_28711" data-name="Path 28711" d="M1239.28,516.82l-.668,3.373h-.586l.083-.433a1.65,1.65,0,0,1-1.209.471,1.082,1.082,0,0,1-1.209-1.133,2.168,2.168,0,0,1,.038-.388l.375-1.89h.611l-.376,1.9a1.581,1.581,0,0,0-.032.286c0,.433.255.681.77.681a1.2,1.2,0,0,0,1.235-1.076l.356-1.788Z" transform="translate(-1229.142 -515.375)" fill="#1b75ba"/>
            <path id="Path_28712" data-name="Path 28712" d="M1292.811,516.82l-2.393,3.742c-.439.687-.783.9-1.311.9a1.214,1.214,0,0,1-.847-.3l.318-.452a.786.786,0,0,0,.573.229c.28,0,.484-.127.726-.5l.172-.267-.815-3.354h.611l.649,2.7,1.7-2.7Z" transform="translate(-1276.932 -515.375)" fill="#1b75ba"/>
            <path id="Path_28713" data-name="Path 28713" d="M1393.547,508.1l.458.566-.407.4-.452-.56a2.344,2.344,0,0,1-1.521.541c-.878,0-1.445-.407-1.445-1.05s.439-1.057,1.343-1.489a1.426,1.426,0,0,1-.331-.853,1.173,1.173,0,0,1,1.311-1.152c.611,0,1.037.306,1.037.821,0,.56-.395.91-1.2,1.292l.878,1.082a3.386,3.386,0,0,0,.439-.815l.477.159A3.883,3.883,0,0,1,1393.547,508.1Zm-.719.013-1.018-1.247c-.732.35-1.018.624-1.018,1.031,0,.376.305.643.872.643A1.8,1.8,0,0,0,1392.828,508.109Zm-1.076-2.514a1.094,1.094,0,0,0,.305.668c.745-.35.961-.56.961-.891,0-.242-.2-.426-.535-.426A.65.65,0,0,0,1391.752,505.595Z" transform="translate(-1369.585 -504.175)" fill="#1b75ba"/>
            <path id="Path_28714" data-name="Path 28714" d="M1490.63,508.376l.28-.509a2.2,2.2,0,0,0,1.445.509c.719,0,1.2-.274,1.2-.757,0-.929-2.285-.452-2.285-1.878,0-.853.764-1.381,1.852-1.381a2.645,2.645,0,0,1,1.432.376l-.255.522a2.084,2.084,0,0,0-1.209-.356c-.732,0-1.2.312-1.2.783,0,.936,2.285.49,2.285,1.846,0,.866-.777,1.387-1.884,1.387A2.607,2.607,0,0,1,1490.63,508.376Z" transform="translate(-1460.902 -504.048)" fill="#1b75ba"/>
            <path id="Path_28715" data-name="Path 28715" d="M1554.438,518.379v.038c0,.617.344.961,1.069.961a1.51,1.51,0,0,0,1.044-.388l.261.439a2.006,2.006,0,0,1-1.356.484,1.439,1.439,0,0,1-1.617-1.464,1.88,1.88,0,0,1,1.9-1.979,1.381,1.381,0,0,1,1.509,1.458,2.525,2.525,0,0,1-.045.452Zm.064-.446h2.177a.859.859,0,0,0-.961-.955A1.22,1.22,0,0,0,1554.5,517.934Z" transform="translate(-1518.365 -515.057)" fill="#1b75ba"/>
            <path id="Path_28716" data-name="Path 28716" d="M1615.122,501.98h.611l-.942,4.723h-.611Z" transform="translate(-1573.219 -501.885)" fill="#1b75ba"/>
            <path id="Path_28717" data-name="Path 28717" d="M1652.152,501.98h.611l-.942,4.723h-.611Z" transform="translate(-1606.882 -501.885)" fill="#1b75ba"/>
            <path id="Path_28718" data-name="Path 28718" d="M1721.834,508.261h-2.38l-.706,1.114h-.687l2.915-4.455h.63l1.126,4.455h-.63Zm-.127-.509-.528-2.2-1.4,2.2Z" transform="translate(-1667.654 -504.557)" fill="#1b75ba"/>
            <path id="Path_28719" data-name="Path 28719" d="M1796.925,517.59a2.225,2.225,0,0,1-.038.395l-.375,1.89h-.611l.375-1.89a1.577,1.577,0,0,0,.032-.28c0-.439-.255-.687-.783-.687a1.189,1.189,0,0,0-1.247,1.076l-.356,1.782h-.611l.668-3.373h.586l-.083.433a1.655,1.655,0,0,1,1.222-.465,1.071,1.071,0,0,1,1.222,1.12Z" transform="translate(-1736.062 -515.057)" fill="#1b75ba"/>
            <path id="Path_28720" data-name="Path 28720" d="M1852.46,516.82l-2.393,3.742c-.439.687-.783.9-1.311.9a1.213,1.213,0,0,1-.846-.3l.318-.452a.786.786,0,0,0,.573.229c.28,0,.484-.127.725-.5l.172-.267-.815-3.354h.611l.649,2.7,1.7-2.7Z" transform="translate(-1785.698 -515.375)" fill="#1b75ba"/>
            <path id="Path_28721" data-name="Path 28721" d="M1917.181,511.736a.9.9,0,0,0-.019.178.387.387,0,0,0,.446.42.845.845,0,0,0,.484-.159l.127.465a1.369,1.369,0,0,1-.783.21.814.814,0,0,1-.891-.846,1.234,1.234,0,0,1,.025-.255l.363-1.808h-.573l.1-.5h.579l.146-.738h.611l-.146.738h.968l-.1.5h-.967Z" transform="translate(-1847.924 -507.994)" fill="#1b75ba"/>
            <path id="Path_28722" data-name="Path 28722" d="M1965.555,504.408a2.225,2.225,0,0,1-.038.395l-.375,1.89h-.611l.376-1.89a1.587,1.587,0,0,0,.032-.28c0-.439-.255-.687-.783-.687a1.19,1.19,0,0,0-1.247,1.076l-.356,1.782h-.611l.942-4.723h.611l-.35,1.744a1.678,1.678,0,0,1,1.19-.426,1.071,1.071,0,0,1,1.222,1.12Z" transform="translate(-1889.36 -501.875)" fill="#1b75ba"/>
            <path id="Path_28723" data-name="Path 28723" d="M2027.768,502.375h.611l-.668,3.373h-.611Zm.1-1.018a.422.422,0,0,1,.439-.426.372.372,0,0,1,.388.356.423.423,0,0,1-.446.439A.368.368,0,0,1,2027.87,501.356Z" transform="translate(-1948.596 -500.93)" fill="#1b75ba"/>
            <path id="Path_28724" data-name="Path 28724" d="M2067.755,517.59a2.237,2.237,0,0,1-.038.395l-.375,1.89h-.611l.375-1.89a1.578,1.578,0,0,0,.032-.28c0-.439-.255-.687-.783-.687a1.189,1.189,0,0,0-1.247,1.076l-.356,1.782h-.611l.668-3.373h.585l-.083.433a1.656,1.656,0,0,1,1.222-.465A1.071,1.071,0,0,1,2067.755,517.59Z" transform="translate(-1982.268 -515.057)" fill="#1b75ba"/>
            <path id="Path_28725" data-name="Path 28725" d="M2131,516.5l-.579,2.915a1.851,1.851,0,0,1-2.017,1.731,2.369,2.369,0,0,1-1.54-.477l.337-.471a1.875,1.875,0,0,0,1.248.407,1.207,1.207,0,0,0,1.343-1.095l.051-.242a1.719,1.719,0,0,1-1.222.465,1.353,1.353,0,0,1-1.5-1.375,1.851,1.851,0,0,1,1.922-1.89,1.323,1.323,0,0,1,1.26.649l.121-.617Zm-.937,1.375c0-.541-.369-.872-1.005-.872a1.275,1.275,0,0,0-1.324,1.317c0,.547.375.878,1.006.878A1.277,1.277,0,0,0,2130.061,517.877Z" transform="translate(-2039.286 -515.057)" fill="#1b75ba"/>
          </g>
        </g>
        <g id="iconic_logo" data-name="iconic logo">
          <g id="Group_5560" data-name="Group 5560">
            <g id="Group_5557" data-name="Group 5557">
              <path id="Path_28726" data-name="Path 28726" d="M56.153,225.826A35.446,35.446,0,0,1,0,206.595L2.512,185.31h48.86l1.2,10.181,3.58,30.334Z" transform="translate(0 -168.461)" fill="url(#linear-gradient)"/>
              <g id="Group_5556" data-name="Group 5556" transform="translate(9.057)">
                <path id="Path_28727" data-name="Path 28727" d="M436.632,214.43a2.821,2.821,0,1,1-2.822-2.82A2.82,2.82,0,0,1,436.632,214.43Z" transform="translate(-400.86 -192.37)" fill="#fff"/>
                <path id="Path_28728" data-name="Path 28728" d="M105.252,214.43a2.821,2.821,0,1,1-2.82-2.82A2.819,2.819,0,0,1,105.252,214.43Z" transform="translate(-99.61 -192.37)" fill="#fff"/>
                <path id="Path_28729" data-name="Path 28729" d="M148.413,16.438V22.06a1.372,1.372,0,1,1-2.744,0V16.438a13.691,13.691,0,1,0-27.383,0V22.06a1.373,1.373,0,1,1-2.746,0V16.438a16.436,16.436,0,0,1,31.64-6.246,16.287,16.287,0,0,1,.856,2.738A16.468,16.468,0,0,1,148.413,16.438Z" transform="translate(-114.092)" fill="#12395e"/>
              </g>
            </g>
            <g id="Group_5559" data-name="Group 5559" transform="translate(14.57 10.18)">
              <path id="Path_28730" data-name="Path 28730" d="M214.241,308.983a35.451,35.451,0,0,1-53.991,20.1L164,297.29h48.859l1.38,11.693Z" transform="translate(-160.25 -280.44)" fill="url(#linear-gradient-2)"/>
              <g id="Group_5558" data-name="Group 5558" transform="translate(10.294)">
                <path id="Path_28731" data-name="Path 28731" d="M610.5,326.411a2.821,2.821,0,1,1-2.821-2.821A2.821,2.821,0,0,1,610.5,326.411Z" transform="translate(-574.729 -304.349)" fill="#fff"/>
                <path id="Path_28732" data-name="Path 28732" d="M279.112,326.411a2.821,2.821,0,1,1-2.82-2.821A2.82,2.82,0,0,1,279.112,326.411Z" transform="translate(-273.47 -304.349)" fill="#fff"/>
                <path id="Path_28733" data-name="Path 28733" d="M322.285,128.408v5.624a1.374,1.374,0,0,1-2.748,0v-5.624a13.705,13.705,0,0,0-13.44-13.689l-.251,0a13.708,13.708,0,0,0-13.691,13.692v5.624a1.373,1.373,0,0,1-2.746,0v-5.624a16.428,16.428,0,0,1,15.831-16.427q.3-.011.606-.011A16.457,16.457,0,0,1,322.285,128.408Z" transform="translate(-287.961 -111.97)" fill="#12395e"/>
              </g>
            </g>
            <path id="Path_28734" data-name="Path 28734" d="M67.181,27.03H59.189v-.412A16.457,16.457,0,0,0,42.75,10.18q-.3,0-.606.011a16.436,16.436,0,0,0-31.64,6.246v.411H2.512L0,38.133a35.449,35.449,0,0,0,68.561.589L67.181,27.03ZM33.168,16.849a13.668,13.668,0,0,1,7.068-3.691,13.639,13.639,0,0,1,.4,3.28v.411H33.168Zm-19.917-.411A13.691,13.691,0,0,1,39.3,10.545a16.471,16.471,0,0,0-9.76,6.3H13.251v-.411Zm38.122.411H43.378v-.411A16.468,16.468,0,0,0,43,12.929a13.705,13.705,0,0,1,13.44,13.689v.412H52.574Z" fill="none"/>
          </g>
          <g id="Group_5561" data-name="Group 5561" transform="translate(28.506 45.518)">
            <path id="Path_28735" data-name="Path 28735" d="M317.171,512.362a.939.939,0,0,1-.266-.743l.006-2.528a4.387,4.387,0,0,0-.5.023,3.92,3.92,0,0,1-.45.023,7.489,7.489,0,0,1-1.287-.09,1.554,1.554,0,0,1-.742-.31,1.038,1.038,0,0,1-.338-.609,5.1,5.1,0,0,1-.076-.987,5.941,5.941,0,0,1,.176-1.177,1.335,1.335,0,0,1,.475-.717,2.505,2.505,0,0,1,1-.408,14.326,14.326,0,0,1,1.754-.233l0-1.407a7.828,7.828,0,0,1,.09-1.3,1.448,1.448,0,0,1,.366-.789,1.475,1.475,0,0,1,.791-.385,7.244,7.244,0,0,1,1.367-.1,7.049,7.049,0,0,1,.861.049,1.673,1.673,0,0,1,.656.207,1.078,1.078,0,0,1,.417.451,1.73,1.73,0,0,1,.148.783,1.618,1.618,0,0,1-.485,1.278,1.946,1.946,0,0,1-1.336.424.987.987,0,0,1-.332-.056c-.105-.037-.211-.072-.315-.1v-.316a1.148,1.148,0,0,0,.348.127,1.584,1.584,0,0,0,.285.032c.179,0,.308-.128.388-.386a3.487,3.487,0,0,0,.121-1,2.052,2.052,0,0,0-.179-1.043.648.648,0,0,0-.576-.27.569.569,0,0,0-.347.094.6.6,0,0,0-.19.347,3.561,3.561,0,0,0-.081.711q-.018.458-.018,1.169l0,1.485q.631,0,1.082.018c.3.011.558.028.774.049a2.874,2.874,0,0,1,.553.1,2.8,2.8,0,0,1,.418.167,1.14,1.14,0,0,1,.552.609,3.331,3.331,0,0,1,.155,1.162,2.6,2.6,0,0,1-.208,1.129,1.382,1.382,0,0,1-.649.638,3.065,3.065,0,0,1-.458.212,3.817,3.817,0,0,1-.554.149,7.182,7.182,0,0,1-.727.1q-.41.038-.948.085l-.006,2.544q0,1.027-.966,1.025a1.075,1.075,0,0,1-.742-.239Zm-.251-7.584a1.254,1.254,0,0,0-1.138.526,3.436,3.436,0,0,0-.288,1.618,2.928,2.928,0,0,0,.3,1.517,1.223,1.223,0,0,0,1.12.476l.01-4.139Zm1.966,4.033a2.171,2.171,0,0,0,.735-.1.865.865,0,0,0,.436-.346,1.549,1.549,0,0,0,.207-.663,9.542,9.542,0,0,0,.05-1.035,2.541,2.541,0,0,0-.313-1.486.862.862,0,0,0-.386-.285,2.1,2.1,0,0,0-.718-.1l-.009,4.012Z" transform="translate(-313.52 -500.629)" fill="#fff"/>
            <path id="Path_28736" data-name="Path 28736" d="M432.676,523.795l.758,0,0-1.658,1.137,0a.666.666,0,0,1,.268.064.91.91,0,0,1,.268.19,1.13,1.13,0,0,1,.213.308.97.97,0,0,1,.086.419.951.951,0,0,1-.286.727.829.829,0,0,1-.554.267l-5.387-.013a1.678,1.678,0,0,1-1.247-.4,1.944,1.944,0,0,1-.376-1.359l.015-6a9.68,9.68,0,0,1,.115-1.658,1.456,1.456,0,0,1,.476-.9,1.953,1.953,0,0,1,1.059-.369q.7-.07,1.865-.066l3.176.007a2.171,2.171,0,0,1,.514.056.755.755,0,0,1,.378.215,1.033,1.033,0,0,1,.228.443,2.787,2.787,0,0,1,.077.726,6.109,6.109,0,0,1-.057.917.939.939,0,0,1-.246.536,1.02,1.02,0,0,1-.569.252,6.38,6.38,0,0,1-1.011.061,4.907,4.907,0,0,1-.932-.074,1.224,1.224,0,0,1-.56-.238.869.869,0,0,1-.275-.451,2.6,2.6,0,0,1-.077-.7l0-1.153a.338.338,0,0,0-.095-.221.522.522,0,0,0-.395-.112h-.285a2.224,2.224,0,0,0-.727.093.789.789,0,0,0-.427.37,1.985,1.985,0,0,0-.207.782q-.049.506-.051,1.327l-.014,5.687c0,.369.006.674.022.916a1.378,1.378,0,0,0,.141.577.676.676,0,0,0,.386.309,2.314,2.314,0,0,0,.742.1l.007-3.191a.943.943,0,0,0-.18-.7.532.532,0,0,0-.324-.159,1.279,1.279,0,0,0-.308.046,1.015,1.015,0,0,0-.4.252v-.268a2.506,2.506,0,0,1,.689-.433,2.2,2.2,0,0,1,.877-.164,2.7,2.7,0,0,1,.608.065,1.116,1.116,0,0,1,.474.23,1.086,1.086,0,0,1,.307.475,2.377,2.377,0,0,1,.109.782l-.007,3.08Zm1.46-9.429a1.29,1.29,0,0,0-.109-.529.451.451,0,0,0-.457-.246q-.331,0-.4.252a1.977,1.977,0,0,0-.073.537l0,1.011c0,.116,0,.229.015.34a1.213,1.213,0,0,0,.063.3.473.473,0,0,0,.142.214.412.412,0,0,0,.268.08.43.43,0,0,0,.443-.276,1.709,1.709,0,0,0,.112-.639l0-1.043Z" transform="translate(-417.191 -512.192)" fill="#fff"/>
            <path id="Path_28737" data-name="Path 28737" d="M532.531,513.54l0,1.232a.823.823,0,0,1-.3.71,1.627,1.627,0,0,1-1.651-.012.836.836,0,0,1-.306-.719l0-.979-.569,0a6.634,6.634,0,0,0-.94.053,1.1,1.1,0,0,0-.554.22.852.852,0,0,0-.27.481,3.855,3.855,0,0,0-.073.821l-.005,2.339a4.964,4.964,0,0,0,.045.75,1.155,1.155,0,0,0,.157.458.607.607,0,0,0,.3.237,1.363,1.363,0,0,0,.474.072l2.512.006a1.32,1.32,0,0,1,.561.1q.2.1.2.458l-.008,3.38a1.274,1.274,0,0,1-.239.916,1.006,1.006,0,0,1-.711.219,1.023,1.023,0,0,1-.757-.255,1.289,1.289,0,0,1-.251-.917l.007-3.018c0-.316-.167-.475-.5-.476l-2.622-.006a1.04,1.04,0,0,1-.875-.357,2.014,2.014,0,0,1-.274-1.209l0-1.8a8.741,8.741,0,0,1,.1-1.437,1.389,1.389,0,0,1,.413-.82,1.707,1.707,0,0,1,.917-.369,11.711,11.711,0,0,1,1.612-.083l3.618.008Z" transform="translate(-506.563 -512.356)" fill="#fff"/>
          </g>
        </g>
      </g>
    </g>
  </g>
</svg>
