<svg id="splashlogo" xmlns="http://www.w3.org/2000/svg" xmlns:xlink="http://www.w3.org/1999/xlink" width="150.061" height="150" viewBox="0 0 150.061 150">
  <defs>
    <linearGradient id="linear-gradient" y1="0.5" x2="1" y2="0.5" gradientUnits="objectBoundingBox">
      <stop offset="0" stop-color="#12395e"/>
      <stop offset="0.14" stop-color="#144b7a"/>
      <stop offset="0.31" stop-color="#175d96"/>
      <stop offset="0.49" stop-color="#196aaa"/>
      <stop offset="0.66" stop-color="#1a72b6"/>
      <stop offset="0.83" stop-color="#1b75ba"/>
    </linearGradient>
    <linearGradient id="linear-gradient-2" y1="0.5" x2="1" y2="0.5" gradientUnits="objectBoundingBox">
      <stop offset="0.3" stop-color="#fd5d23"/>
      <stop offset="1" stop-color="#fdb000"/>
    </linearGradient>
  </defs>
  <path id="Path_16369" data-name="Path 16369" d="M115.724,4.568l12.222,1.248a34.989,34.989,0,0,1,31.262,31.248l1.247,12.219a283.606,283.606,0,0,1,0,57.638l-1.247,12.216a34.993,34.993,0,0,1-31.262,31.25l-12.222,1.245a283.83,283.83,0,0,1-57.661,0L45.84,150.388a34.991,34.991,0,0,1-31.261-31.25l-1.248-12.216a283.756,283.756,0,0,1,0-57.638l1.248-12.219A34.988,34.988,0,0,1,45.84,5.816L58.062,4.568a283.84,283.84,0,0,1,57.662,0Z" transform="translate(-11.864 -3.1)" fill="#fff" fill-rule="evenodd"/>
  <g id="LOGO_DESIGN" data-name="LOGO DESIGN" transform="translate(19.529 23.757)">
    <g id="qofona">
      <g id="Textlogo" transform="translate(0 69.764)">
        <g id="title">
          <path id="Path_28660" data-name="Path 28660" d="M19.357,906.612l-5.088,25.453H8.721l2.169-10.8a6.542,6.542,0,0,1-4.2,1.431C3.27,922.7,0,920.1,0,915.488c0-5.255,3.854-9.138,8.583-9.138,2.277,0,4.087.73,5.022,2.482l.467-2.219h5.284ZM8.613,918.232c2.219,0,3.766-1.781,3.766-4.409a2.8,2.8,0,0,0-3.007-3.036c-2.19,0-3.766,1.781-3.766,4.438a2.777,2.777,0,0,0,3.007,3.007Z" transform="translate(0 -900.51)" fill="#12395e"/>
          <path id="Path_28661" data-name="Path 28661" d="M243.6,915.478c0-5.226,4.058-9.138,9.722-9.138,5.051,0,8.291,2.832,8.291,7.182,0,5.255-4.058,9.167-9.722,9.167C246.841,922.689,243.6,919.828,243.6,915.478Zm12.379-1.664A2.777,2.777,0,0,0,253,910.778c-2.219,0-3.766,1.781-3.766,4.438a2.755,2.755,0,0,0,2.978,3.007C254.431,918.223,255.979,916.442,255.979,913.814Z" transform="translate(-223.28 -900.501)" fill="#12395e"/>
          <path id="Path_28662" data-name="Path 28662" d="M486.013,842.7l-.058.321h3.737l-.818,4.146h-3.591l-2.219,11.094h-5.547l2.219-11.094H477.4l.847-4.146h2.336l.117-.642a7.043,7.043,0,0,1,7.445-6.043,7.887,7.887,0,0,1,3.825.847l-2.131,3.883a3.062,3.062,0,0,0-1.635-.467c-1.226,0-1.868.672-2.19,2.1Z" transform="translate(-437.578 -836.34)" fill="#12395e"/>
          <path id="Path_28663" data-name="Path 28663" d="M617.74,915.478c0-5.226,4.058-9.138,9.722-9.138,5.051,0,8.292,2.832,8.292,7.182,0,5.255-4.058,9.167-9.722,9.167C620.981,922.689,617.74,919.828,617.74,915.478Zm12.379-1.664a2.777,2.777,0,0,0-2.978-3.036c-2.219,0-3.766,1.781-3.766,4.438a2.755,2.755,0,0,0,2.978,3.007C628.571,918.223,630.119,916.442,630.119,913.814Z" transform="translate(-566.211 -900.501)" fill="#12395e"/>
          <path id="Path_28664" data-name="Path 28664" d="M864.013,911.712a9.484,9.484,0,0,1-.2,1.956l-1.752,8.759h-5.547l1.635-8.233a4.629,4.629,0,0,0,.117-1.051c0-1.372-.7-2.1-2.19-2.1-1.9,0-3.211,1.139-3.708,3.562l-1.577,7.824H845.24l3.153-15.824h5.255l-.321,1.635a7.211,7.211,0,0,1,4.963-1.9c3.387,0,5.722,1.839,5.722,5.372Z" transform="translate(-774.734 -900.501)" fill="#12395e"/>
          <path id="Path_28665" data-name="Path 28665" d="M1118,906.6l-3.153,15.824h-5.255l.321-1.489a6.5,6.5,0,0,1-4.584,1.752c-3.416,0-6.686-2.6-6.686-7.211,0-5.255,3.854-9.138,8.583-9.138,2.131,0,3.854.642,4.846,2.16l.38-1.9Zm-6.978,7.211a2.8,2.8,0,0,0-3.007-3.036c-2.19,0-3.766,1.781-3.766,4.438a2.777,2.777,0,0,0,3.007,3.007C1109.471,918.222,1111.019,916.442,1111.019,913.814Z" transform="translate(-1006.996 -900.501)" fill="#12395e"/>
        </g>
        <g id="title-2" data-name="title">
          <path id="Path_28666" data-name="Path 28666" d="M19.357,906.6l-4.292,21.488H9.518l1.372-6.832a6.542,6.542,0,0,1-4.2,1.431c-3.416,0-6.686-2.6-6.686-7.211,0-5.255,3.854-9.138,8.583-9.138,2.277,0,4.087.73,5.022,2.482l.467-2.219h5.284ZM8.613,918.222c2.219,0,3.766-1.781,3.766-4.409a2.8,2.8,0,0,0-3.007-3.036c-2.19,0-3.766,1.781-3.766,4.438a2.777,2.777,0,0,0,3.007,3.007Z" transform="translate(0 -900.501)" fill="#12395e"/>
          <path id="Path_28667" data-name="Path 28667" d="M243.6,915.478c0-5.226,4.058-9.138,9.722-9.138,5.051,0,8.291,2.832,8.291,7.182,0,5.255-4.058,9.167-9.722,9.167C246.841,922.689,243.6,919.828,243.6,915.478Zm12.379-1.664A2.777,2.777,0,0,0,253,910.778c-2.219,0-3.766,1.781-3.766,4.438a2.755,2.755,0,0,0,2.978,3.007C254.431,918.223,255.979,916.442,255.979,913.814Z" transform="translate(-223.28 -900.501)" fill="#12395e"/>
          <path id="Path_28668" data-name="Path 28668" d="M486.013,842.7l-.058.321h3.737l-.818,4.146h-3.591l-2.219,11.094h-5.547l2.219-11.094H477.4l.847-4.146h2.336l.117-.642a7.043,7.043,0,0,1,7.445-6.043,7.887,7.887,0,0,1,3.825.847l-2.131,3.883a3.062,3.062,0,0,0-1.635-.467c-1.226,0-1.868.672-2.19,2.1Z" transform="translate(-437.578 -836.34)" fill="#12395e"/>
          <path id="Path_28669" data-name="Path 28669" d="M617.74,915.478c0-5.226,4.058-9.138,9.722-9.138,5.051,0,8.292,2.832,8.292,7.182,0,5.255-4.058,9.167-9.722,9.167C620.981,922.689,617.74,919.828,617.74,915.478Zm12.379-1.664a2.777,2.777,0,0,0-2.978-3.036c-2.219,0-3.766,1.781-3.766,4.438a2.755,2.755,0,0,0,2.978,3.007C628.571,918.223,630.119,916.442,630.119,913.814Z" transform="translate(-566.211 -900.501)" fill="#12395e"/>
          <path id="Path_28670" data-name="Path 28670" d="M864.013,911.712a9.484,9.484,0,0,1-.2,1.956l-1.752,8.759h-5.547l1.635-8.233a4.629,4.629,0,0,0,.117-1.051c0-1.372-.7-2.1-2.19-2.1-1.9,0-3.211,1.139-3.708,3.562l-1.577,7.824H845.24l3.153-15.824h5.255l-.321,1.635a7.211,7.211,0,0,1,4.963-1.9c3.387,0,5.722,1.839,5.722,5.372Z" transform="translate(-774.734 -900.501)" fill="#12395e"/>
          <path id="Path_28671" data-name="Path 28671" d="M1118,906.6l-3.153,15.824h-5.255l.321-1.489a6.5,6.5,0,0,1-4.584,1.752c-3.416,0-6.686-2.6-6.686-7.211,0-5.255,3.854-9.138,8.583-9.138,2.131,0,3.854.642,4.846,2.16l.38-1.9Zm-6.978,7.211a2.8,2.8,0,0,0-3.007-3.036c-2.19,0-3.766,1.781-3.766,4.438a2.777,2.777,0,0,0,3.007,3.007C1109.471,918.222,1111.019,916.442,1111.019,913.814Z" transform="translate(-1006.996 -900.501)" fill="#12395e"/>
        </g>
        <g id="tagline" transform="translate(20.624 27.134)">
          <path id="Path_28672" data-name="Path 28672" d="M250.983,1168.428c0,.847-.707,1.279-1.775,1.279H247.24l.817-4.087h1.81c.817,0,1.29.31,1.29.9a1.112,1.112,0,0,1-.753,1.08A.818.818,0,0,1,250.983,1168.428Zm-.578.006c0-.415-.3-.561-.853-.561h-1.366l-.269,1.361h1.331C249.984,1169.234,250.4,1168.954,250.4,1168.434Zm-1.863-2.341-.263,1.308h1.2c.642,0,1.074-.263,1.074-.788,0-.356-.3-.52-.806-.52Z" transform="translate(-247.24 -1165.287)" fill="#1b75ba"/>
          <path id="Path_28673" data-name="Path 28673" d="M322.563,1177.52l-.613,3.095h-.537l.076-.4a1.515,1.515,0,0,1-1.109.432.992.992,0,0,1-1.109-1.039,1.986,1.986,0,0,1,.035-.356l.345-1.734h.561l-.344,1.74a1.445,1.445,0,0,0-.029.263c0,.4.234.625.707.625a1.1,1.1,0,0,0,1.133-.987l.327-1.641Z" transform="translate(-313.262 -1176.195)" fill="#1b75ba"/>
          <path id="Path_28674" data-name="Path 28674" d="M376.015,1177.52l-2.2,3.433c-.4.631-.718.829-1.2.829a1.113,1.113,0,0,1-.777-.274l.292-.415a.721.721,0,0,0,.526.21c.257,0,.444-.117.666-.461l.158-.245-.747-3.077h.561l.6,2.476,1.559-2.476Z" transform="translate(-361.446 -1176.195)" fill="#1b75ba"/>
          <path id="Path_28675" data-name="Path 28675" d="M476.849,1168.5l.42.52-.374.368-.415-.514a2.151,2.151,0,0,1-1.4.5c-.806,0-1.325-.374-1.325-.963s.4-.969,1.232-1.366a1.308,1.308,0,0,1-.3-.782,1.076,1.076,0,0,1,1.2-1.057c.561,0,.952.28.952.753,0,.514-.362.835-1.1,1.185l.806.993a3.1,3.1,0,0,0,.4-.747l.438.146A3.559,3.559,0,0,1,476.849,1168.5Zm-.66.012-.934-1.144c-.672.321-.934.572-.934.946,0,.344.28.59.8.59A1.656,1.656,0,0,0,476.189,1168.511Zm-.987-2.306a1,1,0,0,0,.28.613c.683-.321.882-.514.882-.818,0-.222-.181-.391-.49-.391A.6.6,0,0,0,475.2,1166.2Z" transform="translate(-454.865 -1164.902)" fill="#1b75ba"/>
          <path id="Path_28676" data-name="Path 28676" d="M574.2,1168.745l.257-.467a2.019,2.019,0,0,0,1.326.467c.66,0,1.1-.251,1.1-.695,0-.853-2.1-.415-2.1-1.723,0-.782.7-1.267,1.7-1.267a2.428,2.428,0,0,1,1.314.344l-.234.479a1.912,1.912,0,0,0-1.109-.327c-.671,0-1.1.286-1.1.718,0,.858,2.1.45,2.1,1.693,0,.794-.712,1.273-1.728,1.273A2.391,2.391,0,0,1,574.2,1168.745Z" transform="translate(-546.927 -1164.774)" fill="#1b75ba"/>
          <path id="Path_28677" data-name="Path 28677" d="M637.959,1178.922v.035c0,.566.315.882.981.882a1.386,1.386,0,0,0,.958-.356l.239.4a1.84,1.84,0,0,1-1.244.444,1.32,1.32,0,0,1-1.483-1.343,1.725,1.725,0,0,1,1.746-1.816,1.267,1.267,0,0,1,1.384,1.337,2.323,2.323,0,0,1-.041.415h-2.54Zm.058-.409h2a.788.788,0,0,0-.882-.876A1.12,1.12,0,0,0,638.017,1178.513Z" transform="translate(-604.864 -1175.874)" fill="#1b75ba"/>
          <path id="Path_28678" data-name="Path 28678" d="M698.614,1162.68h.561l-.864,4.333h-.561Z" transform="translate(-660.171 -1162.592)" fill="#1b75ba"/>
          <path id="Path_28679" data-name="Path 28679" d="M735.644,1162.68h.561l-.864,4.333h-.561Z" transform="translate(-694.112 -1162.592)" fill="#1b75ba"/>
          <path id="Path_28680" data-name="Path 28680" d="M805.1,1168.685h-2.184l-.648,1.022h-.631l2.674-4.087h.578l1.034,4.087h-.578Zm-.117-.467-.485-2.014-1.285,2.014Z" transform="translate(-755.395 -1165.287)" fill="#1b75ba"/>
          <path id="Path_28681" data-name="Path 28681" d="M880.207,1178.2a2.045,2.045,0,0,1-.035.362l-.344,1.734h-.561l.344-1.734a1.443,1.443,0,0,0,.029-.257c0-.4-.234-.631-.718-.631a1.091,1.091,0,0,0-1.144.987l-.327,1.635h-.561l.613-3.095h.537l-.076.4a1.519,1.519,0,0,1,1.121-.426A.983.983,0,0,1,880.207,1178.2Z" transform="translate(-824.368 -1175.874)" fill="#1b75ba"/>
          <path id="Path_28682" data-name="Path 28682" d="M935.665,1177.52l-2.2,3.433c-.4.631-.718.829-1.2.829a1.113,1.113,0,0,1-.777-.274l.292-.415a.721.721,0,0,0,.526.21c.257,0,.444-.117.666-.461l.158-.245-.747-3.077h.561l.6,2.476,1.559-2.476Z" transform="translate(-874.413 -1176.195)" fill="#1b75ba"/>
          <path id="Path_28683" data-name="Path 28683" d="M1000.693,1172.185a.824.824,0,0,0-.018.164.355.355,0,0,0,.409.385.776.776,0,0,0,.444-.146l.117.426a1.256,1.256,0,0,1-.718.193.747.747,0,0,1-.817-.777,1.131,1.131,0,0,1,.023-.234l.333-1.658h-.526l.088-.461h.531l.134-.677h.561l-.134.677h.888l-.093.461h-.888Z" transform="translate(-937.153 -1168.752)" fill="#1b75ba"/>
          <path id="Path_28684" data-name="Path 28684" d="M1048.827,1164.907a2.038,2.038,0,0,1-.035.362l-.344,1.734h-.561l.344-1.734a1.438,1.438,0,0,0,.029-.257c0-.4-.234-.631-.718-.631a1.091,1.091,0,0,0-1.144.987l-.327,1.635h-.561l.864-4.333h.561l-.321,1.6a1.54,1.54,0,0,1,1.092-.391.983.983,0,0,1,1.121,1.028Z" transform="translate(-978.922 -1162.583)" fill="#1b75ba"/>
          <path id="Path_28685" data-name="Path 28685" d="M1111.293,1162.955h.561l-.613,3.095h-.561Zm.094-.934a.387.387,0,0,1,.4-.391.341.341,0,0,1,.356.327.388.388,0,0,1-.409.4A.338.338,0,0,1,1111.387,1162.021Z" transform="translate(-1038.656 -1161.63)" fill="#1b75ba"/>
          <path id="Path_28686" data-name="Path 28686" d="M1151.027,1178.2a2.051,2.051,0,0,1-.035.362l-.345,1.734h-.561l.344-1.734a1.438,1.438,0,0,0,.029-.257c0-.4-.234-.631-.718-.631a1.091,1.091,0,0,0-1.144.987l-.327,1.635h-.561l.613-3.095h.537l-.076.4a1.519,1.519,0,0,1,1.121-.426A.983.983,0,0,1,1151.027,1178.2Z" transform="translate(-1072.597 -1175.874)" fill="#1b75ba"/>
          <path id="Path_28687" data-name="Path 28687" d="M1214.226,1177.2l-.531,2.674a1.7,1.7,0,0,1-1.851,1.588,2.173,2.173,0,0,1-1.413-.438l.309-.432a1.72,1.72,0,0,0,1.144.374,1.107,1.107,0,0,0,1.232-1l.047-.222a1.576,1.576,0,0,1-1.121.426,1.241,1.241,0,0,1-1.378-1.261,1.7,1.7,0,0,1,1.763-1.734,1.214,1.214,0,0,1,1.156.6l.111-.566Zm-.858,1.261c0-.5-.339-.8-.923-.8a1.17,1.17,0,0,0-1.214,1.209c0,.5.344.806.923.806A1.171,1.171,0,0,0,1213.367,1178.46Z" transform="translate(-1130.085 -1175.874)" fill="#1b75ba"/>
        </g>
      </g>
      <g id="iconic" transform="translate(23.787)">
        <g id="Group_5552" data-name="Group 5552">
          <g id="Group_5549" data-name="Group 5549" transform="translate(0)">
            <path id="Path_28688" data-name="Path 28688" d="M336.677,222.481a32.52,32.52,0,0,1-51.517-17.643l2.3-19.528h44.827l1.1,9.341Z" transform="translate(-285.16 -169.852)" fill="url(#linear-gradient)"/>
            <g id="Group_5548" data-name="Group 5548" transform="translate(8.308)">
              <path id="Path_28689" data-name="Path 28689" d="M721.326,214.2a2.588,2.588,0,1,1-2.589-2.588A2.587,2.587,0,0,1,721.326,214.2Z" transform="translate(-688.507 -193.958)" fill="#fff"/>
              <path id="Path_28690" data-name="Path 28690" d="M389.936,214.2a2.588,2.588,0,1,1-2.588-2.588A2.587,2.587,0,0,1,389.936,214.2Z" transform="translate(-384.76 -193.958)" fill="#fff"/>
              <path id="Path_28691" data-name="Path 28691" d="M430.859,15.081v5.158a1.259,1.259,0,1,1-2.517,0V15.081a12.561,12.561,0,1,0-25.122,0v5.158a1.26,1.26,0,1,1-2.519,0V15.081A15.079,15.079,0,0,1,429.728,9.35a14.944,14.944,0,0,1,.786,2.512A15.11,15.11,0,0,1,430.859,15.081Z" transform="translate(-399.37)" fill="#12395e"/>
            </g>
          </g>
          <g id="Group_5551" data-name="Group 5551" transform="translate(13.367 9.34)">
            <path id="Path_28692" data-name="Path 28692" d="M494.944,308.017a32.524,32.524,0,0,1-49.534,18.44l3.442-29.167h44.826l1.266,10.727Z" transform="translate(-445.41 -281.832)" fill="url(#linear-gradient-2)"/>
            <g id="Group_5550" data-name="Group 5550" transform="translate(9.444)">
              <path id="Path_28693" data-name="Path 28693" d="M895.187,326.178a2.588,2.588,0,1,1-2.588-2.588A2.588,2.588,0,0,1,895.187,326.178Z" transform="translate(-862.368 -305.938)" fill="#fff"/>
              <path id="Path_28694" data-name="Path 28694" d="M563.806,326.178a2.588,2.588,0,1,1-2.588-2.588A2.587,2.587,0,0,1,563.806,326.178Z" transform="translate(-558.63 -305.938)" fill="#fff"/>
              <path id="Path_28695" data-name="Path 28695" d="M604.731,127.051v5.16a1.26,1.26,0,0,1-2.521,0v-5.16a12.574,12.574,0,0,0-12.33-12.559l-.23,0a12.577,12.577,0,0,0-12.561,12.562v5.16a1.26,1.26,0,0,1-2.519,0v-5.16a15.072,15.072,0,0,1,14.524-15.071q.276-.01.556-.01A15.1,15.1,0,0,1,604.731,127.051Z" transform="translate(-573.24 -111.97)" fill="#12395e"/>
            </g>
          </g>
          <path id="Path_28696" data-name="Path 28696" d="M346.795,24.8h-7.332v-.378A15.1,15.1,0,0,0,324.381,9.34q-.279,0-.556.01A15.079,15.079,0,0,0,294.8,15.081v.377h-7.333l-2.3,19.528a32.522,32.522,0,0,0,62.9.541L346.795,24.8Zm-31.2-9.341a12.54,12.54,0,0,1,6.485-3.386,12.514,12.514,0,0,1,.365,3.009v.377H315.59Zm-18.273-.377a12.56,12.56,0,0,1,23.9-5.406,15.111,15.111,0,0,0-8.955,5.783H297.317Zm34.974.377h-7.335v-.377a15.108,15.108,0,0,0-.345-3.219,12.574,12.574,0,0,1,12.33,12.559V24.8h-3.548Z" transform="translate(-285.16)" fill="none"/>
        </g>
        <g id="Group_5553" data-name="Group 5553" transform="translate(26.152 41.76)">
          <path id="Path_28697" data-name="Path 28697" d="M602.03,511.393a.861.861,0,0,1-.244-.682l.006-2.319a4.034,4.034,0,0,0-.456.021,3.591,3.591,0,0,1-.413.021,6.873,6.873,0,0,1-1.181-.083,1.426,1.426,0,0,1-.681-.284.952.952,0,0,1-.31-.559,4.681,4.681,0,0,1-.07-.906,5.453,5.453,0,0,1,.162-1.079,1.224,1.224,0,0,1,.436-.658,2.3,2.3,0,0,1,.914-.375,13.14,13.14,0,0,1,1.609-.214l0-1.29a7.176,7.176,0,0,1,.083-1.189,1.328,1.328,0,0,1,.335-.724,1.353,1.353,0,0,1,.726-.354,6.648,6.648,0,0,1,1.254-.091,6.477,6.477,0,0,1,.79.045,1.534,1.534,0,0,1,.6.19.989.989,0,0,1,.383.414,1.587,1.587,0,0,1,.136.718,1.484,1.484,0,0,1-.445,1.173,1.786,1.786,0,0,1-1.225.389.906.906,0,0,1-.3-.052c-.1-.034-.193-.066-.289-.1v-.289a1.054,1.054,0,0,0,.32.117,1.454,1.454,0,0,0,.261.029c.164,0,.283-.118.356-.354a3.2,3.2,0,0,0,.111-.92,1.884,1.884,0,0,0-.164-.957.6.6,0,0,0-.529-.248.522.522,0,0,0-.319.086.549.549,0,0,0-.174.319,3.262,3.262,0,0,0-.074.652q-.016.42-.017,1.073l0,1.362q.579,0,.993.017c.275.01.512.026.71.045a2.635,2.635,0,0,1,.507.1,2.574,2.574,0,0,1,.384.153,1.046,1.046,0,0,1,.506.559,3.055,3.055,0,0,1,.143,1.066,2.382,2.382,0,0,1-.191,1.036,1.268,1.268,0,0,1-.6.586,2.815,2.815,0,0,1-.42.194,3.5,3.5,0,0,1-.508.137,6.588,6.588,0,0,1-.667.093l-.87.078-.006,2.334q0,.942-.887.94a.986.986,0,0,1-.681-.219Zm-.23-6.958a1.15,1.15,0,0,0-1.044.483,3.151,3.151,0,0,0-.264,1.485,2.687,2.687,0,0,0,.272,1.392,1.122,1.122,0,0,0,1.028.437Zm1.8,3.7a1.993,1.993,0,0,0,.674-.093.793.793,0,0,0,.4-.318,1.421,1.421,0,0,0,.19-.608,8.734,8.734,0,0,0,.046-.949,2.331,2.331,0,0,0-.287-1.363.791.791,0,0,0-.355-.262,1.923,1.923,0,0,0-.659-.088l-.008,3.681Z" transform="translate(-598.68 -500.629)" fill="#fff"/>
          <path id="Path_28698" data-name="Path 28698" d="M717.414,522.933l.7,0,0-1.521,1.044,0a.61.61,0,0,1,.246.058.834.834,0,0,1,.246.174,1.039,1.039,0,0,1,.2.283.889.889,0,0,1,.079.385.872.872,0,0,1-.263.667.761.761,0,0,1-.508.245l-4.942-.012a1.539,1.539,0,0,1-1.144-.365,1.784,1.784,0,0,1-.345-1.247l.013-5.508a8.882,8.882,0,0,1,.105-1.522,1.336,1.336,0,0,1,.437-.825,1.792,1.792,0,0,1,.972-.339q.638-.064,1.711-.061l2.914.007a1.99,1.99,0,0,1,.471.052.692.692,0,0,1,.347.2.947.947,0,0,1,.209.406,2.555,2.555,0,0,1,.071.667,5.6,5.6,0,0,1-.053.841.861.861,0,0,1-.226.492.936.936,0,0,1-.522.231,5.86,5.86,0,0,1-.928.056,4.5,4.5,0,0,1-.855-.068,1.123,1.123,0,0,1-.514-.219.8.8,0,0,1-.253-.414,2.384,2.384,0,0,1-.071-.638l0-1.058a.31.31,0,0,0-.087-.2.479.479,0,0,0-.362-.1h-.261a2.04,2.04,0,0,0-.667.085.723.723,0,0,0-.392.339,1.822,1.822,0,0,0-.19.717q-.045.464-.047,1.218l-.013,5.218c0,.339.006.618.02.841a1.264,1.264,0,0,0,.129.53.62.62,0,0,0,.355.284,2.124,2.124,0,0,0,.681.088l.007-2.928a.866.866,0,0,0-.165-.638.488.488,0,0,0-.3-.146,1.173,1.173,0,0,0-.283.043.93.93,0,0,0-.37.231v-.246a2.3,2.3,0,0,1,.632-.4,2.023,2.023,0,0,1,.8-.15,2.472,2.472,0,0,1,.558.059,1.024,1.024,0,0,1,.435.211,1,1,0,0,1,.282.435,2.18,2.18,0,0,1,.1.717l-.007,2.826Zm1.339-8.65a1.182,1.182,0,0,0-.1-.485.414.414,0,0,0-.42-.226q-.3,0-.37.231a1.813,1.813,0,0,0-.067.493l0,.928c0,.107,0,.21.014.312a1.115,1.115,0,0,0,.058.275.434.434,0,0,0,.13.2.378.378,0,0,0,.246.073.394.394,0,0,0,.406-.253,1.57,1.57,0,0,0,.1-.586l0-.957Z" transform="translate(-703.207 -512.288)" fill="#fff"/>
          <path id="Path_28699" data-name="Path 28699" d="M817.131,513.539l0,1.13a.755.755,0,0,1-.277.651,1.493,1.493,0,0,1-1.515-.011.767.767,0,0,1-.281-.66l0-.9-.522,0a6.086,6.086,0,0,0-.862.048,1.014,1.014,0,0,0-.508.2.782.782,0,0,0-.248.441,3.537,3.537,0,0,0-.067.753l-.005,2.145a4.546,4.546,0,0,0,.042.688,1.058,1.058,0,0,0,.144.42.558.558,0,0,0,.274.218,1.25,1.25,0,0,0,.435.066l2.3.006a1.212,1.212,0,0,1,.515.088q.181.088.18.42l-.008,3.1a1.169,1.169,0,0,1-.219.84.923.923,0,0,1-.652.2.939.939,0,0,1-.695-.234,1.182,1.182,0,0,1-.23-.841l.007-2.769c0-.29-.153-.435-.463-.436l-2.406-.006a.954.954,0,0,1-.8-.328,1.848,1.848,0,0,1-.251-1.109l0-1.652a8.008,8.008,0,0,1,.09-1.319,1.274,1.274,0,0,1,.379-.752,1.567,1.567,0,0,1,.842-.339,10.744,10.744,0,0,1,1.479-.076l3.319.008Z" transform="translate(-793.307 -512.453)" fill="#fff"/>
        </g>
      </g>
    </g>
  </g>
</svg>
